<?xml version="1.0" encoding="UTF-8" standalone="no"?>
<svg
   width="2754.1904"
   height="719.99988"
   viewBox="0 0 728.71287 190.49996"
   version="1.1"
   id="svg8"
   inkscape:version="1.1 (c68e22c387, 2021-05-23)"
   sodipodi:docname="Logotipo_de_Televisa.svg"
   xmlns:inkscape="http://www.inkscape.org/namespaces/inkscape"
   xmlns:sodipodi="http://sodipodi.sourceforge.net/DTD/sodipodi-0.dtd"
   xmlns="http://www.w3.org/2000/svg"
   xmlns:svg="http://www.w3.org/2000/svg"
   xmlns:rdf="http://www.w3.org/1999/02/22-rdf-syntax-ns#"
   xmlns:cc="http://creativecommons.org/ns#"
   xmlns:dc="http://purl.org/dc/elements/1.1/">
  <title
     id="title11">Televisa logo</title>
  <defs
     id="defs2" />
  <sodipodi:namedview
     id="base"
     pagecolor="#ffffff"
     bordercolor="#666666"
     borderopacity="1.0"
     inkscape:pageopacity="0.0"
     inkscape:pageshadow="2"
     inkscape:zoom="0.35"
     inkscape:cx="1398.5714"
     inkscape:cy="487.14286"
     inkscape:document-units="px"
     inkscape:current-layer="layer1"
     inkscape:document-rotation="0"
     showgrid="false"
     units="px"
     inkscape:showpageshadow="false"
     inkscape:window-width="1920"
     inkscape:window-height="1017"
     inkscape:window-x="1912"
     inkscape:window-y="-8"
     inkscape:window-maximized="1"
     inkscape:pagecheckerboard="0"
     fit-margin-top="0"
     fit-margin-left="0"
     fit-margin-right="0"
     fit-margin-bottom="0" />
  <metadata
     id="metadata5">
    <rdf:RDF>
      <cc:Work
         rdf:about="">
        <dc:format>image/svg+xml</dc:format>
        <dc:type
           rdf:resource="http://purl.org/dc/dcmitype/StillImage" />
        <dc:title>Televisa logo</dc:title>
        <cc:license
           rdf:resource="http://scripts.sil.org/OFL" />
        <dc:date>22 feb 2021</dc:date>
      </cc:Work>
      <cc:License
         rdf:about="http://scripts.sil.org/OFL">
        <cc:permits
           rdf:resource="http://scripts.sil.org/pub/OFL/Reproduction" />
        <cc:permits
           rdf:resource="http://scripts.sil.org/pub/OFL/Distribution" />
        <cc:permits
           rdf:resource="http://scripts.sil.org/pub/OFL/Embedding" />
        <cc:permits
           rdf:resource="http://scripts.sil.org/pub/OFL/DerivativeWorks" />
        <cc:requires
           rdf:resource="http://scripts.sil.org/pub/OFL/Notice" />
        <cc:requires
           rdf:resource="http://scripts.sil.org/pub/OFL/Attribution" />
        <cc:requires
           rdf:resource="http://scripts.sil.org/pub/OFL/ShareAlike" />
        <cc:requires
           rdf:resource="http://scripts.sil.org/pub/OFL/DerivativeRenaming" />
        <cc:requires
           rdf:resource="http://scripts.sil.org/pub/OFL/BundlingWhenSelling" />
      </cc:License>
    </rdf:RDF>
  </metadata>
  <g
     inkscape:label="Capa 1"
     inkscape:groupmode="layer"
     id="layer1"
     transform="translate(-0.20478849,17.531649)">
    <path
       id="rect27108"
       style="opacity:1;fill:#000000;fill-opacity:1;stroke:none;stroke-width:17.946;stroke-miterlimit:4;stroke-dasharray:none"
       d="m 365.37956,19.815603 c -2.73802,0 -5.14354,0.534635 -7.22303,1.60141 -2.07953,1.051017 -3.69114,2.539572 -4.83486,4.468861 -1.12637,1.929318 -1.69123,4.164508 -1.69123,6.70554 v 10.093607 c 0,2.399874 0.57187,4.511051 1.71559,6.330565 1.16113,1.8195 2.79165,3.231196 4.88848,4.235073 2.11416,0.988076 4.54565,1.482274 7.301,1.482274 2.73801,0 5.14841,-0.523975 7.2279,-1.574919 2.0795,-1.066643 3.68408,-2.566033 4.81048,-4.495367 1.14375,-1.944988 1.71559,-4.186559 1.71559,-6.727577 v -6.683488 h -13.10087 v 6.211458 h 5.717 v 0.564719 c 0,1.239111 -0.25994,2.315071 -0.77983,3.224829 -0.51989,0.909801 -1.26657,1.604827 -2.23707,2.091067 -0.95318,0.470526 -2.07085,0.705789 -3.35321,0.705789 -1.29972,0 -2.44342,-0.218031 -3.43118,-0.657305 -0.98778,-0.439275 -1.74863,-1.068104 -2.28585,-1.883712 -0.53726,-0.815608 -0.80422,-1.756763 -0.80422,-2.823377 V 32.591429 c 0,-1.207714 0.25995,-2.272911 0.77983,-3.198367 0.53712,-0.925427 1.27898,-1.637657 2.23221,-2.139581 0.97041,-0.501923 2.08815,-0.754419 3.35321,-0.754419 0.86643,0 1.69825,0.141655 2.4954,0.423503 0.81444,0.266661 1.5163,0.666652 2.10549,1.199974 0.60649,0.517695 1.04124,1.135718 1.30133,1.857264 h 7.6958 c -0.45052,-2.023424 -1.3203,-3.800778 -2.60264,-5.337976 -1.26511,-1.53717 -2.85064,-2.724365 -4.75686,-3.555687 -1.90621,-0.847005 -3.98573,-1.270508 -6.2385,-1.270508 z m 134.5959,0 c -2.738,0 -5.15546,0.528356 -7.25226,1.579344 -2.07953,1.0351 -3.69114,2.506728 -4.83487,4.420363 -1.14375,1.897935 -1.71558,4.103217 -1.71558,6.612895 v 9.692141 c 0,2.509678 0.57187,4.721327 1.71558,6.634961 1.14375,1.897935 2.75534,3.373843 4.83487,4.424773 2.0968,1.035099 4.51426,1.552853 7.25226,1.552853 2.73801,0 5.1484,-0.517695 7.22788,-1.552853 2.09684,-1.051018 3.7155,-2.526838 4.85923,-4.424773 1.14375,-1.913634 1.7156,-4.125283 1.7156,-6.634961 v -9.692141 c 0,-2.509678 -0.57188,-4.71496 -1.7156,-6.612895 -1.1436,-1.913635 -2.76239,-3.385132 -4.85923,-4.420363 -2.07948,-1.051017 -4.48987,-1.579344 -7.22788,-1.579344 z m -113.66764,0.330916 v 34.233549 h 7.12066 v -13.76399 h 4.31822 l 8.52436,13.76399 h 8.62669 L 405.86163,40.27196 c 0.87563,-0.211459 1.69902,-0.516966 2.4613,-0.926303 1.59428,-0.847006 2.82301,-2.040597 3.6895,-3.577782 0.86643,-1.552853 1.30132,-3.347366 1.30132,-5.386474 0,-2.039108 -0.43489,-3.827254 -1.30132,-5.364438 -0.86658,-1.552854 -2.08818,-2.752798 -3.66513,-3.599804 -1.57696,-0.847006 -3.40357,-1.270509 -5.48308,-1.270509 h -9.43574 z m 33.14209,0.02191 v 21.837109 c 0,2.682233 0.53391,4.977195 1.60836,6.89083 1.07439,1.89795 2.64596,3.350316 4.70814,4.354193 2.06216,0.988076 4.54565,1.482275 7.45695,1.482275 2.91131,0 5.39968,-0.494038 7.46185,-1.482275 2.0795,-1.003994 3.65808,-2.456243 4.73251,-4.354193 1.09162,-1.913635 1.63761,-4.208597 1.63761,-6.89083 V 20.168424 h -7.12555 v 22.000347 c 0,1.960687 -0.58589,3.483647 -1.76433,4.565945 -1.16113,1.082269 -2.81061,1.623447 -4.94209,1.623447 -2.11414,0 -3.75178,-0.541207 -4.91282,-1.623447 -1.16113,-1.082269 -1.73995,-2.605258 -1.73995,-4.565945 V 20.168424 Z m 34.88204,0 v 34.211483 h 7.1207 V 41.109999 h 8.03208 c 2.35675,0 4.42921,-0.429928 6.21413,-1.29256 1.80223,-0.862777 3.19887,-2.079779 4.18664,-3.648331 0.98763,-1.584237 1.48166,-3.419435 1.48166,-5.505611 0,-2.086146 -0.49389,-3.921359 -1.48166,-5.505595 -0.98779,-1.584222 -2.38441,-2.807693 -4.18664,-3.670383 -1.78492,-0.878403 -3.85738,-1.318992 -6.21413,-1.318992 h -8.03208 z m 45.64351,6.096748 c 1.28234,0 2.41201,0.248114 3.38245,0.750038 0.97041,0.486298 1.71232,1.185662 2.23221,2.095478 0.53712,0.909801 0.80904,1.962162 0.80904,3.154249 V 42.28797 c 0,1.192088 -0.27192,2.240053 -0.80904,3.149839 -0.51989,0.909801 -1.26175,1.615591 -2.23221,2.117529 -0.97041,0.486299 -2.10009,0.732368 -3.38245,0.732368 -1.28233,0 -2.40714,-0.246069 -3.37758,-0.732368 -0.9704,-0.501924 -1.72425,-1.207713 -2.26146,-2.117529 -0.51988,-0.909801 -0.77983,-1.957751 -0.77983,-3.149839 V 32.264937 c 0,-1.192087 0.25995,-2.244492 0.77983,-3.154249 0.53727,-0.909801 1.2911,-1.609224 2.26146,-2.095478 0.97041,-0.501924 2.09522,-0.750038 3.37758,-0.750038 z m -106.54698,0.092 h 8.86553 c 0.74508,0 1.39508,0.164728 1.94952,0.494038 0.5545,0.329456 0.97741,0.799982 1.27197,1.411725 0.31208,0.611743 0.4679,1.317532 0.4679,2.117544 -0.0175,0.799982 -0.18036,1.505815 -0.49229,2.117543 -0.29455,0.611743 -0.72244,1.082269 -1.27693,1.411725 -0.5545,0.329456 -1.19238,0.494038 -1.92028,0.494038 h -8.86554 z m 68.02417,0.02191 h 8.21728 c 0.86643,0 1.62028,0.181961 2.26147,0.542668 0.65847,0.345082 1.15937,0.8454 1.506,1.504326 0.36392,0.643287 0.54588,1.389674 0.54588,2.236665 0,0.831234 -0.18196,1.567063 -0.54588,2.210174 -0.36392,0.64314 -0.87665,1.147985 -1.53524,1.508751 -0.6411,0.345082 -1.38325,0.516235 -2.23223,0.516235 h -8.21728 z" />
    <path
       id="path2"
       style="fill:#000000;fill-opacity:1;stroke-width:4.9372"
       d="m 146.90662,-17.531627 c -16.08787,0.548071 -32.13694,2.928975 -47.601966,7.403955 l 106.316436,-0.0036 c -15.37707,-4.495936 -31.35227,-6.848859 -47.35921,-7.400377 z m 66.54512,19.8904992 c -8.28276,0.00391 -16.56616,0.018985 -24.84761,0.020445 4.95796,2.3840875 9.67686,5.2285374 14.11757,8.4608718 3.98325,0.185027 7.99804,0.02044 11.99185,0.0774 13.11449,0 26.22901,-0.0035 39.34347,0 -5.12686,-3.0578076 -10.34892,-5.9867536 -15.76079,-8.5104803 -8.2797,-0.045271 -16.56174,-0.052573 -24.84449,-0.049652 z m -97.01057,0.020445 -49.692091,0.027747 C 61.337205,4.930849 56.115147,7.859795 50.988285,10.917603 l 51.335335,-0.0774 c 4.4407,-3.232291 9.1596,-6.0767262 14.11755,-8.4608284 z M 34.879054,21.651122 c -5.432995,4.052631 -10.584488,8.485377 -15.306686,13.337377 l 60.811806,0.02045 c 2.881881,-4.747278 6.200117,-9.239796 9.968729,-13.33431 z m 207.550016,0 c -9.24558,-0.0024 -18.49106,-0.0011 -27.73667,0.02483 3.76862,4.094528 7.08687,8.587046 9.96875,13.334309 20.27166,-0.02775 40.54361,0.01606 60.8118,-0.02045 -4.72222,-4.851999 -9.87369,-9.284746 -15.30669,-13.337376 -9.24558,0.0087 -18.49159,0.0014 -27.73719,-0.0011 z M 11.933456,44.064501 C 7.6862916,49.848485 4.2764482,56.288386 2.2848228,63.182385 H 69.831449 C 70.996169,56.613009 72.966363,50.1905 75.665268,44.08188 53.825782,44.07588 31.397498,44.0698 11.933456,44.06582 Z m 281.178394,10e-4 c -21.24286,0.03505 -42.48895,-7.3e-5 -63.73181,0.01606 2.69891,6.108635 4.66912,12.531129 5.83382,19.100506 22.51666,0.01396 45.03349,0.01047 67.54664,0 -1.99165,-6.89397 -5.40148,-13.333872 -9.64865,-19.117855 z M 0.59931505,71.389141 c -0.84099057,6.729943 -0.33412333,13.620466 1.48860405,20.15843 0,0 66.8501489,0.379255 67.6131229,0.01024 C 68.596138,84.901176 68.25846,78.122676 68.772198,71.392719 Z M 304.446,71.390192 c -22.72428,0.01047 -45.44864,8.8e-5 -68.17288,0.0036 0.51375,6.729957 0.17611,13.508442 -0.92894,20.165075 22.53779,-0.02044 45.07537,0.0037 67.61316,-0.01022 1.8227,-6.537965 2.32959,-13.428488 1.48858,-20.158431 z M 71.101506,98.25919 4.4486614,98.269941 c 3.2020948,7.588639 8.0478396,14.392029 13.5969526,20.465739 0.341314,0.31766 0.612123,0.88299 1.171614,0.82017 0,0 40.462343,0.007 60.695321,0.004 -3.884739,-6.66657 -6.872191,-13.84017 -8.811043,-21.299665 z m 162.842304,10e-4 c -1.93887,7.4595 -4.92631,14.63311 -8.81104,21.30023 20.23295,0.003 40.46236,0.007 60.69531,-0.004 0.55961,0.0628 0.83036,-0.5025 1.17164,-0.82016 5.54912,-6.07372 10.39481,-12.8771 13.59691,-20.465748 -22.21759,-0.0035 -44.43525,0.01368 -66.65281,-0.01075 z m 17.00456,26.97439 c -9.82003,0.002 -19.64043,0.005 -29.46136,0.002 -7.35777,10.48237 -17.15745,19.2402 -28.39642,25.4675 16.36229,0.035 32.72831,-7e-5 49.09417,0.0168 0.59466,0.0629 1.10856,-0.24744 1.60817,-0.50928 13.0582,-6.96731 25.6588,-14.99962 36.61628,-24.96539 -9.82091,-0.0125 -19.6408,-0.0132 -29.46084,-0.0117 z m -167.390077,7e-4 -58.922182,0.0102 c 10.957472,9.96577 23.518893,18.46593 36.577082,25.43325 l 50.741537,0.0238 C 100.71575,144.476 90.916058,135.71817 83.558293,125.23579 Z m 34.112217,28.60396 c -0.0882,2.6e-4 -0.17661,0.004 -0.26549,0.0123 l -48.791098,0.0378 c 12.667603,6.01087 25.958069,10.74767 39.628518,13.95555 16.34122,3.84668 33.19927,5.53971 49.98384,5.03705 27.1333,-0.69108 54.0239,-7.35842 78.46531,-19.01715 l -49.28024,-0.0102 c -0.68622,-0.0448 -1.29854,0.29685 -1.91075,0.5482 -20.80304,8.93255 -45.28677,8.89048 -66.06163,-0.10777 -0.55422,-0.28103 -1.15167,-0.45792 -1.7685,-0.45554 z" />
    <path
       id="path60"
       style="fill:#000000;fill-opacity:1;stroke-width:5.15178"
       d="M 458.05749,87.572354 V 151.7561 h 17.92419 V 87.572354 Z m 140.04124,0 v 12.405264 h 17.83255 V 87.572354 Z m -248.73659,0.0068 v 15.274816 h 18.02658 v 48.90208 h 19.96347 V 102.854 h 17.89687 V 87.579189 Z m 74.20342,17.051416 c -4.12946,-0.0482 -8.24983,0.62723 -11.98858,2.41606 -5.46249,2.50625 -9.77268,7.23068 -11.82888,12.78609 -1.69034,4.37242 -1.95017,9.18739 -1.24772,13.78631 0.8562,5.49788 3.8162,10.71863 8.38595,14.05549 4.78196,3.62087 10.89571,5.0771 16.8448,5.2461 h 1.27723 c 4.98685,-0.19057 10.05767,-1.21881 14.36765,-3.78972 4.20023,-2.41995 7.45996,-6.32865 9.04785,-10.85566 -5.56493,-0.0143 -11.12596,-0.007 -16.68722,-0.003 -2.76967,3.57056 -8.40797,4.2538 -12.27158,2.09634 -2.73307,-1.56412 -3.99523,-4.71087 -4.28061,-7.67375 11.40791,-0.004 22.81603,0.004 34.22394,-0.003 -0.11683,-6.41479 -0.97362,-13.14642 -4.67988,-18.60475 -3.09528,-4.65647 -8.31985,-7.60861 -13.80063,-8.67294 -2.40379,-0.4652 -4.88461,-0.75435 -7.36231,-0.78323 z m 86.78155,0.004 c -4.12946,-0.0482 -8.24982,0.62722 -11.98858,2.41605 -5.46249,2.50622 -9.77268,7.23069 -11.82889,12.78608 -1.69033,4.3724 -1.95016,9.1874 -1.24772,13.78632 0.8562,5.49788 3.81619,10.71864 8.38595,14.05546 4.78196,3.62091 10.89571,5.07713 16.8448,5.24614 h 1.27664 c 4.98685,-0.19058 10.05821,-1.21882 14.3682,-3.78976 4.20023,-2.41992 7.45996,-6.32862 9.04785,-10.85566 -5.56493,-0.0143 -11.12651,-0.007 -16.68777,-0.004 -2.76967,3.57056 -8.40742,4.25376 -12.27104,2.09634 -2.73307,-1.56415 -3.99522,-4.71036 -4.28061,-7.67323 11.40793,-0.004 22.81551,0.004 34.22342,-0.004 -0.11683,-6.41478 -0.97304,-13.14588 -4.67936,-18.60419 -3.09528,-4.65648 -8.31985,-7.60861 -13.80061,-8.67296 -2.40379,-0.46527 -4.88463,-0.75442 -7.36231,-0.78318 z m 137.0453,0 c -2.49138,0.0161 -4.9813,0.23891 -7.43036,0.6684 -4.06852,0.7515 -8.19548,2.2258 -11.1627,5.16712 -3.9624,3.93732 -4.60618,10.65752 -1.68287,15.34278 1.67571,2.50979 4.38283,4.14965 7.16348,5.25714 4.19289,1.71517 8.7113,2.38368 13.14569,3.20351 1.89156,0.41343 3.90035,0.69805 5.55776,1.75872 1.17806,0.71557 1.46339,2.29362 1.00968,3.50898 -0.53419,1.06081 -1.65743,1.67951 -2.76602,2.0247 -2.05983,0.60765 -4.32785,0.62167 -6.35845,-0.0978 -2.01596,-0.78026 -3.29691,-2.75418 -3.60426,-4.80735 h -17.04575 c 0.10222,3.81507 1.59868,7.64103 4.48906,10.25151 4.89906,4.44792 11.81026,5.78902 18.27524,6.01198 h 1.3758 c 5.94544,-0.21935 12.2424,-1.00663 17.21463,-4.49451 2.63426,-1.84462 4.60598,-4.60241 5.32672,-7.71273 0.8232,-3.52741 0.68797,-7.48299 -1.28409,-10.63284 -1.8477,-2.94132 -5.04557,-4.7608 -8.27988,-5.89345 -4.55876,-1.65403 -9.40656,-2.21122 -14.14095,-3.14609 -1.48546,-0.35954 -3.14277,-0.67235 -4.21844,-1.82298 -1.05364,-1.39872 -0.18663,-3.5598 1.39406,-4.17108 2.50256,-0.96368 5.64538,-0.87358 7.72354,0.96384 1.05364,0.75865 1.56234,1.97717 1.81845,3.19613 l 16.21185,-0.003 c -0.13582,-2.7795 -0.92178,-5.59527 -2.7146,-7.79227 -2.54648,-3.21817 -6.54211,-4.90823 -10.48254,-5.81074 -3.12615,-0.66738 -6.33182,-0.99027 -9.53504,-0.97026 z m 57.62549,0.0111 c -4.08489,-0.0234 -8.19193,0.21774 -12.16165,1.19296 -3.32944,0.83065 -6.6403,2.27995 -8.938,4.86529 -2.305,2.43429 -3.25638,5.79971 -3.38073,9.05744 l 16.55911,-0.0111 c 0.23424,-1.08227 0.46483,-2.25406 1.33564,-3.03074 1.50375,-1.44195 3.75373,-1.69011 5.75878,-1.64335 1.55123,0.0832 3.21951,0.45651 4.34273,1.58909 1.37931,1.36631 1.46006,3.90874 -0.054,5.21399 -1.22203,1.00326 -2.85746,1.24378 -4.36852,1.52064 -5.08928,0.80903 -10.2922,1.11469 -15.22788,2.65729 -2.6379,0.84496 -5.24986,2.04994 -7.18166,4.05995 -1.90254,1.84819 -2.96375,4.40818 -3.2162,7.00431 -0.44278,3.9481 0.46089,8.25556 3.3293,11.19327 3.25626,3.34043 8.11891,4.4804 12.67403,4.60984 h 1.0205 c 3.46846,-0.14457 7.02161,-0.59349 10.13153,-2.20433 1.6757,-0.82335 3.09515,-2.05286 4.38673,-3.36889 -0.0219,1.48505 0.16429,2.97386 0.59977,4.40494 l 18.29025,0.003 c -2.23545,-3.52382 -2.15146,-7.79153 -2.22096,-11.78637 l 0.007,-19.06141 c 0.0365,-3.13908 -0.15742,-6.44344 -1.7343,-9.2481 -1.36835,-2.46668 -3.8453,-4.15272 -6.47959,-5.10916 -3.74289,-1.35916 -7.76401,-1.74799 -11.72277,-1.88461 -0.58209,-0.0127 -1.16521,-0.0204 -1.7488,-0.0248 z m -147.03692,1.17514 -18.89372,0.004 15.30073,45.92824 21.12164,0.004 15.48779,-45.93191 -18.294,0.0935 -7.35747,27.8344 z m 40.114,0 v 45.93562 h 17.8363 v -45.93562 z m -174.10066,10.12142 c 1.85348,-0.038 3.70017,0.42963 5.19226,1.55012 1.92448,1.39873 2.93049,3.71825 3.05489,6.02671 -5.64908,0.0108 -11.29434,0.0143 -16.94342,0 0.44628,-2.70039 1.89481,-5.4512 4.52178,-6.6414 1.28701,-0.571 2.7329,-0.90615 4.17449,-0.93536 z m 86.78155,0.004 c 1.85347,-0.038 3.69963,0.42964 5.19172,1.55012 1.92449,1.39873 2.93102,3.71826 3.05543,6.02671 -5.64909,0.0108 -11.29488,0.0143 -16.94396,0 0.44643,-2.70041 1.89535,-5.4512 4.52233,-6.6414 1.28701,-0.571 2.73289,-0.90615 4.17448,-0.93536 z m 198.82656,15.23899 c -0.0803,2.50622 0.31806,5.16737 -0.85271,7.50098 -1.81108,3.97688 -8.00531,5.11672 -11.08229,1.94888 -1.56228,-1.51381 -1.30979,-4.32585 0.44263,-5.58796 1.23663,-0.92412 2.79178,-1.2654 4.26992,-1.62862 2.46598,-0.53215 4.93936,-1.14375 7.22242,-2.23328 z" />
  </g>
</svg>
