<svg xmlns="http://www.w3.org/2000/svg" viewBox="0 0 728.71287 190.49996">
  <path fill="#fff" d="M365.17477151 37.347252c-2.73802 0-5.14354.534635-7.22303 1.60141-2.07953 1.051017-3.69114 2.539572-4.83486 4.468861-1.12637 1.929318-1.69123 4.164508-1.69123 6.70554V60.21667c0 2.399874.57187 4.511051 1.71559 6.330565 1.16113 1.8195 2.79165 3.231196 4.88848 4.235073 2.11416.988076 4.54565 1.482274 7.301 1.482274 2.73801 0 5.14841-.523975 7.2279-1.574919 2.0795-1.066643 3.68408-2.566033 4.81048-4.495367 1.14375-1.944988 1.71559-4.186559 1.71559-6.727577v-6.683488h-13.10087v6.211458h5.717v.564719c0 1.239111-.25994 2.315071-.77983 3.224829-.51989.909801-1.26657 1.604827-2.23707 2.091067-.95318.470526-2.07085.705789-3.35321.705789-1.29972 0-2.44342-.218031-3.43118-.657305-.98778-.439275-1.74863-1.068104-2.28585-1.883712-.53726-.815608-.80422-1.756763-.80422-2.823377V50.123078c0-1.207714.25995-2.272911.77983-3.198367.53712-.925427 1.27898-1.637657 2.23221-2.139581.97041-.501923 2.08815-.754419 3.35321-.754419.86643 0 1.69825.141655 2.4954.423503.81444.266661 1.5163.666652 2.10549 1.199974.60649.517695 1.04124 1.135718 1.30133 1.857264h7.6958c-.45052-2.023424-1.3203-3.800778-2.60264-5.337976-1.26511-1.53717-2.85064-2.724365-4.75686-3.555687-1.90621-.847005-3.98573-1.270508-6.2385-1.270508zm134.5959 0c-2.738 0-5.15546.528356-7.25226 1.579344-2.07953 1.0351-3.69114 2.506728-4.83487 4.420363-1.14375 1.897935-1.71558 4.103217-1.71558 6.612895v9.692141c0 2.509678.57187 4.721327 1.71558 6.634961 1.14375 1.897935 2.75534 3.373843 4.83487 4.424773 2.0968 1.035099 4.51426 1.552853 7.25226 1.552853 2.73801 0 5.1484-.517695 7.22788-1.552853 2.09684-1.051018 3.7155-2.526838 4.85923-4.424773 1.14375-1.913634 1.7156-4.125283 1.7156-6.634961v-9.692141c0-2.509678-.57188-4.71496-1.7156-6.612895-1.1436-1.913635-2.76239-3.385132-4.85923-4.420363-2.07948-1.051017-4.48987-1.579344-7.22788-1.579344zm-113.66764.330916v34.233549h7.12066v-13.76399h4.31822l8.52436 13.76399h8.62669l-9.03612-14.108108c.87563-.211459 1.69902-.516966 2.4613-.926303 1.59428-.847006 2.82301-2.040597 3.6895-3.577782.86643-1.552853 1.30132-3.347366 1.30132-5.386474 0-2.039108-.43489-3.827254-1.30132-5.364438-.86658-1.552854-2.08818-2.752798-3.66513-3.599804-1.57696-.847006-3.40357-1.270509-5.48308-1.270509h-9.43574zm33.14209.02191v21.837109c0 2.682233.53391 4.977195 1.60836 6.89083 1.07439 1.89795 2.64596 3.350316 4.70814 4.354193 2.06216.988076 4.54565 1.482275 7.45695 1.482275 2.91131 0 5.39968-.494038 7.46185-1.482275 2.0795-1.003994 3.65808-2.456243 4.73251-4.354193 1.09162-1.913635 1.63761-4.208597 1.63761-6.89083V37.700073h-7.12555V59.70042c0 1.960687-.58589 3.483647-1.76433 4.565945-1.16113 1.082269-2.81061 1.623447-4.94209 1.623447-2.11414 0-3.75178-.541207-4.91282-1.623447-1.16113-1.082269-1.73995-2.605258-1.73995-4.565945V37.700073Zm34.88204 0v34.211483h7.1207V58.641648h8.03208c2.35675 0 4.42921-.429928 6.21413-1.29256 1.80223-.862777 3.19887-2.079779 4.18664-3.648331.98763-1.584237 1.48166-3.419435 1.48166-5.505611 0-2.086146-.49389-3.921359-1.48166-5.505595-.98779-1.584222-2.38441-2.807693-4.18664-3.670383-1.78492-.878403-3.85738-1.318992-6.21413-1.318992h-8.03208zm45.64351 6.096748c1.28234 0 2.41201.248114 3.38245.750038.97041.486298 1.71232 1.185662 2.23221 2.095478.53712.909801.80904 1.962162.80904 3.154249v10.023028c0 1.192088-.27192 2.240053-.80904 3.149839-.51989.909801-1.26175 1.615591-2.23221 2.117529-.97041.486299-2.10009.732368-3.38245.732368-1.28233 0-2.40714-.246069-3.37758-.732368-.9704-.501924-1.72425-1.207713-2.26146-2.117529-.51988-.909801-.77983-1.957751-.77983-3.149839V49.796586c0-1.192087.25995-2.244492.77983-3.154249.53727-.909801 1.2911-1.609224 2.26146-2.095478.97041-.501924 2.09522-.750038 3.37758-.750038zm-106.54698.092h8.86553c.74508 0 1.39508.164728 1.94952.494038.5545.329456.97741.799982 1.27197 1.411725.31208.611743.4679 1.317532.4679 2.117544-.0175.799982-.18036 1.505815-.49229 2.117543-.29455.611743-.72244 1.082269-1.27693 1.411725-.5545.329456-1.19238.494038-1.92028.494038h-8.86554zm68.02417.02191h8.21728c.86643 0 1.62028.181961 2.26147.542668.65847.345082 1.15937.8454 1.506 1.504326.36392.643287.54588 1.389674.54588 2.236665 0 .831234-.18196 1.567063-.54588 2.210174-.36392.64314-.87665 1.147985-1.53524 1.508751-.6411.345082-1.38325.516235-2.23223.516235h-8.21728zM146.70183151.000022c-16.08787.548071-32.13694 2.928975-47.601966 7.403955l106.316436-.0036c-15.37707-4.495936-31.35227-6.848859-47.35921-7.400377zm66.54512 19.8904992c-8.28276.00391-16.56616.018985-24.84761.020445 4.95796 2.3840875 9.67686 5.2285374 14.11757 8.4608718 3.98325.185027 7.99804.02044 11.99185.0774 13.11449 0 26.22901-.0035 39.34347 0-5.12686-3.0578076-10.34892-5.9867536-15.76079-8.5104803-8.2797-.045271-16.56174-.052573-24.84449-.049652zm-97.01057.020445-49.692091.027747c-5.411874 2.5237848-10.633932 5.4527308-15.760794 8.5105388l51.335335-.0774c4.4407-3.232291 9.1596-6.0767262 14.11755-8.4608284zm-81.562116 19.2718048c-5.432995 4.052631-10.584488 8.485377-15.306686 13.337377l60.811806.02045c2.881881-4.747278 6.200117-9.239796 9.968729-13.33431zm207.550016 0c-9.24558-.0024-18.49106-.0011-27.73667.02483 3.76862 4.094528 7.08687 8.587046 9.96875 13.334309 20.27166-.02775 40.54361.01606 60.8118-.02045-4.72222-4.851999-9.87369-9.284746-15.30669-13.337376-9.24558.0087-18.49159.0014-27.73719-.0011zM11.72866751 61.59615c-4.2471644 5.783984-7.6570078 12.223885-9.6486332 19.117884h67.5466262c1.16472-6.569376 3.134914-12.991885 5.833819-19.100505-21.839486-.006-44.26777-.01208-63.731812-.01606Zm281.178394.001c-21.24286.03505-42.48895-.000073-63.73181.01606 2.69891 6.108635 4.66912 12.531129 5.83382 19.100506 22.51666.01396 45.03349.01047 67.54664 0-1.99165-6.89397-5.40148-13.333872-9.64865-19.117855zM.39452656 88.92079c-.84099057 6.729943-.33412333 13.620466 1.48860405 20.15843 0 0 66.8501489.379255 67.6131229.01024-1.104904-6.656635-1.442582-13.435135-.928844-20.165092Zm303.84668495.001051c-22.72428.01047-45.44864.000088-68.17288.0036.51375 6.729957.17611 13.508442-.92894 20.165075 22.53779-.02044 45.07537.0037 67.61316-.01022 1.8227-6.537965 2.32959-13.428488 1.48858-20.158431zm-233.344494 26.868998-66.6528446.010751c3.2020948 7.588639 8.0478396 14.392029 13.5969526 20.465739.341314.31766.612123.88299 1.171614.82017 0 0 40.462343.007 60.695321.004-3.884739-6.66657-6.872191-13.84017-8.811043-21.299665zm162.842304.001c-1.93887 7.4595-4.92631 14.63311-8.81104 21.30023 20.23295.003 40.46236.007 60.69531-.004.55961.0628.83036-.5025 1.17164-.82016 5.54912-6.07372 10.39481-12.8771 13.59691-20.465748-22.21759-.0035-44.43525.01368-66.65281-.01075zm17.00456 26.97439c-9.82003.002-19.64043.005-29.46136.002-7.35777 10.48237-17.15745 19.2402-28.39642 25.4675 16.36229.035 32.72831-.00007 49.09417.0168.59466.0629 1.10856-.24744 1.60817-.50928 13.0582-6.96731 25.6588-14.99962 36.61628-24.96539-9.82091-.0125-19.6408-.0132-29.46084-.0117zm-167.390077.0007-58.922182.0102c10.957472 9.96577 23.518893 18.46593 36.577082 25.43325l50.741537.0238c-11.23898-6.22653-21.038672-14.98436-28.396437-25.46674Zm34.112217 28.60396c-.0882.00026-.17661.004-.26549.0123l-48.791098.0378c12.667603 6.01087 25.958069 10.74767 39.628518 13.95555 16.34122 3.84668 33.19927 5.53971 49.98384 5.03705 27.1333-.69108 54.0239-7.35842 78.46531-19.01715l-49.28024-.0102c-.68622-.0448-1.29854.29685-1.91075.5482-20.80304 8.93255-45.28677 8.89048-66.06163-.10777-.55422-.28103-1.15167-.45792-1.7685-.45554zm340.38698-66.266886v64.183746h17.92419v-64.183746Zm140.04124 0v12.405264h17.83255v-12.405264Zm-248.73659.0068v15.274816h18.02658v48.90208h19.96347v-48.90205h17.89687v-15.274811Zm74.20342 17.051416c-4.12946-.0482-8.24983.62723-11.98858 2.41606-5.46249 2.50625-9.77268 7.23068-11.82888 12.78609-1.69034 4.37242-1.95017 9.18739-1.24772 13.78631.8562 5.49788 3.8162 10.71863 8.38595 14.05549 4.78196 3.62087 10.89571 5.0771 16.8448 5.2461h1.27723c4.98685-.19057 10.05767-1.21881 14.36765-3.78972 4.20023-2.41995 7.45996-6.32865 9.04785-10.85566-5.56493-.0143-11.12596-.007-16.68722-.003-2.76967 3.57056-8.40797 4.2538-12.27158 2.09634-2.73307-1.56412-3.99523-4.71087-4.28061-7.67375 11.40791-.004 22.81603.004 34.22394-.003-.11683-6.41479-.97362-13.14642-4.67988-18.60475-3.09528-4.65647-8.31985-7.60861-13.80063-8.67294-2.40379-.4652-4.88461-.75435-7.36231-.78323zm86.78155.004c-4.12946-.0482-8.24982.62722-11.98858 2.41605-5.46249 2.50622-9.77268 7.23069-11.82889 12.78608-1.69033 4.3724-1.95016 9.1874-1.24772 13.78632.8562 5.49788 3.81619 10.71864 8.38595 14.05546 4.78196 3.62091 10.89571 5.07713 16.8448 5.24614h1.27664c4.98685-.19058 10.05821-1.21882 14.3682-3.78976 4.20023-2.41992 7.45996-6.32862 9.04785-10.85566-5.56493-.0143-11.12651-.007-16.68777-.004-2.76967 3.57056-8.40742 4.25376-12.27104 2.09634-2.73307-1.56415-3.99522-4.71036-4.28061-7.67323 11.40793-.004 22.81551.004 34.22342-.004-.11683-6.41478-.97304-13.14588-4.67936-18.60419-3.09528-4.65648-8.31985-7.60861-13.80061-8.67296-2.40379-.46527-4.88463-.75442-7.36231-.78318zm137.0453 0c-2.49138.0161-4.9813.23891-7.43036.6684-4.06852.7515-8.19548 2.2258-11.1627 5.16712-3.9624 3.93732-4.60618 10.65752-1.68287 15.34278 1.67571 2.50979 4.38283 4.14965 7.16348 5.25714 4.19289 1.71517 8.7113 2.38368 13.14569 3.20351 1.89156.41343 3.90035.69805 5.55776 1.75872 1.17806.71557 1.46339 2.29362 1.00968 3.50898-.53419 1.06081-1.65743 1.67951-2.76602 2.0247-2.05983.60765-4.32785.62167-6.35845-.0978-2.01596-.78026-3.29691-2.75418-3.60426-4.80735h-17.04575c.10222 3.81507 1.59868 7.64103 4.48906 10.25151 4.89906 4.44792 11.81026 5.78902 18.27524 6.01198h1.3758c5.94544-.21935 12.2424-1.00663 17.21463-4.49451 2.63426-1.84462 4.60598-4.60241 5.32672-7.71273.8232-3.52741.68797-7.48299-1.28409-10.63284-1.8477-2.94132-5.04557-4.7608-8.27988-5.89345-4.55876-1.65403-9.40656-2.21122-14.14095-3.14609-1.48546-.35954-3.14277-.67235-4.21844-1.82298-1.05364-1.39872-.18663-3.5598 1.39406-4.17108 2.50256-.96368 5.64538-.87358 7.72354.96384 1.05364.75865 1.56234 1.97717 1.81845 3.19613l16.21185-.003c-.13582-2.7795-.92178-5.59527-2.7146-7.79227-2.54648-3.21817-6.54211-4.90823-10.48254-5.81074-3.12615-.66738-6.33182-.99027-9.53504-.97026zm57.62549.0111c-4.08489-.0234-8.19193.21774-12.16165 1.19296-3.32944.83065-6.6403 2.27995-8.938 4.86529-2.305 2.43429-3.25638 5.79971-3.38073 9.05744l16.55911-.0111c.23424-1.08227.46483-2.25406 1.33564-3.03074 1.50375-1.44195 3.75373-1.69011 5.75878-1.64335 1.55123.0832 3.21951.45651 4.34273 1.58909 1.37931 1.36631 1.46006 3.90874-.054 5.21399-1.22203 1.00326-2.85746 1.24378-4.36852 1.52064-5.08928.80903-10.2922 1.11469-15.22788 2.65729-2.6379.84496-5.24986 2.04994-7.18166 4.05995-1.90254 1.84819-2.96375 4.40818-3.2162 7.00431-.44278 3.9481.46089 8.25556 3.3293 11.19327 3.25626 3.34043 8.11891 4.4804 12.67403 4.60984h1.0205c3.46846-.14457 7.02161-.59349 10.13153-2.20433 1.6757-.82335 3.09515-2.05286 4.38673-3.36889-.0219 1.48505.16429 2.97386.59977 4.40494l18.29025.003c-2.23545-3.52382-2.15146-7.79153-2.22096-11.78637l.007-19.06141c.0365-3.13908-.15742-6.44344-1.7343-9.2481-1.36835-2.46668-3.8453-4.15272-6.47959-5.10916-3.74289-1.35916-7.76401-1.74799-11.72277-1.88461-.58209-.0127-1.16521-.0204-1.7488-.0248zm-147.03692 1.17514-18.89372.004 15.30073 45.92824 21.12164.004 15.48779-45.93191-18.294.0935-7.35747 27.8344zm40.114 0v45.93562h17.8363v-45.93562zm-174.10066 10.12142c1.85348-.038 3.70017.42963 5.19226 1.55012 1.92448 1.39873 2.93049 3.71825 3.05489 6.02671-5.64908.0108-11.29434.0143-16.94342 0 .44628-2.70039 1.89481-5.4512 4.52178-6.6414 1.28701-.571 2.7329-.90615 4.17449-.93536zm86.78155.004c1.85347-.038 3.69963.42964 5.19172 1.55012 1.92449 1.39873 2.93102 3.71826 3.05543 6.02671-5.64909.0108-11.29488.0143-16.94396 0 .44643-2.70041 1.89535-5.4512 4.52233-6.6414 1.28701-.571 2.73289-.90615 4.17448-.93536zm198.82656 15.23899c-.0803 2.50622.31806 5.16737-.85271 7.50098-1.81108 3.97688-8.00531 5.11672-11.08229 1.94888-1.56228-1.51381-1.30979-4.32585.44263-5.58796 1.23663-.92412 2.79178-1.2654 4.26992-1.62862 2.46598-.53215 4.93936-1.14375 7.22242-2.23328z"/>
</svg>
