<svg xmlns="http://www.w3.org/2000/svg" xml:space="preserve" viewBox="0 0 924.5 173.7">
  <path fill="#ffffff" d="M205 46.4h-9.7V33.6h46.3c19.2 0 32.9 13 32.9 32.9 0 20-13.7 33.4-32.9 33.4h-21.8v38.9H205V46.4zm34.3 40.7c12.4 0 20-7.9 20-20.6s-7.6-20.1-19.8-20.1H220v40.7h19.3zm52.3-8c0-2.2-1.2-3.3-3.3-3.3h-6.1V63.4h13.7c6.6 0 9.7 2.7 9.7 8.8V77c0 3-.3 5.2-.3 5.2h.3c3.6-11 12.2-19.7 23.8-19.7 1.9 0 3.9.3 3.9.3v14.3s-1.9-.4-4.3-.4c-9.2 0-17.7 6.6-21.2 17.7-1.3 4.3-1.8 8.9-1.8 13.6v30.8h-14.5l.1-59.7zm87.6-17.5c22.5 0 40.7 16.5 40.7 39.3 0 22.9-18.2 39.6-40.7 39.6s-40.5-16.7-40.5-39.6c0-22.7 18-39.3 40.5-39.3zm0 66.5c14.3 0 25.9-11.3 25.9-27.1 0-15.6-11.6-26.8-25.9-26.8-14.2 0-25.8 11.2-25.8 26.8 0 15.8 11.6 27.1 25.8 27.1zm85.4-66.5c17.4 0 23.2 11.6 23.2 11.6h.3s-.3-2.2-.3-5.1V49.3c0-2.2-1.2-3.3-3.3-3.3h-6.1V33.6h14.3c6.7 0 9.5 2.8 9.5 9.5v80c0 2.2 1.2 3.3 3.3 3.3h6.1v12.4h-13.9c-6.6 0-9.2-3-9.2-8 0-2.2.1-3.9.1-3.9h-.3s-6.3 13.7-24.7 13.7c-20.4 0-33.2-16.1-33.2-39.5 0-24 14.2-39.5 34.2-39.5zm23.7 39.4c0-13.4-7-26.8-21.5-26.8-11.8 0-21.6 9.8-21.6 27 0 16.4 8.8 27 21.3 27 11.2-.1 21.8-8 21.8-27.2zm38.2-21.9c0-2.2-1.2-3.3-3.3-3.3h-6.1V63.4h14.2c6.7 0 9.5 2.8 9.5 9.5v50.2c0 2.2 1.2 3.3 3.3 3.3h6.1v12.4H536c-6.7 0-9.5-2.8-9.5-9.5V79.1zm.3-45.5h13v15h-13v-15zm63.7 28c18.8 0 24.1 11.8 24.1 11.8h.3V71c0-4.5 2.4-7.6 8.3-7.6h14v12.4h-6c-1.9 0-3.3 1-3.3 3v56.9c0 24.9-18.9 34.4-38 34.4-9.1 0-18.3-2.5-25.8-6.3l4.9-11.6s9.2 5.1 20.6 5.1c13.1 0 23.8-5.8 23.8-21v-5.1c0-2.4.3-4.8.3-4.8h-.3c-4.5 7.3-11.5 11.5-22.5 11.5-20.9 0-33.7-16.8-33.7-38.6.2-21.6 12.3-37.7 33.3-37.7zM614 99.5c0-19.7-9.7-25.3-21.3-25.3-13.1 0-20.6 9.5-20.6 24.9 0 15.6 8.2 26.4 21.8 26.4 10.4-.1 20.1-6.4 20.1-26zm40.8-20.4c0-2.2-1.2-3.3-3.3-3.3h-6.1V63.4h14.2c6.7 0 9.5 2.8 9.5 9.5v50.2c0 2.2 1.2 3.3 3.3 3.3h6.1v12.4h-14.2c-6.7 0-9.5-2.8-9.5-9.5V79.1zm.3-45.5h13v15h-13v-15zm70.5 28c22.5 0 40.7 16.5 40.7 39.3 0 22.9-18.2 39.6-40.7 39.6s-40.5-16.7-40.5-39.6c0-22.7 18-39.3 40.5-39.3zm0 66.5c14.3 0 25.9-11.3 25.9-27.1 0-15.6-11.6-26.8-25.9-26.8-14.2 0-25.8 11.2-25.8 26.8 0 15.8 11.7 27.1 25.8 27.1zm56-49c0-2.2-1.2-3.3-3.3-3.3h-6.1V63.4h14.2c6.9 0 9.7 2.8 9.7 9.2v35.8c0 10.4 2.1 18.8 14 18.8 15.5 0 24.6-13.6 24.6-28.5V63.4h14.5v59.8c0 2.2 1.2 3.3 3.3 3.3h6.1v12.4h-13.9c-6.4 0-9.5-3-9.5-8.3v-2.8c0-2.4.1-4.3.1-4.3h-.3c-3.1 7.5-12.8 17.3-27.7 17.3-17 0-25.6-8.9-25.6-28.9V79.1h-.1zm92.6 38.6s8.9 11.2 22.8 11.2c7 0 13.1-3.1 13.1-9.7 0-13.6-41.1-12.1-41.1-36.4 0-14.5 12.7-21.2 28-21.2 9.1 0 24.7 3.1 24.7 14.6v7.2h-13v-3.7c0-4.5-6.7-6.4-11.3-6.4-8.5 0-14 3-14 8.9 0 14.3 41.1 11.2 41.1 36.4 0 13.4-11.9 22.1-27.7 22.1-20.1 0-30.1-13.3-30.1-13.3l7.5-9.7z" class="st0"/>
  <path fill="#86c555" d="M167.2 86.9c0-7-3.5-13.1-9.1-17-19.2-13.3-33.3-32.7-39.9-54.9 2.1 7.8-.5 16.5-7.3 21.7-7 5.4-14.5 10.1-22.3 14 3.5 6.8 7.5 13.4 12.1 19.6 4.3 5.9 9.1 11.5 14.2 16.6 6.2 6.2 13 11.8 20.3 16.8 3.5 2.4 7.6 3.6 11.5 3.6 4 0 8-1.2 11.3-3.4 5.8-4 9.2-10.1 9.2-17"/>
  <path fill="#f7941f" d="M118.2 14.9C116.1 7.8 110.9 3 104.8 1c-6.5-2.1-13.6-.7-19 3.4-.6.5-.6.5 0 0C68 18 46 25.4 23.7 25.4h-2.4c8.1.3 15.5 5.5 18.4 13.6 2.9 8.3 5.1 16.9 6.5 25.5 7.6-1.2 15-3 22.4-5.4 6.9-2.3 13.7-5.1 20.2-8.4 7.8-4 15.2-8.7 22.3-14.1 6.7-5.3 9.3-13.9 7.1-21.7"/>
  <path fill="#f04024" d="M46.1 64.5c-4 .6-4 .6 0 0-1.4-8.6-3.5-17.2-6.5-25.5-2.9-8.1-10.3-13.2-18.4-13.6-7-.2-13.2 2.8-17.1 8.2-4.2 5.6-5.2 12.5-2.8 19.3 7.7 22 7.7 46 0 67.9 2.8-7.6 10-13.1 18.6-13.3h3.8c7.5 0 15 .6 22.4 1.8 1.2-7.6 1.8-15.2 1.7-23 .1-7.3-.5-14.6-1.7-21.8"/>
  <path fill="#00b5de" d="M158.2 103.8c-3.4 2.2-7.3 3.4-11.4 3.4-4 0-8-1.2-11.5-3.6-7.3-5-14-10.6-20.3-16.8-5.4 5.4-10.4 11.3-14.9 17.6-4.3 5.9-8.1 12.2-11.4 18.7-4 7.8-7.2 16-9.7 24.5-2.4 8.2.5 16.8 6.9 21.8 5.4 4.1 12.1 5.3 18 3.7 6.6-1.8 12.2-7.1 14.4-14.2 2.2-7.8 2.2-7.8 0 0 6.6-22.4 20.8-41.9 39.9-55.1"/>
  <path fill="#b51f8f" d="M88.7 123.1c-6.8-3.5-13.9-6.4-21.3-8.8-7-2.2-14.1-3.9-21.3-5.1-1.3 8-1.3 8 0 0-8.6-1.4-17.4-1.9-26.3-1.7-8.6.2-15.8 5.7-18.6 13.3-2.4 6.7-1.5 13.6 2.7 19.3 4.1 5.5 10.3 8.4 17.2 8.2h2.3c22.5 0 44.5 7.4 62.2 21-6.3-5-9.3-13.6-6.9-21.8 2.8-8.5 6.1-16.6 10-24.4"/>
</svg>
