<svg width="166" height="45" viewBox="0 0 166 45" fill="none" xmlns="http://www.w3.org/2000/svg">
<path d="M39.7095 0H48.3859C52.8092 0 55.9325 2.24538 55.9325 6.22975C55.9325 8.47513 54.8347 10.4148 52.9825 11.4021V11.469C55.6596 12.2525 56.9275 14.7017 56.9275 17.1509C56.9275 21.9825 53.0178 24.161 48.5239 24.161H39.7095V0ZM48.4212 9.87014C50.3408 9.87014 51.4386 8.51017 51.4386 6.77437C51.4386 5.03858 50.3761 3.78053 48.3506 3.78053H44.1328V9.87332H48.4212V9.87014ZM48.8674 20.3868C51.1304 20.3868 52.4015 18.9249 52.4015 16.8802C52.4015 14.8737 51.0983 13.4086 48.8674 13.4086H44.1328V20.3836H48.8674V20.3868Z" fill="#ffffff"/>
<path d="M69.3799 13.2745H70.1343V13.0356C70.1343 10.7552 68.6609 9.97169 66.8409 9.97169C65.1268 9.97169 63.3774 10.6851 61.9714 11.6406L60.36 8.54483C61.8013 7.3887 64.6132 6.40137 67.2197 6.40137C71.781 6.40137 74.4902 8.92066 74.4902 13.3095V24.167H70.4424V22.7051C70.4424 21.9917 70.5452 21.447 70.5452 21.447H70.4777C69.4153 23.2847 67.3224 24.5778 64.9567 24.5778C61.8013 24.5778 59.1948 22.5363 59.1948 19.3705C59.1948 14.1599 65.5056 13.2745 69.3799 13.2745ZM66.1572 21.2719C68.5935 21.2719 70.1696 18.8226 70.1696 16.711V16.2333H69.4153C67.2197 16.2333 63.5154 16.539 63.5154 18.9914C63.5154 20.1476 64.4078 21.2719 66.1572 21.2719Z" fill="#ffffff"/>
<path d="M79.083 19.1608C80.3862 20.3519 82.3058 21.0654 84.0552 21.0654C85.5991 21.0654 86.4915 20.4188 86.4915 19.3296C86.4915 16.6064 77.8151 17.288 77.8151 11.6029C77.8151 8.20137 80.8324 6.39551 84.5046 6.39551C86.5974 6.39551 88.793 6.97517 90.4044 8.37017L88.793 11.3991C87.7626 10.5136 85.9105 9.90213 84.3697 9.90213C82.8611 9.90213 81.9334 10.4818 81.9334 11.571C81.9334 14.3292 90.6098 13.5457 90.6098 19.2276C90.6098 22.2916 88.0034 24.572 83.991 24.572C81.5546 24.572 78.9482 23.7566 77.1313 22.0208L79.083 19.1608Z" fill="#ffffff"/>
<path d="M111.057 0H120.456C125.017 0 128.208 3.16583 128.208 7.86044C128.208 12.5582 125.017 15.8228 120.456 15.8228H115.484V24.161H111.06V0H111.057ZM119.631 12.0136C122.202 12.0136 123.714 10.3797 123.714 7.86044C123.714 5.37618 122.205 3.77734 119.701 3.77734H115.484V12.0136H119.631Z" fill="#ffffff"/>
<path d="M139.957 13.2745H140.711V13.0356C140.711 10.7552 139.238 9.97169 137.418 9.97169C135.703 9.97169 133.954 10.6851 132.548 11.6406L130.937 8.54483C132.378 7.3887 135.19 6.40137 137.796 6.40137C142.358 6.40137 145.067 8.92066 145.067 13.3095V24.167H141.019V22.7051C141.019 21.9917 141.122 21.447 141.122 21.447H141.054C139.992 23.2847 137.899 24.5778 135.533 24.5778C132.378 24.5778 129.771 22.5363 129.771 19.3705C129.768 14.1599 136.082 13.2745 139.957 13.2745ZM136.734 21.2719C139.17 21.2719 140.746 18.8226 140.746 16.711V16.2333H139.992C137.796 16.2333 134.092 16.539 134.092 18.9914C134.092 20.1476 134.984 21.2719 136.734 21.2719Z" fill="#ffffff"/>
<path d="M150.776 27.6702C151.977 27.6702 153.177 26.9568 153.829 25.4248L154.481 23.8929L147.107 6.80885H152.012L155.681 16.8128C156.025 17.73 156.333 19.1601 156.333 19.1601H156.403C156.403 19.1601 156.712 17.8001 156.988 16.8796L160.416 6.80566H165.15L157.363 26.7848C156.163 29.9506 153.624 31.3106 151.052 31.3106C148.96 31.3106 147.416 30.1863 147.416 30.1863L148.857 26.9536C148.857 26.9536 149.817 27.6702 150.776 27.6702Z" fill="#ffffff"/>
<path d="M37.2418 22.5531C37.2418 22.5372 37.2418 22.5181 37.245 22.5022C37.2675 21.9321 36.7507 21.4957 36.1922 21.639C35.884 21.7187 35.0687 21.9766 34.8761 21.9926C34.661 22.0117 35.884 18.2089 36.221 15.387C36.4457 13.5206 36.282 12.0842 35.059 12.4728C30.3918 15.1768 27.4932 19.6007 23.1759 22.6582C24.4791 17.3903 24.5497 14.8105 24.0811 14.5494C23.5579 14.2595 22.3638 16.8712 21.4746 21.8779C19.8536 31.0091 31.6629 16.7884 34.1571 15.2214C33.4862 18.8777 33.3867 21.1836 32.6067 22.5659C32.3306 23.0532 28.4915 25.3017 24.8129 28.3083C22.1359 30.4996 19.1314 34.2737 17.6034 37.723C16.0177 41.2997 15.9696 44.4687 19.3272 44.9242C20.8647 45.1312 22.4119 44.5101 23.59 43.5387C29.4802 38.6785 32.4622 29.0568 33.6916 25.2157C33.8136 24.8335 33.8682 24.6966 33.9227 24.4991C33.958 24.4163 35.5437 23.6742 36.6415 23.343C36.9978 23.2411 37.229 22.9194 37.2418 22.5531ZM20.5726 43.268C20.2548 43.4973 19.8729 43.6693 19.4748 43.7075C16.358 44.0165 20.8583 35.9808 21.5902 34.7037C23.1213 32.4424 24.9542 30.4868 26.9155 28.7797C27.6377 28.1523 31.5249 25.4737 31.5281 25.7381C28.5236 31.8595 26.4211 39.0065 20.5726 43.268Z" fill="#5A7EF2"/>
<path d="M17.3561 24.7633C16.881 25.1774 16.1331 24.8621 16.0657 24.2378C15.9855 23.5117 16.1235 22.5721 16.3707 21.5625C17.3978 17.3583 20.2996 11.9025 17.0608 15.1512C15.8346 16.3806 12.798 21.0688 12.0661 22.209C11.2316 23.5085 10.2814 24.4417 9.22856 23.2027C9.94437 20.6388 11.0711 18.1259 11.1513 15.011C11.1962 13.2307 4.61909 21.6708 3.11684 24.2888C2.17954 25.9227 0.00320993 25.7761 0 24.2792C1.2294 21.5657 0.404451 15.2213 3.28055 14.5588C3.57586 16.3551 2.16028 21.6676 2.20201 21.8173C2.26942 22.0657 2.70276 21.314 3.42179 20.1038C4.83416 17.1895 8.31373 13.5555 10.5831 12.9631C12.3486 12.5045 13.3854 13.8868 12.1496 18.8807C13.7674 16.492 17.4428 12.6701 19.4233 12.3421C20.4601 12.1701 21.0315 12.9536 20.6078 15.3964C20.4633 16.2468 19.1569 23.2027 17.3561 24.7633Z" fill="#5A7EF2"/>
<path d="M93.6465 22.8328V24.1386H105.334C106.704 24.1386 107.815 23.0366 107.815 21.6767V20.3708H96.1278C94.7571 20.3708 93.6465 21.4728 93.6465 22.8328Z" fill="#ffffff"/>
<path d="M93.6465 9.25859V10.5644H105.334C106.704 10.5644 107.815 9.46243 107.815 8.10246V6.79663H96.1278C94.7571 6.79663 93.6465 7.89862 93.6465 9.25859Z" fill="#ffffff"/>
<path d="M93.6465 16.0457V17.3515H105.334C106.704 17.3515 107.815 16.2495 107.815 14.8896V13.5837H96.1278C94.7571 13.5837 93.6465 14.6857 93.6465 16.0457Z" fill="#ffffff"/>
</svg>
