<?xml version="1.0" encoding="utf-8"?>
<!-- Generator: Adobe Illustrator 19.2.1, SVG Export Plug-In . SVG Version: 6.00 Build 0)  -->
<svg version="1.1" id="layer" xmlns="http://www.w3.org/2000/svg" xmlns:xlink="http://www.w3.org/1999/xlink" x="0px" y="0px"
	 viewBox="0 0 652 652" style="enable-background:new 0 0 652 652;" xml:space="preserve">
<style type="text/css">
	.st0{fill:#00ACDC;}
	.st1{fill:#82BD25;}
	.st2{fill:#F18900;}
	.st3{fill:#E72430;}
	.st4{fill:#B60081;}
	.st5{fill:#D7600D;}
	.st6{fill:#008050;}
	.st7{fill:#47167D;}
	.st8{fill:#9E163E;}
	.st9{fill:#BF0008;}
</style>
<path d="M173.8,293.4v25.1h10.1c11.7,0,21.6-0.5,21.6-12.3c0-10.1-4.9-12.8-22-12.8H173.8z M186.3,287c18.1,0,28.6,3.1,28.6,18.8
	c0,15.6-10.9,18.7-28.6,18.7h-12.5v26.9c0,8.2,0,8.4,5,8.4h2.5v4.1H157v-4.1h2.5c2.2,0,4.7,0.3,4.8-2.2c0.1-1.8,0.2-4.2,0.2-6.1
	v-53.4c0-5.2,0.1-6.9-5.3-6.9H157V287H186.3z M234.4,324.2c0,2.2-0.2,4.4-0.5,6.1c5.5-11.7,9.5-17.6,14.2-17.6c4.1,0,5.8,1,8.5,2.2
	l-3,7.6c-2.6-1.7-3.6-3.4-6-3.4c-3.7,0-7.7,6.8-13.3,18.2V351c0,8.2-0.5,8.7,4.4,8.7h1.7v4.1h-20.6v-4.1h1.8c4.9,0,4.3-0.5,4.3-7.6
	v-26c0-7.1,0.2-7.6-4.2-7.6h-2v-4.1h14.5V324.2z M282.1,359.7c10.3,0,15.5-7.1,15.5-21.5c0-13.4-5.4-19.9-15-19.9
	c-10.3,0-16,7.4-16,21.9C266.6,352.2,271.7,359.7,282.1,359.7 M282.8,312.6c15,0,24.2,10.8,24.2,26c0,15.6-9.6,26.9-25.2,26.9
	c-16.2,0-24.7-11.4-24.7-26.5C257.1,322.8,268,312.6,282.8,312.6 M350.6,324.4c-2-1.7-9.5-6-15.4-6c-7,0-12.4,7-12.4,21.3
	c0,13.6,5,20.3,12.3,20.3c5.7,0,10.4-2.6,15.5-5.9V324.4z M350.9,358.6c-3.2,3.2-10,7-17.4,7c-11.9,0-20-10.9-20-26.2
	c0-17,9.2-26.9,21.1-26.9c6.4,0,11.4,2.6,16.1,6.9v-22.9c0-4.5-0.2-5.5-4.2-5.5h-2.1V287H359v64c0,8.4-0.5,8.7,4.4,8.7h1.8v4.1
	h-14.6L350.9,358.6z M388,294.3c0,3.1-2.6,5.7-5.8,5.7c-3.2,0-5.7-2.6-5.7-5.7c0-3.2,2.5-5.8,5.7-5.8
	C385.4,288.5,388,291.1,388,294.3 M386.4,351.1c0,8.2-0.5,8.6,4.4,8.6h1.8v4.1h-20.8v-4.1h1.8c4.9,0,4.3-0.5,4.3-8.6v-29.5
	c0-2.5-0.5-3.2-3.9-3.2h-2.2v-4.1h14.5V351.1z M433.1,324c-5.2-3.7-10.6-5.7-15.1-5.7c-7.6,0-12.5,6.8-12.5,20.1
	c0,12.4,4.4,18.8,12.8,18.8c4.7,0,10.9-2.8,14.9-6V324z M441.4,365.4c0,8-1.1,14.4-2.1,16.2c-3.1,5.5-9.2,7.9-18.6,7.9
	c-7.1,0-14.7-1.3-21.2-3.8l2.3-7c6.3,3.4,12.4,5,19.7,5c10.4,0,11.6-6.1,11.6-15.2v-12.4c-4.8,4.3-10.9,7-17,7
	c-12.2,0-20.1-10.9-20.1-24.9c0-15,8.4-25.6,20.9-25.6c6.3,0,12.9,3.3,16.5,6.8l-0.4-4.9h14.6v4.1h-1.8c-4.9,0-4.3,0.2-4.3,8.5
	V365.4z M470.5,294.3c0,3.1-2.6,5.7-5.8,5.7c-3.2,0-5.7-2.6-5.7-5.7c0-3.2,2.5-5.8,5.7-5.8C468,288.5,470.5,291.1,470.5,294.3
	 M468.9,351.1c0,8.2-0.5,8.6,4.4,8.6h1.8v4.1h-20.8v-4.1h1.8c4.9,0,4.3-0.5,4.3-8.6v-29.5c0-2.5-0.5-3.2-3.9-3.2h-2.2v-4.1h14.5
	V351.1z M504.7,359.7c10.3,0,15.5-7.1,15.5-21.5c0-13.4-5.4-19.9-15-19.9c-10.3,0-16,7.4-16,21.9
	C489.2,352.2,494.4,359.7,504.7,359.7 M505.4,312.6c15,0,24.2,10.8,24.2,26c0,15.6-9.6,26.9-25.2,26.9c-16.2,0-24.7-11.4-24.7-26.5
	C479.8,322.8,490.7,312.6,505.4,312.6 M572.1,323.7c0-3.9-0.1-5.3-3.7-5.3h-2.6v-4.1h14.6V351c0,8.2-0.7,8.7,4.3,8.7h1.7v4.1h-14.4
	c0-2.8,0.1-5.2,0.1-5.8c-5.2,5-10.6,7.6-18.3,7.6c-15.6,0-15.2-11-15.2-21.6v-20.3c0-3.8,0-5.3-3.6-5.3h-2.8v-4.1h14.7v31.8
	c0,7.5,0,13.6,9,13.6c5,0,11.3-2.1,16.1-6.8V323.7z M624.7,326.4h-3.9v-1.6c0-4.2-5.3-6.5-11.8-6.5c-5.5,0-9.3,2.6-9.3,7.4
	c0,9,26.9,10.9,26.9,26c0,8.4-5.9,13.6-17.3,13.6c-3.7,0-10-1.1-15.4-3.7v-10.3h3.9v1.6c0,4.4,6.5,6.6,11.9,6.6c6.6,0,9.8-3,9.8-6.8
	c0-9.8-26.9-10.6-26.9-26.1c0-8,6.4-14.2,16.9-14.2c5.3,0,10.3,1.6,15.1,3.6V326.4z"/>
<path class="st0" d="M101.6,321.4c-3.5,3.5-6.8,7.4-9.7,11.5c-2.8,3.9-5.3,7.9-7.4,12.2c5.1,2.6,10,5.7,14.5,9.2
	c4.4,3.4,6.1,9.1,4.7,14.1c4.4-14.6,13.6-27.3,26-35.9c-2.2,1.5-4.8,2.2-7.4,2.2c-2.6,0-5.2-0.8-7.5-2.3
	C110.1,329.1,105.7,325.4,101.6,321.4"/>
<path class="st1" d="M103.7,274.5c1.4,5.1-0.3,10.7-4.7,14.1c-4.6,3.5-9.4,6.6-14.5,9.2c2.3,4.5,4.9,8.7,7.9,12.8
	c2.8,3.9,5.9,7.5,9.3,10.8c4.1-4,8.5-7.7,13.2-11c2.3-1.6,4.9-2.3,7.5-2.3c2.6,0,5.2,0.8,7.4,2.2C117.2,301.6,108,288.9,103.7,274.5
	"/>
<path class="st2" d="M82.6,267.6c-11.6,8.9-26,13.7-40.5,13.7l-1.6,0c5.3,0.2,10.1,3.6,12,8.9c1.9,5.4,3.3,11,4.2,16.6
	c4.9-0.8,9.8-2,14.6-3.5c4.5-1.5,8.9-3.3,13.2-5.5c-2.6-5.1-4.7-10.4-6.4-16C76.5,276.4,78.4,270.9,82.6,267.6"/>
<path class="st3" d="M27.4,299.2c5,14.3,5,30.1,0,44.3c1.8-4.9,6.5-8.5,12.1-8.6l2.5,0c4.9,0,9.8,0.4,14.6,1.1
	c0.8-4.9,1.2-9.9,1.2-15c0-4.8-0.4-9.5-1.2-14.2c-4.8,0.7-9.7,1.1-14.6,1.1l-2.6,0C33.9,307.7,29.2,304.2,27.4,299.2"/>
<path class="st4" d="M56.7,336c-0.9,5.7-2.3,11.2-4.2,16.6c-1.9,5.3-6.7,8.6-12,8.8l1.5,0c14.7,0,29,4.8,40.6,13.7
	c-4.1-3.3-6.1-8.8-4.5-14.2c1.6-5.5,3.8-10.9,6.4-15.9c-4.5-2.3-9.1-4.2-13.9-5.7C66,337.8,61.4,336.7,56.7,336"/>
<path class="st5" d="M103.7,274.5c-1.4-4.7-4.7-7.8-8.7-9.1c-4.2-1.4-8.8-0.5-12.4,2.2c-4.1,3.3-6.1,8.9-4.5,14.2
	c1.6,5.5,3.7,10.9,6.3,16c5.1-2.6,9.9-5.7,14.5-9.2C103.4,285.2,105.1,279.5,103.7,274.5 M96.2,279.7c-1,3-4.1,4.6-7.1,3.6
	c-3-1-4.6-4.2-3.6-7.1c1-3,4.2-4.6,7.1-3.6C95.6,273.6,97.2,276.7,96.2,279.7"/>
<path class="st6" d="M129.7,310.3c-4.4-2.9-10.3-3.1-14.9,0.1c-4.8,3.3-9.2,6.9-13.2,11c4.1,4.1,8.5,7.7,13.2,11
	c2.3,1.6,4.9,2.3,7.5,2.3c2.6,0,5.2-0.8,7.4-2.2c3.7-2.6,5.9-6.5,5.9-11.1C135.7,316.8,133.4,312.8,129.7,310.3 M127.7,323.1
	c-1,3-4.1,4.6-7.1,3.6c-3-1-4.6-4.1-3.6-7.1c1-3,4.1-4.6,7.1-3.6C127,317,128.7,320.1,127.7,323.1"/>
<path class="st7" d="M99,354.2c-4.6-3.5-9.4-6.6-14.5-9.2c-2.6,5.1-4.7,10.4-6.4,16c-1.6,5.4,0.4,10.9,4.5,14.2
	c3.5,2.7,7.9,3.5,11.7,2.4c4.3-1.2,8-4.6,9.4-9.3C105.1,363.3,103.4,357.6,99,354.2 M96.2,366.4c-1,3-4.1,4.6-7.1,3.6
	c-2.9-1-4.6-4.1-3.6-7.1c1-3,4.1-4.6,7.1-3.6C95.6,360.3,97.2,363.5,96.2,366.4"/>
<path class="st8" d="M39.6,334.9c-5.6,0.1-10.3,3.7-12.1,8.7c-1.5,4.4-1,8.9,1.8,12.6c2.7,3.6,6.7,5.4,11.2,5.4
	c5.3-0.2,10.1-3.6,12-8.9c1.9-5.4,3.3-11,4.2-16.6C51,335.1,45.3,334.7,39.6,334.9 M45.2,349.9c-1,3-4.1,4.6-7.1,3.6
	c-3-1-4.6-4.2-3.6-7.1c1-3,4.1-4.6,7.1-3.6C44.6,343.7,46.2,346.9,45.2,349.9"/>
<path class="st9" d="M52.4,290.2c-1.9-5.3-6.7-8.6-12-8.9c-4.6-0.1-8.6,1.8-11.2,5.3c-2.7,3.6-3.4,8.2-1.8,12.6
	c1.8,4.9,6.5,8.5,12.1,8.6l2.6,0.1c4.9,0,9.8-0.4,14.6-1.2C55.8,301.2,54.4,295.6,52.4,290.2 M45.3,296.3c-1,3-4.1,4.6-7.1,3.6
	c-3-1-4.6-4.1-3.6-7.1c1-2.9,4.1-4.6,7.1-3.6C44.6,290.2,46.2,293.3,45.3,296.3"/>
</svg>
