<?xml version="1.0" encoding="utf-8"?>
<!-- Generator: Adobe Illustrator 25.4.1, SVG Export Plug-In . SVG Version: 6.00 Build 0)  -->
<svg version="1.1" id="Layer_1" xmlns="http://www.w3.org/2000/svg" xmlns:xlink="http://www.w3.org/1999/xlink" x="0px" y="0px"
	 viewBox="0 0 924.5 173.7" style="enable-background:new 0 0 924.5 173.7;" xml:space="preserve">
<style type="text/css">
	.st0{fill:#FFFFFF;}
	.st1{fill:#86C555;}
	.st2{fill:#F7941F;}
	.st3{fill:#F04024;}
	.st4{fill:#00B5DE;}
	.st5{fill:#B51F8F;}
</style>
<g>
	<g>
		<g>
			<path class="st0" d="M205,46.4h-9.7V33.6h46.3c19.2,0,32.9,13,32.9,32.9c0,20-13.7,33.4-32.9,33.4h-21.8v38.9H205V46.4z
				 M239.3,87.1c12.4,0,20-7.9,20-20.6s-7.6-20.1-19.8-20.1H220v40.7C220,87.1,239.3,87.1,239.3,87.1z"/>
			<path class="st0" d="M291.6,79.1c0-2.2-1.2-3.3-3.3-3.3h-6.1V63.4h13.7c6.6,0,9.7,2.7,9.7,8.8V77c0,3-0.3,5.2-0.3,5.2h0.3
				c3.6-11,12.2-19.7,23.8-19.7c1.9,0,3.9,0.3,3.9,0.3v14.3c0,0-1.9-0.4-4.3-0.4c-9.2,0-17.7,6.6-21.2,17.7
				c-1.3,4.3-1.8,8.9-1.8,13.6v30.8h-14.5L291.6,79.1L291.6,79.1z"/>
			<path class="st0" d="M379.2,61.6c22.5,0,40.7,16.5,40.7,39.3c0,22.9-18.2,39.6-40.7,39.6s-40.5-16.7-40.5-39.6
				C338.7,78.2,356.7,61.6,379.2,61.6z M379.2,128.1c14.3,0,25.9-11.3,25.9-27.1c0-15.6-11.6-26.8-25.9-26.8
				c-14.2,0-25.8,11.2-25.8,26.8C353.4,116.8,365,128.1,379.2,128.1z"/>
			<path class="st0" d="M464.6,61.6c17.4,0,23.2,11.6,23.2,11.6h0.3c0,0-0.3-2.2-0.3-5.1V49.3c0-2.2-1.2-3.3-3.3-3.3h-6.1V33.6h14.3
				c6.7,0,9.5,2.8,9.5,9.5v80c0,2.2,1.2,3.3,3.3,3.3h6.1v12.4h-13.9c-6.6,0-9.2-3-9.2-8c0-2.2,0.1-3.9,0.1-3.9h-0.3
				c0,0-6.3,13.7-24.7,13.7c-20.4,0-33.2-16.1-33.2-39.5C430.4,77.1,444.6,61.6,464.6,61.6z M488.3,101c0-13.4-7-26.8-21.5-26.8
				c-11.8,0-21.6,9.8-21.6,27c0,16.4,8.8,27,21.3,27C477.7,128.1,488.3,120.2,488.3,101z"/>
			<path class="st0" d="M526.5,79.1c0-2.2-1.2-3.3-3.3-3.3h-6.1V63.4h14.2c6.7,0,9.5,2.8,9.5,9.5v50.2c0,2.2,1.2,3.3,3.3,3.3h6.1
				v12.4H536c-6.7,0-9.5-2.8-9.5-9.5V79.1z M526.8,33.6h13v15h-13V33.6z"/>
			<path class="st0" d="M590.5,61.6c18.8,0,24.1,11.8,24.1,11.8h0.3c0,0,0-1.2,0-2.4c0-4.5,2.4-7.6,8.3-7.6h14v12.4h-6
				c-1.9,0-3.3,1-3.3,3v56.9c0,24.9-18.9,34.4-38,34.4c-9.1,0-18.3-2.5-25.8-6.3l4.9-11.6c0,0,9.2,5.1,20.6,5.1
				c13.1,0,23.8-5.8,23.8-21v-5.1c0-2.4,0.3-4.8,0.3-4.8h-0.3c-4.5,7.3-11.5,11.5-22.5,11.5c-20.9,0-33.7-16.8-33.7-38.6
				C557.4,77.7,569.5,61.6,590.5,61.6z M614,99.5c0-19.7-9.7-25.3-21.3-25.3c-13.1,0-20.6,9.5-20.6,24.9c0,15.6,8.2,26.4,21.8,26.4
				C604.3,125.4,614,119.1,614,99.5z"/>
			<path class="st0" d="M654.8,79.1c0-2.2-1.2-3.3-3.3-3.3h-6.1V63.4h14.2c6.7,0,9.5,2.8,9.5,9.5v50.2c0,2.2,1.2,3.3,3.3,3.3h6.1
				v12.4h-14.2c-6.7,0-9.5-2.8-9.5-9.5V79.1z M655.1,33.6h13v15h-13V33.6z"/>
			<path class="st0" d="M725.6,61.6c22.5,0,40.7,16.5,40.7,39.3c0,22.9-18.2,39.6-40.7,39.6s-40.5-16.7-40.5-39.6
				C685.1,78.2,703.1,61.6,725.6,61.6z M725.6,128.1c14.3,0,25.9-11.3,25.9-27.1c0-15.6-11.6-26.8-25.9-26.8
				c-14.2,0-25.8,11.2-25.8,26.8C699.8,116.8,711.5,128.1,725.6,128.1z"/>
			<path class="st0" d="M781.6,79.1c0-2.2-1.2-3.3-3.3-3.3h-6.1V63.4h14.2c6.9,0,9.7,2.8,9.7,9.2v35.8c0,10.4,2.1,18.8,14,18.8
				c15.5,0,24.6-13.6,24.6-28.5V63.4h14.5v59.8c0,2.2,1.2,3.3,3.3,3.3h6.1v12.4h-13.9c-6.4,0-9.5-3-9.5-8.3v-2.8
				c0-2.4,0.1-4.3,0.1-4.3H835c-3.1,7.5-12.8,17.3-27.7,17.3c-17,0-25.6-8.9-25.6-28.9V79.1H781.6z"/>
			<path class="st0" d="M874.2,117.7c0,0,8.9,11.2,22.8,11.2c7,0,13.1-3.1,13.1-9.7c0-13.6-41.1-12.1-41.1-36.4
				c0-14.5,12.7-21.2,28-21.2c9.1,0,24.7,3.1,24.7,14.6v7.2h-13v-3.7c0-4.5-6.7-6.4-11.3-6.4c-8.5,0-14,3-14,8.9
				c0,14.3,41.1,11.2,41.1,36.4c0,13.4-11.9,22.1-27.7,22.1c-20.1,0-30.1-13.3-30.1-13.3L874.2,117.7z"/>
		</g>
		<g>
			<path class="st1" d="M167.2,86.9c0-7-3.5-13.1-9.1-17l0,0c-19.2-13.3-33.3-32.7-39.9-54.9c2.1,7.8-0.5,16.5-7.3,21.7
				c-7,5.4-14.5,10.1-22.3,14c3.5,6.8,7.5,13.4,12.1,19.6c4.3,5.9,9.1,11.5,14.2,16.6l0,0c6.2,6.2,13,11.8,20.3,16.8
				c3.5,2.4,7.6,3.6,11.5,3.6c4,0,8-1.2,11.3-3.4C163.8,99.9,167.2,93.8,167.2,86.9"/>
			<path class="st2" d="M118.2,14.9C116.1,7.8,110.9,3,104.8,1c-6.5-2.1-13.6-0.7-19,3.4c-0.6,0.5-0.6,0.5,0,0
				C68,18,46,25.4,23.7,25.4c-0.8,0-1.6,0-2.4,0c8.1,0.3,15.5,5.5,18.4,13.6c2.9,8.3,5.1,16.9,6.5,25.5c7.6-1.2,15-3,22.4-5.4
				c6.9-2.3,13.7-5.1,20.2-8.4l0,0c7.8-4,15.2-8.7,22.3-14.1C117.8,31.3,120.4,22.7,118.2,14.9"/>
			<path class="st3" d="M46.1,64.5C42.1,65.1,42.1,65.1,46.1,64.5c-1.4-8.6-3.5-17.2-6.5-25.5c-2.9-8.1-10.3-13.2-18.4-13.6
				c-7-0.2-13.2,2.8-17.1,8.2c-4.2,5.6-5.2,12.5-2.8,19.3l0,0c7.7,22,7.7,46,0,67.9c2.8-7.6,10-13.1,18.6-13.3c1.3,0,2.5,0,3.8,0
				c7.5,0,15,0.6,22.4,1.8c1.2-7.6,1.8-15.2,1.7-23C47.9,79,47.3,71.7,46.1,64.5"/>
			<path class="st4" d="M158.2,103.8c-3.4,2.2-7.3,3.4-11.4,3.4c-4,0-8-1.2-11.5-3.6c-7.3-5-14-10.6-20.3-16.8
				c-5.4,5.4-10.4,11.3-14.9,17.6c-4.3,5.9-8.1,12.2-11.4,18.7l0,0c-4,7.8-7.2,16-9.7,24.5c-2.4,8.2,0.5,16.8,6.9,21.8
				c5.4,4.1,12.1,5.3,18,3.7c6.6-1.8,12.2-7.1,14.4-14.2c2.2-7.8,2.2-7.8,0,0C124.9,136.5,139.1,117,158.2,103.8"/>
			<path class="st5" d="M88.7,123.1c-6.8-3.5-13.9-6.4-21.3-8.8c-7-2.2-14.1-3.9-21.3-5.1c-1.3,8-1.3,8,0,0
				c-8.6-1.4-17.4-1.9-26.3-1.7c-8.6,0.2-15.8,5.7-18.6,13.3c-2.4,6.7-1.5,13.6,2.7,19.3c4.1,5.5,10.3,8.4,17.2,8.2h0.1
				c0.7,0,1.5,0,2.2,0c22.5,0,44.5,7.4,62.2,21c-6.3-5-9.3-13.6-6.9-21.8C81.5,139,84.8,130.9,88.7,123.1"/>
		</g>
	</g>
</g>
</svg>
