<?xml version="1.0" encoding="utf-8"?>
<!-- Generator: Adobe Illustrator 20.1.0, SVG Export Plug-In . SVG Version: 6.00 Build 0)  -->
<svg version="1.1" id="Capa_1" xmlns="http://www.w3.org/2000/svg" xmlns:xlink="http://www.w3.org/1999/xlink" x="0px" y="0px"
	 viewBox="0 0 459.7 290.2" style="enable-background:new 0 0 459.7 290.2;" xml:space="preserve">
<style type="text/css">
	.st0{fill:#000000;}
</style>
<g>
	<polygon class="st0" points="193.6,119.5 149.3,119.5 149.3,132.6 163.6,132.6 163.6,170.5 179.3,170.5 179.3,132.6 193.6,132.6
		"/>
	<path class="st0" d="M207.9,132.5c-11.7,0-19.6,8.8-19.6,19.6c0,12.4,8.9,19.4,20.8,19.4c8.4,0,16.2-3.7,19.1-11.7H215
		c-1.1,1.8-3.6,2.6-5.9,2.6c-4.4,0-6.9-3-7.2-7.2c-0.1,0,27.1,0,27.1,0C229,140.8,222.6,132.5,207.9,132.5z M201.9,147.8
		c0.6-4,3.1-6.2,7.3-6.2c3.6,0,6.2,2.8,6.2,6.2H201.9z"/>
	<rect x="236" y="119.5" class="st0" width="14.2" height="51"/>
	<path class="st0" d="M276.6,132.5c-11.7,0-19.6,8.8-19.6,19.6c0,12.4,8.9,19.4,20.8,19.4c8.4,0,16.2-3.7,19.1-11.7h-13.2
		c-1.1,1.8-3.6,2.6-5.9,2.6c-4.4,0-6.9-3-7.2-7.2c-0.1,0,27.1,0,27.1,0C297.7,140.8,291.3,132.5,276.6,132.5z M270.6,147.8
		c0.6-4,3.1-6.2,7.3-6.2c3.6,0,6.2,2.8,6.2,6.2H270.6z"/>
	<polygon class="st0" points="321,156 320.8,156 315,133.4 300.1,133.4 312.2,170.5 329,170.5 341.3,133.4 326.8,133.4 	"/>
	<rect x="346.5" y="119.5" class="st0" width="14.1" height="9.9"/>
	<rect x="346.5" y="133.4" class="st0" width="14.1" height="37.1"/>
	<path class="st0" d="M395.5,147.9c-4.7-1.6-10-1.9-12.4-2.9c-0.7-0.3-1.6-0.8-1.6-1.9c0-2.4,2.3-2.8,4.3-2.8c1.1,0,2.2,0.4,3.1,1.1
		c0.9,0.7,1.5,1.6,1.6,2.8c0,0,12.9,0,12.8-0.1c-0.4-9.5-10-11.7-18-11.7c-7.4,0-17.5,2.4-17.5,11.8c0,6.4,4.4,9.8,15.2,11.7
		c6.6,1.1,7.8,1.8,7.8,3.9c0,2.2-3,2.9-4.8,2.9c-1.7,0-3.1-0.5-3.8-1.1c-1.1-0.9-1.6-2-1.7-3.3H367c0.2,9.6,9.8,13.1,18.5,13.1
		c9,0,18.9-2.8,18.9-13.1C404.4,152.2,400.2,149.4,395.5,147.9z"/>
	<path class="st0" d="M448.5,162.3V147c0-7.1,0.1-14.5-17.6-14.5c-8.8,0-18.7,1.7-19.1,12.2H425c0.1-1.6,0.9-3.8,5.3-3.8
		c2.3,0,4.7,0.9,4.7,3.4c0,2.4-1.9,2.9-3.9,3.3c-7.2,1.4-20.9,0.9-20.9,12.7c0,7.8,5.9,11.2,13.1,11.2c4.6,0,8.9-1,11.9-4.4h0.1
		c-0.1,1,0.1,2.5,0.5,3.5h14.4C448.6,168.2,448.5,165.1,448.5,162.3z M434.9,157.3c-0.2,3.9-2.7,5.8-5.9,5.8c-2.6,0-4.4-1.7-4.4-3.4
		c0-2.5,1.6-3.3,4.8-4c1.9-0.4,3.9-0.9,5.6-1.8L434.9,157.3z"/>
	<path class="st0" d="M71,103.8c-7.4,0-14.3,1.1-20.6,2.9h41.1C85.3,104.9,78.4,103.8,71,103.8z"/>
	<path class="st0" d="M56.2,111.8h-19c-2.1,1-4.1,2.1-6,3.2H51C52.6,113.8,54.4,112.7,56.2,111.8z"/>
	<path class="st0" d="M91.1,115h19.5c-1.9-1.1-3.8-2.2-5.9-3.2H85.9C87.7,112.7,89.5,113.8,91.1,115z"/>
	<path class="st0" d="M46.1,119.4H24.7c-2.2,1.6-4.2,3.4-5.9,5.2h23.5C43.4,122.7,44.7,121,46.1,119.4z"/>
	<path class="st0" d="M99.7,124.6h23.5c-1.8-1.8-3.7-3.5-5.9-5.2H95.9C97.3,121,98.6,122.7,99.7,124.6z"/>
	<path class="st0" d="M103.8,135.6H130c-0.8-2.5-2-4.9-3.7-7.2h-24.7C102.6,130.7,103.3,133.1,103.8,135.6z"/>
	<path class="st0" d="M40.4,128.4H15.7c-1.6,2.3-2.9,4.7-3.7,7.2h26.2C38.7,133.1,39.4,130.7,40.4,128.4z"/>
	<path class="st0" d="M37.8,141.6c-0.1-0.7,0-1.5,0-2.2H11.3c-0.1,0.7-0.1,1.5-0.1,2.2c0,1.9,0.3,3.7,0.7,5.4h26.3
		C37.9,145.2,37.8,143.4,37.8,141.6z"/>
	<path class="st0" d="M104.3,139.4c0,0.8,0.1,1.5,0.1,2.3c0,1.8-0.2,3.6-0.5,5.3h26.3c0.5-1.7,0.7-3.5,0.7-5.4c0-0.8,0-1.5-0.1-2.2
		H104.3z"/>
	<path class="st0" d="M100,158h23.8c2.3-2.5,4.2-5.2,5.4-8.1h-25.9C102.6,152.8,101.5,155.5,100,158z"/>
	<path class="st0" d="M38.7,149.9H12.9c1.2,2.9,3.1,5.6,5.4,8.1H42C40.6,155.5,39.5,152.7,38.7,149.9z"/>
	<path class="st0" d="M87.7,170.5h19c2-1,3.9-2.1,5.7-3.3c3.3-2.1,6.3-4.3,8.9-6.7H98.4C95.6,164.7,92,168.1,87.7,170.5z"/>
	<path class="st0" d="M43.6,160.6H20.9c2.6,2.4,5.6,4.6,8.9,6.7c1.8,1.1,3.7,2.2,5.7,3.3h18.9C50.1,168.1,46.4,164.7,43.6,160.6z"/>
	<path class="st0" d="M71,175c-5,0-9.7-1.1-14-3.1H38.1c9.3,4.5,20.4,7.5,32.9,7.5c12.6,0,23.6-3,32.9-7.5H85.1
		C80.8,173.9,76.1,175,71,175z"/>
</g>
</svg>
