<?xml version="1.0" encoding="utf-8"?>
<!-- Generator: Adobe Illustrator 26.5.0, SVG Export Plug-In . SVG Version: 6.00 Build 0)  -->
<svg version="1.0"
	 id="Layer_1" xmlns:inkscape="http://www.inkscape.org/namespaces/inkscape" xmlns:sodipodi="http://sodipodi.sourceforge.net/DTD/sodipodi-0.dtd" xmlns:rdf="http://www.w3.org/1999/02/22-rdf-syntax-ns#" xmlns:cc="http://creativecommons.org/ns#" xmlns:dc="http://purl.org/dc/elements/1.1/" xmlns:svg="http://www.w3.org/2000/svg"
	 xmlns="http://www.w3.org/2000/svg" xmlns:xlink="http://www.w3.org/1999/xlink" x="0px" y="0px" viewBox="0 0 1156.91 815.24"
	 style="enable-background:new 0 0 1156.91 815.24;" xml:space="preserve">
<style type="text/css">
	.st0{fill-rule:evenodd;clip-rule:evenodd;}
	.st1{fill:#010101;}
</style>
<sodipodi:namedview  bordercolor="#666666" borderopacity="1" gridtolerance="10" guidetolerance="10" id="namedview86" inkscape:current-layer="g83" inkscape:cx="500" inkscape:cy="261.67401" inkscape:pagecheckerboard="true" inkscape:pageopacity="0" inkscape:pageshadow="2" inkscape:window-height="1137" inkscape:window-maximized="1" inkscape:window-width="1920" inkscape:window-x="-8" inkscape:window-y="-8" inkscape:zoom="1.339106" objecttolerance="10" pagecolor="#ffffff" showgrid="false">
	</sodipodi:namedview>
<g id="g83">
	<path id="path27" class="st0" d="M764.15,393.64c-24.51,75.2-93.38,133.7-180.68,133.7c-92.57,0-154.81-57.72-179.79-132.07
		c26,69.27,96.74,118.93,179.93,118.93C667.44,514.2,738.65,463.75,764.15,393.64 M403.26,278.89
		c24.62-75,82.87-132.94,180.21-132.94c90.48,0,156.97,58.73,181.08,134.58c-25.15-70.69-96.68-121.7-180.94-121.7
		C499.97,158.82,428.92,209.04,403.26,278.89"/>
	<path id="path29" class="st0" d="M587.3,260.36c1.17-1.71,4.67-0.57,7.16-0.51c3.36,0.07,2.56,4.94,7.17,3.97
		c4.6-0.96,4.67,4.32,11.24,4.14c6.61-0.21-1.31,2.27-1.31,2.27s-4.08-1.94-6.73-0.65c-1.38,0.68,0.53-0.38-1.8-2.28
		c-3.63-2.92-3.15,0.55-9.23-4.54C589.52,259.17,585.4,263.18,587.3,260.36 M620.39,393.47c2.62,1.04,5.89,3.63,7.4,7.56
		c3.57,9.31-1.73,1.76-1.73,15.81c0,12.93-3.7,10.83-3.7,10.83s-0.8,15.28-8.8,24.67c-5.11,5.05-1.14,9.23-1.14,9.23
		s-1.73,0.94-4.23,12.03c-0.8,3.59,3.85,9.13,7.91,7.75c3.02-1.03-7.37-2.02,3.89-6.71c4.35-1.81,0.79-5.22,0.79-5.22
		s7.3-0.54,11.42-11.41c7.25,1.04,4.56-3.34,19.51-6.52c3.95-0.85,4.79-2.01,4.3-5.68c-0.5-3.65,4.87,0.54,19.68-14.35
		c11.68-11.75,7.47-14.4,15.54-18.67c8.53-4.48,9.31,0.4,12.17-3.27c6.54-8.34,4.22-7.82,6.94-13.13l1.93-2.95L620.39,393.47z
		 M538.26,269.88c-2.42-5.9-2.26-15.46,2.92-24.3c3.27-5.52,11.92-7.97,19.48-5.06c8.49-6.59,10.51,0.5,18.02-2.71
		c9.86-4.22,4.34,11.17,13.9,15.06c3.95-10.37-9.01-18.16-0.88-23.06c5.8-3.48,10.17-5.64,12.54-10.32
		c3.39-6.65,4.72-11.51,7.31-12.39c6.02-2.02,4.73-7.66,4.73-7.66s6.4,1.85,11.38-2.75c-3.8-2.01-9.35-3.76-7.9-7.78
		c1.71-4.75,14.61,4.9,18.41-2.88c-7.66-3.3-15.49-10.45-20.17-12.1c-3.22,3.45-5.22,2.06-9.36-1.18c-7.01-5.46-7.6-0.26-11.98-4.03
		c-3.5,6.93,1.76,6.38,3.39,8.12c4.5,4.86-4.56-4.37-3.69,8.03c0.23,3.22-4.59,3.81-8.18-3.17c-1.87-3.63-16.76-2.86-19.01-6.34
		c2.05-4.04,19.58-18.44,46.5-14.99c-39.1-15.13-91.93,1.41-92.46,7.16c-5.27,3.26-3.45,6.96-6.08,7.83
		c-4.54,1.5-9.52,15.2-9.52,15.2s2.83,1.86-6,11.62c-7.28,8.03-9.44,20.2-9.44,20.2s4.82,8.67,3.9,18.67
		c-0.69,7.62-1.01,1.97,2.36,7.5c1.96,3.23,4.1,14.52,5.4,10.12c2.49-8.41-4.53-16.18-3.37-24.54c0.26,1.04,2.7-3.31,2.6,0.63
		c-0.27,10.32,12.9,30.21,12.9,30.21s-4.92,4.91,0.21,4.91L538.26,269.88z"/>
	<path id="path31" d="M258.07,297.54h-29.69l4.43,5.21v38.41c0,8.65-5.8,12.29-14.46,12.29c-8.66,0-14.47-3.64-14.47-12.29v-38.41
		l4.44-5.21h-29.69l4.43,5.21v39.04c0,19.17,10.89,26.56,35.29,26.56c24.4,0,35.29-7.39,35.29-26.56v-39.04L258.07,297.54z"/>
	<polygon id="polygon33" points="361.12,297.54 336.07,297.54 340.53,302.74 340.53,337.72 304.6,297.54 282.09,297.54 
		286.54,302.74 286.54,361.77 282.09,366.98 307.12,366.98 302.69,361.77 302.69,326.18 340.84,366.98 356.68,366.98 356.68,302.74 
			"/>
	<polygon id="polygon35" points="418.82,366.98 414.38,361.77 414.38,302.74 418.82,297.54 388.92,297.54 393.35,302.74 
		393.35,361.77 388.92,366.98 	"/>
	<polygon id="polygon37" points="517.41,297.54 492.26,297.54 496.7,302.74 478.96,340.96 461.84,302.74 466.28,297.54 
		436.69,297.54 469.55,366.98 484.23,366.98 	"/>
	<polygon id="polygon39" points="601.37,366.98 601.37,348.14 596.08,352.51 560.06,352.51 560.06,339.17 582.87,339.17 
		588.06,343.56 588.06,320.96 582.87,325.34 560.06,325.34 560.06,312 596.08,312 601.37,316.38 601.37,297.54 535.02,297.54 
		539.46,302.74 539.46,361.77 535.02,366.98 	"/>
	<path id="path41" class="st0" d="M702.36,366.98l-19.1-27.38c9.39-3.76,15.93-10.93,15.93-21.03c0-11.57-7.17-21.03-27.25-21.03
		H628l4.45,5.2v59.03l-4.45,5.21h29.48l-4.43-5.21V342.1h8.86l13.51,19.68l-4.42,5.21L702.36,366.98L702.36,366.98z M678.08,320.02
		c0,5-4.87,9.06-11.64,9.06h-13.4V312h15.94C673.62,312,678.08,314.31,678.08,320.02"/>
	<path id="path43" d="M791.62,346.68c0-11.04-8.99-17.18-21.98-21.35c-8.45-2.59-20.38-4.46-20.38-9.99c0-2.71,3.27-4.59,8.97-4.59
		c7.62,0,20.07,3.13,29.78,7.71v-23.2l-5.59,5.3c-5.92-2.4-16.17-4.89-23.24-4.89c-23.97,0-31.7,10.41-31.7,19.89
		c0,12.9,8.66,18.53,22.3,23.21c10.12,3.43,19.53,3.74,19.53,9.46c0,4.91-5.8,5.53-8.76,5.53c-7.5,0-20.82-2.61-32.65-10.2v25.71
		l5.6-6.04c5.5,2.09,17.86,5.62,28,5.62C782.31,368.85,791.62,359.79,791.62,346.68"/>
	<path id="path45" class="st0" d="M897,366.98l-34.65-69.44h-23.77l2.52,5.21l-31.38,64.24h25.89l-4.44-5.2l3.48-7.28h33.59
		l3.37,7.28l-4.44,5.2H897z M863.08,342h-23.36l11.64-24.88L863.08,342z"/>
	<polygon id="polygon47" points="980.49,366.98 980.49,348.14 975.2,352.51 941.29,352.51 941.29,302.74 945.72,297.54 
		916.24,297.54 920.68,302.74 920.68,361.77 916.24,366.98 	"/>
	<g id="g81">
		<path id="path53" class="st1" d="M133.29,620.78l-3.06,3.51v26.41c0,3.28-0.49,6.05-1.46,8.32c-0.97,2.27-2.43,4.11-4.38,5.52
			c-1.95,1.41-4.44,2.45-7.48,3.13c-3.04,0.68-6.72,1.02-11.04,1.02c-4.3,0-7.96-0.34-10.99-1.02c-3.03-0.67-5.52-1.72-7.5-3.13
			c-1.97-1.41-3.44-3.26-4.42-5.54c-0.97-2.28-1.46-5.05-1.46-8.3v-26.41l-3.06-3.51h20.51l-3.06,3.51v26c0,2.8,0.88,4.88,2.65,6.26
			c1.77,1.38,4.21,2.06,7.32,2.06c3.11,0,5.56-0.68,7.34-2.05c1.78-1.36,2.67-3.46,2.67-6.27v-26l-3.06-3.51L133.29,620.78
			L133.29,620.78z"/>
		<path id="path55" class="st1" d="M211.93,620.78l-3.06,3.51v43.46H197.9l-26.32-27.61v24.1l3.06,3.51h-17.27l3.06-3.51v-39.95
			l-3.06-3.51h15.53l24.79,27.2v-23.69l-3.06-3.51H211.93L211.93,620.78z"/>
		<path id="path57" class="st1" d="M259.15,667.75h-20.62l3.06-3.51v-39.95l-3.06-3.51h20.62l-3.06,3.51v39.95L259.15,667.75z"/>
		<path id="path59" class="st1" d="M334.93,620.78l-22.9,46.97h-10.15l-22.69-46.97h20.44l-3.06,3.51l11.83,25.86l12.25-25.86
			l-3.06-3.51H334.93z"/>
		<path id="path61" class="st1" d="M400.43,667.75h-45.8l3.06-3.51v-39.95l-3.06-3.51h45.8v12.76l-3.67-2.96H371.9v9.01h15.74
			l3.6-2.96v15.27l-3.6-2.95H371.9v9.01h24.86l3.67-2.95V667.75z"/>
		<path id="path63" class="st1" d="M477.63,667.75h-21.65l3.06-3.51l-9.33-13.31h-6.13v13.31l3.06,3.51h-20.33l3.06-3.51v-39.95
			l-3.06-3.51h30.34c6.55,0,11.32,1.31,14.32,3.92c2.99,2.61,4.49,6.05,4.49,10.31c0,3.28-0.98,6.13-2.96,8.56
			c-1.97,2.43-4.65,4.31-8.05,5.64L477.63,667.75z M460.86,635.98c0-1.24-0.29-2.26-0.87-3.06c-0.58-0.8-1.35-1.39-2.3-1.77
			c-0.95-0.38-1.98-0.56-3.1-0.56h-11v11.55h9.26c2.3,0,4.21-0.6,5.73-1.79C460.1,639.15,460.86,637.7,460.86,635.98z"/>
		<path id="path65" class="st1" d="M546.72,654.03c0,2.27-0.41,4.31-1.23,6.12c-0.82,1.81-2.09,3.39-3.81,4.71
			c-1.72,1.33-3.88,2.36-6.48,3.08c-2.6,0.72-5.68,1.08-9.24,1.08c-2.16,0-4.48-0.21-6.96-0.62c-2.48-0.41-4.88-0.94-7.19-1.58
			c-2.32-0.65-4.04-1.18-5.18-1.62l-3.88,4.09v-17.4c3.7,2.34,7.64,4.08,11.81,5.21c4.17,1.13,7.74,1.7,10.74,1.7
			c1.54,0,2.94-0.26,4.18-0.77c1.25-0.52,1.87-1.51,1.87-2.97c0-1.17-0.55-2.06-1.64-2.68c-1.09-0.62-3.1-1.31-6.04-2.08
			c-2.93-0.77-4.87-1.31-5.82-1.63c-5.18-1.74-9.03-3.77-11.57-6.1c-2.54-2.32-3.81-5.53-3.81-9.61c0-2.31,0.71-4.49,2.12-6.52
			c1.41-2.03,3.77-3.69,7.09-4.98c3.31-1.29,7.54-1.94,12.7-1.94c1.19,0,2.46,0.09,3.81,0.26c1.35,0.17,2.85,0.43,4.49,0.77
			c1.64,0.34,3.08,0.71,4.34,1.08c1.26,0.38,2.39,0.77,3.38,1.18l3.88-3.58v15.71c-2.3-1.05-4.72-1.98-7.25-2.76
			c-2.53-0.79-4.96-1.4-7.28-1.82c-2.33-0.42-4.34-0.64-6.06-0.64c-1.92,0-3.44,0.29-4.54,0.86c-1.11,0.57-1.66,1.32-1.66,2.23
			c0,0.87,0.41,1.63,1.25,2.27c0.83,0.64,1.89,1.2,3.19,1.67c1.29,0.47,2.98,0.98,5.06,1.55c2.08,0.56,3.6,0.99,4.58,1.29
			c4.87,1.54,8.61,3.45,11.23,5.73C545.41,647.59,546.72,650.5,546.72,654.03z"/>
		<path id="path67" class="st1" d="M627.03,667.75h-20.58l3.06-3.51l-2.32-4.95h-23.22l-2.39,4.95l3.06,3.51h-17.88l21.65-43.46
			l-1.75-3.51h16.42L627.03,667.75z M603.6,650.83l-8.09-16.82l-8.01,16.82H603.6z"/>
		<path id="path69" class="st1" d="M692.16,667.75h-44.34l3.06-3.51v-39.95l-3.06-3.51h20.34l-3.06,3.51v33.66h23.4l3.67-2.95
			V667.75z"/>
		<path id="path71" class="st1" d="M814.1,667.75h-19.91l3.06-3.51v-22.56l-12.89,26.06h-6.8L763,641.27v22.97l3.06,3.51h-16.84
			l3.06-3.51v-39.95l-3.06-3.51h17.13l15.81,28.75l14.46-28.75h17.48l-3.06,3.51v39.95L814.1,667.75z"/>
		<path id="path73" class="st1" d="M893.02,620.78l-3.06,3.51v26.41c0,3.28-0.49,6.05-1.46,8.32c-0.97,2.27-2.43,4.11-4.38,5.52
			c-1.95,1.41-4.44,2.45-7.48,3.13c-3.04,0.68-6.72,1.02-11.04,1.02c-4.3,0-7.96-0.34-10.99-1.02c-3.03-0.67-5.53-1.72-7.5-3.13
			c-1.97-1.41-3.44-3.26-4.41-5.54c-0.97-2.28-1.46-5.05-1.46-8.3v-26.41l-3.06-3.51h20.51l-3.06,3.51v26c0,2.8,0.88,4.88,2.65,6.26
			c1.77,1.38,4.21,2.06,7.32,2.06c3.11,0,5.56-0.68,7.34-2.05c1.78-1.36,2.67-3.46,2.67-6.27v-26l-3.06-3.51H893.02z"/>
		<path id="path75" class="st1" d="M960.61,654.03c0,2.27-0.41,4.31-1.23,6.12c-0.82,1.81-2.09,3.39-3.81,4.71
			c-1.72,1.33-3.88,2.36-6.48,3.08c-2.6,0.72-5.68,1.08-9.24,1.08c-2.16,0-4.48-0.21-6.96-0.62c-2.48-0.41-4.88-0.94-7.19-1.58
			c-2.31-0.65-4.04-1.18-5.18-1.62l-3.88,4.09v-17.4c3.7,2.34,7.64,4.08,11.81,5.21c4.17,1.13,7.75,1.7,10.74,1.7
			c1.54,0,2.94-0.26,4.19-0.77c1.24-0.52,1.87-1.51,1.87-2.97c0-1.17-0.55-2.06-1.64-2.68c-1.09-0.62-3.1-1.31-6.04-2.08
			c-2.93-0.77-4.87-1.31-5.82-1.63c-5.17-1.74-9.03-3.77-11.57-6.1c-2.54-2.32-3.81-5.53-3.81-9.61c0-2.31,0.71-4.49,2.12-6.52
			c1.41-2.03,3.78-3.69,7.09-4.98c3.31-1.29,7.54-1.94,12.7-1.94c1.19,0,2.46,0.09,3.81,0.26c1.35,0.17,2.85,0.43,4.49,0.77
			c1.64,0.34,3.09,0.71,4.35,1.08c1.26,0.38,2.39,0.77,3.38,1.18l3.88-3.58v15.71c-2.3-1.05-4.72-1.98-7.25-2.76
			c-2.53-0.79-4.95-1.4-7.28-1.82c-2.33-0.42-4.35-0.64-6.05-0.64c-1.92,0-3.44,0.29-4.54,0.86c-1.1,0.57-1.66,1.32-1.66,2.23
			c0,0.87,0.41,1.63,1.25,2.27c0.83,0.64,1.89,1.2,3.19,1.67c1.29,0.47,2.98,0.98,5.06,1.55c2.08,0.56,3.6,0.99,4.58,1.29
			c4.87,1.54,8.61,3.45,11.23,5.73C959.3,647.59,960.61,650.5,960.61,654.03z"/>
		<path id="path77" class="st1" d="M1007.12,667.75H986.5l3.06-3.51v-39.95l-3.06-3.51h20.62l-3.06,3.51v39.95L1007.12,667.75z"/>
		<path id="path79" class="st1" d="M1078.45,664.38c-0.9,0.51-2.05,1.01-3.45,1.51c-1.4,0.51-2.94,0.96-4.63,1.36
			c-1.69,0.4-3.51,0.74-5.47,1.01c-1.96,0.28-3.82,0.41-5.57,0.41c-3.8,0-7.38-0.47-10.74-1.41c-3.36-0.94-6.35-2.41-8.98-4.4
			c-2.62-1.99-4.68-4.56-6.18-7.7c-1.5-3.14-2.24-6.79-2.24-10.93c0-3.44,0.63-6.65,1.89-9.63c1.26-2.98,3.12-5.58,5.59-7.79
			c2.47-2.21,5.49-3.93,9.06-5.14c3.57-1.22,7.64-1.82,12.2-1.82c1.8,0,3.65,0.12,5.52,0.36c1.88,0.24,3.6,0.55,5.18,0.91
			c1.58,0.37,3.05,0.79,4.4,1.27l3.35-3.09v15.64c-1.8-1.07-3.62-1.98-5.47-2.7c-1.84-0.72-3.78-1.28-5.82-1.67
			c-2.04-0.39-4.17-0.59-6.37-0.59c-4.82,0-8.41,1.34-10.76,4.01c-2.35,2.67-3.52,6.08-3.52,10.23c0,2.82,0.6,5.31,1.82,7.48
			c1.21,2.16,2.94,3.84,5.2,5.04c2.26,1.19,4.83,1.79,7.73,1.79c2.68,0,5.13-0.28,7.35-0.83c2.22-0.55,4.06-1.19,5.52-1.91
			c1.46-0.72,2.93-1.53,4.4-2.42L1078.45,664.38L1078.45,664.38z"/>
	</g>
</g>
</svg>
