<svg xmlns="http://www.w3.org/2000/svg" xmlns:xlink="http://www.w3.org/1999/xlink" width="100" zoomAndPan="magnify" viewBox="0 0 75 30.000001" height="40" preserveAspectRatio="xMidYMid meet" version="1.0"><defs><g/><clipPath id="d5bb05066c"><path d="M 2.015625 5.921875 L 17.851562 5.921875 L 17.851562 23.058594 L 2.015625 23.058594 Z M 2.015625 5.921875 " clip-rule="nonzero"/></clipPath></defs><g clip-path="url(#d5bb05066c)"><path fill="#232323" d="M 2.015625 5.921875 L 17.835938 5.921875 L 17.835938 23.089844 L 2.015625 23.089844 Z M 2.015625 5.921875 " fill-opacity="1" fill-rule="nonzero"/></g><g fill="#eae3d2" fill-opacity="1"><g transform="translate(1.491347, 17.916888)"><g><path d="M 6.15625 3.984375 C 4.664062 3.984375 3.503906 3.703125 2.671875 3.140625 C 1.847656 2.585938 1.378906 1.800781 1.265625 0.78125 L 3.109375 0.78125 C 3.191406 1.375 3.5 1.800781 4.03125 2.0625 C 4.570312 2.320312 5.269531 2.453125 6.125 2.453125 C 7.132812 2.453125 7.910156 2.222656 8.453125 1.765625 C 8.992188 1.304688 9.265625 0.59375 9.265625 -0.375 L 9.265625 -0.703125 C 9.265625 -1.023438 9.269531 -1.328125 9.28125 -1.609375 C 9.289062 -1.898438 9.300781 -2.140625 9.3125 -2.328125 L 9.265625 -2.328125 C 8.878906 -1.765625 8.421875 -1.320312 7.890625 -1 C 7.359375 -0.675781 6.691406 -0.515625 5.890625 -0.515625 C 5.171875 -0.515625 4.503906 -0.644531 3.890625 -0.90625 C 3.273438 -1.175781 2.75 -1.554688 2.3125 -2.046875 C 1.875 -2.546875 1.53125 -3.132812 1.28125 -3.8125 C 1.03125 -4.488281 0.90625 -5.242188 0.90625 -6.078125 C 0.90625 -6.953125 1.03125 -7.734375 1.28125 -8.421875 C 1.539062 -9.117188 1.890625 -9.703125 2.328125 -10.171875 C 2.773438 -10.640625 3.296875 -11 3.890625 -11.25 C 4.484375 -11.507812 5.113281 -11.640625 5.78125 -11.640625 C 6.601562 -11.640625 7.289062 -11.488281 7.84375 -11.1875 C 8.40625 -10.882812 8.867188 -10.441406 9.234375 -9.859375 L 9.265625 -9.859375 L 9.265625 -11.375 L 11.21875 -11.375 L 11.21875 -0.46875 C 11.21875 0.289062 11.097656 0.945312 10.859375 1.5 C 10.617188 2.0625 10.28125 2.53125 9.84375 2.90625 C 9.394531 3.269531 8.859375 3.539062 8.234375 3.71875 C 7.609375 3.894531 6.914062 3.984375 6.15625 3.984375 Z M 6.078125 -2.109375 C 6.703125 -2.109375 7.222656 -2.210938 7.640625 -2.421875 C 8.066406 -2.628906 8.410156 -2.910156 8.671875 -3.265625 C 8.929688 -3.628906 9.117188 -4.054688 9.234375 -4.546875 C 9.347656 -5.046875 9.40625 -5.582031 9.40625 -6.15625 C 9.40625 -7.351562 9.128906 -8.296875 8.578125 -8.984375 C 8.035156 -9.671875 7.195312 -10.015625 6.0625 -10.015625 C 5.007812 -10.015625 4.222656 -9.65625 3.703125 -8.9375 C 3.179688 -8.21875 2.921875 -7.257812 2.921875 -6.0625 C 2.921875 -4.84375 3.1875 -3.878906 3.71875 -3.171875 C 4.257812 -2.460938 5.046875 -2.109375 6.078125 -2.109375 Z M 6.078125 -2.109375 "/></g></g></g><g fill="#eae3d2" fill-opacity="1"><g transform="translate(14.089387, 17.916888)"><g><path d="M 1.140625 -2.328125 L 3.4375 -2.328125 L 3.4375 0 L 1.140625 0 Z M 1.140625 -2.328125 "/></g></g></g><g fill="#eae3d2" fill-opacity="1"><g transform="translate(18.662801, 17.916888)"><g/></g></g><g fill="#eae3d2" fill-opacity="1"><g transform="translate(24.294866, 17.916888)"><g><path d="M 6.15625 3.984375 C 4.664062 3.984375 3.503906 3.703125 2.671875 3.140625 C 1.847656 2.585938 1.378906 1.800781 1.265625 0.78125 L 3.109375 0.78125 C 3.191406 1.375 3.5 1.800781 4.03125 2.0625 C 4.570312 2.320312 5.269531 2.453125 6.125 2.453125 C 7.132812 2.453125 7.910156 2.222656 8.453125 1.765625 C 8.992188 1.304688 9.265625 0.59375 9.265625 -0.375 L 9.265625 -0.703125 C 9.265625 -1.023438 9.269531 -1.328125 9.28125 -1.609375 C 9.289062 -1.898438 9.300781 -2.140625 9.3125 -2.328125 L 9.265625 -2.328125 C 8.878906 -1.765625 8.421875 -1.320312 7.890625 -1 C 7.359375 -0.675781 6.691406 -0.515625 5.890625 -0.515625 C 5.171875 -0.515625 4.503906 -0.644531 3.890625 -0.90625 C 3.273438 -1.175781 2.75 -1.554688 2.3125 -2.046875 C 1.875 -2.546875 1.53125 -3.132812 1.28125 -3.8125 C 1.03125 -4.488281 0.90625 -5.242188 0.90625 -6.078125 C 0.90625 -6.953125 1.03125 -7.734375 1.28125 -8.421875 C 1.539062 -9.117188 1.890625 -9.703125 2.328125 -10.171875 C 2.773438 -10.640625 3.296875 -11 3.890625 -11.25 C 4.484375 -11.507812 5.113281 -11.640625 5.78125 -11.640625 C 6.601562 -11.640625 7.289062 -11.488281 7.84375 -11.1875 C 8.40625 -10.882812 8.867188 -10.441406 9.234375 -9.859375 L 9.265625 -9.859375 L 9.265625 -11.375 L 11.21875 -11.375 L 11.21875 -0.46875 C 11.21875 0.289062 11.097656 0.945312 10.859375 1.5 C 10.617188 2.0625 10.28125 2.53125 9.84375 2.90625 C 9.394531 3.269531 8.859375 3.539062 8.234375 3.71875 C 7.609375 3.894531 6.914062 3.984375 6.15625 3.984375 Z M 6.078125 -2.109375 C 6.703125 -2.109375 7.222656 -2.210938 7.640625 -2.421875 C 8.066406 -2.628906 8.410156 -2.910156 8.671875 -3.265625 C 8.929688 -3.628906 9.117188 -4.054688 9.234375 -4.546875 C 9.347656 -5.046875 9.40625 -5.582031 9.40625 -6.15625 C 9.40625 -7.351562 9.128906 -8.296875 8.578125 -8.984375 C 8.035156 -9.671875 7.195312 -10.015625 6.0625 -10.015625 C 5.007812 -10.015625 4.222656 -9.65625 3.703125 -8.9375 C 3.179688 -8.21875 2.921875 -7.257812 2.921875 -6.0625 C 2.921875 -4.84375 3.1875 -3.878906 3.71875 -3.171875 C 4.257812 -2.460938 5.046875 -2.109375 6.078125 -2.109375 Z M 6.078125 -2.109375 "/></g></g></g><g fill="#eae3d2" fill-opacity="1"><g transform="translate(36.892907, 17.916888)"><g><path d="M 6.28125 0.3125 C 5.40625 0.3125 4.625 0.160156 3.9375 -0.140625 C 3.257812 -0.453125 2.679688 -0.878906 2.203125 -1.421875 C 1.722656 -1.972656 1.359375 -2.609375 1.109375 -3.328125 C 0.859375 -4.054688 0.734375 -4.835938 0.734375 -5.671875 C 0.734375 -6.492188 0.863281 -7.265625 1.125 -7.984375 C 1.394531 -8.710938 1.765625 -9.347656 2.234375 -9.890625 C 2.703125 -10.441406 3.269531 -10.867188 3.9375 -11.171875 C 4.613281 -11.484375 5.363281 -11.640625 6.1875 -11.640625 C 7.03125 -11.640625 7.773438 -11.484375 8.421875 -11.171875 C 9.078125 -10.867188 9.628906 -10.441406 10.078125 -9.890625 C 10.546875 -9.328125 10.894531 -8.648438 11.125 -7.859375 C 11.351562 -7.066406 11.46875 -6.179688 11.46875 -5.203125 L 2.75 -5.203125 C 2.789062 -4.648438 2.894531 -4.132812 3.0625 -3.65625 C 3.238281 -3.175781 3.472656 -2.757812 3.765625 -2.40625 C 4.066406 -2.0625 4.425781 -1.789062 4.84375 -1.59375 C 5.269531 -1.394531 5.757812 -1.296875 6.3125 -1.296875 C 7.101562 -1.296875 7.753906 -1.46875 8.265625 -1.8125 C 8.785156 -2.15625 9.132812 -2.628906 9.3125 -3.234375 L 11.25 -3.234375 C 10.988281 -2.179688 10.421875 -1.328125 9.546875 -0.671875 C 8.679688 -0.015625 7.59375 0.3125 6.28125 0.3125 Z M 6.1875 -10.125 C 5.675781 -10.125 5.222656 -10.035156 4.828125 -9.859375 C 4.429688 -9.679688 4.09375 -9.4375 3.8125 -9.125 C 3.53125 -8.8125 3.300781 -8.441406 3.125 -8.015625 C 2.957031 -7.597656 2.847656 -7.132812 2.796875 -6.625 L 9.375 -6.625 C 9.320312 -7.726562 9.023438 -8.585938 8.484375 -9.203125 C 7.941406 -9.816406 7.175781 -10.125 6.1875 -10.125 Z M 6.1875 -10.125 "/></g></g></g><g fill="#eae3d2" fill-opacity="1"><g transform="translate(49.109836, 17.916888)"><g><path d="M 4.703125 -5.953125 L 0.90625 -11.375 L 3.203125 -11.375 L 4.890625 -8.765625 C 4.972656 -8.609375 5.066406 -8.441406 5.171875 -8.265625 C 5.273438 -8.085938 5.378906 -7.921875 5.484375 -7.765625 C 5.597656 -7.585938 5.703125 -7.398438 5.796875 -7.203125 L 5.84375 -7.203125 C 5.957031 -7.398438 6.070312 -7.585938 6.1875 -7.765625 C 6.28125 -7.921875 6.375 -8.085938 6.46875 -8.265625 C 6.570312 -8.453125 6.675781 -8.617188 6.78125 -8.765625 L 8.53125 -11.375 L 10.671875 -11.375 L 6.96875 -6.140625 L 11.34375 0 L 9.0625 0 L 6.875 -3.21875 C 6.769531 -3.375 6.660156 -3.546875 6.546875 -3.734375 C 6.429688 -3.921875 6.316406 -4.109375 6.203125 -4.296875 C 6.078125 -4.503906 5.957031 -4.71875 5.84375 -4.9375 L 5.796875 -4.9375 C 5.679688 -4.71875 5.5625 -4.503906 5.4375 -4.296875 C 5.320312 -4.109375 5.207031 -3.921875 5.09375 -3.734375 C 4.988281 -3.546875 4.882812 -3.375 4.78125 -3.21875 L 2.625 0 L 0.421875 0 Z M 4.703125 -5.953125 "/></g></g></g><g fill="#eae3d2" fill-opacity="1"><g transform="translate(60.88213, 17.916888)"><g><path d="M 1.359375 -11.375 L 3.296875 -11.375 L 3.296875 -9.59375 L 3.359375 -9.59375 C 3.785156 -10.238281 4.289062 -10.738281 4.875 -11.09375 C 5.46875 -11.457031 6.171875 -11.640625 6.984375 -11.640625 C 7.703125 -11.640625 8.359375 -11.5 8.953125 -11.21875 C 9.554688 -10.945312 10.070312 -10.550781 10.5 -10.03125 C 10.9375 -9.519531 11.273438 -8.894531 11.515625 -8.15625 C 11.753906 -7.414062 11.875 -6.582031 11.875 -5.65625 C 11.875 -4.738281 11.757812 -3.910156 11.53125 -3.171875 C 11.3125 -2.441406 10.984375 -1.816406 10.546875 -1.296875 C 10.117188 -0.773438 9.597656 -0.367188 8.984375 -0.078125 C 8.367188 0.203125 7.679688 0.34375 6.921875 0.34375 C 6.148438 0.34375 5.457031 0.1875 4.84375 -0.125 C 4.238281 -0.4375 3.738281 -0.894531 3.34375 -1.5 L 3.28125 -1.5 C 3.289062 -1.300781 3.300781 -1.039062 3.3125 -0.71875 C 3.320312 -0.40625 3.328125 -0.03125 3.328125 0.40625 L 3.328125 3.859375 L 1.359375 3.859375 Z M 6.71875 -1.296875 C 7.238281 -1.296875 7.695312 -1.40625 8.09375 -1.625 C 8.488281 -1.84375 8.816406 -2.140625 9.078125 -2.515625 C 9.335938 -2.898438 9.53125 -3.351562 9.65625 -3.875 C 9.789062 -4.40625 9.859375 -4.984375 9.859375 -5.609375 C 9.859375 -6.234375 9.796875 -6.8125 9.671875 -7.34375 C 9.546875 -7.882812 9.351562 -8.347656 9.09375 -8.734375 C 8.832031 -9.117188 8.503906 -9.421875 8.109375 -9.640625 C 7.710938 -9.859375 7.253906 -9.96875 6.734375 -9.96875 C 6.128906 -9.96875 5.609375 -9.851562 5.171875 -9.625 C 4.734375 -9.40625 4.367188 -9.097656 4.078125 -8.703125 C 3.785156 -8.304688 3.566406 -7.84375 3.421875 -7.3125 C 3.285156 -6.78125 3.21875 -6.210938 3.21875 -5.609375 C 3.21875 -5.015625 3.28125 -4.453125 3.40625 -3.921875 C 3.53125 -3.398438 3.734375 -2.941406 4.015625 -2.546875 C 4.304688 -2.160156 4.671875 -1.851562 5.109375 -1.625 C 5.546875 -1.40625 6.082031 -1.296875 6.71875 -1.296875 Z M 6.71875 -1.296875 "/></g></g></g></svg>