<svg xmlns="http://www.w3.org/2000/svg" xmlns:xlink="http://www.w3.org/1999/xlink" width="100" zoomAndPan="magnify" viewBox="0 0 75 30.000001" height="40" preserveAspectRatio="xMidYMid meet" version="1.0"><defs><g/><clipPath id="5749f4f32e"><path d="M 4.113281 2.902344 L 27.488281 2.902344 L 27.488281 25.257812 L 4.113281 25.257812 Z M 4.113281 2.902344 " clip-rule="nonzero"/></clipPath></defs><g clip-path="url(#5749f4f32e)"><path fill="#eae3d2" d="M 4.113281 2.902344 L 27.703125 2.902344 L 27.703125 25.132812 L 4.113281 25.132812 Z M 4.113281 2.902344 " fill-opacity="1" fill-rule="nonzero"/></g><g fill="#232323" fill-opacity="1"><g transform="translate(10.305191, 15.842034)"><g><path d="M 3.9375 2.546875 C 2.976562 2.546875 2.234375 2.367188 1.703125 2.015625 C 1.179688 1.660156 0.882812 1.15625 0.8125 0.5 L 1.984375 0.5 C 2.046875 0.875 2.25 1.144531 2.59375 1.3125 C 2.9375 1.488281 3.378906 1.578125 3.921875 1.578125 C 4.566406 1.578125 5.0625 1.425781 5.40625 1.125 C 5.757812 0.832031 5.9375 0.375 5.9375 -0.25 L 5.9375 -0.453125 C 5.9375 -0.660156 5.9375 -0.851562 5.9375 -1.03125 C 5.945312 -1.21875 5.953125 -1.367188 5.953125 -1.484375 L 5.9375 -1.484375 C 5.675781 -1.128906 5.375 -0.847656 5.03125 -0.640625 C 4.695312 -0.429688 4.273438 -0.328125 3.765625 -0.328125 C 3.304688 -0.328125 2.878906 -0.410156 2.484375 -0.578125 C 2.085938 -0.753906 1.75 -1 1.46875 -1.3125 C 1.195312 -1.625 0.976562 -2 0.8125 -2.4375 C 0.65625 -2.875 0.578125 -3.359375 0.578125 -3.890625 C 0.578125 -4.453125 0.65625 -4.953125 0.8125 -5.390625 C 0.976562 -5.835938 1.203125 -6.210938 1.484375 -6.515625 C 1.773438 -6.816406 2.109375 -7.046875 2.484375 -7.203125 C 2.867188 -7.367188 3.273438 -7.453125 3.703125 -7.453125 C 4.222656 -7.453125 4.660156 -7.351562 5.015625 -7.15625 C 5.367188 -6.96875 5.664062 -6.6875 5.90625 -6.3125 L 5.9375 -6.3125 L 5.9375 -7.28125 L 7.1875 -7.28125 L 7.1875 -0.296875 C 7.1875 0.191406 7.109375 0.613281 6.953125 0.96875 C 6.796875 1.320312 6.578125 1.617188 6.296875 1.859375 C 6.003906 2.085938 5.660156 2.257812 5.265625 2.375 C 4.867188 2.488281 4.425781 2.546875 3.9375 2.546875 Z M 3.890625 -1.359375 C 4.285156 -1.359375 4.617188 -1.421875 4.890625 -1.546875 C 5.160156 -1.679688 5.378906 -1.863281 5.546875 -2.09375 C 5.710938 -2.320312 5.832031 -2.59375 5.90625 -2.90625 C 5.976562 -3.226562 6.015625 -3.570312 6.015625 -3.9375 C 6.015625 -4.707031 5.835938 -5.3125 5.484375 -5.75 C 5.140625 -6.1875 4.601562 -6.40625 3.875 -6.40625 C 3.207031 -6.40625 2.707031 -6.175781 2.375 -5.71875 C 2.039062 -5.257812 1.875 -4.644531 1.875 -3.875 C 1.875 -3.09375 2.046875 -2.476562 2.390625 -2.03125 C 2.734375 -1.582031 3.234375 -1.359375 3.890625 -1.359375 Z M 3.890625 -1.359375 "/></g></g></g><g fill="#232323" fill-opacity="1"><g transform="translate(18.361979, 15.842034)"><g><path d="M 0.734375 -1.484375 L 2.1875 -1.484375 L 2.1875 0 L 0.734375 0 Z M 0.734375 -1.484375 "/></g></g></g><g fill="#232323" fill-opacity="1"><g transform="translate(34.643837, 15.832395)"><g><path d="M 3.9375 2.546875 C 2.976562 2.546875 2.234375 2.367188 1.703125 2.015625 C 1.179688 1.660156 0.882812 1.15625 0.8125 0.5 L 1.984375 0.5 C 2.046875 0.875 2.25 1.144531 2.59375 1.3125 C 2.9375 1.488281 3.378906 1.578125 3.921875 1.578125 C 4.566406 1.578125 5.0625 1.425781 5.40625 1.125 C 5.757812 0.832031 5.9375 0.375 5.9375 -0.25 L 5.9375 -0.453125 C 5.9375 -0.660156 5.9375 -0.851562 5.9375 -1.03125 C 5.945312 -1.21875 5.953125 -1.367188 5.953125 -1.484375 L 5.9375 -1.484375 C 5.675781 -1.128906 5.375 -0.847656 5.03125 -0.640625 C 4.695312 -0.429688 4.273438 -0.328125 3.765625 -0.328125 C 3.304688 -0.328125 2.878906 -0.410156 2.484375 -0.578125 C 2.085938 -0.753906 1.75 -1 1.46875 -1.3125 C 1.195312 -1.625 0.976562 -2 0.8125 -2.4375 C 0.65625 -2.875 0.578125 -3.359375 0.578125 -3.890625 C 0.578125 -4.453125 0.65625 -4.953125 0.8125 -5.390625 C 0.976562 -5.835938 1.203125 -6.210938 1.484375 -6.515625 C 1.773438 -6.816406 2.109375 -7.046875 2.484375 -7.203125 C 2.867188 -7.367188 3.273438 -7.453125 3.703125 -7.453125 C 4.222656 -7.453125 4.660156 -7.351562 5.015625 -7.15625 C 5.367188 -6.96875 5.664062 -6.6875 5.90625 -6.3125 L 5.9375 -6.3125 L 5.9375 -7.28125 L 7.1875 -7.28125 L 7.1875 -0.296875 C 7.1875 0.191406 7.109375 0.613281 6.953125 0.96875 C 6.796875 1.320312 6.578125 1.617188 6.296875 1.859375 C 6.003906 2.085938 5.660156 2.257812 5.265625 2.375 C 4.867188 2.488281 4.425781 2.546875 3.9375 2.546875 Z M 3.890625 -1.359375 C 4.285156 -1.359375 4.617188 -1.421875 4.890625 -1.546875 C 5.160156 -1.679688 5.378906 -1.863281 5.546875 -2.09375 C 5.710938 -2.320312 5.832031 -2.59375 5.90625 -2.90625 C 5.976562 -3.226562 6.015625 -3.570312 6.015625 -3.9375 C 6.015625 -4.707031 5.835938 -5.3125 5.484375 -5.75 C 5.140625 -6.1875 4.601562 -6.40625 3.875 -6.40625 C 3.207031 -6.40625 2.707031 -6.175781 2.375 -5.71875 C 2.039062 -5.257812 1.875 -4.644531 1.875 -3.875 C 1.875 -3.09375 2.046875 -2.476562 2.390625 -2.03125 C 2.734375 -1.582031 3.234375 -1.359375 3.890625 -1.359375 Z M 3.890625 -1.359375 "/></g></g></g><g fill="#232323" fill-opacity="1"><g transform="translate(42.700625, 15.832395)"><g><path d="M 4.03125 0.203125 C 3.46875 0.203125 2.96875 0.101562 2.53125 -0.09375 C 2.09375 -0.289062 1.71875 -0.5625 1.40625 -0.90625 C 1.101562 -1.257812 0.867188 -1.664062 0.703125 -2.125 C 0.546875 -2.59375 0.46875 -3.09375 0.46875 -3.625 C 0.46875 -4.15625 0.550781 -4.648438 0.71875 -5.109375 C 0.882812 -5.578125 1.117188 -5.984375 1.421875 -6.328125 C 1.734375 -6.679688 2.101562 -6.957031 2.53125 -7.15625 C 2.957031 -7.351562 3.429688 -7.453125 3.953125 -7.453125 C 4.492188 -7.453125 4.972656 -7.351562 5.390625 -7.15625 C 5.804688 -6.957031 6.160156 -6.679688 6.453125 -6.328125 C 6.742188 -5.960938 6.960938 -5.523438 7.109375 -5.015625 C 7.265625 -4.515625 7.34375 -3.953125 7.34375 -3.328125 L 1.765625 -3.328125 C 1.785156 -2.972656 1.847656 -2.644531 1.953125 -2.34375 C 2.066406 -2.039062 2.21875 -1.773438 2.40625 -1.546875 C 2.601562 -1.316406 2.835938 -1.140625 3.109375 -1.015625 C 3.378906 -0.890625 3.6875 -0.828125 4.03125 -0.828125 C 4.539062 -0.828125 4.957031 -0.9375 5.28125 -1.15625 C 5.613281 -1.375 5.835938 -1.679688 5.953125 -2.078125 L 7.1875 -2.078125 C 7.03125 -1.398438 6.671875 -0.847656 6.109375 -0.421875 C 5.554688 -0.00390625 4.863281 0.203125 4.03125 0.203125 Z M 3.953125 -6.46875 C 3.628906 -6.46875 3.335938 -6.410156 3.078125 -6.296875 C 2.828125 -6.191406 2.613281 -6.039062 2.4375 -5.84375 C 2.257812 -5.644531 2.113281 -5.410156 2 -5.140625 C 1.894531 -4.867188 1.820312 -4.566406 1.78125 -4.234375 L 6 -4.234375 C 5.96875 -4.941406 5.773438 -5.488281 5.421875 -5.875 C 5.078125 -6.269531 4.585938 -6.46875 3.953125 -6.46875 Z M 3.953125 -6.46875 "/></g></g></g><g fill="#232323" fill-opacity="1"><g transform="translate(50.513687, 15.832395)"><g><path d="M 3 -3.8125 L 0.578125 -7.28125 L 2.046875 -7.28125 L 3.125 -5.609375 C 3.175781 -5.503906 3.234375 -5.394531 3.296875 -5.28125 C 3.367188 -5.175781 3.441406 -5.070312 3.515625 -4.96875 C 3.578125 -4.851562 3.644531 -4.734375 3.71875 -4.609375 L 3.734375 -4.609375 C 3.804688 -4.734375 3.878906 -4.851562 3.953125 -4.96875 C 4.015625 -5.070312 4.078125 -5.179688 4.140625 -5.296875 C 4.203125 -5.410156 4.265625 -5.515625 4.328125 -5.609375 L 5.453125 -7.28125 L 6.828125 -7.28125 L 4.453125 -3.921875 L 7.265625 0 L 5.796875 0 L 4.40625 -2.0625 C 4.332031 -2.15625 4.257812 -2.265625 4.1875 -2.390625 C 4.113281 -2.515625 4.039062 -2.632812 3.96875 -2.75 C 3.882812 -2.882812 3.804688 -3.019531 3.734375 -3.15625 L 3.71875 -3.15625 C 3.644531 -3.019531 3.566406 -2.882812 3.484375 -2.75 C 3.410156 -2.632812 3.335938 -2.515625 3.265625 -2.390625 C 3.191406 -2.265625 3.125 -2.15625 3.0625 -2.0625 L 1.6875 0 L 0.265625 0 Z M 3 -3.8125 "/></g></g></g><g fill="#232323" fill-opacity="1"><g transform="translate(58.04239, 15.832395)"><g><path d="M 0.859375 -7.28125 L 2.109375 -7.28125 L 2.109375 -6.140625 L 2.15625 -6.140625 C 2.425781 -6.554688 2.75 -6.878906 3.125 -7.109375 C 3.5 -7.335938 3.945312 -7.453125 4.46875 -7.453125 C 4.925781 -7.453125 5.347656 -7.363281 5.734375 -7.1875 C 6.117188 -7.007812 6.445312 -6.753906 6.71875 -6.421875 C 7 -6.097656 7.210938 -5.695312 7.359375 -5.21875 C 7.515625 -4.75 7.59375 -4.210938 7.59375 -3.609375 C 7.59375 -3.023438 7.519531 -2.5 7.375 -2.03125 C 7.238281 -1.5625 7.03125 -1.160156 6.75 -0.828125 C 6.476562 -0.492188 6.144531 -0.234375 5.75 -0.046875 C 5.351562 0.128906 4.914062 0.21875 4.4375 0.21875 C 3.9375 0.21875 3.488281 0.117188 3.09375 -0.078125 C 2.707031 -0.273438 2.390625 -0.570312 2.140625 -0.96875 L 2.09375 -0.96875 C 2.101562 -0.832031 2.109375 -0.660156 2.109375 -0.453125 C 2.117188 -0.253906 2.125 -0.0195312 2.125 0.25 L 2.125 2.46875 L 0.859375 2.46875 Z M 4.296875 -0.828125 C 4.628906 -0.828125 4.921875 -0.894531 5.171875 -1.03125 C 5.421875 -1.175781 5.628906 -1.367188 5.796875 -1.609375 C 5.972656 -1.859375 6.101562 -2.148438 6.1875 -2.484375 C 6.269531 -2.828125 6.3125 -3.195312 6.3125 -3.59375 C 6.3125 -3.988281 6.269531 -4.359375 6.1875 -4.703125 C 6.101562 -5.046875 5.976562 -5.335938 5.8125 -5.578125 C 5.644531 -5.828125 5.4375 -6.019531 5.1875 -6.15625 C 4.9375 -6.300781 4.644531 -6.375 4.3125 -6.375 C 3.914062 -6.375 3.578125 -6.300781 3.296875 -6.15625 C 3.023438 -6.019531 2.796875 -5.820312 2.609375 -5.5625 C 2.421875 -5.3125 2.28125 -5.015625 2.1875 -4.671875 C 2.101562 -4.335938 2.0625 -3.976562 2.0625 -3.59375 C 2.0625 -3.207031 2.097656 -2.84375 2.171875 -2.5 C 2.253906 -2.164062 2.382812 -1.875 2.5625 -1.625 C 2.75 -1.382812 2.984375 -1.191406 3.265625 -1.046875 C 3.546875 -0.898438 3.890625 -0.828125 4.296875 -0.828125 Z M 4.296875 -0.828125 "/></g></g></g></svg>