<svg xmlns="http://www.w3.org/2000/svg" xmlns:xlink="http://www.w3.org/1999/xlink" width="100" zoomAndPan="magnify" viewBox="0 0 75 30.000001" height="40" preserveAspectRatio="xMidYMid meet" version="1.0"><defs><g/><clipPath id="50422d1a2c"><path d="M 1.210938 5.464844 L 19.199219 5.464844 L 19.199219 23.339844 L 1.210938 23.339844 Z M 1.210938 5.464844 " clip-rule="nonzero"/></clipPath></defs><g clip-path="url(#50422d1a2c)"><path fill="#232323" d="M 1.210938 5.464844 L 19.367188 5.464844 L 19.367188 23.269531 L 1.210938 23.269531 Z M 1.210938 5.464844 " fill-opacity="1" fill-rule="nonzero"/></g><g fill="#eae3d2" fill-opacity="1"><g transform="translate(6.189009, 15.722827)"><g><path d="M 2.875 1.859375 C 2.175781 1.859375 1.632812 1.726562 1.25 1.46875 C 0.863281 1.207031 0.644531 0.835938 0.59375 0.359375 L 1.453125 0.359375 C 1.492188 0.640625 1.640625 0.84375 1.890625 0.96875 C 2.140625 1.09375 2.460938 1.15625 2.859375 1.15625 C 3.335938 1.15625 3.703125 1.046875 3.953125 0.828125 C 4.210938 0.609375 4.34375 0.273438 4.34375 -0.171875 L 4.34375 -0.328125 C 4.34375 -0.484375 4.34375 -0.625 4.34375 -0.75 C 4.34375 -0.882812 4.347656 -1 4.359375 -1.09375 L 4.34375 -1.09375 C 4.15625 -0.820312 3.9375 -0.609375 3.6875 -0.453125 C 3.4375 -0.304688 3.125 -0.234375 2.75 -0.234375 C 2.414062 -0.234375 2.101562 -0.296875 1.8125 -0.421875 C 1.53125 -0.546875 1.285156 -0.722656 1.078125 -0.953125 C 0.867188 -1.191406 0.707031 -1.46875 0.59375 -1.78125 C 0.476562 -2.101562 0.421875 -2.457031 0.421875 -2.84375 C 0.421875 -3.25 0.476562 -3.613281 0.59375 -3.9375 C 0.71875 -4.257812 0.882812 -4.53125 1.09375 -4.75 C 1.300781 -4.976562 1.539062 -5.148438 1.8125 -5.265625 C 2.09375 -5.390625 2.390625 -5.453125 2.703125 -5.453125 C 3.085938 -5.453125 3.410156 -5.378906 3.671875 -5.234375 C 3.929688 -5.085938 4.144531 -4.878906 4.3125 -4.609375 L 4.34375 -4.609375 L 4.34375 -5.3125 L 5.25 -5.3125 L 5.25 -0.21875 C 5.25 0.132812 5.191406 0.441406 5.078125 0.703125 C 4.960938 0.960938 4.804688 1.179688 4.609375 1.359375 C 4.398438 1.523438 4.148438 1.648438 3.859375 1.734375 C 3.566406 1.816406 3.238281 1.859375 2.875 1.859375 Z M 2.84375 -0.984375 C 3.132812 -0.984375 3.378906 -1.03125 3.578125 -1.125 C 3.773438 -1.226562 3.929688 -1.363281 4.046875 -1.53125 C 4.171875 -1.695312 4.257812 -1.894531 4.3125 -2.125 C 4.363281 -2.363281 4.390625 -2.613281 4.390625 -2.875 C 4.390625 -3.4375 4.265625 -3.878906 4.015625 -4.203125 C 3.765625 -4.523438 3.367188 -4.6875 2.828125 -4.6875 C 2.335938 -4.6875 1.96875 -4.515625 1.71875 -4.171875 C 1.476562 -3.835938 1.359375 -3.390625 1.359375 -2.828125 C 1.359375 -2.265625 1.484375 -1.816406 1.734375 -1.484375 C 1.992188 -1.148438 2.363281 -0.984375 2.84375 -0.984375 Z M 2.84375 -0.984375 "/></g></g></g><g fill="#eae3d2" fill-opacity="1"><g transform="translate(12.078188, 15.722827)"><g><path d="M 0.53125 -1.09375 L 1.609375 -1.09375 L 1.609375 0 L 0.53125 0 Z M 0.53125 -1.09375 "/></g></g></g><g fill="#232323" fill-opacity="1"><g transform="translate(21.968223, 16.765613)"><g><path d="M 6.484375 4.1875 C 4.910156 4.1875 3.6875 3.894531 2.8125 3.3125 C 1.945312 2.726562 1.457031 1.898438 1.34375 0.828125 L 3.28125 0.828125 C 3.363281 1.453125 3.6875 1.898438 4.25 2.171875 C 4.820312 2.453125 5.550781 2.59375 6.4375 2.59375 C 7.507812 2.59375 8.332031 2.347656 8.90625 1.859375 C 9.476562 1.378906 9.765625 0.625 9.765625 -0.40625 L 9.765625 -0.734375 C 9.765625 -1.078125 9.765625 -1.398438 9.765625 -1.703125 C 9.773438 -2.003906 9.789062 -2.253906 9.8125 -2.453125 L 9.765625 -2.453125 C 9.347656 -1.859375 8.859375 -1.390625 8.296875 -1.046875 C 7.742188 -0.703125 7.046875 -0.53125 6.203125 -0.53125 C 5.441406 -0.53125 4.738281 -0.671875 4.09375 -0.953125 C 3.445312 -1.234375 2.890625 -1.632812 2.421875 -2.15625 C 1.960938 -2.675781 1.601562 -3.289062 1.34375 -4 C 1.082031 -4.71875 0.953125 -5.519531 0.953125 -6.40625 C 0.953125 -7.320312 1.085938 -8.144531 1.359375 -8.875 C 1.628906 -9.601562 2 -10.210938 2.46875 -10.703125 C 2.9375 -11.203125 3.484375 -11.585938 4.109375 -11.859375 C 4.734375 -12.128906 5.394531 -12.265625 6.09375 -12.265625 C 6.945312 -12.265625 7.664062 -12.101562 8.25 -11.78125 C 8.84375 -11.457031 9.332031 -10.992188 9.71875 -10.390625 L 9.765625 -10.390625 L 9.765625 -11.96875 L 11.8125 -11.96875 L 11.8125 -0.484375 C 11.8125 0.316406 11.6875 1.007812 11.4375 1.59375 C 11.1875 2.175781 10.832031 2.660156 10.375 3.046875 C 9.894531 3.441406 9.328125 3.726562 8.671875 3.90625 C 8.015625 4.09375 7.285156 4.1875 6.484375 4.1875 Z M 6.40625 -2.234375 C 7.050781 -2.234375 7.597656 -2.335938 8.046875 -2.546875 C 8.492188 -2.765625 8.851562 -3.0625 9.125 -3.4375 C 9.40625 -3.820312 9.601562 -4.273438 9.71875 -4.796875 C 9.84375 -5.316406 9.90625 -5.878906 9.90625 -6.484375 C 9.90625 -7.753906 9.617188 -8.75 9.046875 -9.46875 C 8.472656 -10.1875 7.582031 -10.546875 6.375 -10.546875 C 5.28125 -10.546875 4.457031 -10.164062 3.90625 -9.40625 C 3.351562 -8.644531 3.078125 -7.632812 3.078125 -6.375 C 3.078125 -5.09375 3.359375 -4.082031 3.921875 -3.34375 C 4.484375 -2.601562 5.3125 -2.234375 6.40625 -2.234375 Z M 6.40625 -2.234375 "/></g></g></g><g fill="#232323" fill-opacity="1"><g transform="translate(35.230502, 16.765613)"><g><path d="M 6.625 0.328125 C 5.695312 0.328125 4.875 0.164062 4.15625 -0.15625 C 3.4375 -0.476562 2.820312 -0.925781 2.3125 -1.5 C 1.8125 -2.070312 1.429688 -2.738281 1.171875 -3.5 C 0.910156 -4.269531 0.78125 -5.09375 0.78125 -5.96875 C 0.78125 -6.832031 0.914062 -7.644531 1.1875 -8.40625 C 1.46875 -9.175781 1.851562 -9.847656 2.34375 -10.421875 C 2.84375 -10.992188 3.445312 -11.441406 4.15625 -11.765625 C 4.863281 -12.097656 5.648438 -12.265625 6.515625 -12.265625 C 7.398438 -12.265625 8.1875 -12.097656 8.875 -11.765625 C 9.5625 -11.441406 10.140625 -10.988281 10.609375 -10.40625 C 11.097656 -9.8125 11.460938 -9.097656 11.703125 -8.265625 C 11.953125 -7.441406 12.078125 -6.515625 12.078125 -5.484375 L 2.90625 -5.484375 C 2.945312 -4.898438 3.054688 -4.351562 3.234375 -3.84375 C 3.410156 -3.34375 3.65625 -2.90625 3.96875 -2.53125 C 4.28125 -2.164062 4.660156 -1.878906 5.109375 -1.671875 C 5.554688 -1.460938 6.066406 -1.359375 6.640625 -1.359375 C 7.472656 -1.359375 8.160156 -1.539062 8.703125 -1.90625 C 9.242188 -2.269531 9.613281 -2.769531 9.8125 -3.40625 L 11.84375 -3.40625 C 11.570312 -2.289062 10.976562 -1.390625 10.0625 -0.703125 C 9.15625 -0.015625 8.007812 0.328125 6.625 0.328125 Z M 6.515625 -10.65625 C 5.972656 -10.65625 5.492188 -10.5625 5.078125 -10.375 C 4.660156 -10.1875 4.300781 -9.929688 4 -9.609375 C 3.707031 -9.285156 3.472656 -8.898438 3.296875 -8.453125 C 3.117188 -8.003906 3 -7.515625 2.9375 -6.984375 L 9.875 -6.984375 C 9.8125 -8.140625 9.492188 -9.039062 8.921875 -9.6875 C 8.359375 -10.332031 7.554688 -10.65625 6.515625 -10.65625 Z M 6.515625 -10.65625 "/></g></g></g><g fill="#232323" fill-opacity="1"><g transform="translate(48.091568, 16.765613)"><g><path d="M 4.953125 -6.265625 L 0.953125 -11.96875 L 3.359375 -11.96875 L 5.15625 -9.234375 C 5.238281 -9.066406 5.335938 -8.890625 5.453125 -8.703125 C 5.566406 -8.515625 5.675781 -8.34375 5.78125 -8.1875 C 5.894531 -7.988281 6.003906 -7.785156 6.109375 -7.578125 L 6.15625 -7.578125 C 6.269531 -7.785156 6.390625 -7.988281 6.515625 -8.1875 C 6.617188 -8.34375 6.722656 -8.519531 6.828125 -8.71875 C 6.929688 -8.914062 7.035156 -9.085938 7.140625 -9.234375 L 8.984375 -11.96875 L 11.234375 -11.96875 L 7.328125 -6.46875 L 11.953125 0 L 9.546875 0 L 7.25 -3.390625 C 7.125 -3.554688 7.003906 -3.738281 6.890625 -3.9375 C 6.773438 -4.132812 6.65625 -4.332031 6.53125 -4.53125 C 6.394531 -4.75 6.269531 -4.96875 6.15625 -5.1875 L 6.109375 -5.1875 C 5.992188 -4.96875 5.867188 -4.75 5.734375 -4.53125 C 5.609375 -4.332031 5.484375 -4.132812 5.359375 -3.9375 C 5.242188 -3.738281 5.140625 -3.554688 5.046875 -3.390625 L 2.765625 0 L 0.453125 0 Z M 4.953125 -6.265625 "/></g></g></g><g fill="#232323" fill-opacity="1"><g transform="translate(60.484565, 16.765613)"><g><path d="M 1.421875 -11.96875 L 3.484375 -11.96875 L 3.484375 -10.09375 L 3.546875 -10.09375 C 3.992188 -10.78125 4.523438 -11.3125 5.140625 -11.6875 C 5.753906 -12.070312 6.492188 -12.265625 7.359375 -12.265625 C 8.117188 -12.265625 8.8125 -12.117188 9.4375 -11.828125 C 10.070312 -11.535156 10.613281 -11.117188 11.0625 -10.578125 C 11.519531 -10.035156 11.875 -9.375 12.125 -8.59375 C 12.382812 -7.8125 12.515625 -6.929688 12.515625 -5.953125 C 12.515625 -4.984375 12.394531 -4.113281 12.15625 -3.34375 C 11.914062 -2.570312 11.566406 -1.910156 11.109375 -1.359375 C 10.660156 -0.804688 10.113281 -0.378906 9.46875 -0.078125 C 8.820312 0.210938 8.097656 0.359375 7.296875 0.359375 C 6.472656 0.359375 5.738281 0.195312 5.09375 -0.125 C 4.457031 -0.457031 3.929688 -0.941406 3.515625 -1.578125 L 3.453125 -1.578125 C 3.472656 -1.367188 3.484375 -1.097656 3.484375 -0.765625 C 3.492188 -0.429688 3.5 -0.0351562 3.5 0.421875 L 3.5 4.0625 L 1.421875 4.0625 Z M 7.0625 -1.359375 C 7.613281 -1.359375 8.097656 -1.472656 8.515625 -1.703125 C 8.929688 -1.929688 9.273438 -2.242188 9.546875 -2.640625 C 9.828125 -3.046875 10.035156 -3.523438 10.171875 -4.078125 C 10.316406 -4.640625 10.390625 -5.25 10.390625 -5.90625 C 10.390625 -6.5625 10.320312 -7.171875 10.1875 -7.734375 C 10.050781 -8.296875 9.84375 -8.78125 9.5625 -9.1875 C 9.289062 -9.601562 8.945312 -9.925781 8.53125 -10.15625 C 8.125 -10.382812 7.644531 -10.5 7.09375 -10.5 C 6.445312 -10.5 5.894531 -10.378906 5.4375 -10.140625 C 4.976562 -9.898438 4.59375 -9.570312 4.28125 -9.15625 C 3.976562 -8.75 3.753906 -8.265625 3.609375 -7.703125 C 3.460938 -7.148438 3.390625 -6.550781 3.390625 -5.90625 C 3.390625 -5.28125 3.457031 -4.6875 3.59375 -4.125 C 3.726562 -3.570312 3.941406 -3.09375 4.234375 -2.6875 C 4.535156 -2.28125 4.914062 -1.957031 5.375 -1.71875 C 5.832031 -1.476562 6.394531 -1.359375 7.0625 -1.359375 Z M 7.0625 -1.359375 "/></g></g></g></svg>