<svg xmlns="http://www.w3.org/2000/svg" xmlns:xlink="http://www.w3.org/1999/xlink" width="100" zoomAndPan="magnify" viewBox="0 0 75 30.000001" height="40" preserveAspectRatio="xMidYMid meet" version="1.0"><defs><g/><clipPath id="b8a300934b"><path d="M 1.210938 0 L 30.242188 0 L 30.242188 29.03125 L 1.210938 29.03125 Z M 1.210938 0 " clip-rule="nonzero"/></clipPath></defs><g clip-path="url(#b8a300934b)"><path fill="#232323" d="M 1.210938 0 L 30.242188 0 L 30.242188 29.03125 L 1.210938 29.03125 Z M 1.210938 0 " fill-opacity="1" fill-rule="nonzero"/></g><g fill="#f9f7f3" fill-opacity="1"><g transform="translate(6.307332, 17.649885)"><g><path d="M 6.75 4.359375 C 5.113281 4.359375 3.84375 4.050781 2.9375 3.4375 C 2.03125 2.832031 1.515625 1.972656 1.390625 0.859375 L 3.40625 0.859375 C 3.5 1.503906 3.835938 1.96875 4.421875 2.25 C 5.015625 2.539062 5.773438 2.6875 6.703125 2.6875 C 7.816406 2.6875 8.671875 2.4375 9.265625 1.9375 C 9.867188 1.4375 10.171875 0.648438 10.171875 -0.421875 L 10.171875 -0.765625 C 10.171875 -1.117188 10.171875 -1.453125 10.171875 -1.765625 C 10.179688 -2.085938 10.195312 -2.347656 10.21875 -2.546875 L 10.171875 -2.546875 C 9.734375 -1.929688 9.222656 -1.445312 8.640625 -1.09375 C 8.066406 -0.738281 7.335938 -0.5625 6.453125 -0.5625 C 5.660156 -0.5625 4.925781 -0.707031 4.25 -1 C 3.582031 -1.289062 3.007812 -1.707031 2.53125 -2.25 C 2.050781 -2.789062 1.675781 -3.429688 1.40625 -4.171875 C 1.132812 -4.921875 1 -5.75 1 -6.65625 C 1 -7.625 1.132812 -8.484375 1.40625 -9.234375 C 1.6875 -9.992188 2.070312 -10.632812 2.5625 -11.15625 C 3.050781 -11.675781 3.617188 -12.070312 4.265625 -12.34375 C 4.921875 -12.625 5.613281 -12.765625 6.34375 -12.765625 C 7.238281 -12.765625 7.988281 -12.597656 8.59375 -12.265625 C 9.207031 -11.929688 9.71875 -11.445312 10.125 -10.8125 L 10.171875 -10.8125 L 10.171875 -12.46875 L 12.3125 -12.46875 L 12.3125 -0.515625 C 12.3125 0.328125 12.175781 1.050781 11.90625 1.65625 C 11.644531 2.269531 11.273438 2.78125 10.796875 3.1875 C 10.296875 3.582031 9.707031 3.875 9.03125 4.0625 C 8.351562 4.257812 7.59375 4.359375 6.75 4.359375 Z M 6.65625 -2.328125 C 7.34375 -2.328125 7.914062 -2.4375 8.375 -2.65625 C 8.84375 -2.882812 9.21875 -3.191406 9.5 -3.578125 C 9.789062 -3.972656 10 -4.441406 10.125 -4.984375 C 10.25 -5.523438 10.3125 -6.113281 10.3125 -6.75 C 10.3125 -8.070312 10.007812 -9.109375 9.40625 -9.859375 C 8.8125 -10.609375 7.890625 -10.984375 6.640625 -10.984375 C 5.492188 -10.984375 4.632812 -10.585938 4.0625 -9.796875 C 3.488281 -9.003906 3.203125 -7.953125 3.203125 -6.640625 C 3.203125 -5.304688 3.492188 -4.253906 4.078125 -3.484375 C 4.671875 -2.710938 5.53125 -2.328125 6.65625 -2.328125 Z M 6.65625 -2.328125 "/></g></g></g><g fill="#f9f7f3" fill-opacity="1"><g transform="translate(20.126715, 17.649885)"><g><path d="M 1.25 -2.546875 L 3.765625 -2.546875 L 3.765625 0 L 1.25 0 Z M 1.25 -2.546875 "/></g></g></g><g fill="#f9f7f3" fill-opacity="1"><g transform="translate(33.388986, 17.951605)"><g><path d="M 4.78125 3.09375 C 3.625 3.09375 2.722656 2.875 2.078125 2.4375 C 1.441406 2.007812 1.078125 1.398438 0.984375 0.609375 L 2.421875 0.609375 C 2.484375 1.066406 2.722656 1.394531 3.140625 1.59375 C 3.554688 1.800781 4.09375 1.90625 4.75 1.90625 C 5.539062 1.90625 6.144531 1.726562 6.5625 1.375 C 6.988281 1.019531 7.203125 0.460938 7.203125 -0.296875 L 7.203125 -0.546875 C 7.203125 -0.796875 7.203125 -1.03125 7.203125 -1.25 C 7.210938 -1.476562 7.222656 -1.664062 7.234375 -1.8125 L 7.203125 -1.8125 C 6.898438 -1.375 6.539062 -1.023438 6.125 -0.765625 C 5.71875 -0.515625 5.203125 -0.390625 4.578125 -0.390625 C 4.015625 -0.390625 3.492188 -0.492188 3.015625 -0.703125 C 2.535156 -0.910156 2.125 -1.207031 1.78125 -1.59375 C 1.445312 -1.976562 1.179688 -2.429688 0.984375 -2.953125 C 0.796875 -3.484375 0.703125 -4.070312 0.703125 -4.71875 C 0.703125 -5.394531 0.800781 -6.003906 1 -6.546875 C 1.195312 -7.085938 1.46875 -7.539062 1.8125 -7.90625 C 2.164062 -8.269531 2.570312 -8.550781 3.03125 -8.75 C 3.488281 -8.945312 3.972656 -9.046875 4.484375 -9.046875 C 5.128906 -9.046875 5.664062 -8.925781 6.09375 -8.6875 C 6.53125 -8.457031 6.890625 -8.117188 7.171875 -7.671875 L 7.203125 -7.671875 L 7.203125 -8.828125 L 8.71875 -8.828125 L 8.71875 -0.359375 C 8.71875 0.234375 8.625 0.742188 8.4375 1.171875 C 8.25 1.609375 7.988281 1.96875 7.65625 2.25 C 7.300781 2.539062 6.878906 2.753906 6.390625 2.890625 C 5.910156 3.023438 5.375 3.09375 4.78125 3.09375 Z M 4.71875 -1.640625 C 5.207031 -1.640625 5.613281 -1.71875 5.9375 -1.875 C 6.269531 -2.039062 6.535156 -2.265625 6.734375 -2.546875 C 6.941406 -2.828125 7.085938 -3.15625 7.171875 -3.53125 C 7.265625 -3.914062 7.3125 -4.332031 7.3125 -4.78125 C 7.3125 -5.71875 7.097656 -6.453125 6.671875 -6.984375 C 6.242188 -7.515625 5.585938 -7.78125 4.703125 -7.78125 C 3.890625 -7.78125 3.28125 -7.5 2.875 -6.9375 C 2.46875 -6.382812 2.265625 -5.640625 2.265625 -4.703125 C 2.265625 -3.765625 2.472656 -3.019531 2.890625 -2.46875 C 3.304688 -1.914062 3.914062 -1.640625 4.71875 -1.640625 Z M 4.71875 -1.640625 "/></g></g></g><g fill="#f9f7f3" fill-opacity="1"><g transform="translate(43.173174, 17.951605)"><g><path d="M 4.890625 0.25 C 4.203125 0.25 3.59375 0.128906 3.0625 -0.109375 C 2.53125 -0.359375 2.078125 -0.691406 1.703125 -1.109375 C 1.335938 -1.535156 1.054688 -2.03125 0.859375 -2.59375 C 0.671875 -3.15625 0.578125 -3.757812 0.578125 -4.40625 C 0.578125 -5.039062 0.675781 -5.640625 0.875 -6.203125 C 1.082031 -6.773438 1.367188 -7.269531 1.734375 -7.6875 C 2.097656 -8.113281 2.539062 -8.445312 3.0625 -8.6875 C 3.582031 -8.925781 4.160156 -9.046875 4.796875 -9.046875 C 5.460938 -9.046875 6.046875 -8.925781 6.546875 -8.6875 C 7.054688 -8.445312 7.484375 -8.113281 7.828125 -7.6875 C 8.191406 -7.25 8.460938 -6.722656 8.640625 -6.109375 C 8.828125 -5.492188 8.921875 -4.804688 8.921875 -4.046875 L 2.140625 -4.046875 C 2.171875 -3.617188 2.25 -3.21875 2.375 -2.84375 C 2.507812 -2.46875 2.691406 -2.144531 2.921875 -1.875 C 3.160156 -1.601562 3.441406 -1.390625 3.765625 -1.234375 C 4.097656 -1.078125 4.476562 -1 4.90625 -1 C 5.519531 -1 6.023438 -1.132812 6.421875 -1.40625 C 6.828125 -1.675781 7.097656 -2.046875 7.234375 -2.515625 L 8.734375 -2.515625 C 8.535156 -1.691406 8.097656 -1.023438 7.421875 -0.515625 C 6.753906 -0.00390625 5.910156 0.25 4.890625 0.25 Z M 4.796875 -7.859375 C 4.410156 -7.859375 4.0625 -7.789062 3.75 -7.65625 C 3.445312 -7.519531 3.179688 -7.332031 2.953125 -7.09375 C 2.734375 -6.851562 2.554688 -6.566406 2.421875 -6.234375 C 2.296875 -5.898438 2.210938 -5.539062 2.171875 -5.15625 L 7.28125 -5.15625 C 7.238281 -6.007812 7.003906 -6.671875 6.578125 -7.140625 C 6.160156 -7.617188 5.566406 -7.859375 4.796875 -7.859375 Z M 4.796875 -7.859375 "/></g></g></g><g fill="#f9f7f3" fill-opacity="1"><g transform="translate(52.661375, 17.951605)"><g><path d="M 3.65625 -4.625 L 0.703125 -8.828125 L 2.484375 -8.828125 L 3.796875 -6.8125 C 3.867188 -6.6875 3.941406 -6.554688 4.015625 -6.421875 C 4.097656 -6.285156 4.179688 -6.15625 4.265625 -6.03125 C 4.347656 -5.894531 4.429688 -5.75 4.515625 -5.59375 L 4.546875 -5.59375 C 4.628906 -5.75 4.710938 -5.894531 4.796875 -6.03125 C 4.878906 -6.15625 4.957031 -6.285156 5.03125 -6.421875 C 5.113281 -6.566406 5.191406 -6.695312 5.265625 -6.8125 L 6.625 -8.828125 L 8.296875 -8.828125 L 5.40625 -4.765625 L 8.8125 0 L 7.046875 0 L 5.34375 -2.5 C 5.257812 -2.625 5.171875 -2.757812 5.078125 -2.90625 C 4.992188 -3.050781 4.910156 -3.195312 4.828125 -3.34375 C 4.722656 -3.507812 4.628906 -3.671875 4.546875 -3.828125 L 4.515625 -3.828125 C 4.421875 -3.671875 4.328125 -3.507812 4.234375 -3.34375 C 4.140625 -3.195312 4.046875 -3.050781 3.953125 -2.90625 C 3.867188 -2.757812 3.789062 -2.625 3.71875 -2.5 L 2.046875 0 L 0.328125 0 Z M 3.65625 -4.625 "/></g></g></g><g fill="#f9f7f3" fill-opacity="1"><g transform="translate(61.804248, 17.951605)"><g><path d="M 1.046875 -8.828125 L 2.5625 -8.828125 L 2.5625 -7.453125 L 2.609375 -7.453125 C 2.941406 -7.953125 3.332031 -8.34375 3.78125 -8.625 C 4.238281 -8.90625 4.785156 -9.046875 5.421875 -9.046875 C 5.984375 -9.046875 6.5 -8.9375 6.96875 -8.71875 C 7.4375 -8.507812 7.835938 -8.203125 8.171875 -7.796875 C 8.503906 -7.398438 8.765625 -6.914062 8.953125 -6.34375 C 9.140625 -5.769531 9.234375 -5.117188 9.234375 -4.390625 C 9.234375 -3.679688 9.144531 -3.039062 8.96875 -2.46875 C 8.789062 -1.894531 8.535156 -1.40625 8.203125 -1 C 7.867188 -0.59375 7.460938 -0.28125 6.984375 -0.0625 C 6.503906 0.15625 5.96875 0.265625 5.375 0.265625 C 4.769531 0.265625 4.234375 0.144531 3.765625 -0.09375 C 3.296875 -0.332031 2.90625 -0.691406 2.59375 -1.171875 L 2.546875 -1.171875 C 2.554688 -1.015625 2.5625 -0.8125 2.5625 -0.5625 C 2.570312 -0.320312 2.578125 -0.03125 2.578125 0.3125 L 2.578125 3 L 1.046875 3 Z M 5.21875 -1 C 5.625 -1 5.976562 -1.082031 6.28125 -1.25 C 6.59375 -1.425781 6.847656 -1.660156 7.046875 -1.953125 C 7.253906 -2.253906 7.410156 -2.609375 7.515625 -3.015625 C 7.617188 -3.429688 7.671875 -3.878906 7.671875 -4.359375 C 7.671875 -4.835938 7.617188 -5.285156 7.515625 -5.703125 C 7.421875 -6.117188 7.269531 -6.476562 7.0625 -6.78125 C 6.863281 -7.082031 6.609375 -7.316406 6.296875 -7.484375 C 5.992188 -7.660156 5.640625 -7.75 5.234375 -7.75 C 4.765625 -7.75 4.359375 -7.660156 4.015625 -7.484375 C 3.671875 -7.304688 3.382812 -7.0625 3.15625 -6.75 C 2.9375 -6.445312 2.769531 -6.085938 2.65625 -5.671875 C 2.550781 -5.265625 2.5 -4.828125 2.5 -4.359375 C 2.5 -3.898438 2.546875 -3.460938 2.640625 -3.046875 C 2.742188 -2.640625 2.90625 -2.285156 3.125 -1.984375 C 3.34375 -1.679688 3.617188 -1.441406 3.953125 -1.265625 C 4.296875 -1.085938 4.71875 -1 5.21875 -1 Z M 5.21875 -1 "/></g></g></g></svg>