<svg xmlns="http://www.w3.org/2000/svg" xmlns:xlink="http://www.w3.org/1999/xlink" width="100" zoomAndPan="magnify" viewBox="0 0 75 30.000001" height="40" preserveAspectRatio="xMidYMid meet" version="1.0"><defs><g/><clipPath id="02e04a3213"><path d="M 1.210938 0 L 73.789062 0 L 73.789062 29.03125 L 1.210938 29.03125 Z M 1.210938 0 " clip-rule="nonzero"/></clipPath><clipPath id="8783718b39"><path d="M 1.210938 0 L 30.242188 0 L 30.242188 29.03125 L 1.210938 29.03125 Z M 1.210938 0 " clip-rule="nonzero"/></clipPath></defs><g clip-path="url(#02e04a3213)"><path fill="#ffffff" d="M 1.210938 0 L 73.789062 0 L 73.789062 29.03125 L 1.210938 29.03125 Z M 1.210938 0 " fill-opacity="1" fill-rule="nonzero"/><path fill="#ffffff" d="M 1.210938 0 L 73.789062 0 L 73.789062 29.03125 L 1.210938 29.03125 Z M 1.210938 0 " fill-opacity="1" fill-rule="nonzero"/></g><g clip-path="url(#8783718b39)"><path fill="#232323" d="M 1.210938 0 L 30.242188 0 L 30.242188 29.03125 L 1.210938 29.03125 Z M 1.210938 0 " fill-opacity="1" fill-rule="nonzero"/></g><g fill="#f9f7f3" fill-opacity="1"><g transform="translate(10.231223, 15.329048)"><g><path d="M 3.9375 2.546875 C 2.976562 2.546875 2.234375 2.367188 1.703125 2.015625 C 1.179688 1.660156 0.882812 1.15625 0.8125 0.5 L 1.984375 0.5 C 2.046875 0.875 2.25 1.144531 2.59375 1.3125 C 2.9375 1.488281 3.378906 1.578125 3.921875 1.578125 C 4.566406 1.578125 5.0625 1.425781 5.40625 1.125 C 5.757812 0.832031 5.9375 0.375 5.9375 -0.25 L 5.9375 -0.453125 C 5.9375 -0.660156 5.9375 -0.851562 5.9375 -1.03125 C 5.945312 -1.21875 5.953125 -1.367188 5.953125 -1.484375 L 5.9375 -1.484375 C 5.675781 -1.128906 5.375 -0.847656 5.03125 -0.640625 C 4.695312 -0.429688 4.273438 -0.328125 3.765625 -0.328125 C 3.304688 -0.328125 2.878906 -0.410156 2.484375 -0.578125 C 2.085938 -0.753906 1.75 -1 1.46875 -1.3125 C 1.195312 -1.625 0.976562 -2 0.8125 -2.4375 C 0.65625 -2.875 0.578125 -3.359375 0.578125 -3.890625 C 0.578125 -4.453125 0.65625 -4.953125 0.8125 -5.390625 C 0.976562 -5.835938 1.203125 -6.210938 1.484375 -6.515625 C 1.773438 -6.816406 2.109375 -7.046875 2.484375 -7.203125 C 2.867188 -7.367188 3.273438 -7.453125 3.703125 -7.453125 C 4.222656 -7.453125 4.660156 -7.351562 5.015625 -7.15625 C 5.367188 -6.96875 5.664062 -6.6875 5.90625 -6.3125 L 5.9375 -6.3125 L 5.9375 -7.28125 L 7.1875 -7.28125 L 7.1875 -0.296875 C 7.1875 0.191406 7.109375 0.613281 6.953125 0.96875 C 6.796875 1.320312 6.578125 1.617188 6.296875 1.859375 C 6.003906 2.085938 5.660156 2.257812 5.265625 2.375 C 4.867188 2.488281 4.425781 2.546875 3.9375 2.546875 Z M 3.890625 -1.359375 C 4.285156 -1.359375 4.617188 -1.421875 4.890625 -1.546875 C 5.160156 -1.679688 5.378906 -1.863281 5.546875 -2.09375 C 5.710938 -2.320312 5.832031 -2.59375 5.90625 -2.90625 C 5.976562 -3.226562 6.015625 -3.570312 6.015625 -3.9375 C 6.015625 -4.707031 5.835938 -5.3125 5.484375 -5.75 C 5.140625 -6.1875 4.601562 -6.40625 3.875 -6.40625 C 3.207031 -6.40625 2.707031 -6.175781 2.375 -5.71875 C 2.039062 -5.257812 1.875 -4.644531 1.875 -3.875 C 1.875 -3.09375 2.046875 -2.476562 2.390625 -2.03125 C 2.734375 -1.582031 3.234375 -1.359375 3.890625 -1.359375 Z M 3.890625 -1.359375 "/></g></g></g><g fill="#f9f7f3" fill-opacity="1"><g transform="translate(18.288012, 15.329048)"><g><path d="M 0.734375 -1.484375 L 2.1875 -1.484375 L 2.1875 0 L 0.734375 0 Z M 0.734375 -1.484375 "/></g></g></g><g fill="#f9f7f3" fill-opacity="1"><g transform="translate(37.499998, 15.222637)"><g><path d="M 3.65625 2.359375 C 2.769531 2.359375 2.082031 2.191406 1.59375 1.859375 C 1.101562 1.535156 0.820312 1.070312 0.75 0.46875 L 1.84375 0.46875 C 1.894531 0.820312 2.078125 1.070312 2.390625 1.21875 C 2.710938 1.375 3.128906 1.453125 3.640625 1.453125 C 4.242188 1.453125 4.707031 1.316406 5.03125 1.046875 C 5.351562 0.773438 5.515625 0.351562 5.515625 -0.21875 L 5.515625 -0.421875 C 5.515625 -0.609375 5.515625 -0.785156 5.515625 -0.953125 C 5.515625 -1.128906 5.519531 -1.273438 5.53125 -1.390625 L 5.515625 -1.390625 C 5.273438 -1.046875 5 -0.773438 4.6875 -0.578125 C 4.375 -0.390625 3.976562 -0.296875 3.5 -0.296875 C 3.070312 -0.296875 2.675781 -0.375 2.3125 -0.53125 C 1.945312 -0.695312 1.632812 -0.925781 1.375 -1.21875 C 1.113281 -1.507812 0.910156 -1.859375 0.765625 -2.265625 C 0.617188 -2.671875 0.546875 -3.117188 0.546875 -3.609375 C 0.546875 -4.128906 0.617188 -4.59375 0.765625 -5 C 0.921875 -5.414062 1.128906 -5.765625 1.390625 -6.046875 C 1.648438 -6.328125 1.957031 -6.539062 2.3125 -6.6875 C 2.664062 -6.84375 3.039062 -6.921875 3.4375 -6.921875 C 3.914062 -6.921875 4.320312 -6.828125 4.65625 -6.640625 C 4.988281 -6.460938 5.265625 -6.203125 5.484375 -5.859375 L 5.515625 -5.859375 L 5.515625 -6.75 L 6.671875 -6.75 L 6.671875 -0.28125 C 6.671875 0.175781 6.597656 0.566406 6.453125 0.890625 C 6.304688 1.222656 6.101562 1.5 5.84375 1.71875 C 5.582031 1.9375 5.265625 2.097656 4.890625 2.203125 C 4.523438 2.304688 4.113281 2.359375 3.65625 2.359375 Z M 3.609375 -1.25 C 3.972656 -1.25 4.28125 -1.3125 4.53125 -1.4375 C 4.789062 -1.5625 5 -1.726562 5.15625 -1.9375 C 5.3125 -2.15625 5.421875 -2.410156 5.484375 -2.703125 C 5.546875 -2.992188 5.578125 -3.3125 5.578125 -3.65625 C 5.578125 -4.375 5.414062 -4.9375 5.09375 -5.34375 C 4.769531 -5.75 4.269531 -5.953125 3.59375 -5.953125 C 2.976562 -5.953125 2.515625 -5.738281 2.203125 -5.3125 C 1.890625 -4.882812 1.734375 -4.3125 1.734375 -3.59375 C 1.734375 -2.875 1.890625 -2.300781 2.203125 -1.875 C 2.523438 -1.457031 2.992188 -1.25 3.609375 -1.25 Z M 3.609375 -1.25 "/></g></g></g><g fill="#f9f7f3" fill-opacity="1"><g transform="translate(44.983194, 15.222637)"><g><path d="M 3.734375 0.1875 C 3.210938 0.1875 2.75 0.0976562 2.34375 -0.078125 C 1.9375 -0.265625 1.585938 -0.519531 1.296875 -0.84375 C 1.015625 -1.164062 0.800781 -1.539062 0.65625 -1.96875 C 0.507812 -2.40625 0.4375 -2.875 0.4375 -3.375 C 0.4375 -3.851562 0.515625 -4.304688 0.671875 -4.734375 C 0.828125 -5.171875 1.046875 -5.550781 1.328125 -5.875 C 1.609375 -6.195312 1.945312 -6.453125 2.34375 -6.640625 C 2.738281 -6.828125 3.179688 -6.921875 3.671875 -6.921875 C 4.171875 -6.921875 4.613281 -6.828125 5 -6.640625 C 5.382812 -6.453125 5.710938 -6.195312 5.984375 -5.875 C 6.265625 -5.539062 6.472656 -5.140625 6.609375 -4.671875 C 6.742188 -4.203125 6.8125 -3.675781 6.8125 -3.09375 L 1.640625 -3.09375 C 1.660156 -2.769531 1.71875 -2.460938 1.8125 -2.171875 C 1.914062 -1.890625 2.054688 -1.644531 2.234375 -1.4375 C 2.410156 -1.226562 2.625 -1.0625 2.875 -0.9375 C 3.125 -0.820312 3.414062 -0.765625 3.75 -0.765625 C 4.21875 -0.765625 4.601562 -0.867188 4.90625 -1.078125 C 5.21875 -1.285156 5.425781 -1.566406 5.53125 -1.921875 L 6.671875 -1.921875 C 6.523438 -1.296875 6.191406 -0.785156 5.671875 -0.390625 C 5.160156 -0.00390625 4.515625 0.1875 3.734375 0.1875 Z M 3.671875 -6.015625 C 3.367188 -6.015625 3.097656 -5.960938 2.859375 -5.859375 C 2.628906 -5.753906 2.429688 -5.609375 2.265625 -5.421875 C 2.097656 -5.234375 1.960938 -5.015625 1.859375 -4.765625 C 1.753906 -4.515625 1.6875 -4.238281 1.65625 -3.9375 L 5.578125 -3.9375 C 5.535156 -4.59375 5.351562 -5.101562 5.03125 -5.46875 C 4.707031 -5.832031 4.253906 -6.015625 3.671875 -6.015625 Z M 3.671875 -6.015625 "/></g></g></g><g fill="#f9f7f3" fill-opacity="1"><g transform="translate(52.240007, 15.222637)"><g><path d="M 2.796875 -3.53125 L 0.546875 -6.75 L 1.90625 -6.75 L 2.90625 -5.203125 C 2.957031 -5.109375 3.015625 -5.007812 3.078125 -4.90625 C 3.140625 -4.800781 3.195312 -4.703125 3.25 -4.609375 C 3.320312 -4.503906 3.390625 -4.394531 3.453125 -4.28125 L 3.46875 -4.28125 C 3.539062 -4.394531 3.609375 -4.503906 3.671875 -4.609375 C 3.734375 -4.703125 3.789062 -4.800781 3.84375 -4.90625 C 3.90625 -5.019531 3.96875 -5.117188 4.03125 -5.203125 L 5.0625 -6.75 L 6.34375 -6.75 L 4.140625 -3.640625 L 6.734375 0 L 5.390625 0 L 4.09375 -1.90625 C 4.019531 -2 3.945312 -2.101562 3.875 -2.21875 C 3.8125 -2.332031 3.75 -2.441406 3.6875 -2.546875 C 3.613281 -2.671875 3.539062 -2.800781 3.46875 -2.9375 L 3.453125 -2.9375 C 3.378906 -2.800781 3.304688 -2.671875 3.234375 -2.546875 C 3.160156 -2.441406 3.09375 -2.332031 3.03125 -2.21875 C 2.96875 -2.101562 2.90625 -2 2.84375 -1.90625 L 1.5625 0 L 0.25 0 Z M 2.796875 -3.53125 "/></g></g></g><g fill="#f9f7f3" fill-opacity="1"><g transform="translate(59.232705, 15.222637)"><g><path d="M 0.8125 -6.75 L 1.96875 -6.75 L 1.96875 -5.703125 L 2 -5.703125 C 2.25 -6.085938 2.546875 -6.382812 2.890625 -6.59375 C 3.242188 -6.8125 3.664062 -6.921875 4.15625 -6.921875 C 4.582031 -6.921875 4.972656 -6.835938 5.328125 -6.671875 C 5.679688 -6.503906 5.984375 -6.269531 6.234375 -5.96875 C 6.492188 -5.664062 6.695312 -5.289062 6.84375 -4.84375 C 6.988281 -4.40625 7.0625 -3.910156 7.0625 -3.359375 C 7.0625 -2.816406 6.992188 -2.328125 6.859375 -1.890625 C 6.722656 -1.453125 6.523438 -1.078125 6.265625 -0.765625 C 6.015625 -0.453125 5.707031 -0.210938 5.34375 -0.046875 C 4.976562 0.117188 4.566406 0.203125 4.109375 0.203125 C 3.648438 0.203125 3.238281 0.109375 2.875 -0.078125 C 2.519531 -0.265625 2.222656 -0.535156 1.984375 -0.890625 L 1.953125 -0.890625 C 1.960938 -0.773438 1.96875 -0.625 1.96875 -0.4375 C 1.96875 -0.25 1.96875 -0.0234375 1.96875 0.234375 L 1.96875 2.296875 L 0.8125 2.296875 Z M 3.984375 -0.765625 C 4.296875 -0.765625 4.566406 -0.828125 4.796875 -0.953125 C 5.035156 -1.085938 5.234375 -1.269531 5.390625 -1.5 C 5.546875 -1.726562 5.660156 -2 5.734375 -2.3125 C 5.816406 -2.625 5.859375 -2.960938 5.859375 -3.328125 C 5.859375 -3.703125 5.820312 -4.046875 5.75 -4.359375 C 5.675781 -4.679688 5.5625 -4.957031 5.40625 -5.1875 C 5.25 -5.414062 5.050781 -5.59375 4.8125 -5.71875 C 4.582031 -5.851562 4.3125 -5.921875 4 -5.921875 C 3.632812 -5.921875 3.320312 -5.851562 3.0625 -5.71875 C 2.800781 -5.582031 2.582031 -5.394531 2.40625 -5.15625 C 2.238281 -4.925781 2.113281 -4.65625 2.03125 -4.34375 C 1.945312 -4.03125 1.90625 -3.691406 1.90625 -3.328125 C 1.90625 -2.984375 1.941406 -2.648438 2.015625 -2.328125 C 2.097656 -2.015625 2.222656 -1.742188 2.390625 -1.515625 C 2.554688 -1.285156 2.769531 -1.101562 3.03125 -0.96875 C 3.289062 -0.832031 3.609375 -0.765625 3.984375 -0.765625 Z M 3.984375 -0.765625 "/></g></g></g></svg>