<svg xmlns="http://www.w3.org/2000/svg" xmlns:xlink="http://www.w3.org/1999/xlink" width="40" zoomAndPan="magnify" viewBox="0 0 30 30.000001" height="40" preserveAspectRatio="xMidYMid meet" version="1.0"><defs><clipPath id="a1c3b80f14"><path d="M 0.484375 0 L 29.515625 0 L 29.515625 29.03125 L 0.484375 29.03125 Z M 0.484375 0 " clip-rule="nonzero"/></clipPath><clipPath id="9bd990852d"><path d="M 17.21875 25.402344 L 17.738281 26.957031 L 12.261719 26.957031 L 12.78125 25.402344 Z M 20.984375 27.996094 L 9.015625 27.996094 C 8.394531 27.996094 7.875 28.441406 7.765625 29.03125 L 22.234375 29.03125 C 22.125 28.441406 21.605469 27.996094 20.984375 27.996094 Z M 27.441406 2.074219 L 11.371094 2.074219 L 11.371094 0 L 26.988281 0 C 27.238281 0 27.441406 0.203125 27.441406 0.453125 Z M 15.519531 1.035156 C 15.519531 0.75 15.285156 0.519531 15 0.519531 L 12.925781 0.519531 C 12.640625 0.519531 12.40625 0.75 12.40625 1.035156 C 12.40625 1.324219 12.640625 1.554688 12.925781 1.554688 L 15 1.554688 C 15.285156 1.554688 15.519531 1.324219 15.519531 1.035156 Z M 23.296875 1.035156 C 23.296875 0.75 23.0625 0.519531 22.777344 0.519531 L 17.074219 0.519531 C 16.789062 0.519531 16.554688 0.75 16.554688 1.035156 C 16.554688 1.324219 16.789062 1.554688 17.074219 1.554688 L 22.777344 1.554688 C 23.0625 1.554688 23.296875 1.324219 23.296875 1.035156 Z M 26.40625 1.035156 C 26.40625 0.75 26.171875 0.519531 25.886719 0.519531 L 24.851562 0.519531 C 24.5625 0.519531 24.332031 0.75 24.332031 1.035156 C 24.332031 1.324219 24.5625 1.554688 24.851562 1.554688 L 25.886719 1.554688 C 26.171875 1.554688 26.40625 1.324219 26.40625 1.035156 Z M 2.558594 18.726562 L 2.558594 3.109375 L 27.441406 3.109375 L 27.441406 18.726562 C 27.441406 18.976562 27.238281 19.183594 26.988281 19.183594 L 3.011719 19.183594 C 2.761719 19.183594 2.558594 18.976562 2.558594 18.726562 Z M 7.742188 18.144531 C 7.742188 17.859375 7.511719 17.625 7.222656 17.625 L 4.113281 17.625 C 3.828125 17.625 3.59375 17.859375 3.59375 18.144531 C 3.59375 18.429688 3.828125 18.664062 4.113281 18.664062 L 7.222656 18.664062 C 7.511719 18.664062 7.742188 18.429688 7.742188 18.144531 Z M 4.632812 11.40625 C 4.34375 11.40625 4.113281 11.636719 4.113281 11.925781 C 4.113281 12.210938 4.34375 12.441406 4.632812 12.441406 L 12.925781 12.441406 C 13.210938 12.441406 13.445312 12.210938 13.445312 11.925781 C 13.445312 11.636719 13.210938 11.40625 12.925781 11.40625 Z M 5.667969 10.367188 L 6.703125 10.367188 C 6.992188 10.367188 7.222656 10.136719 7.222656 9.851562 C 7.222656 9.5625 6.992188 9.332031 6.703125 9.332031 L 5.667969 9.332031 C 5.382812 9.332031 5.148438 9.5625 5.148438 9.851562 C 5.148438 10.136719 5.382812 10.367188 5.667969 10.367188 Z M 11.890625 15.554688 C 11.601562 15.554688 11.371094 15.785156 11.371094 16.070312 C 11.371094 16.359375 11.601562 16.589844 11.890625 16.589844 L 15.519531 16.589844 C 15.804688 16.589844 16.035156 16.359375 16.035156 16.070312 C 16.035156 15.785156 15.804688 15.554688 15.519531 15.554688 Z M 12.40625 14.515625 L 13.445312 14.515625 C 13.730469 14.515625 13.964844 14.285156 13.964844 13.996094 C 13.964844 13.710938 13.730469 13.480469 13.445312 13.480469 L 12.40625 13.480469 C 12.121094 13.480469 11.890625 13.710938 11.890625 13.996094 C 11.890625 14.285156 12.121094 14.515625 12.40625 14.515625 Z M 13.964844 9.851562 C 13.964844 9.5625 13.730469 9.332031 13.445312 9.332031 L 8.777344 9.332031 C 8.492188 9.332031 8.261719 9.5625 8.261719 9.851562 C 8.261719 10.136719 8.492188 10.367188 8.777344 10.367188 L 13.445312 10.367188 C 13.730469 10.367188 13.964844 10.136719 13.964844 9.851562 Z M 9.816406 13.480469 L 8.777344 13.480469 C 8.492188 13.480469 8.261719 13.710938 8.261719 13.996094 C 8.261719 14.285156 8.492188 14.515625 8.777344 14.515625 L 9.816406 14.515625 C 10.101562 14.515625 10.335938 14.285156 10.335938 13.996094 C 10.335938 13.710938 10.101562 13.480469 9.816406 13.480469 Z M 4.113281 13.480469 C 3.828125 13.480469 3.59375 13.710938 3.59375 13.996094 C 3.59375 14.285156 3.828125 14.515625 4.113281 14.515625 L 6.703125 14.515625 C 6.992188 14.515625 7.222656 14.285156 7.222656 13.996094 C 7.222656 13.710938 6.992188 13.480469 6.703125 13.480469 Z M 3.59375 16.070312 C 3.59375 16.359375 3.828125 16.589844 4.113281 16.589844 L 9.816406 16.589844 C 10.101562 16.589844 10.335938 16.359375 10.335938 16.070312 C 10.335938 15.785156 10.101562 15.554688 9.816406 15.554688 L 4.113281 15.554688 C 3.828125 15.554688 3.59375 15.785156 3.59375 16.070312 Z M 14.480469 18.144531 C 14.480469 17.859375 14.25 17.625 13.964844 17.625 L 9.296875 17.625 C 9.011719 17.625 8.777344 17.859375 8.777344 18.144531 C 8.777344 18.429688 9.011719 18.664062 9.296875 18.664062 L 13.964844 18.664062 C 14.25 18.664062 14.480469 18.429688 14.480469 18.144531 Z M 23.296875 18.144531 C 23.296875 17.859375 23.0625 17.625 22.777344 17.625 L 16.035156 17.625 C 15.75 17.625 15.519531 17.859375 15.519531 18.144531 C 15.519531 18.429688 15.75 18.664062 16.035156 18.664062 L 22.777344 18.664062 C 23.0625 18.664062 23.296875 18.429688 23.296875 18.144531 Z M 17.59375 16.589844 L 19.664062 16.589844 C 19.953125 16.589844 20.183594 16.359375 20.183594 16.070312 C 20.183594 15.785156 19.953125 15.554688 19.664062 15.554688 L 17.59375 15.554688 C 17.304688 15.554688 17.074219 15.785156 17.074219 16.070312 C 17.074219 16.359375 17.304688 16.589844 17.59375 16.589844 Z M 26.40625 18.144531 C 26.40625 17.859375 26.171875 17.625 25.886719 17.625 L 24.851562 17.625 C 24.5625 17.625 24.332031 17.859375 24.332031 18.144531 C 24.332031 18.429688 24.5625 18.664062 24.851562 18.664062 L 25.886719 18.664062 C 26.171875 18.664062 26.40625 18.429688 26.40625 18.144531 Z M 26.40625 16.070312 C 26.40625 15.785156 26.171875 15.554688 25.886719 15.554688 L 21.738281 15.554688 C 21.453125 15.554688 21.222656 15.785156 21.222656 16.070312 C 21.222656 16.359375 21.453125 16.589844 21.738281 16.589844 L 25.886719 16.589844 C 26.171875 16.589844 26.40625 16.359375 26.40625 16.070312 Z M 20.183594 4.664062 C 20.183594 4.953125 20.417969 5.183594 20.703125 5.183594 L 25.886719 5.183594 C 26.171875 5.183594 26.40625 4.953125 26.40625 4.664062 C 26.40625 4.378906 26.171875 4.148438 25.886719 4.148438 L 20.703125 4.148438 C 20.417969 4.148438 20.183594 4.378906 20.183594 4.664062 Z M 17.074219 4.664062 C 17.074219 4.953125 17.304688 5.183594 17.59375 5.183594 L 18.628906 5.183594 C 18.914062 5.183594 19.148438 4.953125 19.148438 4.664062 C 19.148438 4.378906 18.914062 4.148438 18.628906 4.148438 L 17.59375 4.148438 C 17.304688 4.148438 17.074219 4.378906 17.074219 4.664062 Z M 15 6.738281 C 15 7.027344 15.230469 7.257812 15.519531 7.257812 L 25.886719 7.257812 C 26.171875 7.257812 26.40625 7.027344 26.40625 6.738281 C 26.40625 6.453125 26.171875 6.222656 25.886719 6.222656 L 15.519531 6.222656 C 15.230469 6.222656 15 6.453125 15 6.738281 Z M 15 13.996094 C 15 14.285156 15.230469 14.515625 15.519531 14.515625 L 25.886719 14.515625 C 26.171875 14.515625 26.40625 14.285156 26.40625 13.996094 L 26.40625 8.8125 C 26.40625 8.527344 26.171875 8.296875 25.886719 8.296875 L 15.519531 8.296875 C 15.230469 8.296875 15 8.527344 15 8.8125 Z M 12.710938 6.222656 L 11.523438 7.410156 C 11.320312 7.613281 11.320312 7.941406 11.523438 8.144531 C 11.625 8.246094 11.757812 8.296875 11.890625 8.296875 C 12.023438 8.296875 12.15625 8.246094 12.257812 8.144531 L 13.8125 6.585938 C 14.015625 6.386719 14.015625 6.058594 13.8125 5.855469 L 12.257812 4.300781 C 12.054688 4.097656 11.726562 4.097656 11.523438 4.300781 C 11.320312 4.5 11.320312 4.828125 11.523438 5.03125 Z M 6.855469 8.144531 C 6.957031 8.246094 7.089844 8.296875 7.222656 8.296875 C 7.355469 8.296875 7.488281 8.246094 7.589844 8.144531 L 10.699219 5.03125 C 10.902344 4.828125 10.902344 4.5 10.699219 4.300781 C 10.5 4.097656 10.171875 4.097656 9.96875 4.300781 L 6.855469 7.410156 C 6.65625 7.613281 6.65625 7.941406 6.855469 8.144531 Z M 3.746094 6.585938 L 5.300781 8.144531 C 5.402344 8.246094 5.535156 8.296875 5.667969 8.296875 C 5.800781 8.296875 5.933594 8.246094 6.035156 8.144531 C 6.238281 7.941406 6.238281 7.613281 6.035156 7.410156 L 4.847656 6.222656 L 6.035156 5.03125 C 6.238281 4.828125 6.238281 4.5 6.035156 4.300781 C 5.832031 4.097656 5.503906 4.097656 5.300781 4.300781 L 3.746094 5.855469 C 3.542969 6.058594 3.542969 6.386719 3.746094 6.585938 Z M 25.367188 13.480469 L 16.035156 13.480469 L 16.035156 9.332031 L 25.367188 9.332031 Z M 20.183594 10.367188 C 20.183594 10.65625 20.417969 10.886719 20.703125 10.886719 L 21.222656 10.886719 C 21.507812 10.886719 21.738281 10.65625 21.738281 10.367188 C 21.738281 10.082031 21.507812 9.851562 21.222656 9.851562 L 20.703125 9.851562 C 20.417969 9.851562 20.183594 10.082031 20.183594 10.367188 Z M 17.59375 10.367188 C 17.59375 10.65625 17.824219 10.886719 18.109375 10.886719 L 19.148438 10.886719 C 19.433594 10.886719 19.664062 10.65625 19.664062 10.367188 C 19.664062 10.082031 19.433594 9.851562 19.148438 9.851562 L 18.109375 9.851562 C 17.824219 9.851562 17.59375 10.082031 17.59375 10.367188 Z M 24.332031 12.441406 C 24.332031 12.15625 24.101562 11.925781 23.8125 11.925781 L 17.074219 11.925781 C 16.789062 11.925781 16.554688 12.15625 16.554688 12.441406 C 16.554688 12.730469 16.789062 12.960938 17.074219 12.960938 L 23.8125 12.960938 C 24.101562 12.960938 24.332031 12.730469 24.332031 12.441406 Z M 24.332031 10.367188 C 24.332031 10.082031 24.101562 9.851562 23.8125 9.851562 L 22.777344 9.851562 C 22.488281 9.851562 22.257812 10.082031 22.257812 10.367188 C 22.257812 10.65625 22.488281 10.886719 22.777344 10.886719 L 23.8125 10.886719 C 24.101562 10.886719 24.332031 10.65625 24.332031 10.367188 Z M 0.484375 22.292969 L 29.515625 22.292969 L 29.515625 23.914062 C 29.515625 24.164062 29.3125 24.367188 29.0625 24.367188 L 0.9375 24.367188 C 0.6875 24.367188 0.484375 24.164062 0.484375 23.914062 Z M 18.628906 23.328125 C 18.628906 23.617188 18.859375 23.847656 19.148438 23.847656 L 20.183594 23.847656 C 20.46875 23.847656 20.703125 23.617188 20.703125 23.328125 C 20.703125 23.042969 20.46875 22.8125 20.183594 22.8125 L 19.148438 22.8125 C 18.859375 22.8125 18.628906 23.042969 18.628906 23.328125 Z M 12.40625 23.328125 C 12.40625 23.617188 12.640625 23.847656 12.925781 23.847656 L 17.074219 23.847656 C 17.359375 23.847656 17.59375 23.617188 17.59375 23.328125 C 17.59375 23.042969 17.359375 22.8125 17.074219 22.8125 L 12.925781 22.8125 C 12.640625 22.8125 12.40625 23.042969 12.40625 23.328125 Z M 9.296875 23.328125 C 9.296875 23.617188 9.53125 23.847656 9.816406 23.847656 L 10.851562 23.847656 C 11.140625 23.847656 11.371094 23.617188 11.371094 23.328125 C 11.371094 23.042969 11.140625 22.8125 10.851562 22.8125 L 9.816406 22.8125 C 9.53125 22.8125 9.296875 23.042969 9.296875 23.328125 Z M 29.0625 4.664062 L 28.480469 4.664062 L 28.480469 18.726562 C 28.480469 19.550781 27.8125 20.21875 26.988281 20.21875 L 3.011719 20.21875 C 2.1875 20.21875 1.519531 19.550781 1.519531 18.726562 L 1.519531 4.664062 L 0.9375 4.664062 C 0.6875 4.664062 0.484375 4.871094 0.484375 5.121094 L 0.484375 21.253906 L 29.515625 21.253906 L 29.515625 5.121094 C 29.515625 4.871094 29.3125 4.664062 29.0625 4.664062 Z M 10.335938 2.074219 L 2.558594 2.074219 L 2.558594 0.453125 C 2.558594 0.203125 2.761719 0 3.011719 0 L 10.335938 0 Z M 5.148438 1.035156 C 5.148438 0.75 4.917969 0.519531 4.632812 0.519531 L 4.113281 0.519531 C 3.828125 0.519531 3.59375 0.75 3.59375 1.035156 C 3.59375 1.324219 3.828125 1.554688 4.113281 1.554688 L 4.632812 1.554688 C 4.917969 1.554688 5.148438 1.324219 5.148438 1.035156 Z M 7.222656 1.035156 C 7.222656 0.75 6.992188 0.519531 6.703125 0.519531 L 6.1875 0.519531 C 5.898438 0.519531 5.667969 0.75 5.667969 1.035156 C 5.667969 1.324219 5.898438 1.554688 6.1875 1.554688 L 6.703125 1.554688 C 6.992188 1.554688 7.222656 1.324219 7.222656 1.035156 Z M 9.296875 1.035156 C 9.296875 0.75 9.066406 0.519531 8.777344 0.519531 L 8.261719 0.519531 C 7.972656 0.519531 7.742188 0.75 7.742188 1.035156 C 7.742188 1.324219 7.972656 1.554688 8.261719 1.554688 L 8.777344 1.554688 C 9.066406 1.554688 9.296875 1.324219 9.296875 1.035156 Z M 9.296875 1.035156 " clip-rule="nonzero"/></clipPath></defs><g clip-path="url(#a1c3b80f14)"><g clip-path="url(#9bd990852d)"><path fill="#f9f7f3" d="M 0.484375 0 L 0.484375 29.03125 L 29.515625 29.03125 L 29.515625 0 Z M 0.484375 0 " fill-opacity="1" fill-rule="nonzero"/></g></g></svg>