<svg xmlns="http://www.w3.org/2000/svg" xmlns:xlink="http://www.w3.org/1999/xlink" width="40" zoomAndPan="magnify" viewBox="0 0 30 30.000001" height="40" preserveAspectRatio="xMidYMid meet" version="1.0"><defs><clipPath id="f40f2c8bde"><path d="M 0.484375 0 L 29.515625 0 L 29.515625 29.03125 L 0.484375 29.03125 Z M 0.484375 0 " clip-rule="nonzero"/></clipPath><clipPath id="3380987188"><path d="M 17.21875 25.402344 L 17.738281 26.957031 L 12.261719 26.957031 L 12.78125 25.402344 Z M 20.984375 27.996094 L 9.015625 27.996094 C 8.394531 27.996094 7.875 28.441406 7.765625 29.03125 L 22.234375 29.03125 C 22.125 28.441406 21.605469 27.996094 20.984375 27.996094 Z M 27.441406 2.074219 L 11.371094 2.074219 L 11.371094 0 L 26.988281 0 C 27.238281 0 27.441406 0.203125 27.441406 0.453125 Z M 15.519531 1.035156 C 15.519531 0.75 15.285156 0.519531 15 0.519531 L 12.925781 0.519531 C 12.640625 0.519531 12.40625 0.75 12.40625 1.035156 C 12.40625 1.324219 12.640625 1.554688 12.925781 1.554688 L 15 1.554688 C 15.285156 1.554688 15.519531 1.324219 15.519531 1.035156 Z M 23.296875 1.035156 C 23.296875 0.75 23.0625 0.519531 22.777344 0.519531 L 17.074219 0.519531 C 16.789062 0.519531 16.554688 0.75 16.554688 1.035156 C 16.554688 1.324219 16.789062 1.554688 17.074219 1.554688 L 22.777344 1.554688 C 23.0625 1.554688 23.296875 1.324219 23.296875 1.035156 Z M 26.40625 1.035156 C 26.40625 0.75 26.171875 0.519531 25.886719 0.519531 L 24.851562 0.519531 C 24.5625 0.519531 24.332031 0.75 24.332031 1.035156 C 24.332031 1.324219 24.5625 1.554688 24.851562 1.554688 L 25.886719 1.554688 C 26.171875 1.554688 26.40625 1.324219 26.40625 1.035156 Z M 2.558594 18.726562 L 2.558594 3.109375 L 27.441406 3.109375 L 27.441406 18.726562 C 27.441406 18.976562 27.238281 19.183594 26.988281 19.183594 L 3.011719 19.183594 C 2.761719 19.183594 2.558594 18.976562 2.558594 18.726562 Z M 7.742188 18.144531 C 7.742188 17.859375 7.511719 17.625 7.222656 17.625 L 4.113281 17.625 C 3.828125 17.625 3.59375 17.859375 3.59375 18.144531 C 3.59375 18.429688 3.828125 18.664062 4.113281 18.664062 L 7.222656 18.664062 C 7.511719 18.664062 7.742188 18.429688 7.742188 18.144531 Z M 4.632812 11.40625 C 4.34375 11.40625 4.113281 11.636719 4.113281 11.925781 C 4.113281 12.210938 4.34375 12.441406 4.632812 12.441406 L 12.925781 12.441406 C 13.210938 12.441406 13.445312 12.210938 13.445312 11.925781 C 13.445312 11.636719 13.210938 11.40625 12.925781 11.40625 Z M 5.667969 10.367188 L 6.703125 10.367188 C 6.992188 10.367188 7.222656 10.136719 7.222656 9.851562 C 7.222656 9.5625 6.992188 9.332031 6.703125 9.332031 L 5.667969 9.332031 C 5.382812 9.332031 5.148438 9.5625 5.148438 9.851562 C 5.148438 10.136719 5.382812 10.367188 5.667969 10.367188 Z M 11.890625 15.554688 C 11.601562 15.554688 11.371094 15.785156 11.371094 16.070312 C 11.371094 16.359375 11.601562 16.589844 11.890625 16.589844 L 15.519531 16.589844 C 15.804688 16.589844 16.035156 16.359375 16.035156 16.070312 C 16.035156 15.785156 15.804688 15.554688 15.519531 15.554688 Z M 12.40625 14.515625 L 13.445312 14.515625 C 13.730469 14.515625 13.964844 14.285156 13.964844 13.996094 C 13.964844 13.710938 13.730469 13.480469 13.445312 13.480469 L 12.40625 13.480469 C 12.121094 13.480469 11.890625 13.710938 11.890625 13.996094 C 11.890625 14.285156 12.121094 14.515625 12.40625 14.515625 Z M 13.964844 9.851562 C 13.964844 9.5625 13.730469 9.332031 13.445312 9.332031 L 8.777344 9.332031 C 8.492188 9.332031 8.261719 9.5625 8.261719 9.851562 C 8.261719 10.136719 8.492188 10.367188 8.777344 10.367188 L 13.445312 10.367188 C 13.730469 10.367188 13.964844 10.136719 13.964844 9.851562 Z M 9.816406 13.480469 L 8.777344 13.480469 C 8.492188 13.480469 8.261719 13.710938 8.261719 13.996094 C 8.261719 14.285156 8.492188 14.515625 8.777344 14.515625 L 9.816406 14.515625 C 10.101562 14.515625 10.335938 14.285156 10.335938 13.996094 C 10.335938 13.710938 10.101562 13.480469 9.816406 13.480469 Z M 4.113281 13.480469 C 3.828125 13.480469 3.59375 13.710938 3.59375 13.996094 C 3.59375 14.285156 3.828125 14.515625 4.113281 14.515625 L 6.703125 14.515625 C 6.992188 14.515625 7.222656 14.285156 7.222656 13.996094 C 7.222656 13.710938 6.992188 13.480469 6.703125 13.480469 Z M 3.59375 16.070312 C 3.59375 16.359375 3.828125 16.589844 4.113281 16.589844 L 9.816406 16.589844 C 10.101562 16.589844 10.335938 16.359375 10.335938 16.070312 C 10.335938 15.785156 10.101562 15.554688 9.816406 15.554688 L 4.113281 15.554688 C 3.828125 15.554688 3.59375 15.785156 3.59375 16.070312 Z M 14.480469 18.144531 C 14.480469 17.859375 14.25 17.625 13.964844 17.625 L 9.296875 17.625 C 9.011719 17.625 8.777344 17.859375 8.777344 18.144531 C 8.777344 18.429688 9.011719 18.664062 9.296875 18.664062 L 13.964844 18.664062 C 14.25 18.664062 14.480469 18.429688 14.480469 18.144531 Z M 23.296875 18.144531 C 23.296875 17.859375 23.0625 17.625 22.777344 17.625 L 16.035156 17.625 C 15.75 17.625 15.519531 17.859375 15.519531 18.144531 C 15.519531 18.429688 15.75 18.664062 16.035156 18.664062 L 22.777344 18.664062 C 23.0625 18.664062 23.296875 18.429688 23.296875 18.144531 Z M 17.59375 16.589844 L 19.664062 16.589844 C 19.953125 16.589844 20.183594 16.359375 20.183594 16.070312 C 20.183594 15.785156 19.953125 15.554688 19.664062 15.554688 L 17.59375 15.554688 C 17.304688 15.554688 17.074219 15.785156 17.074219 16.070312 C 17.074219 16.359375 17.304688 16.589844 17.59375 16.589844 Z M 26.40625 18.144531 C 26.40625 17.859375 26.171875 17.625 25.886719 17.625 L 24.851562 17.625 C 24.5625 17.625 24.332031 17.859375 24.332031 18.144531 C 24.332031 18.429688 24.5625 18.664062 24.851562 18.664062 L 25.886719 18.664062 C 26.171875 18.664062 26.40625 18.429688 26.40625 18.144531 Z M 26.40625 16.070312 C 26.40625 15.785156 26.171875 15.554688 25.886719 15.554688 L 21.738281 15.554688 C 21.453125 15.554688 21.222656 15.785156 21.222656 16.070312 C 21.222656 16.359375 21.453125 16.589844 21.738281 16.589844 L 25.886719 16.589844 C 26.171875 16.589844 26.40625 16.359375 26.40625 16.070312 Z M 20.183594 4.664062 C 20.183594 4.953125 20.417969 5.183594 20.703125 5.183594 L 25.886719 5.183594 C 26.171875 5.183594 26.40625 4.953125 26.40625 4.664062 C 26.40625 4.378906 26.171875 4.148438 25.886719 4.148438 L 20.703125 4.148438 C 20.417969 4.148438 20.183594 4.378906 20.183594 4.664062 Z M 17.074219 4.664062 C 17.074219 4.953125 17.304688 5.183594 17.59375 5.183594 L 18.628906 5.183594 C 18.914062 5.183594 19.148438 4.953125 19.148438 4.664062 C 19.148438 4.378906 18.914062 4.148438 18.628906 4.148438 L 17.59375 4.148438 C 17.304688 4.148438 17.074219 4.378906 17.074219 4.664062 Z M 15 6.738281 C 15 7.027344 15.230469 7.257812 15.519531 7.257812 L 25.886719 7.257812 C 26.171875 7.257812 26.40625 7.027344 26.40625 6.738281 C 26.40625 6.453125 26.171875 6.222656 25.886719 6.222656 L 15.519531 6.222656 C 15.230469 6.222656 15 6.453125 15 6.738281 Z M 15 13.996094 C 15 14.285156 15.230469 14.515625 15.519531 14.515625 L 25.886719 14.515625 C 26.171875 14.515625 26.40625 14.285156 26.40625 13.996094 L 26.40625 8.8125 C 26.40625 8.527344 26.171875 8.296875 25.886719 8.296875 L 15.519531 8.296875 C 15.230469 8.296875 15 8.527344 15 8.8125 Z M 12.710938 6.222656 L 11.523438 7.410156 C 11.320312 7.613281 11.320312 7.941406 11.523438 8.144531 C 11.625 8.246094 11.757812 8.296875 11.890625 8.296875 C 12.023438 8.296875 12.15625 8.246094 12.257812 8.144531 L 13.8125 6.585938 C 14.015625 6.386719 14.015625 6.058594 13.8125 5.855469 L 12.257812 4.300781 C 12.054688 4.097656 11.726562 4.097656 11.523438 4.300781 C 11.320312 4.5 11.320312 4.828125 11.523438 5.03125 Z M 6.855469 8.144531 C 6.957031 8.246094 7.089844 8.296875 7.222656 8.296875 C 7.355469 8.296875 7.488281 8.246094 7.589844 8.144531 L 10.699219 5.03125 C 10.902344 4.828125 10.902344 4.5 10.699219 4.300781 C 10.5 4.097656 10.171875 4.097656 9.96875 4.300781 L 6.855469 7.410156 C 6.65625 7.613281 6.65625 7.941406 6.855469 8.144531 Z M 3.746094 6.585938 L 5.300781 8.144531 C 5.402344 8.246094 5.535156 8.296875 5.667969 8.296875 C 5.800781 8.296875 5.933594 8.246094 6.035156 8.144531 C 6.238281 7.941406 6.238281 7.613281 6.035156 7.410156 L 4.847656 6.222656 L 6.035156 5.03125 C 6.238281 4.828125 6.238281 4.5 6.035156 4.300781 C 5.832031 4.097656 5.503906 4.097656 5.300781 4.300781 L 3.746094 5.855469 C 3.542969 6.058594 3.542969 6.386719 3.746094 6.585938 Z M 25.367188 13.480469 L 16.035156 13.480469 L 16.035156 9.332031 L 25.367188 9.332031 Z M 20.183594 10.367188 C 20.183594 10.65625 20.417969 10.886719 20.703125 10.886719 L 21.222656 10.886719 C 21.507812 10.886719 21.738281 10.65625 21.738281 10.367188 C 21.738281 10.082031 21.507812 9.851562 21.222656 9.851562 L 20.703125 9.851562 C 20.417969 9.851562 20.183594 10.082031 20.183594 10.367188 Z M 17.59375 10.367188 C 17.59375 10.65625 17.824219 10.886719 18.109375 10.886719 L 19.148438 10.886719 C 19.433594 10.886719 19.664062 10.65625 19.664062 10.367188 C 19.664062 10.082031 19.433594 9.851562 19.148438 9.851562 L 18.109375 9.851562 C 17.824219 9.851562 17.59375 10.082031 17.59375 10.367188 Z M 24.332031 12.441406 C 24.332031 12.15625 24.101562 11.925781 23.8125 11.925781 L 17.074219 11.925781 C 16.789062 11.925781 16.554688 12.15625 16.554688 12.441406 C 16.554688 12.730469 16.789062 12.960938 17.074219 12.960938 L 23.8125 12.960938 C 24.101562 12.960938 24.332031 12.730469 24.332031 12.441406 Z M 24.332031 10.367188 C 24.332031 10.082031 24.101562 9.851562 23.8125 9.851562 L 22.777344 9.851562 C 22.488281 9.851562 22.257812 10.082031 22.257812 10.367188 C 22.257812 10.65625 22.488281 10.886719 22.777344 10.886719 L 23.8125 10.886719 C 24.101562 10.886719 24.332031 10.65625 24.332031 10.367188 Z M 0.484375 22.292969 L 29.515625 22.292969 L 29.515625 23.914062 C 29.515625 24.164062 29.3125 24.367188 29.0625 24.367188 L 0.9375 24.367188 C 0.6875 24.367188 0.484375 24.164062 0.484375 23.914062 Z M 18.628906 23.328125 C 18.628906 23.617188 18.859375 23.847656 19.148438 23.847656 L 20.183594 23.847656 C 20.46875 23.847656 20.703125 23.617188 20.703125 23.328125 C 20.703125 23.042969 20.46875 22.8125 20.183594 22.8125 L 19.148438 22.8125 C 18.859375 22.8125 18.628906 23.042969 18.628906 23.328125 Z M 12.40625 23.328125 C 12.40625 23.617188 12.640625 23.847656 12.925781 23.847656 L 17.074219 23.847656 C 17.359375 23.847656 17.59375 23.617188 17.59375 23.328125 C 17.59375 23.042969 17.359375 22.8125 17.074219 22.8125 L 12.925781 22.8125 C 12.640625 22.8125 12.40625 23.042969 12.40625 23.328125 Z M 9.296875 23.328125 C 9.296875 23.617188 9.53125 23.847656 9.816406 23.847656 L 10.851562 23.847656 C 11.140625 23.847656 11.371094 23.617188 11.371094 23.328125 C 11.371094 23.042969 11.140625 22.8125 10.851562 22.8125 L 9.816406 22.8125 C 9.53125 22.8125 9.296875 23.042969 9.296875 23.328125 Z M 29.0625 4.664062 L 28.480469 4.664062 L 28.480469 18.726562 C 28.480469 19.550781 27.8125 20.21875 26.988281 20.21875 L 3.011719 20.21875 C 2.1875 20.21875 1.519531 19.550781 1.519531 18.726562 L 1.519531 4.664062 L 0.9375 4.664062 C 0.6875 4.664062 0.484375 4.871094 0.484375 5.121094 L 0.484375 21.253906 L 29.515625 21.253906 L 29.515625 5.121094 C 29.515625 4.871094 29.3125 4.664062 29.0625 4.664062 Z M 10.335938 2.074219 L 2.558594 2.074219 L 2.558594 0.453125 C 2.558594 0.203125 2.761719 0 3.011719 0 L 10.335938 0 Z M 5.148438 1.035156 C 5.148438 0.75 4.917969 0.519531 4.632812 0.519531 L 4.113281 0.519531 C 3.828125 0.519531 3.59375 0.75 3.59375 1.035156 C 3.59375 1.324219 3.828125 1.554688 4.113281 1.554688 L 4.632812 1.554688 C 4.917969 1.554688 5.148438 1.324219 5.148438 1.035156 Z M 7.222656 1.035156 C 7.222656 0.75 6.992188 0.519531 6.703125 0.519531 L 6.1875 0.519531 C 5.898438 0.519531 5.667969 0.75 5.667969 1.035156 C 5.667969 1.324219 5.898438 1.554688 6.1875 1.554688 L 6.703125 1.554688 C 6.992188 1.554688 7.222656 1.324219 7.222656 1.035156 Z M 9.296875 1.035156 C 9.296875 0.75 9.066406 0.519531 8.777344 0.519531 L 8.261719 0.519531 C 7.972656 0.519531 7.742188 0.75 7.742188 1.035156 C 7.742188 1.324219 7.972656 1.554688 8.261719 1.554688 L 8.777344 1.554688 C 9.066406 1.554688 9.296875 1.324219 9.296875 1.035156 Z M 9.296875 1.035156 " clip-rule="nonzero"/></clipPath><linearGradient x1="22.000058" gradientTransform="matrix(0.0648041, 0, 0, 0.0648041, -1.589862, -2.073723)" y1="469.999933" x2="469.999997" gradientUnits="userSpaceOnUse" y2="21.999994" id="b86fc11f17"><stop stop-opacity="1" stop-color="rgb(91.799927%, 88.999939%, 82.398987%)" offset="0"/><stop stop-opacity="1" stop-color="rgb(91.799927%, 88.999939%, 82.398987%)" offset="0.0625"/><stop stop-opacity="1" stop-color="rgb(91.799927%, 88.999939%, 82.398987%)" offset="0.078125"/><stop stop-opacity="1" stop-color="rgb(91.708374%, 88.935852%, 82.395935%)" offset="0.0859375"/><stop stop-opacity="1" stop-color="rgb(90.911865%, 88.372803%, 82.376099%)" offset="0.0898438"/><stop stop-opacity="1" stop-color="rgb(90.206909%, 87.875366%, 82.359314%)" offset="0.09375"/><stop stop-opacity="1" stop-color="rgb(89.500427%, 87.376404%, 82.341003%)" offset="0.0976562"/><stop stop-opacity="1" stop-color="rgb(88.793945%, 86.877441%, 82.322693%)" offset="0.101562"/><stop stop-opacity="1" stop-color="rgb(88.087463%, 86.378479%, 82.304382%)" offset="0.105469"/><stop stop-opacity="1" stop-color="rgb(87.382507%, 85.881042%, 82.287598%)" offset="0.109375"/><stop stop-opacity="1" stop-color="rgb(86.676025%, 85.38208%, 82.269287%)" offset="0.113281"/><stop stop-opacity="1" stop-color="rgb(85.971069%, 84.884644%, 82.250977%)" offset="0.117188"/><stop stop-opacity="1" stop-color="rgb(85.264587%, 84.385681%, 82.232666%)" offset="0.121094"/><stop stop-opacity="1" stop-color="rgb(84.558105%, 83.886719%, 82.215881%)" offset="0.125"/><stop stop-opacity="1" stop-color="rgb(83.851624%, 83.387756%, 82.197571%)" offset="0.128906"/><stop stop-opacity="1" stop-color="rgb(83.146667%, 82.89032%, 82.17926%)" offset="0.132812"/><stop stop-opacity="1" stop-color="rgb(82.440186%, 82.391357%, 82.16095%)" offset="0.136719"/><stop stop-opacity="1" stop-color="rgb(81.733704%, 81.893921%, 82.144165%)" offset="0.140625"/><stop stop-opacity="1" stop-color="rgb(81.027222%, 81.394958%, 82.125854%)" offset="0.144531"/><stop stop-opacity="1" stop-color="rgb(80.322266%, 80.895996%, 82.107544%)" offset="0.148438"/><stop stop-opacity="1" stop-color="rgb(79.615784%, 80.397034%, 82.089233%)" offset="0.152344"/><stop stop-opacity="1" stop-color="rgb(78.909302%, 79.899597%, 82.072449%)" offset="0.15625"/><stop stop-opacity="1" stop-color="rgb(78.20282%, 79.400635%, 82.054138%)" offset="0.160156"/><stop stop-opacity="1" stop-color="rgb(77.497864%, 78.903198%, 82.037354%)" offset="0.164062"/><stop stop-opacity="1" stop-color="rgb(76.791382%, 78.404236%, 82.019043%)" offset="0.167969"/><stop stop-opacity="1" stop-color="rgb(76.0849%, 77.905273%, 82.000732%)" offset="0.171875"/><stop stop-opacity="1" stop-color="rgb(75.378418%, 77.406311%, 81.982422%)" offset="0.175781"/><stop stop-opacity="1" stop-color="rgb(74.673462%, 76.908875%, 81.965637%)" offset="0.179688"/><stop stop-opacity="1" stop-color="rgb(73.96698%, 76.409912%, 81.947327%)" offset="0.183594"/><stop stop-opacity="1" stop-color="rgb(73.260498%, 75.912476%, 81.929016%)" offset="0.1875"/><stop stop-opacity="1" stop-color="rgb(72.554016%, 75.413513%, 81.910706%)" offset="0.191406"/><stop stop-opacity="1" stop-color="rgb(71.84906%, 74.914551%, 81.893921%)" offset="0.195312"/><stop stop-opacity="1" stop-color="rgb(71.142578%, 74.415588%, 81.87561%)" offset="0.199219"/><stop stop-opacity="1" stop-color="rgb(70.437622%, 73.918152%, 81.8573%)" offset="0.203125"/><stop stop-opacity="1" stop-color="rgb(69.73114%, 73.419189%, 81.838989%)" offset="0.207031"/><stop stop-opacity="1" stop-color="rgb(69.024658%, 72.921753%, 81.822205%)" offset="0.210938"/><stop stop-opacity="1" stop-color="rgb(68.318176%, 72.422791%, 81.803894%)" offset="0.214844"/><stop stop-opacity="1" stop-color="rgb(67.61322%, 71.923828%, 81.785583%)" offset="0.21875"/><stop stop-opacity="1" stop-color="rgb(66.906738%, 71.424866%, 81.767273%)" offset="0.222656"/><stop stop-opacity="1" stop-color="rgb(66.200256%, 70.927429%, 81.750488%)" offset="0.226562"/><stop stop-opacity="1" stop-color="rgb(65.493774%, 70.428467%, 81.732178%)" offset="0.230469"/><stop stop-opacity="1" stop-color="rgb(64.788818%, 69.93103%, 81.713867%)" offset="0.234375"/><stop stop-opacity="1" stop-color="rgb(64.082336%, 69.432068%, 81.695557%)" offset="0.238281"/><stop stop-opacity="1" stop-color="rgb(63.375854%, 68.933105%, 81.678772%)" offset="0.242187"/><stop stop-opacity="1" stop-color="rgb(62.669373%, 68.434143%, 81.660461%)" offset="0.246094"/><stop stop-opacity="1" stop-color="rgb(61.964417%, 67.936707%, 81.643677%)" offset="0.25"/><stop stop-opacity="1" stop-color="rgb(61.257935%, 67.437744%, 81.625366%)" offset="0.253906"/><stop stop-opacity="1" stop-color="rgb(60.551453%, 66.940308%, 81.607056%)" offset="0.257812"/><stop stop-opacity="1" stop-color="rgb(59.844971%, 66.441345%, 81.588745%)" offset="0.261719"/><stop stop-opacity="1" stop-color="rgb(59.140015%, 65.942383%, 81.57196%)" offset="0.265625"/><stop stop-opacity="1" stop-color="rgb(58.433533%, 65.44342%, 81.55365%)" offset="0.269531"/><stop stop-opacity="1" stop-color="rgb(57.727051%, 64.945984%, 81.535339%)" offset="0.273438"/><stop stop-opacity="1" stop-color="rgb(57.020569%, 64.447021%, 81.517029%)" offset="0.277344"/><stop stop-opacity="1" stop-color="rgb(56.315613%, 63.949585%, 81.500244%)" offset="0.28125"/><stop stop-opacity="1" stop-color="rgb(55.609131%, 63.450623%, 81.481934%)" offset="0.285156"/><stop stop-opacity="1" stop-color="rgb(54.902649%, 62.95166%, 81.463623%)" offset="0.289062"/><stop stop-opacity="1" stop-color="rgb(54.196167%, 62.452698%, 81.445312%)" offset="0.292969"/><stop stop-opacity="1" stop-color="rgb(53.491211%, 61.955261%, 81.428528%)" offset="0.296875"/><stop stop-opacity="1" stop-color="rgb(52.784729%, 61.456299%, 81.410217%)" offset="0.300781"/><stop stop-opacity="1" stop-color="rgb(52.079773%, 60.958862%, 81.391907%)" offset="0.304688"/><stop stop-opacity="1" stop-color="rgb(51.373291%, 60.4599%, 81.373596%)" offset="0.308594"/><stop stop-opacity="1" stop-color="rgb(50.666809%, 59.960938%, 81.356812%)" offset="0.3125"/><stop stop-opacity="1" stop-color="rgb(49.960327%, 59.461975%, 81.338501%)" offset="0.316406"/><stop stop-opacity="1" stop-color="rgb(49.255371%, 58.964539%, 81.32019%)" offset="0.320312"/><stop stop-opacity="1" stop-color="rgb(48.548889%, 58.465576%, 81.30188%)" offset="0.324219"/><stop stop-opacity="1" stop-color="rgb(47.842407%, 57.96814%, 81.285095%)" offset="0.328125"/><stop stop-opacity="1" stop-color="rgb(47.135925%, 57.469177%, 81.266785%)" offset="0.332031"/><stop stop-opacity="1" stop-color="rgb(46.430969%, 56.970215%, 81.248474%)" offset="0.335938"/><stop stop-opacity="1" stop-color="rgb(45.724487%, 56.471252%, 81.230164%)" offset="0.339844"/><stop stop-opacity="1" stop-color="rgb(45.018005%, 55.973816%, 81.213379%)" offset="0.34375"/><stop stop-opacity="1" stop-color="rgb(44.311523%, 55.474854%, 81.195068%)" offset="0.347656"/><stop stop-opacity="1" stop-color="rgb(43.606567%, 54.977417%, 81.178284%)" offset="0.351562"/><stop stop-opacity="1" stop-color="rgb(42.900085%, 54.478455%, 81.159973%)" offset="0.355469"/><stop stop-opacity="1" stop-color="rgb(42.193604%, 53.979492%, 81.141663%)" offset="0.359375"/><stop stop-opacity="1" stop-color="rgb(41.487122%, 53.48053%, 81.123352%)" offset="0.363281"/><stop stop-opacity="1" stop-color="rgb(40.782166%, 52.983093%, 81.106567%)" offset="0.367188"/><stop stop-opacity="1" stop-color="rgb(40.075684%, 52.484131%, 81.088257%)" offset="0.371094"/><stop stop-opacity="1" stop-color="rgb(39.369202%, 51.986694%, 81.069946%)" offset="0.375"/><stop stop-opacity="1" stop-color="rgb(38.66272%, 51.487732%, 81.051636%)" offset="0.378906"/><stop stop-opacity="1" stop-color="rgb(37.957764%, 50.98877%, 81.034851%)" offset="0.382812"/><stop stop-opacity="1" stop-color="rgb(37.251282%, 50.489807%, 81.016541%)" offset="0.386719"/><stop stop-opacity="1" stop-color="rgb(36.546326%, 49.992371%, 80.99823%)" offset="0.390625"/><stop stop-opacity="1" stop-color="rgb(35.839844%, 49.493408%, 80.979919%)" offset="0.394531"/><stop stop-opacity="1" stop-color="rgb(35.133362%, 48.995972%, 80.963135%)" offset="0.398438"/><stop stop-opacity="1" stop-color="rgb(34.42688%, 48.497009%, 80.944824%)" offset="0.402344"/><stop stop-opacity="1" stop-color="rgb(33.721924%, 47.998047%, 80.926514%)" offset="0.40625"/><stop stop-opacity="1" stop-color="rgb(33.015442%, 47.499084%, 80.908203%)" offset="0.410156"/><stop stop-opacity="1" stop-color="rgb(32.30896%, 47.001648%, 80.891418%)" offset="0.414062"/><stop stop-opacity="1" stop-color="rgb(31.602478%, 46.502686%, 80.873108%)" offset="0.417969"/><stop stop-opacity="1" stop-color="rgb(30.897522%, 46.005249%, 80.854797%)" offset="0.421875"/><stop stop-opacity="1" stop-color="rgb(30.19104%, 45.506287%, 80.836487%)" offset="0.425781"/><stop stop-opacity="1" stop-color="rgb(29.484558%, 45.007324%, 80.819702%)" offset="0.429687"/><stop stop-opacity="1" stop-color="rgb(28.778076%, 44.508362%, 80.801392%)" offset="0.433594"/><stop stop-opacity="1" stop-color="rgb(28.07312%, 44.010925%, 80.784607%)" offset="0.4375"/><stop stop-opacity="1" stop-color="rgb(27.366638%, 43.511963%, 80.766296%)" offset="0.441406"/><stop stop-opacity="1" stop-color="rgb(26.660156%, 43.014526%, 80.747986%)" offset="0.445312"/><stop stop-opacity="1" stop-color="rgb(25.953674%, 42.515564%, 80.729675%)" offset="0.449219"/><stop stop-opacity="1" stop-color="rgb(25.248718%, 42.016602%, 80.712891%)" offset="0.453125"/><stop stop-opacity="1" stop-color="rgb(24.542236%, 41.517639%, 80.69458%)" offset="0.457031"/><stop stop-opacity="1" stop-color="rgb(23.835754%, 41.020203%, 80.67627%)" offset="0.460938"/><stop stop-opacity="1" stop-color="rgb(23.129272%, 40.52124%, 80.657959%)" offset="0.464844"/><stop stop-opacity="1" stop-color="rgb(22.424316%, 40.023804%, 80.641174%)" offset="0.46875"/><stop stop-opacity="1" stop-color="rgb(21.717834%, 39.524841%, 80.622864%)" offset="0.472656"/><stop stop-opacity="1" stop-color="rgb(21.012878%, 39.025879%, 80.604553%)" offset="0.476562"/><stop stop-opacity="1" stop-color="rgb(20.306396%, 38.526917%, 80.586243%)" offset="0.480469"/><stop stop-opacity="1" stop-color="rgb(19.599915%, 38.02948%, 80.569458%)" offset="0.484375"/><stop stop-opacity="1" stop-color="rgb(18.893433%, 37.530518%, 80.551147%)" offset="0.488281"/><stop stop-opacity="1" stop-color="rgb(18.188477%, 37.033081%, 80.532837%)" offset="0.492188"/><stop stop-opacity="1" stop-color="rgb(17.481995%, 36.534119%, 80.514526%)" offset="0.496094"/><stop stop-opacity="1" stop-color="rgb(16.775513%, 36.035156%, 80.497742%)" offset="0.5"/><stop stop-opacity="1" stop-color="rgb(16.069031%, 35.536194%, 80.479431%)" offset="0.503906"/><stop stop-opacity="1" stop-color="rgb(15.364075%, 35.038757%, 80.461121%)" offset="0.507812"/><stop stop-opacity="1" stop-color="rgb(14.657593%, 34.539795%, 80.44281%)" offset="0.511719"/><stop stop-opacity="1" stop-color="rgb(13.951111%, 34.042358%, 80.426025%)" offset="0.515625"/><stop stop-opacity="1" stop-color="rgb(13.604736%, 33.796692%, 80.41687%)" offset="0.519531"/><stop stop-opacity="1" stop-color="rgb(13.258362%, 33.552551%, 80.407715%)" offset="0.523438"/><stop stop-opacity="1" stop-color="rgb(13.960266%, 34.048462%, 80.426025%)" offset="0.527344"/><stop stop-opacity="1" stop-color="rgb(14.663696%, 34.545898%, 80.444336%)" offset="0.53125"/><stop stop-opacity="1" stop-color="rgb(15.367126%, 35.041809%, 80.461121%)" offset="0.535156"/><stop stop-opacity="1" stop-color="rgb(16.070557%, 35.53772%, 80.479431%)" offset="0.539062"/><stop stop-opacity="1" stop-color="rgb(16.773987%, 36.03363%, 80.496216%)" offset="0.542969"/><stop stop-opacity="1" stop-color="rgb(17.477417%, 36.531067%, 80.514526%)" offset="0.546875"/><stop stop-opacity="1" stop-color="rgb(18.180847%, 37.026978%, 80.532837%)" offset="0.550781"/><stop stop-opacity="1" stop-color="rgb(18.884277%, 37.524414%, 80.551147%)" offset="0.554688"/><stop stop-opacity="1" stop-color="rgb(19.586182%, 38.020325%, 80.567932%)" offset="0.558594"/><stop stop-opacity="1" stop-color="rgb(20.289612%, 38.516235%, 80.586243%)" offset="0.5625"/><stop stop-opacity="1" stop-color="rgb(20.993042%, 39.012146%, 80.604553%)" offset="0.566406"/><stop stop-opacity="1" stop-color="rgb(21.696472%, 39.509583%, 80.622864%)" offset="0.570312"/><stop stop-opacity="1" stop-color="rgb(22.399902%, 40.005493%, 80.639648%)" offset="0.574219"/><stop stop-opacity="1" stop-color="rgb(23.103333%, 40.50293%, 80.657959%)" offset="0.578125"/><stop stop-opacity="1" stop-color="rgb(23.806763%, 40.99884%, 80.674744%)" offset="0.582031"/><stop stop-opacity="1" stop-color="rgb(24.510193%, 41.496277%, 80.693054%)" offset="0.585938"/><stop stop-opacity="1" stop-color="rgb(25.212097%, 41.992188%, 80.711365%)" offset="0.589844"/><stop stop-opacity="1" stop-color="rgb(25.915527%, 42.488098%, 80.729675%)" offset="0.59375"/><stop stop-opacity="1" stop-color="rgb(26.618958%, 42.984009%, 80.74646%)" offset="0.597656"/><stop stop-opacity="1" stop-color="rgb(27.322388%, 43.481445%, 80.764771%)" offset="0.601563"/><stop stop-opacity="1" stop-color="rgb(28.025818%, 43.977356%, 80.781555%)" offset="0.605469"/><stop stop-opacity="1" stop-color="rgb(28.729248%, 44.474792%, 80.799866%)" offset="0.609375"/><stop stop-opacity="1" stop-color="rgb(29.432678%, 44.970703%, 80.818176%)" offset="0.613281"/><stop stop-opacity="1" stop-color="rgb(30.136108%, 45.46814%, 80.836487%)" offset="0.617188"/><stop stop-opacity="1" stop-color="rgb(30.838013%, 45.96405%, 80.853271%)" offset="0.621094"/><stop stop-opacity="1" stop-color="rgb(31.541443%, 46.459961%, 80.871582%)" offset="0.625"/><stop stop-opacity="1" stop-color="rgb(32.244873%, 46.955872%, 80.889893%)" offset="0.628906"/><stop stop-opacity="1" stop-color="rgb(32.948303%, 47.453308%, 80.908203%)" offset="0.632812"/><stop stop-opacity="1" stop-color="rgb(33.651733%, 47.949219%, 80.924988%)" offset="0.636719"/><stop stop-opacity="1" stop-color="rgb(34.355164%, 48.446655%, 80.943298%)" offset="0.640625"/><stop stop-opacity="1" stop-color="rgb(35.058594%, 48.942566%, 80.960083%)" offset="0.644531"/><stop stop-opacity="1" stop-color="rgb(35.762024%, 49.438477%, 80.978394%)" offset="0.648437"/><stop stop-opacity="1" stop-color="rgb(36.463928%, 49.934387%, 80.996704%)" offset="0.652344"/><stop stop-opacity="1" stop-color="rgb(37.167358%, 50.431824%, 81.015015%)" offset="0.65625"/><stop stop-opacity="1" stop-color="rgb(37.870789%, 50.927734%, 81.031799%)" offset="0.660156"/><stop stop-opacity="1" stop-color="rgb(38.574219%, 51.425171%, 81.05011%)" offset="0.664063"/><stop stop-opacity="1" stop-color="rgb(39.277649%, 51.921082%, 81.066895%)" offset="0.667969"/><stop stop-opacity="1" stop-color="rgb(39.981079%, 52.418518%, 81.085205%)" offset="0.671875"/><stop stop-opacity="1" stop-color="rgb(40.684509%, 52.914429%, 81.103516%)" offset="0.675781"/><stop stop-opacity="1" stop-color="rgb(41.387939%, 53.410339%, 81.121826%)" offset="0.679688"/><stop stop-opacity="1" stop-color="rgb(42.09137%, 53.90625%, 81.138611%)" offset="0.683594"/><stop stop-opacity="1" stop-color="rgb(42.7948%, 54.403687%, 81.156921%)" offset="0.6875"/><stop stop-opacity="1" stop-color="rgb(43.496704%, 54.899597%, 81.173706%)" offset="0.691406"/><stop stop-opacity="1" stop-color="rgb(44.200134%, 55.397034%, 81.192017%)" offset="0.695312"/><stop stop-opacity="1" stop-color="rgb(44.903564%, 55.892944%, 81.210327%)" offset="0.699219"/><stop stop-opacity="1" stop-color="rgb(45.606995%, 56.388855%, 81.228638%)" offset="0.703125"/><stop stop-opacity="1" stop-color="rgb(46.310425%, 56.884766%, 81.245422%)" offset="0.707031"/><stop stop-opacity="1" stop-color="rgb(47.013855%, 57.382202%, 81.263733%)" offset="0.710937"/><stop stop-opacity="1" stop-color="rgb(47.717285%, 57.878113%, 81.282043%)" offset="0.714844"/><stop stop-opacity="1" stop-color="rgb(48.420715%, 58.375549%, 81.300354%)" offset="0.71875"/><stop stop-opacity="1" stop-color="rgb(49.12262%, 58.87146%, 81.317139%)" offset="0.722656"/><stop stop-opacity="1" stop-color="rgb(49.82605%, 59.368896%, 81.335449%)" offset="0.726562"/><stop stop-opacity="1" stop-color="rgb(50.52948%, 59.864807%, 81.352234%)" offset="0.730469"/><stop stop-opacity="1" stop-color="rgb(51.23291%, 60.360718%, 81.370544%)" offset="0.734375"/><stop stop-opacity="1" stop-color="rgb(51.93634%, 60.856628%, 81.388855%)" offset="0.738281"/><stop stop-opacity="1" stop-color="rgb(52.639771%, 61.354065%, 81.407166%)" offset="0.742188"/><stop stop-opacity="1" stop-color="rgb(53.343201%, 61.849976%, 81.42395%)" offset="0.746094"/><stop stop-opacity="1" stop-color="rgb(54.046631%, 62.347412%, 81.442261%)" offset="0.75"/><stop stop-opacity="1" stop-color="rgb(54.748535%, 62.843323%, 81.459045%)" offset="0.753906"/><stop stop-opacity="1" stop-color="rgb(55.451965%, 63.340759%, 81.477356%)" offset="0.757812"/><stop stop-opacity="1" stop-color="rgb(56.155396%, 63.83667%, 81.495667%)" offset="0.761719"/><stop stop-opacity="1" stop-color="rgb(56.858826%, 64.332581%, 81.513977%)" offset="0.765625"/><stop stop-opacity="1" stop-color="rgb(57.562256%, 64.828491%, 81.530762%)" offset="0.769531"/><stop stop-opacity="1" stop-color="rgb(58.265686%, 65.325928%, 81.549072%)" offset="0.773437"/><stop stop-opacity="1" stop-color="rgb(58.969116%, 65.821838%, 81.565857%)" offset="0.777344"/><stop stop-opacity="1" stop-color="rgb(59.672546%, 66.319275%, 81.584167%)" offset="0.78125"/><stop stop-opacity="1" stop-color="rgb(60.374451%, 66.815186%, 81.602478%)" offset="0.785156"/><stop stop-opacity="1" stop-color="rgb(61.077881%, 67.311096%, 81.620789%)" offset="0.789062"/><stop stop-opacity="1" stop-color="rgb(61.781311%, 67.807007%, 81.637573%)" offset="0.792969"/><stop stop-opacity="1" stop-color="rgb(62.484741%, 68.304443%, 81.655884%)" offset="0.796875"/><stop stop-opacity="1" stop-color="rgb(63.188171%, 68.800354%, 81.674194%)" offset="0.800781"/><stop stop-opacity="1" stop-color="rgb(63.891602%, 69.297791%, 81.692505%)" offset="0.804687"/><stop stop-opacity="1" stop-color="rgb(64.595032%, 69.793701%, 81.70929%)" offset="0.808594"/><stop stop-opacity="1" stop-color="rgb(65.298462%, 70.291138%, 81.7276%)" offset="0.8125"/><stop stop-opacity="1" stop-color="rgb(66.000366%, 70.787048%, 81.744385%)" offset="0.816406"/><stop stop-opacity="1" stop-color="rgb(66.703796%, 71.282959%, 81.762695%)" offset="0.820312"/><stop stop-opacity="1" stop-color="rgb(67.407227%, 71.77887%, 81.781006%)" offset="0.824219"/><stop stop-opacity="1" stop-color="rgb(68.110657%, 72.276306%, 81.799316%)" offset="0.828125"/><stop stop-opacity="1" stop-color="rgb(68.814087%, 72.772217%, 81.816101%)" offset="0.832031"/><stop stop-opacity="1" stop-color="rgb(69.517517%, 73.269653%, 81.834412%)" offset="0.835938"/><stop stop-opacity="1" stop-color="rgb(70.220947%, 73.765564%, 81.851196%)" offset="0.839844"/><stop stop-opacity="1" stop-color="rgb(70.924377%, 74.261475%, 81.869507%)" offset="0.84375"/><stop stop-opacity="1" stop-color="rgb(71.627808%, 74.757385%, 81.887817%)" offset="0.847656"/><stop stop-opacity="1" stop-color="rgb(72.331238%, 75.254822%, 81.906128%)" offset="0.851562"/><stop stop-opacity="1" stop-color="rgb(73.033142%, 75.750732%, 81.922913%)" offset="0.855469"/><stop stop-opacity="1" stop-color="rgb(73.736572%, 76.248169%, 81.941223%)" offset="0.859375"/><stop stop-opacity="1" stop-color="rgb(74.440002%, 76.74408%, 81.958008%)" offset="0.863281"/><stop stop-opacity="1" stop-color="rgb(75.143433%, 77.241516%, 81.976318%)" offset="0.867187"/><stop stop-opacity="1" stop-color="rgb(75.846863%, 77.737427%, 81.994629%)" offset="0.871094"/><stop stop-opacity="1" stop-color="rgb(76.550293%, 78.233337%, 82.012939%)" offset="0.875"/><stop stop-opacity="1" stop-color="rgb(77.253723%, 78.729248%, 82.029724%)" offset="0.878906"/><stop stop-opacity="1" stop-color="rgb(77.957153%, 79.226685%, 82.048035%)" offset="0.882812"/><stop stop-opacity="1" stop-color="rgb(78.659058%, 79.722595%, 82.066345%)" offset="0.886719"/><stop stop-opacity="1" stop-color="rgb(79.362488%, 80.220032%, 82.084656%)" offset="0.890625"/><stop stop-opacity="1" stop-color="rgb(80.065918%, 80.715942%, 82.10144%)" offset="0.894531"/><stop stop-opacity="1" stop-color="rgb(80.769348%, 81.213379%, 82.119751%)" offset="0.898438"/><stop stop-opacity="1" stop-color="rgb(81.472778%, 81.70929%, 82.136536%)" offset="0.902344"/><stop stop-opacity="1" stop-color="rgb(82.176208%, 82.2052%, 82.154846%)" offset="0.90625"/><stop stop-opacity="1" stop-color="rgb(82.879639%, 82.701111%, 82.173157%)" offset="0.910156"/><stop stop-opacity="1" stop-color="rgb(83.583069%, 83.198547%, 82.191467%)" offset="0.914062"/><stop stop-opacity="1" stop-color="rgb(84.284973%, 83.694458%, 82.208252%)" offset="0.917969"/><stop stop-opacity="1" stop-color="rgb(84.988403%, 84.191895%, 82.226562%)" offset="0.921875"/><stop stop-opacity="1" stop-color="rgb(85.691833%, 84.687805%, 82.243347%)" offset="0.925781"/><stop stop-opacity="1" stop-color="rgb(86.395264%, 85.183716%, 82.261658%)" offset="0.929688"/><stop stop-opacity="1" stop-color="rgb(87.098694%, 85.679626%, 82.279968%)" offset="0.933594"/><stop stop-opacity="1" stop-color="rgb(87.802124%, 86.177063%, 82.298279%)" offset="0.9375"/><stop stop-opacity="1" stop-color="rgb(88.505554%, 86.672974%, 82.315063%)" offset="0.941406"/><stop stop-opacity="1" stop-color="rgb(89.208984%, 87.17041%, 82.333374%)" offset="0.945312"/><stop stop-opacity="1" stop-color="rgb(89.910889%, 87.666321%, 82.350159%)" offset="0.949219"/><stop stop-opacity="1" stop-color="rgb(90.614319%, 88.163757%, 82.368469%)" offset="0.953125"/><stop stop-opacity="1" stop-color="rgb(91.20636%, 88.581848%, 82.383728%)" offset="0.957031"/><stop stop-opacity="1" stop-color="rgb(91.799927%, 88.999939%, 82.398987%)" offset="0.960938"/><stop stop-opacity="1" stop-color="rgb(91.799927%, 88.999939%, 82.398987%)" offset="0.96875"/><stop stop-opacity="1" stop-color="rgb(91.799927%, 88.999939%, 82.398987%)" offset="1"/></linearGradient></defs><g clip-path="url(#f40f2c8bde)"><g clip-path="url(#3380987188)"><path fill="url(#b86fc11f17)" d="M 0.484375 0 L 0.484375 29.03125 L 29.515625 29.03125 L 29.515625 0 Z M 0.484375 0 " fill-rule="nonzero"/></g></g></svg>