<svg xmlns="http://www.w3.org/2000/svg" xmlns:xlink="http://www.w3.org/1999/xlink" width="40" zoomAndPan="magnify" viewBox="0 0 30 30.000001" height="40" preserveAspectRatio="xMidYMid meet" version="1.0"><defs><clipPath id="36f0ac20fd"><path d="M 0.484375 0 L 29.515625 0 L 29.515625 29.03125 L 0.484375 29.03125 Z M 0.484375 0 " clip-rule="nonzero"/></clipPath><clipPath id="6f2f0cad3e"><path d="M 28.921875 11.53125 C 28.738281 11.214844 28.453125 10.992188 28.109375 10.882812 C 28.183594 10.542969 28.140625 10.179688 27.953125 9.855469 L 27.472656 9.019531 C 27.335938 8.789062 27.042969 8.710938 26.8125 8.84375 L 26.394531 9.085938 C 25.382812 9.667969 24.953125 10.875 25.308594 11.941406 L 23.882812 12.765625 C 23.453125 11.597656 22.832031 10.503906 22.054688 9.511719 L 24.578125 6.988281 C 24.972656 7.246094 25.429688 7.386719 25.910156 7.386719 C 26.554688 7.386719 27.164062 7.136719 27.617188 6.679688 L 29.328125 4.972656 C 29.4375 4.863281 29.488281 4.707031 29.460938 4.554688 C 29.4375 4.398438 29.339844 4.269531 29.203125 4.199219 L 26.613281 2.90625 L 25.320312 0.316406 C 25.25 0.175781 25.117188 0.0820312 24.964844 0.0546875 C 24.8125 0.03125 24.65625 0.0820312 24.546875 0.191406 L 22.835938 1.898438 C 22.011719 2.722656 21.910156 4 22.53125 4.9375 L 20.003906 7.464844 C 18.503906 6.285156 16.753906 5.484375 14.898438 5.117188 L 15.789062 4.242188 C 16.191406 4.515625 16.664062 4.65625 17.132812 4.65625 C 17.753906 4.65625 18.371094 4.417969 18.839844 3.949219 L 19.183594 3.605469 C 19.371094 3.417969 19.371094 3.113281 19.183594 2.921875 L 18.5 2.238281 C 18.234375 1.976562 17.894531 1.84375 17.550781 1.824219 C 17.53125 1.464844 17.390625 1.128906 17.132812 0.875 L 16.449219 0.191406 C 16.261719 0 15.953125 0 15.765625 0.191406 L 15.425781 0.53125 C 14.605469 1.351562 14.5 2.621094 15.109375 3.554688 L 13.699219 4.9375 C 13.324219 4.898438 12.941406 4.878906 12.558594 4.878906 C 5.902344 4.878906 0.484375 10.296875 0.484375 16.957031 C 0.484375 23.613281 5.902344 29.03125 12.558594 29.03125 C 16.050781 29.03125 19.199219 27.542969 21.40625 25.167969 L 25.167969 25.167969 C 25.394531 26.269531 26.367188 27.101562 27.535156 27.101562 L 28.019531 27.101562 C 28.285156 27.101562 28.5 26.882812 28.5 26.617188 L 28.5 25.652344 C 28.5 25.277344 28.355469 24.941406 28.125 24.683594 C 28.355469 24.425781 28.5 24.089844 28.5 23.71875 L 28.5 22.753906 C 28.5 22.484375 28.285156 22.269531 28.019531 22.269531 L 27.535156 22.269531 C 26.371094 22.269531 25.394531 23.101562 25.167969 24.203125 L 22.214844 24.203125 C 23.734375 22.183594 24.636719 19.671875 24.636719 16.957031 C 24.636719 15.847656 24.480469 14.757812 24.1875 13.707031 L 25.796875 12.777344 C 26.261719 13.300781 26.925781 13.589844 27.605469 13.589844 C 28.015625 13.589844 28.429688 13.488281 28.808594 13.269531 L 29.226562 13.027344 C 29.457031 12.894531 29.535156 12.597656 29.402344 12.367188 Z M 18.15625 3.265625 C 17.710938 3.710938 17.046875 3.804688 16.507812 3.546875 L 17.132812 2.921875 C 17.320312 2.734375 17.625 2.734375 17.816406 2.921875 Z M 16.109375 1.214844 L 16.449219 1.554688 C 16.539062 1.648438 16.589844 1.769531 16.589844 1.898438 C 16.589844 2.027344 16.539062 2.148438 16.449219 2.238281 L 15.820312 2.855469 C 15.570312 2.316406 15.664062 1.65625 16.109375 1.214844 Z M 27.535156 26.132812 C 26.90625 26.132812 26.367188 25.730469 26.167969 25.167969 L 27.050781 25.167969 C 27.320312 25.167969 27.535156 25.382812 27.535156 25.652344 Z M 27.535156 23.234375 L 27.535156 23.71875 C 27.535156 23.984375 27.320312 24.203125 27.050781 24.203125 L 26.167969 24.203125 C 26.367188 23.640625 26.90625 23.234375 27.535156 23.234375 Z M 23.03125 13.257812 L 21.324219 14.242188 C 21.03125 13.296875 20.582031 12.402344 19.984375 11.582031 L 21.363281 10.199219 C 22.078125 11.132812 22.644531 12.160156 23.03125 13.257812 Z M 20.070312 15.523438 C 20.160156 15.679688 20.320312 15.765625 20.488281 15.765625 C 20.550781 15.765625 20.613281 15.75 20.675781 15.722656 C 20.738281 16.128906 20.773438 16.539062 20.773438 16.957031 C 20.773438 21.484375 17.089844 25.167969 12.558594 25.167969 C 8.03125 25.167969 4.347656 21.484375 4.347656 16.957031 C 4.347656 13.71875 6.238281 10.917969 8.964844 9.582031 L 7.523438 11 C 7.332031 11.1875 7.328125 11.492188 7.515625 11.683594 C 7.609375 11.777344 7.734375 11.828125 7.859375 11.828125 C 7.984375 11.828125 8.105469 11.78125 8.199219 11.6875 L 11.054688 8.886719 C 11.542969 8.796875 12.046875 8.742188 12.558594 8.742188 C 14.257812 8.742188 15.863281 9.253906 17.246094 10.222656 L 15.851562 11.613281 C 14.859375 11 13.730469 10.675781 12.558594 10.675781 C 9.097656 10.675781 6.28125 13.492188 6.28125 16.957031 C 6.28125 20.417969 9.097656 23.234375 12.558594 23.234375 C 16.023438 23.234375 18.839844 20.417969 18.839844 16.957031 C 18.839844 15.785156 18.515625 14.65625 17.902344 13.664062 L 19.292969 12.269531 C 19.828125 13.03125 20.21875 13.863281 20.464844 14.738281 L 20.246094 14.863281 C 20.015625 14.996094 19.9375 15.292969 20.070312 15.523438 Z M 23.179688 5.65625 L 23.859375 6.335938 L 13.234375 16.964844 C 13.046875 17.152344 12.738281 17.152344 12.550781 16.964844 C 12.457031 16.875 12.410156 16.753906 12.410156 16.625 C 12.410156 16.496094 12.460938 16.371094 12.550781 16.28125 Z M 17.875 16.957031 C 17.875 19.886719 15.492188 22.269531 12.558594 22.269531 C 9.628906 22.269531 7.246094 19.886719 7.246094 16.957031 C 7.246094 14.027344 9.628906 11.640625 12.558594 11.640625 C 13.472656 11.640625 14.355469 11.878906 15.144531 12.320312 L 13.691406 13.773438 C 13.328125 13.640625 12.949219 13.574219 12.558594 13.574219 C 10.695312 13.574219 9.179688 15.089844 9.179688 16.957031 C 9.179688 18.820312 10.695312 20.335938 12.558594 20.335938 C 14.425781 20.335938 15.941406 18.820312 15.941406 16.957031 C 15.941406 16.566406 15.875 16.1875 15.742188 15.824219 L 17.195312 14.371094 C 17.636719 15.160156 17.875 16.042969 17.875 16.957031 Z M 11.867188 17.648438 C 12.148438 17.929688 12.519531 18.074219 12.890625 18.074219 C 13.261719 18.074219 13.632812 17.929688 13.917969 17.648438 L 14.949219 16.617188 C 14.964844 16.730469 14.976562 16.839844 14.976562 16.957031 C 14.976562 18.289062 13.890625 19.371094 12.558594 19.371094 C 11.230469 19.371094 10.144531 18.289062 10.144531 16.957031 C 10.144531 15.625 11.230469 14.539062 12.558594 14.539062 C 12.675781 14.539062 12.789062 14.550781 12.898438 14.566406 L 11.867188 15.597656 C 11.59375 15.871094 11.441406 16.238281 11.441406 16.625 C 11.441406 17.011719 11.59375 17.375 11.867188 17.648438 Z M 23.519531 2.582031 L 24.753906 1.347656 L 25.820312 3.480469 C 25.867188 3.574219 25.941406 3.648438 26.035156 3.695312 L 28.167969 4.761719 L 26.9375 5.996094 C 26.386719 6.542969 25.433594 6.542969 24.886719 5.996094 L 23.519531 4.628906 C 22.953125 4.066406 22.953125 3.144531 23.519531 2.582031 Z M 19.316406 8.152344 L 17.9375 9.53125 C 16.363281 8.386719 14.515625 7.777344 12.558594 7.777344 C 12.425781 7.777344 12.296875 7.792969 12.164062 7.796875 L 14.042969 5.957031 C 15.957031 6.214844 17.773438 6.96875 19.316406 8.152344 Z M 23.671875 16.957031 C 23.671875 19.722656 22.652344 22.253906 20.972656 24.203125 L 19.324219 24.203125 C 19.058594 24.203125 18.839844 24.417969 18.839844 24.683594 C 18.839844 24.953125 19.058594 25.167969 19.324219 25.167969 L 20.035156 25.167969 C 18.0625 26.96875 15.4375 28.066406 12.558594 28.066406 C 6.433594 28.066406 1.449219 23.082031 1.449219 16.957031 C 1.449219 10.828125 6.433594 5.84375 12.558594 5.84375 C 12.628906 5.84375 12.695312 5.851562 12.765625 5.855469 L 10.582031 8 C 6.46875 8.90625 3.382812 12.574219 3.382812 16.957031 C 3.382812 22.015625 7.5 26.132812 12.558594 26.132812 C 17.621094 26.132812 21.738281 22.015625 21.738281 16.957031 C 21.738281 16.363281 21.679688 15.785156 21.570312 15.214844 L 23.320312 14.207031 C 23.546875 15.097656 23.671875 16.023438 23.671875 16.957031 Z M 26.875 9.921875 L 27.117188 10.339844 C 27.25 10.570312 27.171875 10.867188 26.941406 11 L 26.175781 11.441406 C 26.066406 10.855469 26.332031 10.234375 26.875 9.921875 Z M 26.660156 12.277344 L 27.425781 11.835938 C 27.535156 11.769531 27.667969 11.757812 27.789062 11.789062 C 27.914062 11.820312 28.019531 11.902344 28.082031 12.011719 L 28.324219 12.429688 C 27.777344 12.746094 27.113281 12.664062 26.660156 12.277344 Z M 26.660156 12.277344 " clip-rule="nonzero"/></clipPath></defs><g clip-path="url(#36f0ac20fd)"><g clip-path="url(#6f2f0cad3e)"><path fill="#2155cd" d="M 0.484375 0 L 0.484375 29.03125 L 29.515625 29.03125 L 29.515625 0 Z M 0.484375 0 " fill-opacity="1" fill-rule="nonzero"/></g></g></svg>