<svg xmlns="http://www.w3.org/2000/svg" xmlns:xlink="http://www.w3.org/1999/xlink" width="40" zoomAndPan="magnify" viewBox="0 0 30 30.000001" height="40" preserveAspectRatio="xMidYMid meet" version="1.0"><defs><clipPath id="6453ec6067"><path d="M 0.484375 0 L 29.515625 0 L 29.515625 29.03125 L 0.484375 29.03125 Z M 0.484375 0 " clip-rule="nonzero"/></clipPath><clipPath id="4f572353a6"><path d="M 28.921875 11.53125 C 28.738281 11.214844 28.453125 10.992188 28.109375 10.882812 C 28.183594 10.542969 28.140625 10.179688 27.953125 9.855469 L 27.472656 9.019531 C 27.335938 8.789062 27.042969 8.710938 26.8125 8.84375 L 26.394531 9.085938 C 25.382812 9.667969 24.953125 10.875 25.308594 11.941406 L 23.882812 12.765625 C 23.453125 11.597656 22.832031 10.503906 22.054688 9.511719 L 24.578125 6.988281 C 24.972656 7.246094 25.429688 7.386719 25.910156 7.386719 C 26.554688 7.386719 27.164062 7.136719 27.617188 6.679688 L 29.328125 4.972656 C 29.4375 4.863281 29.488281 4.707031 29.460938 4.554688 C 29.4375 4.398438 29.339844 4.269531 29.203125 4.199219 L 26.613281 2.90625 L 25.320312 0.316406 C 25.25 0.175781 25.117188 0.0820312 24.964844 0.0546875 C 24.8125 0.03125 24.65625 0.0820312 24.546875 0.191406 L 22.835938 1.898438 C 22.011719 2.722656 21.910156 4 22.53125 4.9375 L 20.003906 7.464844 C 18.503906 6.285156 16.753906 5.484375 14.898438 5.117188 L 15.789062 4.242188 C 16.191406 4.515625 16.664062 4.65625 17.132812 4.65625 C 17.753906 4.65625 18.371094 4.417969 18.839844 3.949219 L 19.183594 3.605469 C 19.371094 3.417969 19.371094 3.113281 19.183594 2.921875 L 18.5 2.238281 C 18.234375 1.976562 17.894531 1.84375 17.550781 1.824219 C 17.53125 1.464844 17.390625 1.128906 17.132812 0.875 L 16.449219 0.191406 C 16.261719 0 15.953125 0 15.765625 0.191406 L 15.425781 0.53125 C 14.605469 1.351562 14.5 2.621094 15.109375 3.554688 L 13.699219 4.9375 C 13.324219 4.898438 12.941406 4.878906 12.558594 4.878906 C 5.902344 4.878906 0.484375 10.296875 0.484375 16.957031 C 0.484375 23.613281 5.902344 29.03125 12.558594 29.03125 C 16.050781 29.03125 19.199219 27.542969 21.40625 25.167969 L 25.167969 25.167969 C 25.394531 26.269531 26.367188 27.101562 27.535156 27.101562 L 28.019531 27.101562 C 28.285156 27.101562 28.5 26.882812 28.5 26.617188 L 28.5 25.652344 C 28.5 25.277344 28.355469 24.941406 28.125 24.683594 C 28.355469 24.425781 28.5 24.089844 28.5 23.71875 L 28.5 22.753906 C 28.5 22.484375 28.285156 22.269531 28.019531 22.269531 L 27.535156 22.269531 C 26.371094 22.269531 25.394531 23.101562 25.167969 24.203125 L 22.214844 24.203125 C 23.734375 22.183594 24.636719 19.671875 24.636719 16.957031 C 24.636719 15.847656 24.480469 14.757812 24.1875 13.707031 L 25.796875 12.777344 C 26.261719 13.300781 26.925781 13.589844 27.605469 13.589844 C 28.015625 13.589844 28.429688 13.488281 28.808594 13.269531 L 29.226562 13.027344 C 29.457031 12.894531 29.535156 12.597656 29.402344 12.367188 Z M 18.15625 3.265625 C 17.710938 3.710938 17.046875 3.804688 16.507812 3.546875 L 17.132812 2.921875 C 17.320312 2.734375 17.625 2.734375 17.816406 2.921875 Z M 16.109375 1.214844 L 16.449219 1.554688 C 16.539062 1.648438 16.589844 1.769531 16.589844 1.898438 C 16.589844 2.027344 16.539062 2.148438 16.449219 2.238281 L 15.820312 2.855469 C 15.570312 2.316406 15.664062 1.65625 16.109375 1.214844 Z M 27.535156 26.132812 C 26.90625 26.132812 26.367188 25.730469 26.167969 25.167969 L 27.050781 25.167969 C 27.320312 25.167969 27.535156 25.382812 27.535156 25.652344 Z M 27.535156 23.234375 L 27.535156 23.71875 C 27.535156 23.984375 27.320312 24.203125 27.050781 24.203125 L 26.167969 24.203125 C 26.367188 23.640625 26.90625 23.234375 27.535156 23.234375 Z M 23.03125 13.257812 L 21.324219 14.242188 C 21.03125 13.296875 20.582031 12.402344 19.984375 11.582031 L 21.363281 10.199219 C 22.078125 11.132812 22.644531 12.160156 23.03125 13.257812 Z M 20.070312 15.523438 C 20.160156 15.679688 20.320312 15.765625 20.488281 15.765625 C 20.550781 15.765625 20.613281 15.75 20.675781 15.722656 C 20.738281 16.128906 20.773438 16.539062 20.773438 16.957031 C 20.773438 21.484375 17.089844 25.167969 12.558594 25.167969 C 8.03125 25.167969 4.347656 21.484375 4.347656 16.957031 C 4.347656 13.71875 6.238281 10.917969 8.964844 9.582031 L 7.523438 11 C 7.332031 11.1875 7.328125 11.492188 7.515625 11.683594 C 7.609375 11.777344 7.734375 11.828125 7.859375 11.828125 C 7.984375 11.828125 8.105469 11.78125 8.199219 11.6875 L 11.054688 8.886719 C 11.542969 8.796875 12.046875 8.742188 12.558594 8.742188 C 14.257812 8.742188 15.863281 9.253906 17.246094 10.222656 L 15.851562 11.613281 C 14.859375 11 13.730469 10.675781 12.558594 10.675781 C 9.097656 10.675781 6.28125 13.492188 6.28125 16.957031 C 6.28125 20.417969 9.097656 23.234375 12.558594 23.234375 C 16.023438 23.234375 18.839844 20.417969 18.839844 16.957031 C 18.839844 15.785156 18.515625 14.65625 17.902344 13.664062 L 19.292969 12.269531 C 19.828125 13.03125 20.21875 13.863281 20.464844 14.738281 L 20.246094 14.863281 C 20.015625 14.996094 19.9375 15.292969 20.070312 15.523438 Z M 23.179688 5.65625 L 23.859375 6.335938 L 13.234375 16.964844 C 13.046875 17.152344 12.738281 17.152344 12.550781 16.964844 C 12.457031 16.875 12.410156 16.753906 12.410156 16.625 C 12.410156 16.496094 12.460938 16.371094 12.550781 16.28125 Z M 17.875 16.957031 C 17.875 19.886719 15.492188 22.269531 12.558594 22.269531 C 9.628906 22.269531 7.246094 19.886719 7.246094 16.957031 C 7.246094 14.027344 9.628906 11.640625 12.558594 11.640625 C 13.472656 11.640625 14.355469 11.878906 15.144531 12.320312 L 13.691406 13.773438 C 13.328125 13.640625 12.949219 13.574219 12.558594 13.574219 C 10.695312 13.574219 9.179688 15.089844 9.179688 16.957031 C 9.179688 18.820312 10.695312 20.335938 12.558594 20.335938 C 14.425781 20.335938 15.941406 18.820312 15.941406 16.957031 C 15.941406 16.566406 15.875 16.1875 15.742188 15.824219 L 17.195312 14.371094 C 17.636719 15.160156 17.875 16.042969 17.875 16.957031 Z M 11.867188 17.648438 C 12.148438 17.929688 12.519531 18.074219 12.890625 18.074219 C 13.261719 18.074219 13.632812 17.929688 13.917969 17.648438 L 14.949219 16.617188 C 14.964844 16.730469 14.976562 16.839844 14.976562 16.957031 C 14.976562 18.289062 13.890625 19.371094 12.558594 19.371094 C 11.230469 19.371094 10.144531 18.289062 10.144531 16.957031 C 10.144531 15.625 11.230469 14.539062 12.558594 14.539062 C 12.675781 14.539062 12.789062 14.550781 12.898438 14.566406 L 11.867188 15.597656 C 11.59375 15.871094 11.441406 16.238281 11.441406 16.625 C 11.441406 17.011719 11.59375 17.375 11.867188 17.648438 Z M 23.519531 2.582031 L 24.753906 1.347656 L 25.820312 3.480469 C 25.867188 3.574219 25.941406 3.648438 26.035156 3.695312 L 28.167969 4.761719 L 26.9375 5.996094 C 26.386719 6.542969 25.433594 6.542969 24.886719 5.996094 L 23.519531 4.628906 C 22.953125 4.066406 22.953125 3.144531 23.519531 2.582031 Z M 19.316406 8.152344 L 17.9375 9.53125 C 16.363281 8.386719 14.515625 7.777344 12.558594 7.777344 C 12.425781 7.777344 12.296875 7.792969 12.164062 7.796875 L 14.042969 5.957031 C 15.957031 6.214844 17.773438 6.96875 19.316406 8.152344 Z M 23.671875 16.957031 C 23.671875 19.722656 22.652344 22.253906 20.972656 24.203125 L 19.324219 24.203125 C 19.058594 24.203125 18.839844 24.417969 18.839844 24.683594 C 18.839844 24.953125 19.058594 25.167969 19.324219 25.167969 L 20.035156 25.167969 C 18.0625 26.96875 15.4375 28.066406 12.558594 28.066406 C 6.433594 28.066406 1.449219 23.082031 1.449219 16.957031 C 1.449219 10.828125 6.433594 5.84375 12.558594 5.84375 C 12.628906 5.84375 12.695312 5.851562 12.765625 5.855469 L 10.582031 8 C 6.46875 8.90625 3.382812 12.574219 3.382812 16.957031 C 3.382812 22.015625 7.5 26.132812 12.558594 26.132812 C 17.621094 26.132812 21.738281 22.015625 21.738281 16.957031 C 21.738281 16.363281 21.679688 15.785156 21.570312 15.214844 L 23.320312 14.207031 C 23.546875 15.097656 23.671875 16.023438 23.671875 16.957031 Z M 26.875 9.921875 L 27.117188 10.339844 C 27.25 10.570312 27.171875 10.867188 26.941406 11 L 26.175781 11.441406 C 26.066406 10.855469 26.332031 10.234375 26.875 9.921875 Z M 26.660156 12.277344 L 27.425781 11.835938 C 27.535156 11.769531 27.667969 11.757812 27.789062 11.789062 C 27.914062 11.820312 28.019531 11.902344 28.082031 12.011719 L 28.324219 12.429688 C 27.777344 12.746094 27.113281 12.664062 26.660156 12.277344 Z M 26.660156 12.277344 " clip-rule="nonzero"/></clipPath><linearGradient x1="4.773938" gradientTransform="matrix(0.483066, 0, 0, 0.483066, -0.482261, -0.917822)" y1="-0.652054" x2="62.294626" gradientUnits="userSpaceOnUse" y2="61.820783" id="bcb5729dc9"><stop stop-opacity="1" stop-color="rgb(12.89978%, 33.299255%, 80.39856%)" offset="0"/><stop stop-opacity="1" stop-color="rgb(12.89978%, 33.299255%, 80.39856%)" offset="0.125"/><stop stop-opacity="1" stop-color="rgb(12.89978%, 33.299255%, 80.39856%)" offset="0.15625"/><stop stop-opacity="1" stop-color="rgb(12.89978%, 33.299255%, 80.39856%)" offset="0.171875"/><stop stop-opacity="1" stop-color="rgb(13.142395%, 33.470154%, 80.404663%)" offset="0.175781"/><stop stop-opacity="1" stop-color="rgb(13.38501%, 33.642578%, 80.412292%)" offset="0.179687"/><stop stop-opacity="1" stop-color="rgb(13.813782%, 33.944702%, 80.422974%)" offset="0.183594"/><stop stop-opacity="1" stop-color="rgb(14.24408%, 34.248352%, 80.433655%)" offset="0.1875"/><stop stop-opacity="1" stop-color="rgb(14.674377%, 34.552002%, 80.444336%)" offset="0.191406"/><stop stop-opacity="1" stop-color="rgb(15.104675%, 34.855652%, 80.455017%)" offset="0.195312"/><stop stop-opacity="1" stop-color="rgb(15.533447%, 35.159302%, 80.465698%)" offset="0.199219"/><stop stop-opacity="1" stop-color="rgb(15.963745%, 35.462952%, 80.476379%)" offset="0.203125"/><stop stop-opacity="1" stop-color="rgb(16.392517%, 35.765076%, 80.487061%)" offset="0.207031"/><stop stop-opacity="1" stop-color="rgb(16.822815%, 36.068726%, 80.499268%)" offset="0.210938"/><stop stop-opacity="1" stop-color="rgb(17.253113%, 36.372375%, 80.509949%)" offset="0.214844"/><stop stop-opacity="1" stop-color="rgb(17.683411%, 36.676025%, 80.52063%)" offset="0.21875"/><stop stop-opacity="1" stop-color="rgb(18.112183%, 36.979675%, 80.531311%)" offset="0.222656"/><stop stop-opacity="1" stop-color="rgb(18.54248%, 37.283325%, 80.541992%)" offset="0.226562"/><stop stop-opacity="1" stop-color="rgb(18.972778%, 37.586975%, 80.552673%)" offset="0.230469"/><stop stop-opacity="1" stop-color="rgb(19.403076%, 37.890625%, 80.563354%)" offset="0.234375"/><stop stop-opacity="1" stop-color="rgb(19.831848%, 38.192749%, 80.574036%)" offset="0.238281"/><stop stop-opacity="1" stop-color="rgb(20.262146%, 38.496399%, 80.586243%)" offset="0.242188"/><stop stop-opacity="1" stop-color="rgb(20.690918%, 38.800049%, 80.596924%)" offset="0.246094"/><stop stop-opacity="1" stop-color="rgb(21.121216%, 39.103699%, 80.607605%)" offset="0.25"/><stop stop-opacity="1" stop-color="rgb(21.551514%, 39.407349%, 80.618286%)" offset="0.253906"/><stop stop-opacity="1" stop-color="rgb(21.981812%, 39.710999%, 80.628967%)" offset="0.257812"/><stop stop-opacity="1" stop-color="rgb(22.410583%, 40.014648%, 80.639648%)" offset="0.261719"/><stop stop-opacity="1" stop-color="rgb(22.840881%, 40.318298%, 80.651855%)" offset="0.265625"/><stop stop-opacity="1" stop-color="rgb(23.271179%, 40.620422%, 80.662537%)" offset="0.269531"/><stop stop-opacity="1" stop-color="rgb(23.701477%, 40.924072%, 80.673218%)" offset="0.273438"/><stop stop-opacity="1" stop-color="rgb(24.130249%, 41.227722%, 80.683899%)" offset="0.277344"/><stop stop-opacity="1" stop-color="rgb(24.560547%, 41.531372%, 80.69458%)" offset="0.28125"/><stop stop-opacity="1" stop-color="rgb(24.989319%, 41.835022%, 80.705261%)" offset="0.285156"/><stop stop-opacity="1" stop-color="rgb(25.419617%, 42.138672%, 80.715942%)" offset="0.289062"/><stop stop-opacity="1" stop-color="rgb(25.849915%, 42.442322%, 80.726624%)" offset="0.292969"/><stop stop-opacity="1" stop-color="rgb(26.280212%, 42.745972%, 80.738831%)" offset="0.296875"/><stop stop-opacity="1" stop-color="rgb(26.708984%, 43.048096%, 80.749512%)" offset="0.300781"/><stop stop-opacity="1" stop-color="rgb(27.139282%, 43.351746%, 80.760193%)" offset="0.304688"/><stop stop-opacity="1" stop-color="rgb(27.56958%, 43.655396%, 80.770874%)" offset="0.308594"/><stop stop-opacity="1" stop-color="rgb(27.999878%, 43.959045%, 80.781555%)" offset="0.3125"/><stop stop-opacity="1" stop-color="rgb(28.42865%, 44.262695%, 80.792236%)" offset="0.316406"/><stop stop-opacity="1" stop-color="rgb(28.858948%, 44.566345%, 80.804443%)" offset="0.320312"/><stop stop-opacity="1" stop-color="rgb(29.28772%, 44.869995%, 80.815125%)" offset="0.324219"/><stop stop-opacity="1" stop-color="rgb(29.718018%, 45.173645%, 80.825806%)" offset="0.328125"/><stop stop-opacity="1" stop-color="rgb(30.148315%, 45.475769%, 80.836487%)" offset="0.332031"/><stop stop-opacity="1" stop-color="rgb(30.578613%, 45.779419%, 80.847168%)" offset="0.335938"/><stop stop-opacity="1" stop-color="rgb(31.007385%, 46.083069%, 80.857849%)" offset="0.339844"/><stop stop-opacity="1" stop-color="rgb(31.437683%, 46.386719%, 80.86853%)" offset="0.34375"/><stop stop-opacity="1" stop-color="rgb(31.867981%, 46.690369%, 80.879211%)" offset="0.347656"/><stop stop-opacity="1" stop-color="rgb(32.298279%, 46.994019%, 80.891418%)" offset="0.351562"/><stop stop-opacity="1" stop-color="rgb(32.727051%, 47.297668%, 80.9021%)" offset="0.355469"/><stop stop-opacity="1" stop-color="rgb(33.157349%, 47.601318%, 80.912781%)" offset="0.359375"/><stop stop-opacity="1" stop-color="rgb(33.587646%, 47.903442%, 80.923462%)" offset="0.363281"/><stop stop-opacity="1" stop-color="rgb(34.017944%, 48.207092%, 80.934143%)" offset="0.367187"/><stop stop-opacity="1" stop-color="rgb(34.446716%, 48.510742%, 80.944824%)" offset="0.371094"/><stop stop-opacity="1" stop-color="rgb(34.877014%, 48.814392%, 80.957031%)" offset="0.375"/><stop stop-opacity="1" stop-color="rgb(35.305786%, 49.118042%, 80.967712%)" offset="0.378906"/><stop stop-opacity="1" stop-color="rgb(35.736084%, 49.421692%, 80.978394%)" offset="0.382812"/><stop stop-opacity="1" stop-color="rgb(36.166382%, 49.725342%, 80.989075%)" offset="0.386719"/><stop stop-opacity="1" stop-color="rgb(36.59668%, 50.028992%, 80.999756%)" offset="0.390625"/><stop stop-opacity="1" stop-color="rgb(37.025452%, 50.331116%, 81.010437%)" offset="0.394531"/><stop stop-opacity="1" stop-color="rgb(37.45575%, 50.634766%, 81.021118%)" offset="0.398437"/><stop stop-opacity="1" stop-color="rgb(37.886047%, 50.938416%, 81.031799%)" offset="0.402344"/><stop stop-opacity="1" stop-color="rgb(38.316345%, 51.242065%, 81.044006%)" offset="0.40625"/><stop stop-opacity="1" stop-color="rgb(38.745117%, 51.545715%, 81.054688%)" offset="0.410156"/><stop stop-opacity="1" stop-color="rgb(39.175415%, 51.849365%, 81.065369%)" offset="0.414062"/><stop stop-opacity="1" stop-color="rgb(39.604187%, 52.153015%, 81.07605%)" offset="0.417969"/><stop stop-opacity="1" stop-color="rgb(40.034485%, 52.456665%, 81.086731%)" offset="0.421875"/><stop stop-opacity="1" stop-color="rgb(40.464783%, 52.758789%, 81.097412%)" offset="0.425781"/><stop stop-opacity="1" stop-color="rgb(40.895081%, 53.062439%, 81.109619%)" offset="0.429688"/><stop stop-opacity="1" stop-color="rgb(41.323853%, 53.366089%, 81.1203%)" offset="0.433594"/><stop stop-opacity="1" stop-color="rgb(41.75415%, 53.669739%, 81.130981%)" offset="0.4375"/><stop stop-opacity="1" stop-color="rgb(42.184448%, 53.973389%, 81.141663%)" offset="0.441406"/><stop stop-opacity="1" stop-color="rgb(42.614746%, 54.277039%, 81.152344%)" offset="0.445312"/><stop stop-opacity="1" stop-color="rgb(43.043518%, 54.580688%, 81.163025%)" offset="0.449219"/><stop stop-opacity="1" stop-color="rgb(43.473816%, 54.884338%, 81.173706%)" offset="0.453125"/><stop stop-opacity="1" stop-color="rgb(43.902588%, 55.186462%, 81.184387%)" offset="0.457031"/><stop stop-opacity="1" stop-color="rgb(44.332886%, 55.490112%, 81.196594%)" offset="0.460937"/><stop stop-opacity="1" stop-color="rgb(44.763184%, 55.793762%, 81.207275%)" offset="0.464844"/><stop stop-opacity="1" stop-color="rgb(45.193481%, 56.097412%, 81.217957%)" offset="0.46875"/><stop stop-opacity="1" stop-color="rgb(45.622253%, 56.401062%, 81.228638%)" offset="0.472656"/><stop stop-opacity="1" stop-color="rgb(46.052551%, 56.704712%, 81.239319%)" offset="0.476562"/><stop stop-opacity="1" stop-color="rgb(46.482849%, 57.006836%, 81.25%)" offset="0.480469"/><stop stop-opacity="1" stop-color="rgb(46.913147%, 57.310486%, 81.260681%)" offset="0.484375"/><stop stop-opacity="1" stop-color="rgb(47.341919%, 57.614136%, 81.271362%)" offset="0.488281"/><stop stop-opacity="1" stop-color="rgb(47.772217%, 57.917786%, 81.283569%)" offset="0.492187"/><stop stop-opacity="1" stop-color="rgb(48.200989%, 58.221436%, 81.29425%)" offset="0.496094"/><stop stop-opacity="1" stop-color="rgb(48.631287%, 58.525085%, 81.304932%)" offset="0.5"/><stop stop-opacity="1" stop-color="rgb(49.061584%, 58.828735%, 81.315613%)" offset="0.503906"/><stop stop-opacity="1" stop-color="rgb(49.491882%, 59.132385%, 81.326294%)" offset="0.507812"/><stop stop-opacity="1" stop-color="rgb(49.920654%, 59.434509%, 81.336975%)" offset="0.511719"/><stop stop-opacity="1" stop-color="rgb(50.350952%, 59.738159%, 81.349182%)" offset="0.515625"/><stop stop-opacity="1" stop-color="rgb(50.78125%, 60.041809%, 81.359863%)" offset="0.519531"/><stop stop-opacity="1" stop-color="rgb(51.211548%, 60.345459%, 81.370544%)" offset="0.523438"/><stop stop-opacity="1" stop-color="rgb(51.64032%, 60.649109%, 81.381226%)" offset="0.527344"/><stop stop-opacity="1" stop-color="rgb(52.070618%, 60.952759%, 81.391907%)" offset="0.53125"/><stop stop-opacity="1" stop-color="rgb(52.500916%, 61.256409%, 81.402588%)" offset="0.535156"/><stop stop-opacity="1" stop-color="rgb(52.931213%, 61.560059%, 81.413269%)" offset="0.539062"/><stop stop-opacity="1" stop-color="rgb(53.359985%, 61.862183%, 81.42395%)" offset="0.542969"/><stop stop-opacity="1" stop-color="rgb(53.790283%, 62.165833%, 81.436157%)" offset="0.546875"/><stop stop-opacity="1" stop-color="rgb(54.219055%, 62.469482%, 81.446838%)" offset="0.550781"/><stop stop-opacity="1" stop-color="rgb(54.649353%, 62.773132%, 81.45752%)" offset="0.554688"/><stop stop-opacity="1" stop-color="rgb(55.079651%, 63.076782%, 81.468201%)" offset="0.558594"/><stop stop-opacity="1" stop-color="rgb(55.509949%, 63.380432%, 81.478882%)" offset="0.5625"/><stop stop-opacity="1" stop-color="rgb(55.938721%, 63.684082%, 81.489563%)" offset="0.566406"/><stop stop-opacity="1" stop-color="rgb(56.369019%, 63.987732%, 81.50177%)" offset="0.570313"/><stop stop-opacity="1" stop-color="rgb(56.799316%, 64.289856%, 81.512451%)" offset="0.574219"/><stop stop-opacity="1" stop-color="rgb(57.229614%, 64.593506%, 81.523132%)" offset="0.578125"/><stop stop-opacity="1" stop-color="rgb(57.658386%, 64.897156%, 81.533813%)" offset="0.582031"/><stop stop-opacity="1" stop-color="rgb(58.088684%, 65.200806%, 81.544495%)" offset="0.585937"/><stop stop-opacity="1" stop-color="rgb(58.517456%, 65.504456%, 81.555176%)" offset="0.589844"/><stop stop-opacity="1" stop-color="rgb(58.947754%, 65.808105%, 81.565857%)" offset="0.59375"/><stop stop-opacity="1" stop-color="rgb(59.378052%, 66.111755%, 81.576538%)" offset="0.597656"/><stop stop-opacity="1" stop-color="rgb(59.80835%, 66.415405%, 81.588745%)" offset="0.601562"/><stop stop-opacity="1" stop-color="rgb(60.237122%, 66.717529%, 81.599426%)" offset="0.605469"/><stop stop-opacity="1" stop-color="rgb(60.667419%, 67.021179%, 81.610107%)" offset="0.609375"/><stop stop-opacity="1" stop-color="rgb(61.097717%, 67.324829%, 81.620789%)" offset="0.613281"/><stop stop-opacity="1" stop-color="rgb(61.528015%, 67.628479%, 81.63147%)" offset="0.617188"/><stop stop-opacity="1" stop-color="rgb(61.956787%, 67.932129%, 81.642151%)" offset="0.621094"/><stop stop-opacity="1" stop-color="rgb(62.387085%, 68.235779%, 81.654358%)" offset="0.625"/><stop stop-opacity="1" stop-color="rgb(62.815857%, 68.539429%, 81.665039%)" offset="0.628906"/><stop stop-opacity="1" stop-color="rgb(63.246155%, 68.843079%, 81.67572%)" offset="0.632812"/><stop stop-opacity="1" stop-color="rgb(63.676453%, 69.145203%, 81.686401%)" offset="0.636719"/><stop stop-opacity="1" stop-color="rgb(64.10675%, 69.448853%, 81.697083%)" offset="0.640625"/><stop stop-opacity="1" stop-color="rgb(64.535522%, 69.752502%, 81.707764%)" offset="0.644531"/><stop stop-opacity="1" stop-color="rgb(64.96582%, 70.056152%, 81.718445%)" offset="0.648438"/><stop stop-opacity="1" stop-color="rgb(65.396118%, 70.359802%, 81.729126%)" offset="0.652344"/><stop stop-opacity="1" stop-color="rgb(65.826416%, 70.663452%, 81.741333%)" offset="0.65625"/><stop stop-opacity="1" stop-color="rgb(66.255188%, 70.967102%, 81.752014%)" offset="0.660156"/><stop stop-opacity="1" stop-color="rgb(66.685486%, 71.270752%, 81.762695%)" offset="0.664062"/><stop stop-opacity="1" stop-color="rgb(67.114258%, 71.572876%, 81.773376%)" offset="0.667969"/><stop stop-opacity="1" stop-color="rgb(67.544556%, 71.876526%, 81.784058%)" offset="0.671875"/><stop stop-opacity="1" stop-color="rgb(67.974854%, 72.180176%, 81.794739%)" offset="0.675781"/><stop stop-opacity="1" stop-color="rgb(68.405151%, 72.483826%, 81.806946%)" offset="0.679687"/><stop stop-opacity="1" stop-color="rgb(68.833923%, 72.787476%, 81.817627%)" offset="0.683594"/><stop stop-opacity="1" stop-color="rgb(69.264221%, 73.091125%, 81.828308%)" offset="0.6875"/><stop stop-opacity="1" stop-color="rgb(69.694519%, 73.394775%, 81.838989%)" offset="0.691406"/><stop stop-opacity="1" stop-color="rgb(70.124817%, 73.698425%, 81.84967%)" offset="0.695312"/><stop stop-opacity="1" stop-color="rgb(70.553589%, 74.000549%, 81.860352%)" offset="0.699219"/><stop stop-opacity="1" stop-color="rgb(70.983887%, 74.304199%, 81.871033%)" offset="0.703125"/><stop stop-opacity="1" stop-color="rgb(71.412659%, 74.607849%, 81.881714%)" offset="0.707031"/><stop stop-opacity="1" stop-color="rgb(71.842957%, 74.911499%, 81.893921%)" offset="0.710938"/><stop stop-opacity="1" stop-color="rgb(72.273254%, 75.215149%, 81.904602%)" offset="0.714844"/><stop stop-opacity="1" stop-color="rgb(72.703552%, 75.518799%, 81.915283%)" offset="0.71875"/><stop stop-opacity="1" stop-color="rgb(73.132324%, 75.820923%, 81.925964%)" offset="0.722656"/><stop stop-opacity="1" stop-color="rgb(73.562622%, 76.124573%, 81.936646%)" offset="0.726562"/><stop stop-opacity="1" stop-color="rgb(73.99292%, 76.428223%, 81.947327%)" offset="0.730469"/><stop stop-opacity="1" stop-color="rgb(74.423218%, 76.731873%, 81.958008%)" offset="0.734375"/><stop stop-opacity="1" stop-color="rgb(74.85199%, 77.035522%, 81.968689%)" offset="0.738281"/><stop stop-opacity="1" stop-color="rgb(75.282288%, 77.339172%, 81.980896%)" offset="0.742187"/><stop stop-opacity="1" stop-color="rgb(75.712585%, 77.642822%, 81.991577%)" offset="0.746094"/><stop stop-opacity="1" stop-color="rgb(76.142883%, 77.946472%, 82.002258%)" offset="0.75"/><stop stop-opacity="1" stop-color="rgb(76.571655%, 78.248596%, 82.012939%)" offset="0.753906"/><stop stop-opacity="1" stop-color="rgb(77.001953%, 78.552246%, 82.023621%)" offset="0.757812"/><stop stop-opacity="1" stop-color="rgb(77.430725%, 78.855896%, 82.034302%)" offset="0.761719"/><stop stop-opacity="1" stop-color="rgb(77.861023%, 79.159546%, 82.046509%)" offset="0.765625"/><stop stop-opacity="1" stop-color="rgb(78.291321%, 79.463196%, 82.05719%)" offset="0.769531"/><stop stop-opacity="1" stop-color="rgb(78.721619%, 79.766846%, 82.067871%)" offset="0.773438"/><stop stop-opacity="1" stop-color="rgb(79.150391%, 80.070496%, 82.078552%)" offset="0.777344"/><stop stop-opacity="1" stop-color="rgb(79.580688%, 80.374146%, 82.089233%)" offset="0.78125"/><stop stop-opacity="1" stop-color="rgb(80.010986%, 80.67627%, 82.099915%)" offset="0.785156"/><stop stop-opacity="1" stop-color="rgb(80.441284%, 80.979919%, 82.110596%)" offset="0.789062"/><stop stop-opacity="1" stop-color="rgb(80.870056%, 81.283569%, 82.121277%)" offset="0.792969"/><stop stop-opacity="1" stop-color="rgb(81.300354%, 81.587219%, 82.133484%)" offset="0.796875"/><stop stop-opacity="1" stop-color="rgb(81.729126%, 81.890869%, 82.144165%)" offset="0.800781"/><stop stop-opacity="1" stop-color="rgb(82.159424%, 82.194519%, 82.154846%)" offset="0.804688"/><stop stop-opacity="1" stop-color="rgb(82.589722%, 82.498169%, 82.165527%)" offset="0.808594"/><stop stop-opacity="1" stop-color="rgb(83.02002%, 82.801819%, 82.176208%)" offset="0.8125"/><stop stop-opacity="1" stop-color="rgb(83.448792%, 83.103943%, 82.18689%)" offset="0.816406"/><stop stop-opacity="1" stop-color="rgb(83.879089%, 83.407593%, 82.199097%)" offset="0.820312"/><stop stop-opacity="1" stop-color="rgb(84.309387%, 83.711243%, 82.209778%)" offset="0.824219"/><stop stop-opacity="1" stop-color="rgb(84.739685%, 84.014893%, 82.220459%)" offset="0.828125"/><stop stop-opacity="1" stop-color="rgb(85.168457%, 84.318542%, 82.23114%)" offset="0.832031"/><stop stop-opacity="1" stop-color="rgb(85.598755%, 84.622192%, 82.241821%)" offset="0.835938"/><stop stop-opacity="1" stop-color="rgb(86.027527%, 84.925842%, 82.252502%)" offset="0.839844"/><stop stop-opacity="1" stop-color="rgb(86.457825%, 85.229492%, 82.263184%)" offset="0.84375"/><stop stop-opacity="1" stop-color="rgb(86.888123%, 85.531616%, 82.273865%)" offset="0.847656"/><stop stop-opacity="1" stop-color="rgb(87.31842%, 85.835266%, 82.286072%)" offset="0.851562"/><stop stop-opacity="1" stop-color="rgb(87.747192%, 86.138916%, 82.296753%)" offset="0.855469"/><stop stop-opacity="1" stop-color="rgb(88.17749%, 86.442566%, 82.307434%)" offset="0.859375"/><stop stop-opacity="1" stop-color="rgb(88.607788%, 86.746216%, 82.318115%)" offset="0.863281"/><stop stop-opacity="1" stop-color="rgb(89.038086%, 87.049866%, 82.328796%)" offset="0.867188"/><stop stop-opacity="1" stop-color="rgb(89.466858%, 87.353516%, 82.339478%)" offset="0.871094"/><stop stop-opacity="1" stop-color="rgb(89.897156%, 87.657166%, 82.351685%)" offset="0.875"/><stop stop-opacity="1" stop-color="rgb(90.325928%, 87.95929%, 82.362366%)" offset="0.878906"/><stop stop-opacity="1" stop-color="rgb(90.756226%, 88.262939%, 82.373047%)" offset="0.882813"/><stop stop-opacity="1" stop-color="rgb(91.186523%, 88.566589%, 82.383728%)" offset="0.886719"/><stop stop-opacity="1" stop-color="rgb(91.616821%, 88.870239%, 82.394409%)" offset="0.890625"/><stop stop-opacity="1" stop-color="rgb(91.708374%, 88.934326%, 82.395935%)" offset="0.90625"/><stop stop-opacity="1" stop-color="rgb(91.799927%, 88.999939%, 82.398987%)" offset="0.9375"/><stop stop-opacity="1" stop-color="rgb(91.799927%, 88.999939%, 82.398987%)" offset="1"/></linearGradient></defs><g clip-path="url(#6453ec6067)"><g clip-path="url(#4f572353a6)"><path fill="url(#bcb5729dc9)" d="M 0.484375 0 L 0.484375 29.03125 L 29.515625 29.03125 L 29.515625 0 Z M 0.484375 0 " fill-rule="nonzero"/></g></g></svg>