<svg xmlns="http://www.w3.org/2000/svg" xmlns:xlink="http://www.w3.org/1999/xlink" width="40" zoomAndPan="magnify" viewBox="0 0 30 30.000001" height="40" preserveAspectRatio="xMidYMid meet" version="1.0"><defs><clipPath id="092decdd73"><path d="M 13 17 L 17 17 L 17 28 L 13 28 Z M 13 17 " clip-rule="nonzero"/></clipPath><clipPath id="f8d8f84dcb"><path d="M 16.929688 23.703125 C 16.929688 22.640625 16.0625 21.773438 15 21.773438 C 14.46875 21.773438 14.035156 21.339844 14.035156 20.808594 C 14.035156 20.277344 14.46875 19.84375 15 19.84375 C 15.53125 19.84375 15.964844 20.277344 15.964844 20.808594 C 15.964844 21.078125 16.179688 21.292969 16.445312 21.292969 C 16.714844 21.292969 16.929688 21.078125 16.929688 20.808594 C 16.929688 19.914062 16.3125 19.164062 15.480469 18.949219 L 15.480469 17.917969 C 15.480469 17.648438 15.265625 17.433594 15 17.433594 C 14.734375 17.433594 14.519531 17.648438 14.519531 17.917969 L 14.519531 18.949219 C 13.6875 19.164062 13.070312 19.914062 13.070312 20.808594 C 13.070312 21.875 13.9375 22.738281 15 22.738281 C 15.53125 22.738281 15.964844 23.171875 15.964844 23.703125 C 15.964844 24.234375 15.53125 24.667969 15 24.667969 C 14.46875 24.667969 14.035156 24.234375 14.035156 23.703125 C 14.035156 23.4375 13.820312 23.222656 13.554688 23.222656 C 13.285156 23.222656 13.070312 23.4375 13.070312 23.703125 C 13.070312 24.601562 13.6875 25.347656 14.519531 25.5625 L 14.519531 26.597656 C 14.519531 26.863281 14.734375 27.078125 15 27.078125 C 15.265625 27.078125 15.480469 26.863281 15.480469 26.597656 L 15.480469 25.5625 C 16.3125 25.347656 16.929688 24.601562 16.929688 23.703125 Z M 16.929688 23.703125 " clip-rule="nonzero"/></clipPath><clipPath id="07dfef51ad"><path d="M 8 15 L 22 15 L 22 29.03125 L 8 29.03125 Z M 8 15 " clip-rule="nonzero"/></clipPath><clipPath id="b642a943c3"><path d="M 15 15.503906 C 11.277344 15.503906 8.25 18.535156 8.25 22.257812 C 8.25 25.980469 11.277344 29.007812 15 29.007812 C 18.722656 29.007812 21.75 25.980469 21.75 22.257812 C 21.75 18.535156 18.722656 15.503906 15 15.503906 Z M 15 28.042969 C 11.808594 28.042969 9.210938 25.449219 9.210938 22.257812 C 9.210938 19.066406 11.808594 16.46875 15 16.46875 C 18.191406 16.46875 20.789062 19.066406 20.789062 22.257812 C 20.789062 25.449219 18.191406 28.042969 15 28.042969 Z M 15 28.042969 " clip-rule="nonzero"/></clipPath><clipPath id="40add5c92f"><path d="M 10 17 L 14 17 L 14 27 L 10 27 Z M 10 17 " clip-rule="nonzero"/></clipPath><clipPath id="2a8482863c"><path d="M 13.285156 25.707031 C 11.964844 25.050781 11.140625 23.726562 11.140625 22.257812 C 11.140625 20.785156 11.964844 19.460938 13.285156 18.804688 C 13.523438 18.6875 13.621094 18.394531 13.503906 18.15625 C 13.382812 17.917969 13.09375 17.820312 12.855469 17.941406 C 11.203125 18.761719 10.175781 20.417969 10.175781 22.257812 C 10.175781 24.097656 11.203125 25.75 12.855469 26.570312 C 12.925781 26.605469 13 26.621094 13.070312 26.621094 C 13.246094 26.621094 13.417969 26.523438 13.503906 26.355469 C 13.621094 26.117188 13.523438 25.828125 13.285156 25.707031 Z M 13.285156 25.707031 " clip-rule="nonzero"/></clipPath><clipPath id="ed57191a0c"><path d="M 16 17 L 20 17 L 20 27 L 16 27 Z M 16 17 " clip-rule="nonzero"/></clipPath><clipPath id="fed1ba55ec"><path d="M 17.144531 17.941406 C 16.90625 17.824219 16.617188 17.917969 16.496094 18.15625 C 16.378906 18.394531 16.476562 18.6875 16.714844 18.804688 C 18.035156 19.460938 18.859375 20.785156 18.859375 22.257812 C 18.859375 23.726562 18.035156 25.050781 16.714844 25.707031 C 16.476562 25.828125 16.378906 26.117188 16.496094 26.355469 C 16.582031 26.523438 16.753906 26.621094 16.929688 26.621094 C 17 26.621094 17.074219 26.605469 17.144531 26.574219 C 18.796875 25.75 19.824219 24.097656 19.824219 22.257812 C 19.824219 20.417969 18.796875 18.761719 17.144531 17.941406 Z M 17.144531 17.941406 " clip-rule="nonzero"/></clipPath><clipPath id="821efc57f3"><path d="M 8 0 L 22 0 L 22 14 L 8 14 Z M 8 0 " clip-rule="nonzero"/></clipPath><clipPath id="cecb2221f9"><path d="M 9.210938 5.859375 L 11.625 5.859375 L 11.625 13.09375 C 11.625 13.359375 11.839844 13.574219 12.105469 13.574219 C 12.375 13.574219 12.589844 13.359375 12.589844 13.09375 L 12.589844 5.378906 C 12.589844 5.109375 12.375 4.894531 12.105469 4.894531 L 10.542969 4.894531 L 15 1.183594 L 19.457031 4.894531 L 17.894531 4.894531 C 17.625 4.894531 17.410156 5.109375 17.410156 5.378906 L 17.410156 11.164062 C 17.410156 11.429688 17.625 11.648438 17.894531 11.648438 C 18.160156 11.648438 18.375 11.429688 18.375 11.164062 L 18.375 5.859375 L 20.789062 5.859375 C 20.988281 5.859375 21.171875 5.730469 21.242188 5.542969 C 21.308594 5.351562 21.25 5.136719 21.097656 5.007812 L 15.308594 0.183594 C 15.128906 0.0351562 14.871094 0.0351562 14.691406 0.183594 L 8.902344 5.007812 C 8.746094 5.136719 8.691406 5.351562 8.757812 5.542969 C 8.828125 5.730469 9.011719 5.859375 9.210938 5.859375 Z M 9.210938 5.859375 " clip-rule="nonzero"/></clipPath><clipPath id="a133fbc64e"><path d="M 15 5 L 17 5 L 17 10 L 15 10 Z M 15 5 " clip-rule="nonzero"/></clipPath><clipPath id="a8f752cbfb"><path d="M 15.480469 6.339844 L 15.480469 9.234375 C 15.480469 9.503906 15.699219 9.71875 15.964844 9.71875 C 16.230469 9.71875 16.445312 9.503906 16.445312 9.234375 L 16.445312 6.339844 C 16.445312 6.074219 16.230469 5.859375 15.964844 5.859375 C 15.699219 5.859375 15.480469 6.074219 15.480469 6.339844 Z M 15.480469 6.339844 " clip-rule="nonzero"/></clipPath><clipPath id="63fb3c311b"><path d="M 13 7 L 15 7 L 15 12 L 13 12 Z M 13 7 " clip-rule="nonzero"/></clipPath><clipPath id="e273f94af4"><path d="M 13.554688 7.789062 L 13.554688 11.164062 C 13.554688 11.429688 13.769531 11.648438 14.035156 11.648438 C 14.300781 11.648438 14.519531 11.429688 14.519531 11.164062 L 14.519531 7.789062 C 14.519531 7.523438 14.300781 7.304688 14.035156 7.304688 C 13.769531 7.304688 13.554688 7.523438 13.554688 7.789062 Z M 13.554688 7.789062 " clip-rule="nonzero"/></clipPath><clipPath id="e86c4c4c9f"><path d="M 20 6 L 29.515625 6 L 29.515625 23 L 20 23 Z M 20 6 " clip-rule="nonzero"/></clipPath><clipPath id="16b848eaff"><path d="M 29.351562 10.367188 L 26.457031 6.992188 C 26.328125 6.839844 26.113281 6.785156 25.925781 6.855469 C 25.734375 6.925781 25.609375 7.105469 25.609375 7.304688 L 25.609375 8.753906 L 22.714844 8.753906 C 21.386719 8.753906 20.304688 9.835938 20.304688 11.164062 L 20.304688 14.058594 C 20.304688 14.324219 20.519531 14.539062 20.789062 14.539062 C 21.054688 14.539062 21.269531 14.324219 21.269531 14.058594 L 21.269531 11.164062 C 21.269531 10.367188 21.917969 9.71875 22.714844 9.71875 L 26.09375 9.71875 C 26.359375 9.71875 26.574219 9.503906 26.574219 9.234375 L 26.574219 8.609375 L 28.351562 10.683594 L 26.574219 12.753906 L 26.574219 12.128906 C 26.574219 11.863281 26.359375 11.648438 26.09375 11.648438 L 24.644531 11.648438 C 24.113281 11.648438 23.679688 12.078125 23.679688 12.609375 L 23.679688 21.773438 C 23.679688 22.039062 23.894531 22.257812 24.164062 22.257812 C 24.429688 22.257812 24.644531 22.039062 24.644531 21.773438 L 24.644531 12.609375 L 25.609375 12.609375 L 25.609375 14.058594 C 25.609375 14.261719 25.734375 14.441406 25.925781 14.511719 C 26.113281 14.582031 26.328125 14.523438 26.457031 14.371094 L 29.351562 10.996094 C 29.507812 10.816406 29.507812 10.550781 29.351562 10.367188 Z M 29.351562 10.367188 " clip-rule="nonzero"/></clipPath><clipPath id="d5868a8331"><path d="M 21 15 L 23 15 L 23 19 L 21 19 Z M 21 15 " clip-rule="nonzero"/></clipPath><clipPath id="3ae9ba17f3"><path d="M 22.714844 18.398438 L 22.714844 15.503906 C 22.714844 15.238281 22.5 15.023438 22.234375 15.023438 C 21.96875 15.023438 21.75 15.238281 21.75 15.503906 L 21.75 18.398438 C 21.75 18.664062 21.96875 18.878906 22.234375 18.878906 C 22.5 18.878906 22.714844 18.664062 22.714844 18.398438 Z M 22.714844 18.398438 " clip-rule="nonzero"/></clipPath><clipPath id="07abe2c3b3"><path d="M 0.484375 6 L 10 6 L 10 23 L 0.484375 23 Z M 0.484375 6 " clip-rule="nonzero"/></clipPath><clipPath id="ce0dbce497"><path d="M 5.355469 11.648438 L 3.90625 11.648438 C 3.640625 11.648438 3.425781 11.863281 3.425781 12.128906 L 3.425781 12.753906 L 1.648438 10.683594 L 3.425781 8.609375 L 3.425781 9.234375 C 3.425781 9.503906 3.640625 9.71875 3.90625 9.71875 L 7.285156 9.71875 C 8.082031 9.71875 8.730469 10.367188 8.730469 11.164062 L 8.730469 14.058594 C 8.730469 14.324219 8.945312 14.539062 9.210938 14.539062 C 9.480469 14.539062 9.695312 14.324219 9.695312 14.058594 L 9.695312 11.164062 C 9.695312 9.835938 8.613281 8.753906 7.285156 8.753906 L 4.390625 8.753906 L 4.390625 7.304688 C 4.390625 7.105469 4.265625 6.925781 4.074219 6.855469 C 3.886719 6.785156 3.671875 6.839844 3.542969 6.992188 L 0.648438 10.367188 C 0.492188 10.546875 0.492188 10.816406 0.648438 10.996094 L 3.542969 14.371094 C 3.671875 14.523438 3.886719 14.582031 4.074219 14.511719 C 4.265625 14.441406 4.390625 14.261719 4.390625 14.058594 L 4.390625 12.609375 L 5.355469 12.609375 L 5.355469 21.773438 C 5.355469 22.039062 5.570312 22.257812 5.835938 22.257812 C 6.105469 22.257812 6.320312 22.039062 6.320312 21.773438 L 6.320312 12.609375 C 6.320312 12.078125 5.886719 11.648438 5.355469 11.648438 Z M 5.355469 11.648438 " clip-rule="nonzero"/></clipPath><clipPath id="aa312143ed"><path d="M 7 15 L 9 15 L 9 19 L 7 19 Z M 7 15 " clip-rule="nonzero"/></clipPath><clipPath id="fd1a1c6373"><path d="M 8.25 15.503906 C 8.25 15.238281 8.03125 15.023438 7.765625 15.023438 C 7.5 15.023438 7.285156 15.238281 7.285156 15.503906 L 7.285156 18.398438 C 7.285156 18.664062 7.5 18.878906 7.765625 18.878906 C 8.03125 18.878906 8.25 18.664062 8.25 18.398438 Z M 8.25 15.503906 " clip-rule="nonzero"/></clipPath><clipPath id="e7763a8c90"><path d="M 22 25 L 24 25 L 24 29.03125 L 22 29.03125 Z M 22 25 " clip-rule="nonzero"/></clipPath><clipPath id="da0bb6dc1c"><path d="M 22.714844 25.632812 C 22.449219 25.632812 22.234375 25.847656 22.234375 26.113281 L 22.234375 28.527344 C 22.234375 28.792969 22.449219 29.007812 22.714844 29.007812 C 22.984375 29.007812 23.199219 28.792969 23.199219 28.527344 L 23.199219 26.113281 C 23.199219 25.847656 22.984375 25.632812 22.714844 25.632812 Z M 22.714844 25.632812 " clip-rule="nonzero"/></clipPath><clipPath id="3f9164eaff"><path d="M 6 25 L 8 25 L 8 29.03125 L 6 29.03125 Z M 6 25 " clip-rule="nonzero"/></clipPath><clipPath id="02579c70dc"><path d="M 7.285156 25.632812 C 7.015625 25.632812 6.800781 25.847656 6.800781 26.113281 L 6.800781 28.527344 C 6.800781 28.792969 7.015625 29.007812 7.285156 29.007812 C 7.550781 29.007812 7.765625 28.792969 7.765625 28.527344 L 7.765625 26.113281 C 7.765625 25.847656 7.550781 25.632812 7.285156 25.632812 Z M 7.285156 25.632812 " clip-rule="nonzero"/></clipPath><clipPath id="7d5451989b"><path d="M 26 21 L 28 21 L 28 27 L 26 27 Z M 26 21 " clip-rule="nonzero"/></clipPath><clipPath id="a2aead62a5"><path d="M 26.574219 21.773438 C 26.308594 21.773438 26.09375 21.988281 26.09375 22.257812 L 26.09375 25.632812 C 26.09375 25.898438 26.308594 26.113281 26.574219 26.113281 C 26.839844 26.113281 27.054688 25.898438 27.054688 25.632812 L 27.054688 22.257812 C 27.054688 21.988281 26.839844 21.773438 26.574219 21.773438 Z M 26.574219 21.773438 " clip-rule="nonzero"/></clipPath><clipPath id="506afe56d2"><path d="M 2 21 L 4 21 L 4 27 L 2 27 Z M 2 21 " clip-rule="nonzero"/></clipPath><clipPath id="54cea8aa68"><path d="M 3.425781 21.773438 C 3.160156 21.773438 2.945312 21.988281 2.945312 22.257812 L 2.945312 25.632812 C 2.945312 25.898438 3.160156 26.113281 3.425781 26.113281 C 3.691406 26.113281 3.90625 25.898438 3.90625 25.632812 L 3.90625 22.257812 C 3.90625 21.988281 3.691406 21.773438 3.425781 21.773438 Z M 3.425781 21.773438 " clip-rule="nonzero"/></clipPath></defs><g clip-path="url(#092decdd73)"><g clip-path="url(#f8d8f84dcb)"><path fill="#f9f7f3" d="M 13.070312 17.433594 L 13.070312 27.078125 L 16.929688 27.078125 L 16.929688 17.433594 Z M 13.070312 17.433594 " fill-opacity="1" fill-rule="nonzero"/></g></g><g clip-path="url(#07dfef51ad)"><g clip-path="url(#b642a943c3)"><path fill="#f9f7f3" d="M 8.25 15.503906 L 8.25 29.007812 L 21.75 29.007812 L 21.75 15.503906 Z M 8.25 15.503906 " fill-opacity="1" fill-rule="nonzero"/></g></g><g clip-path="url(#40add5c92f)"><g clip-path="url(#2a8482863c)"><path fill="#f9f7f3" d="M 10.175781 17.820312 L 10.175781 26.621094 L 13.621094 26.621094 L 13.621094 17.820312 Z M 10.175781 17.820312 " fill-opacity="1" fill-rule="nonzero"/></g></g><g clip-path="url(#ed57191a0c)"><g clip-path="url(#fed1ba55ec)"><path fill="#f9f7f3" d="M 16.378906 17.824219 L 16.378906 26.621094 L 19.824219 26.621094 L 19.824219 17.824219 Z M 16.378906 17.824219 " fill-opacity="1" fill-rule="nonzero"/></g></g><g clip-path="url(#821efc57f3)"><g clip-path="url(#cecb2221f9)"><path fill="#f9f7f3" d="M 8.691406 0.0351562 L 8.691406 13.574219 L 21.308594 13.574219 L 21.308594 0.0351562 Z M 8.691406 0.0351562 " fill-opacity="1" fill-rule="nonzero"/></g></g><g clip-path="url(#a133fbc64e)"><g clip-path="url(#a8f752cbfb)"><path fill="#f9f7f3" d="M 15.480469 5.859375 L 15.480469 9.71875 L 16.445312 9.71875 L 16.445312 5.859375 Z M 15.480469 5.859375 " fill-opacity="1" fill-rule="nonzero"/></g></g><g clip-path="url(#63fb3c311b)"><g clip-path="url(#e273f94af4)"><path fill="#f9f7f3" d="M 13.554688 7.304688 L 13.554688 11.648438 L 14.519531 11.648438 L 14.519531 7.304688 Z M 13.554688 7.304688 " fill-opacity="1" fill-rule="nonzero"/></g></g><g clip-path="url(#e86c4c4c9f)"><g clip-path="url(#16b848eaff)"><path fill="#f9f7f3" d="M 20.304688 6.785156 L 20.304688 22.257812 L 29.507812 22.257812 L 29.507812 6.785156 Z M 20.304688 6.785156 " fill-opacity="1" fill-rule="nonzero"/></g></g><g clip-path="url(#d5868a8331)"><g clip-path="url(#3ae9ba17f3)"><path fill="#f9f7f3" d="M 21.75 15.023438 L 21.75 18.878906 L 22.714844 18.878906 L 22.714844 15.023438 Z M 21.75 15.023438 " fill-opacity="1" fill-rule="nonzero"/></g></g><g clip-path="url(#07abe2c3b3)"><g clip-path="url(#ce0dbce497)"><path fill="#f9f7f3" d="M 0.492188 6.785156 L 0.492188 22.257812 L 9.695312 22.257812 L 9.695312 6.785156 Z M 0.492188 6.785156 " fill-opacity="1" fill-rule="nonzero"/></g></g><g clip-path="url(#aa312143ed)"><g clip-path="url(#fd1a1c6373)"><path fill="#f9f7f3" d="M 7.285156 15.023438 L 7.285156 18.878906 L 8.25 18.878906 L 8.25 15.023438 Z M 7.285156 15.023438 " fill-opacity="1" fill-rule="nonzero"/></g></g><g clip-path="url(#e7763a8c90)"><g clip-path="url(#da0bb6dc1c)"><path fill="#f9f7f3" d="M 22.234375 25.632812 L 22.234375 29.007812 L 23.199219 29.007812 L 23.199219 25.632812 Z M 22.234375 25.632812 " fill-opacity="1" fill-rule="nonzero"/></g></g><g clip-path="url(#3f9164eaff)"><g clip-path="url(#02579c70dc)"><path fill="#f9f7f3" d="M 6.800781 25.632812 L 6.800781 29.007812 L 7.765625 29.007812 L 7.765625 25.632812 Z M 6.800781 25.632812 " fill-opacity="1" fill-rule="nonzero"/></g></g><g clip-path="url(#7d5451989b)"><g clip-path="url(#a2aead62a5)"><path fill="#f9f7f3" d="M 26.09375 21.773438 L 26.09375 26.113281 L 27.054688 26.113281 L 27.054688 21.773438 Z M 26.09375 21.773438 " fill-opacity="1" fill-rule="nonzero"/></g></g><g clip-path="url(#506afe56d2)"><g clip-path="url(#54cea8aa68)"><path fill="#f9f7f3" d="M 2.945312 21.773438 L 2.945312 26.113281 L 3.90625 26.113281 L 3.90625 21.773438 Z M 2.945312 21.773438 " fill-opacity="1" fill-rule="nonzero"/></g></g></svg>