<svg xmlns="http://www.w3.org/2000/svg" xmlns:xlink="http://www.w3.org/1999/xlink" width="40" zoomAndPan="magnify" viewBox="0 0 30 30.000001" height="40" preserveAspectRatio="xMidYMid meet" version="1.0"><defs><clipPath id="c51bd6e4fa"><path d="M 0.484375 5 L 29.515625 5 L 29.515625 29 L 0.484375 29 Z M 0.484375 5 " clip-rule="nonzero"/></clipPath><clipPath id="6578d2f317"><path d="M 29.320312 12.191406 L 23.867188 6.734375 C 23.679688 6.546875 23.375 6.546875 23.183594 6.734375 L 18.070312 11.851562 C 17.878906 12.039062 17.878906 12.34375 18.070312 12.53125 L 18.75 13.214844 L 18.070312 13.894531 C 17.246094 13.074219 15.96875 12.972656 15.035156 13.589844 L 14.660156 13.214844 C 14.203125 12.757812 13.597656 12.507812 12.953125 12.507812 C 12.648438 12.507812 12.351562 12.566406 12.074219 12.675781 L 11.246094 11.851562 L 11.589844 11.507812 C 11.777344 11.320312 11.777344 11.015625 11.589844 10.828125 L 6.816406 6.054688 C 6.632812 5.871094 6.3125 5.871094 6.132812 6.054688 L 0.679688 11.507812 C 0.488281 11.699219 0.488281 12.003906 0.679688 12.191406 L 5.453125 16.964844 C 5.546875 17.058594 5.667969 17.105469 5.792969 17.105469 C 5.917969 17.105469 6.039062 17.058594 6.132812 16.964844 L 6.816406 16.285156 L 7.496094 16.964844 C 6.558594 17.90625 6.558594 19.4375 7.496094 20.375 L 9.265625 22.144531 C 9.171875 22.335938 9.121094 22.542969 9.121094 22.761719 C 9.121094 23.148438 9.269531 23.511719 9.542969 23.785156 C 9.796875 24.042969 10.132812 24.183594 10.492188 24.203125 C 10.507812 24.546875 10.644531 24.886719 10.90625 25.148438 C 11.167969 25.414062 11.511719 25.546875 11.855469 25.566406 C 11.871094 25.921875 12.015625 26.257812 12.269531 26.515625 C 12.535156 26.777344 12.875 26.914062 13.21875 26.929688 C 13.238281 27.273438 13.371094 27.617188 13.636719 27.878906 C 13.910156 28.152344 14.273438 28.300781 14.660156 28.300781 C 14.878906 28.300781 15.085938 28.25 15.277344 28.15625 L 15.679688 28.558594 C 15.964844 28.84375 16.332031 28.984375 16.703125 28.984375 C 17.074219 28.984375 17.445312 28.84375 17.726562 28.558594 C 17.984375 28.304688 18.125 27.96875 18.144531 27.613281 C 18.488281 27.59375 18.828125 27.457031 19.09375 27.195312 C 19.355469 26.933594 19.488281 26.59375 19.507812 26.25 C 19.867188 26.230469 20.199219 26.085938 20.457031 25.832031 C 20.71875 25.570312 20.855469 25.226562 20.871094 24.882812 C 21.21875 24.867188 21.558594 24.730469 21.820312 24.46875 C 22.09375 24.195312 22.242188 23.832031 22.242188 23.445312 C 22.242188 23.058594 22.09375 22.695312 21.820312 22.421875 L 21.480469 22.082031 L 22.160156 21.398438 C 22.984375 20.574219 23.085938 19.300781 22.46875 18.363281 L 23.183594 17.648438 L 23.527344 17.988281 C 23.617188 18.078125 23.738281 18.128906 23.867188 18.128906 C 23.996094 18.128906 24.117188 18.078125 24.207031 17.988281 L 29.320312 12.875 C 29.511719 12.683594 29.511719 12.378906 29.320312 12.191406 Z M 5.792969 15.941406 L 1.699219 11.851562 L 6.472656 7.078125 L 10.566406 11.167969 L 7.839844 13.898438 L 6.132812 12.191406 C 5.945312 12.003906 5.640625 12.003906 5.453125 12.191406 C 5.261719 12.378906 5.261719 12.683594 5.453125 12.875 L 7.15625 14.578125 Z M 10.566406 12.53125 L 11.25 13.214844 L 8.179688 16.285156 L 7.496094 15.601562 Z M 8.179688 17.648438 L 11.933594 13.894531 C 12.480469 13.351562 13.429688 13.351562 13.976562 13.898438 L 17.046875 16.964844 C 17.234375 17.152344 17.234375 17.460938 17.046875 17.648438 C 16.859375 17.835938 16.550781 17.835938 16.363281 17.648438 L 14.140625 15.421875 C 13.949219 15.234375 13.644531 15.234375 13.457031 15.421875 C 13.269531 15.613281 13.269531 15.917969 13.457031 16.105469 L 14.316406 16.964844 L 9.886719 21.398438 L 8.179688 19.695312 C 7.617188 19.128906 7.617188 18.210938 8.179688 17.648438 Z M 17.046875 27.878906 C 16.859375 28.066406 16.550781 28.066406 16.363281 27.878906 L 16.023438 27.539062 L 16.707031 26.855469 L 17.046875 27.195312 C 17.136719 27.289062 17.1875 27.410156 17.1875 27.539062 C 17.1875 27.667969 17.136719 27.785156 17.046875 27.878906 Z M 18.410156 26.515625 C 18.222656 26.703125 17.914062 26.703125 17.726562 26.515625 L 17.386719 26.171875 L 18.070312 25.492188 L 18.410156 25.832031 C 18.597656 26.019531 18.597656 26.328125 18.410156 26.515625 Z M 19.773438 25.148438 C 19.59375 25.332031 19.273438 25.332031 19.09375 25.148438 L 18.75 24.808594 L 19.433594 24.125 L 19.773438 24.46875 C 19.960938 24.65625 19.960938 24.960938 19.773438 25.148438 Z M 21.136719 23.785156 C 20.949219 23.972656 20.644531 23.972656 20.457031 23.785156 L 20.113281 23.445312 L 20.796875 22.761719 L 21.136719 23.105469 C 21.230469 23.195312 21.28125 23.316406 21.28125 23.445312 C 21.28125 23.574219 21.230469 23.695312 21.136719 23.785156 Z M 21.480469 20.71875 L 20.113281 22.082031 L 15 27.195312 C 14.816406 27.378906 14.5 27.378906 14.316406 27.195312 C 14.128906 27.007812 14.128906 26.703125 14.316406 26.515625 L 17.386719 23.445312 C 17.574219 23.257812 17.574219 22.953125 17.386719 22.761719 C 17.199219 22.574219 16.894531 22.574219 16.707031 22.761719 L 13.636719 25.832031 C 13.449219 26.019531 13.140625 26.019531 12.953125 25.832031 C 12.863281 25.742188 12.8125 25.621094 12.8125 25.492188 C 12.8125 25.363281 12.863281 25.242188 12.953125 25.148438 L 16.023438 22.082031 C 16.210938 21.890625 16.210938 21.585938 16.023438 21.398438 C 15.835938 21.210938 15.53125 21.210938 15.339844 21.398438 L 12.273438 24.46875 C 12.082031 24.65625 11.777344 24.65625 11.589844 24.46875 C 11.402344 24.28125 11.402344 23.972656 11.589844 23.785156 L 14.660156 20.714844 C 14.847656 20.527344 14.847656 20.222656 14.660156 20.035156 C 14.46875 19.847656 14.164062 19.847656 13.976562 20.035156 L 10.90625 23.105469 C 10.726562 23.285156 10.40625 23.285156 10.226562 23.105469 C 10.132812 23.011719 10.085938 22.890625 10.085938 22.761719 C 10.085938 22.632812 10.132812 22.511719 10.226562 22.421875 L 15 17.648438 L 15.679688 18.328125 C 15.964844 18.613281 16.332031 18.753906 16.703125 18.753906 C 17.074219 18.753906 17.445312 18.613281 17.726562 18.328125 C 18.292969 17.765625 18.292969 16.847656 17.726562 16.28125 L 15.742188 14.300781 C 16.28125 14.042969 16.941406 14.132812 17.386719 14.578125 L 21.480469 18.667969 C 22.042969 19.234375 22.042969 20.152344 21.480469 20.71875 Z M 21.820312 17.648438 L 18.75 14.578125 L 19.433594 13.898438 L 20.117188 14.578125 L 20.90625 15.371094 L 22.503906 16.964844 Z M 23.867188 16.964844 L 23.527344 16.625 L 21.574219 14.675781 L 21.136719 14.238281 L 23.183594 12.191406 C 23.375 12.003906 23.375 11.699219 23.183594 11.511719 C 22.996094 11.320312 22.691406 11.320312 22.503906 11.511719 L 20.457031 13.554688 L 19.09375 12.191406 L 23.527344 7.757812 L 28.300781 12.535156 Z M 23.867188 16.964844 " clip-rule="nonzero"/></clipPath><clipPath id="286be850a1"><path d="M 10 0 L 20 0 L 20 9 L 10 9 Z M 10 0 " clip-rule="nonzero"/></clipPath><clipPath id="2cd0bd79f3"><path d="M 10.808594 5.722656 L 11.773438 7.394531 C 11.90625 7.625 12.199219 7.703125 12.433594 7.570312 L 13.132812 7.164062 C 13.28125 7.269531 13.4375 7.359375 13.601562 7.4375 L 13.601562 8.246094 C 13.601562 8.511719 13.820312 8.730469 14.085938 8.730469 L 16.015625 8.730469 C 16.28125 8.730469 16.496094 8.511719 16.496094 8.246094 L 16.496094 7.4375 C 16.660156 7.359375 16.816406 7.269531 16.964844 7.164062 L 17.667969 7.570312 C 17.898438 7.703125 18.195312 7.625 18.328125 7.394531 L 19.292969 5.722656 C 19.425781 5.492188 19.34375 5.199219 19.113281 5.066406 L 18.414062 4.660156 C 18.421875 4.570312 18.425781 4.476562 18.425781 4.386719 C 18.425781 4.300781 18.421875 4.207031 18.414062 4.117188 L 19.113281 3.710938 C 19.347656 3.578125 19.425781 3.285156 19.292969 3.054688 L 18.328125 1.382812 C 18.195312 1.152344 17.898438 1.074219 17.667969 1.207031 L 16.964844 1.613281 C 16.816406 1.507812 16.660156 1.417969 16.496094 1.339844 L 16.496094 0.53125 C 16.496094 0.265625 16.28125 0.046875 16.015625 0.046875 L 14.085938 0.046875 C 13.820312 0.046875 13.601562 0.265625 13.601562 0.53125 L 13.601562 1.339844 C 13.4375 1.417969 13.28125 1.507812 13.132812 1.613281 L 12.433594 1.207031 C 12.199219 1.074219 11.90625 1.152344 11.773438 1.382812 L 10.808594 3.054688 C 10.675781 3.285156 10.753906 3.578125 10.984375 3.710938 L 11.6875 4.117188 C 11.679688 4.207031 11.675781 4.296875 11.675781 4.386719 C 11.675781 4.476562 11.679688 4.570312 11.6875 4.660156 L 10.984375 5.0625 C 10.753906 5.199219 10.675781 5.492188 10.808594 5.722656 Z M 12.679688 4.828125 C 12.652344 4.675781 12.640625 4.53125 12.640625 4.386719 C 12.640625 4.246094 12.652344 4.101562 12.679688 3.949219 C 12.71875 3.746094 12.625 3.546875 12.449219 3.445312 L 11.886719 3.117188 L 12.367188 2.285156 L 12.929688 2.609375 C 13.109375 2.710938 13.328125 2.691406 13.484375 2.558594 C 13.710938 2.367188 13.964844 2.21875 14.246094 2.117188 C 14.4375 2.050781 14.566406 1.867188 14.566406 1.664062 L 14.566406 1.011719 L 15.53125 1.011719 L 15.53125 1.664062 C 15.53125 1.867188 15.660156 2.050781 15.855469 2.117188 C 16.136719 2.21875 16.390625 2.363281 16.617188 2.558594 C 16.769531 2.691406 16.992188 2.710938 17.171875 2.609375 L 17.734375 2.28125 L 18.214844 3.117188 L 17.652344 3.445312 C 17.476562 3.546875 17.382812 3.746094 17.417969 3.949219 C 17.449219 4.101562 17.460938 4.246094 17.460938 4.386719 C 17.460938 4.53125 17.449219 4.675781 17.417969 4.828125 C 17.382812 5.03125 17.476562 5.230469 17.652344 5.332031 L 18.214844 5.660156 L 17.734375 6.496094 L 17.171875 6.167969 C 16.992188 6.066406 16.769531 6.085938 16.617188 6.21875 C 16.390625 6.414062 16.136719 6.558594 15.855469 6.660156 C 15.660156 6.726562 15.53125 6.910156 15.53125 7.113281 L 15.53125 7.765625 L 14.566406 7.765625 L 14.566406 7.113281 C 14.566406 6.910156 14.4375 6.726562 14.246094 6.660156 C 13.964844 6.558594 13.710938 6.414062 13.484375 6.21875 C 13.328125 6.085938 13.105469 6.066406 12.929688 6.167969 L 12.367188 6.496094 L 11.886719 5.660156 L 12.449219 5.335938 C 12.625 5.230469 12.71875 5.03125 12.679688 4.828125 Z M 12.679688 4.828125 " clip-rule="nonzero"/></clipPath><clipPath id="1e9abc43dc"><path d="M 13 2 L 17 2 L 17 6 L 13 6 Z M 13 2 " clip-rule="nonzero"/></clipPath><clipPath id="feac3e027c"><path d="M 15.050781 5.835938 C 15.847656 5.835938 16.496094 5.1875 16.496094 4.386719 C 16.496094 3.589844 15.847656 2.941406 15.050781 2.941406 C 14.253906 2.941406 13.601562 3.589844 13.601562 4.386719 C 13.601562 5.1875 14.253906 5.835938 15.050781 5.835938 Z M 15.050781 3.90625 C 15.316406 3.90625 15.53125 4.121094 15.53125 4.386719 C 15.53125 4.65625 15.316406 4.871094 15.050781 4.871094 C 14.785156 4.871094 14.566406 4.65625 14.566406 4.386719 C 14.566406 4.121094 14.785156 3.90625 15.050781 3.90625 Z M 15.050781 3.90625 " clip-rule="nonzero"/></clipPath><clipPath id="99ccd38eba"><path d="M 2 0 L 10 0 L 10 7 L 2 7 Z M 2 0 " clip-rule="nonzero"/></clipPath><clipPath id="4bb8715d58"><path d="M 2.945312 6.316406 C 3.210938 6.316406 3.425781 6.101562 3.425781 5.835938 L 3.425781 4.386719 C 3.425781 3.589844 4.074219 2.941406 4.871094 2.941406 L 7.285156 2.941406 L 6.511719 3.519531 C 6.300781 3.679688 6.257812 3.984375 6.414062 4.195312 C 6.511719 4.320312 6.65625 4.386719 6.800781 4.386719 C 6.902344 4.386719 7.003906 4.355469 7.089844 4.292969 L 9.019531 2.84375 C 9.027344 2.839844 9.03125 2.828125 9.039062 2.824219 C 9.074219 2.792969 9.105469 2.753906 9.128906 2.710938 C 9.140625 2.695312 9.15625 2.679688 9.164062 2.660156 C 9.195312 2.601562 9.210938 2.53125 9.210938 2.460938 C 9.210938 2.386719 9.195312 2.320312 9.164062 2.257812 C 9.15625 2.238281 9.140625 2.226562 9.132812 2.207031 C 9.105469 2.164062 9.078125 2.128906 9.039062 2.097656 C 9.03125 2.089844 9.027344 2.078125 9.019531 2.074219 L 7.089844 0.625 C 6.878906 0.464844 6.574219 0.511719 6.414062 0.722656 C 6.253906 0.9375 6.300781 1.238281 6.511719 1.398438 L 7.285156 1.976562 L 4.871094 1.976562 C 3.542969 1.976562 2.460938 3.058594 2.460938 4.386719 L 2.460938 5.835938 C 2.460938 6.101562 2.675781 6.316406 2.945312 6.316406 Z M 2.945312 6.316406 " clip-rule="nonzero"/></clipPath><clipPath id="2ac2dc4f52"><path d="M 21 1 L 29 1 L 29 8 L 21 8 Z M 21 1 " clip-rule="nonzero"/></clipPath><clipPath id="bd8afd9dc9"><path d="M 21.75 2.941406 L 25.128906 2.941406 C 25.925781 2.941406 26.574219 3.589844 26.574219 4.386719 L 26.574219 5.835938 L 25.996094 5.0625 C 25.835938 4.851562 25.535156 4.808594 25.320312 4.96875 C 25.105469 5.125 25.0625 5.429688 25.222656 5.640625 L 26.671875 7.570312 C 26.675781 7.578125 26.6875 7.582031 26.695312 7.589844 C 26.726562 7.628906 26.761719 7.65625 26.804688 7.683594 C 26.820312 7.695312 26.835938 7.707031 26.855469 7.714844 C 26.917969 7.746094 26.984375 7.765625 27.054688 7.765625 C 27.128906 7.765625 27.195312 7.746094 27.257812 7.714844 C 27.277344 7.707031 27.292969 7.695312 27.308594 7.683594 C 27.351562 7.65625 27.386719 7.628906 27.417969 7.589844 C 27.425781 7.582031 27.4375 7.578125 27.441406 7.570312 L 28.890625 5.644531 C 29.046875 5.429688 29.003906 5.128906 28.792969 4.96875 C 28.578125 4.808594 28.277344 4.851562 28.117188 5.0625 L 27.539062 5.835938 L 27.539062 4.386719 C 27.539062 3.058594 26.457031 1.976562 25.128906 1.976562 L 21.75 1.976562 C 21.484375 1.976562 21.269531 2.191406 21.269531 2.460938 C 21.269531 2.726562 21.484375 2.941406 21.75 2.941406 Z M 21.75 2.941406 " clip-rule="nonzero"/></clipPath></defs><g clip-path="url(#c51bd6e4fa)"><g clip-path="url(#6578d2f317)"><path fill="#2155cd" d="M 0.488281 5.871094 L 0.488281 28.984375 L 29.511719 28.984375 L 29.511719 5.871094 Z M 0.488281 5.871094 " fill-opacity="1" fill-rule="nonzero"/></g></g><g clip-path="url(#286be850a1)"><g clip-path="url(#2cd0bd79f3)"><path fill="#2155cd" d="M 10.675781 0.046875 L 10.675781 8.730469 L 19.425781 8.730469 L 19.425781 0.046875 Z M 10.675781 0.046875 " fill-opacity="1" fill-rule="nonzero"/></g></g><g clip-path="url(#1e9abc43dc)"><g clip-path="url(#feac3e027c)"><path fill="#2155cd" d="M 13.601562 2.941406 L 13.601562 5.835938 L 16.496094 5.835938 L 16.496094 2.941406 Z M 13.601562 2.941406 " fill-opacity="1" fill-rule="nonzero"/></g></g><g clip-path="url(#99ccd38eba)"><g clip-path="url(#4bb8715d58)"><path fill="#2155cd" d="M 2.460938 0.464844 L 2.460938 6.316406 L 9.210938 6.316406 L 9.210938 0.464844 Z M 2.460938 0.464844 " fill-opacity="1" fill-rule="nonzero"/></g></g><g clip-path="url(#2ac2dc4f52)"><g clip-path="url(#bd8afd9dc9)"><path fill="#2155cd" d="M 21.269531 1.976562 L 21.269531 7.765625 L 29.046875 7.765625 L 29.046875 1.976562 Z M 21.269531 1.976562 " fill-opacity="1" fill-rule="nonzero"/></g></g></svg>