<svg xmlns="http://www.w3.org/2000/svg" xmlns:xlink="http://www.w3.org/1999/xlink" width="40" zoomAndPan="magnify" viewBox="0 0 30 30.000001" height="40" preserveAspectRatio="xMidYMid meet" version="1.0"><defs><clipPath id="50c33b0647"><path d="M 1.460938 0 L 28.316406 0 L 28.316406 29.03125 L 1.460938 29.03125 Z M 1.460938 0 " clip-rule="nonzero"/></clipPath><clipPath id="cdcd406097"><path d="M 25.238281 19.574219 C 24.832031 18.886719 23.949219 18.65625 23.265625 19.066406 L 19.492188 21.3125 C 19.261719 21.453125 19.023438 21.574219 18.777344 21.675781 C 18.871094 21.304688 18.835938 20.910156 18.675781 20.554688 C 18.488281 20.144531 18.15625 19.832031 17.734375 19.675781 C 17.316406 19.515625 16.859375 19.53125 16.453125 19.722656 L 13.753906 20.964844 C 13 20.753906 12.195312 20.796875 11.46875 21.085938 L 10.207031 21.589844 L 10.15625 21.214844 C 10.121094 20.949219 9.878906 20.765625 9.617188 20.800781 L 6.765625 21.183594 C 6.640625 21.203125 6.523438 21.269531 6.449219 21.371094 C 6.371094 21.472656 6.335938 21.601562 6.351562 21.730469 L 2.074219 22.304688 C 1.8125 22.339844 1.628906 22.585938 1.664062 22.847656 L 2.429688 28.597656 C 2.460938 28.839844 2.667969 29.019531 2.902344 29.019531 C 2.925781 29.019531 2.945312 29.015625 2.96875 29.015625 L 7.246094 28.4375 C 7.277344 28.679688 7.484375 28.855469 7.71875 28.855469 C 7.742188 28.855469 7.761719 28.855469 7.785156 28.851562 L 10.636719 28.464844 C 10.761719 28.449219 10.875 28.382812 10.953125 28.28125 C 11.03125 28.179688 11.0625 28.050781 11.046875 27.921875 L 10.992188 27.496094 L 17.375 26.472656 C 17.554688 26.441406 17.738281 26.394531 17.910156 26.332031 L 18.980469 25.945312 C 19.78125 25.652344 20.519531 25.21875 21.167969 24.65625 L 24.769531 21.535156 C 25.082031 21.339844 25.300781 21.035156 25.390625 20.671875 C 25.488281 20.296875 25.433594 19.90625 25.238281 19.574219 Z M 3.316406 27.992188 L 2.679688 23.199219 L 6.480469 22.6875 L 7.117188 27.476562 Z M 8.132812 27.828125 L 7.367188 22.078125 L 9.269531 21.824219 L 10.03125 27.570312 Z M 24.464844 20.433594 C 24.433594 20.558594 24.351562 20.664062 24.242188 20.730469 C 24.21875 20.742188 24.195312 20.761719 24.175781 20.777344 L 20.542969 23.925781 C 19.980469 24.410156 19.347656 24.78125 18.652344 25.035156 L 17.585938 25.421875 C 17.46875 25.464844 17.347656 25.496094 17.222656 25.515625 L 10.863281 26.539062 L 10.335938 22.578125 L 11.824219 21.984375 C 12.398438 21.753906 13.042969 21.738281 13.632812 21.9375 C 13.75 21.976562 13.875 21.972656 13.984375 21.921875 L 16.851562 20.601562 C 17.023438 20.519531 17.21875 20.511719 17.402344 20.582031 C 17.582031 20.648438 17.722656 20.78125 17.804688 20.957031 C 17.882812 21.132812 17.890625 21.332031 17.824219 21.511719 C 17.757812 21.695312 17.625 21.839844 17.449219 21.917969 L 15.050781 23.023438 C 14.808594 23.136719 14.703125 23.421875 14.8125 23.664062 C 14.894531 23.84375 15.066406 23.949219 15.25 23.949219 C 15.316406 23.949219 15.382812 23.933594 15.449219 23.902344 L 17.28125 23.058594 L 17.617188 23.003906 C 18.453125 22.871094 19.25 22.582031 19.980469 22.144531 L 23.753906 19.898438 C 23.984375 19.761719 24.277344 19.835938 24.410156 20.066406 C 24.476562 20.179688 24.496094 20.308594 24.464844 20.433594 Z M 26.394531 7.238281 L 25.4375 6.917969 L 25.4375 6.511719 C 26.042969 5.90625 26.398438 5.074219 26.398438 4.179688 L 26.398438 3.882812 C 26.660156 3.882812 26.875 3.664062 26.875 3.398438 C 26.875 1.53125 25.371094 0.015625 23.519531 0.015625 L 21.601562 0.015625 C 21.335938 0.015625 21.121094 0.230469 21.121094 0.496094 L 21.121094 1.835938 C 21.121094 2.339844 21.300781 2.796875 21.601562 3.15625 L 21.601562 4.179688 C 21.601562 4.3125 21.609375 4.445312 21.625 4.578125 C 20.15625 2.40625 17.683594 0.980469 14.886719 0.980469 C 12.089844 0.980469 9.617188 2.410156 8.148438 4.578125 C 8.164062 4.445312 8.175781 4.3125 8.175781 4.179688 L 8.175781 3.882812 C 8.4375 3.882812 8.652344 3.664062 8.652344 3.398438 C 8.652344 1.53125 7.148438 0.015625 5.296875 0.015625 L 3.378906 0.015625 C 3.113281 0.015625 2.898438 0.230469 2.898438 0.496094 L 2.898438 1.835938 C 2.898438 2.339844 3.078125 2.796875 3.378906 3.15625 L 3.378906 4.179688 C 3.378906 5.074219 3.730469 5.90625 4.335938 6.511719 L 4.335938 6.917969 L 3.378906 7.238281 C 2.230469 7.625 1.460938 8.703125 1.460938 9.921875 L 1.460938 13.066406 C 1.460938 13.332031 1.675781 13.550781 1.941406 13.550781 L 7.984375 13.550781 C 8.640625 14.605469 9.527344 15.5 10.570312 16.164062 L 10.570312 17.417969 C 10.570312 17.683594 10.785156 17.898438 11.050781 17.898438 L 18.722656 17.898438 C 18.988281 17.898438 19.203125 17.683594 19.203125 17.417969 L 19.203125 16.160156 C 20.25 15.5 21.140625 14.605469 21.796875 13.550781 L 27.835938 13.550781 C 28.101562 13.550781 28.316406 13.332031 28.316406 13.066406 L 28.316406 9.921875 C 28.316406 8.703125 27.542969 7.625 26.394531 7.238281 Z M 23.519531 7.171875 C 23.671875 7.234375 23.835938 7.265625 24 7.265625 C 24.164062 7.265625 24.324219 7.234375 24.480469 7.171875 L 24.480469 7.75 C 24.480469 8.015625 24.265625 8.230469 24 8.230469 C 23.734375 8.230469 23.519531 8.015625 23.519531 7.75 Z M 25.4375 4.179688 C 25.4375 5.066406 24.949219 5.863281 24.160156 6.257812 C 24.058594 6.3125 23.9375 6.3125 23.835938 6.257812 C 23.050781 5.863281 22.5625 5.066406 22.5625 4.179688 L 22.5625 3.792969 C 22.746094 3.851562 22.945312 3.882812 23.148438 3.882812 L 25.4375 3.882812 Z M 22.082031 0.980469 L 23.519531 0.980469 C 24.675781 0.980469 25.648438 1.8125 25.871094 2.914062 L 23.148438 2.914062 C 22.5625 2.914062 22.082031 2.429688 22.082031 1.835938 Z M 5.296875 7.171875 C 5.449219 7.234375 5.613281 7.265625 5.777344 7.265625 C 5.9375 7.265625 6.101562 7.234375 6.257812 7.171875 L 6.257812 7.75 C 6.257812 8.015625 6.039062 8.230469 5.777344 8.230469 C 5.511719 8.230469 5.296875 8.015625 5.296875 7.75 Z M 7.214844 4.179688 C 7.214844 5.066406 6.726562 5.863281 5.9375 6.257812 C 5.835938 6.3125 5.714844 6.3125 5.613281 6.257812 C 4.828125 5.863281 4.335938 5.066406 4.335938 4.179688 L 4.335938 3.792969 C 4.523438 3.851562 4.722656 3.882812 4.925781 3.882812 L 7.214844 3.882812 Z M 3.859375 0.980469 L 5.296875 0.980469 C 6.453125 0.980469 7.421875 1.8125 7.644531 2.914062 L 4.925781 2.914062 C 4.335938 2.914062 3.859375 2.429688 3.859375 1.835938 Z M 2.417969 9.921875 C 2.417969 9.121094 2.925781 8.410156 3.683594 8.15625 L 4.347656 7.933594 C 4.4375 8.644531 5.042969 9.199219 5.777344 9.199219 C 6.507812 9.199219 7.113281 8.644531 7.203125 7.933594 L 7.871094 8.15625 C 8.625 8.410156 9.132812 9.121094 9.132812 9.921875 L 9.132812 12.582031 L 2.417969 12.582031 Z M 18.246094 16.933594 L 11.53125 16.933594 L 11.53125 14.273438 C 11.53125 13.46875 12.039062 12.761719 12.792969 12.507812 L 13.460938 12.28125 C 13.550781 12.996094 14.15625 13.550781 14.886719 13.550781 C 15.621094 13.550781 16.226562 12.996094 16.316406 12.28125 L 16.980469 12.507812 C 17.738281 12.761719 18.246094 13.46875 18.246094 14.273438 Z M 14.039062 7.265625 C 13.449219 7.265625 12.96875 6.78125 12.96875 6.1875 L 12.96875 5.332031 L 14.410156 5.332031 C 15.566406 5.332031 16.535156 6.164062 16.757812 7.265625 Z M 14.039062 8.230469 L 16.328125 8.230469 L 16.328125 8.527344 C 16.328125 9.414062 15.835938 10.214844 15.050781 10.609375 C 14.949219 10.660156 14.828125 10.660156 14.726562 10.609375 C 13.9375 10.214844 13.449219 9.414062 13.449219 8.527344 L 13.449219 8.144531 C 13.636719 8.199219 13.832031 8.230469 14.039062 8.230469 Z M 14.410156 11.523438 C 14.5625 11.585938 14.726562 11.613281 14.886719 11.613281 C 15.050781 11.613281 15.214844 11.585938 15.367188 11.523438 L 15.367188 12.097656 C 15.367188 12.367188 15.152344 12.582031 14.886719 12.582031 C 14.625 12.582031 14.410156 12.367188 14.410156 12.097656 Z M 19.203125 14.992188 L 19.203125 14.273438 C 19.203125 13.054688 18.433594 11.976562 17.285156 11.589844 L 16.328125 11.265625 L 16.328125 10.863281 C 16.933594 10.253906 17.285156 9.425781 17.285156 8.527344 L 17.285156 8.230469 C 17.550781 8.230469 17.765625 8.015625 17.765625 7.75 C 17.765625 5.882812 16.257812 4.363281 14.410156 4.363281 L 12.488281 4.363281 C 12.226562 4.363281 12.011719 4.582031 12.011719 4.847656 L 12.011719 6.1875 C 12.011719 6.6875 12.191406 7.148438 12.488281 7.503906 L 12.488281 8.527344 C 12.488281 9.425781 12.84375 10.253906 13.449219 10.863281 L 13.449219 11.265625 L 12.492188 11.589844 C 11.34375 11.976562 10.570312 13.054688 10.570312 14.273438 L 10.570312 14.992188 C 10.03125 14.582031 9.550781 14.09375 9.144531 13.550781 L 9.613281 13.550781 C 9.878906 13.550781 10.09375 13.332031 10.09375 13.066406 L 10.09375 9.921875 C 10.09375 8.703125 9.320312 7.625 8.171875 7.238281 L 7.980469 7.175781 C 8.851562 4.160156 11.617188 1.949219 14.886719 1.949219 C 18.15625 1.949219 20.921875 4.160156 21.792969 7.175781 L 21.601562 7.238281 C 20.453125 7.625 19.683594 8.703125 19.683594 9.921875 L 19.683594 13.066406 C 19.683594 13.332031 19.898438 13.550781 20.164062 13.550781 L 20.636719 13.550781 C 20.226562 14.09375 19.746094 14.582031 19.203125 14.992188 Z M 27.355469 12.582031 L 20.640625 12.582031 L 20.640625 9.921875 C 20.640625 9.121094 21.148438 8.410156 21.90625 8.15625 L 22.574219 7.933594 C 22.664062 8.644531 23.269531 9.199219 24 9.199219 C 24.730469 9.199219 25.335938 8.644531 25.425781 7.933594 L 26.09375 8.15625 C 26.847656 8.410156 27.355469 9.121094 27.355469 9.921875 Z M 27.355469 12.582031 " clip-rule="nonzero"/></clipPath></defs><g clip-path="url(#50c33b0647)"><g clip-path="url(#cdcd406097)"><path fill="#f9f7f3" d="M 1.460938 0.015625 L 1.460938 29.019531 L 28.316406 29.019531 L 28.316406 0.015625 Z M 1.460938 0.015625 " fill-opacity="1" fill-rule="nonzero"/></g></g></svg>