<svg xmlns="http://www.w3.org/2000/svg" xmlns:xlink="http://www.w3.org/1999/xlink" width="40" zoomAndPan="magnify" viewBox="0 0 30 30.000001" height="40" preserveAspectRatio="xMidYMid meet" version="1.0"><defs><clipPath id="93b1b0d2e9"><path d="M 1.460938 0 L 28.316406 0 L 28.316406 29.03125 L 1.460938 29.03125 Z M 1.460938 0 " clip-rule="nonzero"/></clipPath><clipPath id="a8ee915a23"><path d="M 25.238281 19.574219 C 24.832031 18.886719 23.949219 18.65625 23.265625 19.066406 L 19.492188 21.3125 C 19.261719 21.453125 19.023438 21.574219 18.777344 21.675781 C 18.871094 21.304688 18.835938 20.910156 18.675781 20.554688 C 18.488281 20.144531 18.15625 19.832031 17.734375 19.675781 C 17.316406 19.515625 16.859375 19.53125 16.453125 19.722656 L 13.753906 20.964844 C 13 20.753906 12.195312 20.796875 11.46875 21.085938 L 10.207031 21.589844 L 10.15625 21.214844 C 10.121094 20.949219 9.878906 20.765625 9.617188 20.800781 L 6.765625 21.183594 C 6.640625 21.203125 6.523438 21.269531 6.449219 21.371094 C 6.371094 21.472656 6.335938 21.601562 6.351562 21.730469 L 2.074219 22.304688 C 1.8125 22.339844 1.628906 22.585938 1.664062 22.847656 L 2.429688 28.597656 C 2.460938 28.839844 2.667969 29.019531 2.902344 29.019531 C 2.925781 29.019531 2.945312 29.015625 2.96875 29.015625 L 7.246094 28.4375 C 7.277344 28.679688 7.484375 28.855469 7.71875 28.855469 C 7.742188 28.855469 7.761719 28.855469 7.785156 28.851562 L 10.636719 28.464844 C 10.761719 28.449219 10.875 28.382812 10.953125 28.28125 C 11.03125 28.179688 11.0625 28.050781 11.046875 27.921875 L 10.992188 27.496094 L 17.375 26.472656 C 17.554688 26.441406 17.738281 26.394531 17.910156 26.332031 L 18.980469 25.945312 C 19.78125 25.652344 20.519531 25.21875 21.167969 24.65625 L 24.769531 21.535156 C 25.082031 21.339844 25.300781 21.035156 25.390625 20.671875 C 25.488281 20.296875 25.433594 19.90625 25.238281 19.574219 Z M 3.316406 27.992188 L 2.679688 23.199219 L 6.480469 22.6875 L 7.117188 27.476562 Z M 8.132812 27.828125 L 7.367188 22.078125 L 9.269531 21.824219 L 10.03125 27.570312 Z M 24.464844 20.433594 C 24.433594 20.558594 24.351562 20.664062 24.242188 20.730469 C 24.21875 20.742188 24.195312 20.761719 24.175781 20.777344 L 20.542969 23.925781 C 19.980469 24.410156 19.347656 24.78125 18.652344 25.035156 L 17.585938 25.421875 C 17.46875 25.464844 17.347656 25.496094 17.222656 25.515625 L 10.863281 26.539062 L 10.335938 22.578125 L 11.824219 21.984375 C 12.398438 21.753906 13.042969 21.738281 13.632812 21.9375 C 13.75 21.976562 13.875 21.972656 13.984375 21.921875 L 16.851562 20.601562 C 17.023438 20.519531 17.21875 20.511719 17.402344 20.582031 C 17.582031 20.648438 17.722656 20.78125 17.804688 20.957031 C 17.882812 21.132812 17.890625 21.332031 17.824219 21.511719 C 17.757812 21.695312 17.625 21.839844 17.449219 21.917969 L 15.050781 23.023438 C 14.808594 23.136719 14.703125 23.421875 14.8125 23.664062 C 14.894531 23.84375 15.066406 23.949219 15.25 23.949219 C 15.316406 23.949219 15.382812 23.933594 15.449219 23.902344 L 17.28125 23.058594 L 17.617188 23.003906 C 18.453125 22.871094 19.25 22.582031 19.980469 22.144531 L 23.753906 19.898438 C 23.984375 19.761719 24.277344 19.835938 24.410156 20.066406 C 24.476562 20.179688 24.496094 20.308594 24.464844 20.433594 Z M 26.394531 7.238281 L 25.4375 6.917969 L 25.4375 6.511719 C 26.042969 5.90625 26.398438 5.074219 26.398438 4.179688 L 26.398438 3.882812 C 26.660156 3.882812 26.875 3.664062 26.875 3.398438 C 26.875 1.53125 25.371094 0.015625 23.519531 0.015625 L 21.601562 0.015625 C 21.335938 0.015625 21.121094 0.230469 21.121094 0.496094 L 21.121094 1.835938 C 21.121094 2.339844 21.300781 2.796875 21.601562 3.15625 L 21.601562 4.179688 C 21.601562 4.3125 21.609375 4.445312 21.625 4.578125 C 20.15625 2.40625 17.683594 0.980469 14.886719 0.980469 C 12.089844 0.980469 9.617188 2.410156 8.148438 4.578125 C 8.164062 4.445312 8.175781 4.3125 8.175781 4.179688 L 8.175781 3.882812 C 8.4375 3.882812 8.652344 3.664062 8.652344 3.398438 C 8.652344 1.53125 7.148438 0.015625 5.296875 0.015625 L 3.378906 0.015625 C 3.113281 0.015625 2.898438 0.230469 2.898438 0.496094 L 2.898438 1.835938 C 2.898438 2.339844 3.078125 2.796875 3.378906 3.15625 L 3.378906 4.179688 C 3.378906 5.074219 3.730469 5.90625 4.335938 6.511719 L 4.335938 6.917969 L 3.378906 7.238281 C 2.230469 7.625 1.460938 8.703125 1.460938 9.921875 L 1.460938 13.066406 C 1.460938 13.332031 1.675781 13.550781 1.941406 13.550781 L 7.984375 13.550781 C 8.640625 14.605469 9.527344 15.5 10.570312 16.164062 L 10.570312 17.417969 C 10.570312 17.683594 10.785156 17.898438 11.050781 17.898438 L 18.722656 17.898438 C 18.988281 17.898438 19.203125 17.683594 19.203125 17.417969 L 19.203125 16.160156 C 20.25 15.5 21.140625 14.605469 21.796875 13.550781 L 27.835938 13.550781 C 28.101562 13.550781 28.316406 13.332031 28.316406 13.066406 L 28.316406 9.921875 C 28.316406 8.703125 27.542969 7.625 26.394531 7.238281 Z M 23.519531 7.171875 C 23.671875 7.234375 23.835938 7.265625 24 7.265625 C 24.164062 7.265625 24.324219 7.234375 24.480469 7.171875 L 24.480469 7.75 C 24.480469 8.015625 24.265625 8.230469 24 8.230469 C 23.734375 8.230469 23.519531 8.015625 23.519531 7.75 Z M 25.4375 4.179688 C 25.4375 5.066406 24.949219 5.863281 24.160156 6.257812 C 24.058594 6.3125 23.9375 6.3125 23.835938 6.257812 C 23.050781 5.863281 22.5625 5.066406 22.5625 4.179688 L 22.5625 3.792969 C 22.746094 3.851562 22.945312 3.882812 23.148438 3.882812 L 25.4375 3.882812 Z M 22.082031 0.980469 L 23.519531 0.980469 C 24.675781 0.980469 25.648438 1.8125 25.871094 2.914062 L 23.148438 2.914062 C 22.5625 2.914062 22.082031 2.429688 22.082031 1.835938 Z M 5.296875 7.171875 C 5.449219 7.234375 5.613281 7.265625 5.777344 7.265625 C 5.9375 7.265625 6.101562 7.234375 6.257812 7.171875 L 6.257812 7.75 C 6.257812 8.015625 6.039062 8.230469 5.777344 8.230469 C 5.511719 8.230469 5.296875 8.015625 5.296875 7.75 Z M 7.214844 4.179688 C 7.214844 5.066406 6.726562 5.863281 5.9375 6.257812 C 5.835938 6.3125 5.714844 6.3125 5.613281 6.257812 C 4.828125 5.863281 4.335938 5.066406 4.335938 4.179688 L 4.335938 3.792969 C 4.523438 3.851562 4.722656 3.882812 4.925781 3.882812 L 7.214844 3.882812 Z M 3.859375 0.980469 L 5.296875 0.980469 C 6.453125 0.980469 7.421875 1.8125 7.644531 2.914062 L 4.925781 2.914062 C 4.335938 2.914062 3.859375 2.429688 3.859375 1.835938 Z M 2.417969 9.921875 C 2.417969 9.121094 2.925781 8.410156 3.683594 8.15625 L 4.347656 7.933594 C 4.4375 8.644531 5.042969 9.199219 5.777344 9.199219 C 6.507812 9.199219 7.113281 8.644531 7.203125 7.933594 L 7.871094 8.15625 C 8.625 8.410156 9.132812 9.121094 9.132812 9.921875 L 9.132812 12.582031 L 2.417969 12.582031 Z M 18.246094 16.933594 L 11.53125 16.933594 L 11.53125 14.273438 C 11.53125 13.46875 12.039062 12.761719 12.792969 12.507812 L 13.460938 12.28125 C 13.550781 12.996094 14.15625 13.550781 14.886719 13.550781 C 15.621094 13.550781 16.226562 12.996094 16.316406 12.28125 L 16.980469 12.507812 C 17.738281 12.761719 18.246094 13.46875 18.246094 14.273438 Z M 14.039062 7.265625 C 13.449219 7.265625 12.96875 6.78125 12.96875 6.1875 L 12.96875 5.332031 L 14.410156 5.332031 C 15.566406 5.332031 16.535156 6.164062 16.757812 7.265625 Z M 14.039062 8.230469 L 16.328125 8.230469 L 16.328125 8.527344 C 16.328125 9.414062 15.835938 10.214844 15.050781 10.609375 C 14.949219 10.660156 14.828125 10.660156 14.726562 10.609375 C 13.9375 10.214844 13.449219 9.414062 13.449219 8.527344 L 13.449219 8.144531 C 13.636719 8.199219 13.832031 8.230469 14.039062 8.230469 Z M 14.410156 11.523438 C 14.5625 11.585938 14.726562 11.613281 14.886719 11.613281 C 15.050781 11.613281 15.214844 11.585938 15.367188 11.523438 L 15.367188 12.097656 C 15.367188 12.367188 15.152344 12.582031 14.886719 12.582031 C 14.625 12.582031 14.410156 12.367188 14.410156 12.097656 Z M 19.203125 14.992188 L 19.203125 14.273438 C 19.203125 13.054688 18.433594 11.976562 17.285156 11.589844 L 16.328125 11.265625 L 16.328125 10.863281 C 16.933594 10.253906 17.285156 9.425781 17.285156 8.527344 L 17.285156 8.230469 C 17.550781 8.230469 17.765625 8.015625 17.765625 7.75 C 17.765625 5.882812 16.257812 4.363281 14.410156 4.363281 L 12.488281 4.363281 C 12.226562 4.363281 12.011719 4.582031 12.011719 4.847656 L 12.011719 6.1875 C 12.011719 6.6875 12.191406 7.148438 12.488281 7.503906 L 12.488281 8.527344 C 12.488281 9.425781 12.84375 10.253906 13.449219 10.863281 L 13.449219 11.265625 L 12.492188 11.589844 C 11.34375 11.976562 10.570312 13.054688 10.570312 14.273438 L 10.570312 14.992188 C 10.03125 14.582031 9.550781 14.09375 9.144531 13.550781 L 9.613281 13.550781 C 9.878906 13.550781 10.09375 13.332031 10.09375 13.066406 L 10.09375 9.921875 C 10.09375 8.703125 9.320312 7.625 8.171875 7.238281 L 7.980469 7.175781 C 8.851562 4.160156 11.617188 1.949219 14.886719 1.949219 C 18.15625 1.949219 20.921875 4.160156 21.792969 7.175781 L 21.601562 7.238281 C 20.453125 7.625 19.683594 8.703125 19.683594 9.921875 L 19.683594 13.066406 C 19.683594 13.332031 19.898438 13.550781 20.164062 13.550781 L 20.636719 13.550781 C 20.226562 14.09375 19.746094 14.582031 19.203125 14.992188 Z M 27.355469 12.582031 L 20.640625 12.582031 L 20.640625 9.921875 C 20.640625 9.121094 21.148438 8.410156 21.90625 8.15625 L 22.574219 7.933594 C 22.664062 8.644531 23.269531 9.199219 24 9.199219 C 24.730469 9.199219 25.335938 8.644531 25.425781 7.933594 L 26.09375 8.15625 C 26.847656 8.410156 27.355469 9.121094 27.355469 9.921875 Z M 27.355469 12.582031 " clip-rule="nonzero"/></clipPath><linearGradient x1="-14.358045" gradientTransform="matrix(0.0599438, 0, 0, 0.0604248, -0.457793, -0.952619)" y1="449.64408" x2="449.642407" gradientUnits="userSpaceOnUse" y2="-14.357496" id="7f754ff6cc"><stop stop-opacity="1" stop-color="rgb(91.799927%, 88.999939%, 82.398987%)" offset="0"/><stop stop-opacity="1" stop-color="rgb(91.799927%, 88.999939%, 82.398987%)" offset="0.015625"/><stop stop-opacity="1" stop-color="rgb(91.711426%, 88.937378%, 82.395935%)" offset="0.0234375"/><stop stop-opacity="1" stop-color="rgb(90.979004%, 88.420105%, 82.377625%)" offset="0.0273438"/><stop stop-opacity="1" stop-color="rgb(90.336609%, 87.966919%, 82.362366%)" offset="0.03125"/><stop stop-opacity="1" stop-color="rgb(89.692688%, 87.512207%, 82.345581%)" offset="0.0351562"/><stop stop-opacity="1" stop-color="rgb(89.050293%, 87.059021%, 82.330322%)" offset="0.0390625"/><stop stop-opacity="1" stop-color="rgb(88.407898%, 86.604309%, 82.313538%)" offset="0.0429688"/><stop stop-opacity="1" stop-color="rgb(87.765503%, 86.151123%, 82.296753%)" offset="0.046875"/><stop stop-opacity="1" stop-color="rgb(87.121582%, 85.696411%, 82.279968%)" offset="0.0507812"/><stop stop-opacity="1" stop-color="rgb(86.479187%, 85.243225%, 82.264709%)" offset="0.0546875"/><stop stop-opacity="1" stop-color="rgb(85.835266%, 84.788513%, 82.247925%)" offset="0.0585938"/><stop stop-opacity="1" stop-color="rgb(85.192871%, 84.335327%, 82.23114%)" offset="0.0625"/><stop stop-opacity="1" stop-color="rgb(84.54895%, 83.880615%, 82.214355%)" offset="0.0664063"/><stop stop-opacity="1" stop-color="rgb(83.906555%, 83.427429%, 82.199097%)" offset="0.0703125"/><stop stop-opacity="1" stop-color="rgb(83.262634%, 82.972717%, 82.182312%)" offset="0.0742188"/><stop stop-opacity="1" stop-color="rgb(82.620239%, 82.519531%, 82.167053%)" offset="0.078125"/><stop stop-opacity="1" stop-color="rgb(81.976318%, 82.064819%, 82.150269%)" offset="0.0820313"/><stop stop-opacity="1" stop-color="rgb(81.333923%, 81.611633%, 82.133484%)" offset="0.0859375"/><stop stop-opacity="1" stop-color="rgb(80.690002%, 81.156921%, 82.116699%)" offset="0.0898438"/><stop stop-opacity="1" stop-color="rgb(80.047607%, 80.703735%, 82.10144%)" offset="0.09375"/><stop stop-opacity="1" stop-color="rgb(79.403687%, 80.249023%, 82.084656%)" offset="0.0976563"/><stop stop-opacity="1" stop-color="rgb(78.761292%, 79.795837%, 82.069397%)" offset="0.101563"/><stop stop-opacity="1" stop-color="rgb(78.117371%, 79.341125%, 82.052612%)" offset="0.105469"/><stop stop-opacity="1" stop-color="rgb(77.474976%, 78.887939%, 82.035828%)" offset="0.109375"/><stop stop-opacity="1" stop-color="rgb(76.832581%, 78.433228%, 82.019043%)" offset="0.113281"/><stop stop-opacity="1" stop-color="rgb(76.190186%, 77.980042%, 82.003784%)" offset="0.117188"/><stop stop-opacity="1" stop-color="rgb(75.546265%, 77.52533%, 81.987%)" offset="0.121094"/><stop stop-opacity="1" stop-color="rgb(74.90387%, 77.072144%, 81.970215%)" offset="0.125"/><stop stop-opacity="1" stop-color="rgb(74.259949%, 76.617432%, 81.95343%)" offset="0.128906"/><stop stop-opacity="1" stop-color="rgb(73.617554%, 76.164246%, 81.938171%)" offset="0.132812"/><stop stop-opacity="1" stop-color="rgb(72.973633%, 75.709534%, 81.921387%)" offset="0.136719"/><stop stop-opacity="1" stop-color="rgb(72.331238%, 75.254822%, 81.906128%)" offset="0.140625"/><stop stop-opacity="1" stop-color="rgb(71.687317%, 74.80011%, 81.889343%)" offset="0.144531"/><stop stop-opacity="1" stop-color="rgb(71.044922%, 74.346924%, 81.872559%)" offset="0.148438"/><stop stop-opacity="1" stop-color="rgb(70.401001%, 73.892212%, 81.855774%)" offset="0.152344"/><stop stop-opacity="1" stop-color="rgb(69.758606%, 73.439026%, 81.840515%)" offset="0.15625"/><stop stop-opacity="1" stop-color="rgb(69.114685%, 72.984314%, 81.82373%)" offset="0.160156"/><stop stop-opacity="1" stop-color="rgb(68.47229%, 72.531128%, 81.808472%)" offset="0.164062"/><stop stop-opacity="1" stop-color="rgb(67.828369%, 72.076416%, 81.791687%)" offset="0.167969"/><stop stop-opacity="1" stop-color="rgb(67.185974%, 71.62323%, 81.774902%)" offset="0.171875"/><stop stop-opacity="1" stop-color="rgb(66.542053%, 71.168518%, 81.758118%)" offset="0.175781"/><stop stop-opacity="1" stop-color="rgb(65.899658%, 70.715332%, 81.742859%)" offset="0.179688"/><stop stop-opacity="1" stop-color="rgb(65.257263%, 70.26062%, 81.726074%)" offset="0.183594"/><stop stop-opacity="1" stop-color="rgb(64.614868%, 69.807434%, 81.710815%)" offset="0.1875"/><stop stop-opacity="1" stop-color="rgb(63.970947%, 69.352722%, 81.694031%)" offset="0.191406"/><stop stop-opacity="1" stop-color="rgb(63.328552%, 68.899536%, 81.677246%)" offset="0.195312"/><stop stop-opacity="1" stop-color="rgb(62.684631%, 68.444824%, 81.660461%)" offset="0.199219"/><stop stop-opacity="1" stop-color="rgb(62.042236%, 67.991638%, 81.645203%)" offset="0.203125"/><stop stop-opacity="1" stop-color="rgb(61.398315%, 67.536926%, 81.628418%)" offset="0.207031"/><stop stop-opacity="1" stop-color="rgb(60.75592%, 67.08374%, 81.611633%)" offset="0.210938"/><stop stop-opacity="1" stop-color="rgb(60.112%, 66.629028%, 81.594849%)" offset="0.214844"/><stop stop-opacity="1" stop-color="rgb(59.469604%, 66.175842%, 81.57959%)" offset="0.21875"/><stop stop-opacity="1" stop-color="rgb(58.825684%, 65.72113%, 81.562805%)" offset="0.222656"/><stop stop-opacity="1" stop-color="rgb(58.183289%, 65.267944%, 81.547546%)" offset="0.226562"/><stop stop-opacity="1" stop-color="rgb(57.539368%, 64.813232%, 81.530762%)" offset="0.230469"/><stop stop-opacity="1" stop-color="rgb(56.896973%, 64.360046%, 81.513977%)" offset="0.234375"/><stop stop-opacity="1" stop-color="rgb(56.253052%, 63.905334%, 81.497192%)" offset="0.238281"/><stop stop-opacity="1" stop-color="rgb(55.610657%, 63.452148%, 81.481934%)" offset="0.242188"/><stop stop-opacity="1" stop-color="rgb(54.966736%, 62.997437%, 81.465149%)" offset="0.246094"/><stop stop-opacity="1" stop-color="rgb(54.324341%, 62.54425%, 81.44989%)" offset="0.25"/><stop stop-opacity="1" stop-color="rgb(53.681946%, 62.089539%, 81.433105%)" offset="0.253906"/><stop stop-opacity="1" stop-color="rgb(53.039551%, 61.636353%, 81.416321%)" offset="0.257812"/><stop stop-opacity="1" stop-color="rgb(52.39563%, 61.181641%, 81.399536%)" offset="0.261719"/><stop stop-opacity="1" stop-color="rgb(51.753235%, 60.728455%, 81.384277%)" offset="0.265625"/><stop stop-opacity="1" stop-color="rgb(51.109314%, 60.273743%, 81.367493%)" offset="0.269531"/><stop stop-opacity="1" stop-color="rgb(50.466919%, 59.820557%, 81.352234%)" offset="0.273438"/><stop stop-opacity="1" stop-color="rgb(49.822998%, 59.365845%, 81.335449%)" offset="0.277344"/><stop stop-opacity="1" stop-color="rgb(49.180603%, 58.912659%, 81.318665%)" offset="0.28125"/><stop stop-opacity="1" stop-color="rgb(48.536682%, 58.457947%, 81.30188%)" offset="0.285156"/><stop stop-opacity="1" stop-color="rgb(47.894287%, 58.004761%, 81.286621%)" offset="0.289062"/><stop stop-opacity="1" stop-color="rgb(47.250366%, 57.550049%, 81.269836%)" offset="0.292969"/><stop stop-opacity="1" stop-color="rgb(46.607971%, 57.096863%, 81.253052%)" offset="0.296875"/><stop stop-opacity="1" stop-color="rgb(45.96405%, 56.642151%, 81.236267%)" offset="0.300781"/><stop stop-opacity="1" stop-color="rgb(45.321655%, 56.188965%, 81.221008%)" offset="0.304688"/><stop stop-opacity="1" stop-color="rgb(44.677734%, 55.734253%, 81.204224%)" offset="0.308594"/><stop stop-opacity="1" stop-color="rgb(44.035339%, 55.281067%, 81.188965%)" offset="0.3125"/><stop stop-opacity="1" stop-color="rgb(43.392944%, 54.826355%, 81.17218%)" offset="0.316406"/><stop stop-opacity="1" stop-color="rgb(42.750549%, 54.373169%, 81.155396%)" offset="0.320312"/><stop stop-opacity="1" stop-color="rgb(42.106628%, 53.918457%, 81.138611%)" offset="0.324219"/><stop stop-opacity="1" stop-color="rgb(41.464233%, 53.463745%, 81.123352%)" offset="0.328125"/><stop stop-opacity="1" stop-color="rgb(40.820312%, 53.009033%, 81.106567%)" offset="0.332031"/><stop stop-opacity="1" stop-color="rgb(40.177917%, 52.555847%, 81.091309%)" offset="0.335938"/><stop stop-opacity="1" stop-color="rgb(39.533997%, 52.101135%, 81.074524%)" offset="0.339844"/><stop stop-opacity="1" stop-color="rgb(38.891602%, 51.647949%, 81.057739%)" offset="0.34375"/><stop stop-opacity="1" stop-color="rgb(38.247681%, 51.193237%, 81.040955%)" offset="0.347656"/><stop stop-opacity="1" stop-color="rgb(37.605286%, 50.740051%, 81.025696%)" offset="0.351562"/><stop stop-opacity="1" stop-color="rgb(36.961365%, 50.285339%, 81.008911%)" offset="0.355469"/><stop stop-opacity="1" stop-color="rgb(36.31897%, 49.832153%, 80.993652%)" offset="0.359375"/><stop stop-opacity="1" stop-color="rgb(35.675049%, 49.377441%, 80.976868%)" offset="0.363281"/><stop stop-opacity="1" stop-color="rgb(35.032654%, 48.924255%, 80.960083%)" offset="0.367188"/><stop stop-opacity="1" stop-color="rgb(34.388733%, 48.469543%, 80.943298%)" offset="0.371094"/><stop stop-opacity="1" stop-color="rgb(33.746338%, 48.016357%, 80.92804%)" offset="0.375"/><stop stop-opacity="1" stop-color="rgb(33.102417%, 47.561646%, 80.911255%)" offset="0.378906"/><stop stop-opacity="1" stop-color="rgb(32.460022%, 47.108459%, 80.89447%)" offset="0.382812"/><stop stop-opacity="1" stop-color="rgb(31.817627%, 46.653748%, 80.877686%)" offset="0.386719"/><stop stop-opacity="1" stop-color="rgb(31.175232%, 46.200562%, 80.862427%)" offset="0.390625"/><stop stop-opacity="1" stop-color="rgb(30.531311%, 45.74585%, 80.845642%)" offset="0.394531"/><stop stop-opacity="1" stop-color="rgb(29.888916%, 45.292664%, 80.830383%)" offset="0.398438"/><stop stop-opacity="1" stop-color="rgb(29.244995%, 44.837952%, 80.813599%)" offset="0.402344"/><stop stop-opacity="1" stop-color="rgb(28.6026%, 44.384766%, 80.796814%)" offset="0.40625"/><stop stop-opacity="1" stop-color="rgb(27.958679%, 43.930054%, 80.780029%)" offset="0.410156"/><stop stop-opacity="1" stop-color="rgb(27.316284%, 43.476868%, 80.764771%)" offset="0.414062"/><stop stop-opacity="1" stop-color="rgb(26.672363%, 43.022156%, 80.747986%)" offset="0.417969"/><stop stop-opacity="1" stop-color="rgb(26.029968%, 42.56897%, 80.732727%)" offset="0.421875"/><stop stop-opacity="1" stop-color="rgb(25.386047%, 42.114258%, 80.715942%)" offset="0.425781"/><stop stop-opacity="1" stop-color="rgb(24.743652%, 41.661072%, 80.699158%)" offset="0.429688"/><stop stop-opacity="1" stop-color="rgb(24.099731%, 41.20636%, 80.682373%)" offset="0.433594"/><stop stop-opacity="1" stop-color="rgb(23.457336%, 40.753174%, 80.667114%)" offset="0.4375"/><stop stop-opacity="1" stop-color="rgb(22.813416%, 40.298462%, 80.65033%)" offset="0.441406"/><stop stop-opacity="1" stop-color="rgb(22.171021%, 39.845276%, 80.633545%)" offset="0.445312"/><stop stop-opacity="1" stop-color="rgb(21.5271%, 39.390564%, 80.61676%)" offset="0.449219"/><stop stop-opacity="1" stop-color="rgb(20.884705%, 38.937378%, 80.601501%)" offset="0.453125"/><stop stop-opacity="1" stop-color="rgb(20.24231%, 38.482666%, 80.584717%)" offset="0.457031"/><stop stop-opacity="1" stop-color="rgb(19.599915%, 38.02948%, 80.569458%)" offset="0.460938"/><stop stop-opacity="1" stop-color="rgb(18.955994%, 37.574768%, 80.552673%)" offset="0.464844"/><stop stop-opacity="1" stop-color="rgb(18.313599%, 37.121582%, 80.535889%)" offset="0.46875"/><stop stop-opacity="1" stop-color="rgb(17.669678%, 36.66687%, 80.519104%)" offset="0.472656"/><stop stop-opacity="1" stop-color="rgb(17.027283%, 36.213684%, 80.503845%)" offset="0.476563"/><stop stop-opacity="1" stop-color="rgb(16.383362%, 35.758972%, 80.487061%)" offset="0.480469"/><stop stop-opacity="1" stop-color="rgb(15.740967%, 35.305786%, 80.471802%)" offset="0.484375"/><stop stop-opacity="1" stop-color="rgb(15.097046%, 34.851074%, 80.455017%)" offset="0.488281"/><stop stop-opacity="1" stop-color="rgb(14.454651%, 34.397888%, 80.438232%)" offset="0.492187"/><stop stop-opacity="1" stop-color="rgb(13.81073%, 33.943176%, 80.421448%)" offset="0.496094"/><stop stop-opacity="1" stop-color="rgb(13.168335%, 33.48999%, 80.406189%)" offset="0.5"/><stop stop-opacity="1" stop-color="rgb(13.591003%, 33.787537%, 80.41687%)" offset="0.503906"/><stop stop-opacity="1" stop-color="rgb(14.013672%, 34.086609%, 80.427551%)" offset="0.507812"/><stop stop-opacity="1" stop-color="rgb(14.718628%, 34.584045%, 80.444336%)" offset="0.511719"/><stop stop-opacity="1" stop-color="rgb(15.42511%, 35.081482%, 80.462646%)" offset="0.515625"/><stop stop-opacity="1" stop-color="rgb(16.130066%, 35.578918%, 80.480957%)" offset="0.519531"/><stop stop-opacity="1" stop-color="rgb(16.835022%, 36.077881%, 80.499268%)" offset="0.523438"/><stop stop-opacity="1" stop-color="rgb(17.539978%, 36.575317%, 80.516052%)" offset="0.527344"/><stop stop-opacity="1" stop-color="rgb(18.244934%, 37.072754%, 80.534363%)" offset="0.53125"/><stop stop-opacity="1" stop-color="rgb(18.94989%, 37.57019%, 80.552673%)" offset="0.535156"/><stop stop-opacity="1" stop-color="rgb(19.654846%, 38.069153%, 80.570984%)" offset="0.539062"/><stop stop-opacity="1" stop-color="rgb(20.359802%, 38.566589%, 80.587769%)" offset="0.542969"/><stop stop-opacity="1" stop-color="rgb(21.064758%, 39.064026%, 80.606079%)" offset="0.546875"/><stop stop-opacity="1" stop-color="rgb(21.769714%, 39.561462%, 80.62439%)" offset="0.550781"/><stop stop-opacity="1" stop-color="rgb(22.47467%, 40.058899%, 80.6427%)" offset="0.554688"/><stop stop-opacity="1" stop-color="rgb(23.179626%, 40.556335%, 80.659485%)" offset="0.558594"/><stop stop-opacity="1" stop-color="rgb(23.886108%, 41.055298%, 80.677795%)" offset="0.5625"/><stop stop-opacity="1" stop-color="rgb(24.591064%, 41.552734%, 80.69458%)" offset="0.566406"/><stop stop-opacity="1" stop-color="rgb(25.296021%, 42.050171%, 80.712891%)" offset="0.570312"/><stop stop-opacity="1" stop-color="rgb(26.000977%, 42.547607%, 80.731201%)" offset="0.574219"/><stop stop-opacity="1" stop-color="rgb(26.705933%, 43.04657%, 80.749512%)" offset="0.578125"/><stop stop-opacity="1" stop-color="rgb(27.410889%, 43.544006%, 80.766296%)" offset="0.582031"/><stop stop-opacity="1" stop-color="rgb(28.115845%, 44.041443%, 80.784607%)" offset="0.585938"/><stop stop-opacity="1" stop-color="rgb(28.820801%, 44.538879%, 80.802917%)" offset="0.589844"/><stop stop-opacity="1" stop-color="rgb(29.525757%, 45.037842%, 80.821228%)" offset="0.59375"/><stop stop-opacity="1" stop-color="rgb(30.230713%, 45.535278%, 80.838013%)" offset="0.597656"/><stop stop-opacity="1" stop-color="rgb(30.935669%, 46.032715%, 80.856323%)" offset="0.601562"/><stop stop-opacity="1" stop-color="rgb(31.640625%, 46.530151%, 80.874634%)" offset="0.605469"/><stop stop-opacity="1" stop-color="rgb(32.347107%, 47.027588%, 80.892944%)" offset="0.609375"/><stop stop-opacity="1" stop-color="rgb(33.052063%, 47.525024%, 80.909729%)" offset="0.613281"/><stop stop-opacity="1" stop-color="rgb(33.757019%, 48.023987%, 80.92804%)" offset="0.617188"/><stop stop-opacity="1" stop-color="rgb(34.461975%, 48.521423%, 80.944824%)" offset="0.621094"/><stop stop-opacity="1" stop-color="rgb(35.166931%, 49.01886%, 80.963135%)" offset="0.625"/><stop stop-opacity="1" stop-color="rgb(35.871887%, 49.516296%, 80.981445%)" offset="0.628906"/><stop stop-opacity="1" stop-color="rgb(36.576843%, 50.015259%, 80.999756%)" offset="0.632812"/><stop stop-opacity="1" stop-color="rgb(37.281799%, 50.512695%, 81.016541%)" offset="0.636719"/><stop stop-opacity="1" stop-color="rgb(37.986755%, 51.010132%, 81.034851%)" offset="0.640625"/><stop stop-opacity="1" stop-color="rgb(38.691711%, 51.507568%, 81.053162%)" offset="0.644531"/><stop stop-opacity="1" stop-color="rgb(39.396667%, 52.005005%, 81.071472%)" offset="0.648438"/><stop stop-opacity="1" stop-color="rgb(40.101624%, 52.502441%, 81.088257%)" offset="0.652344"/><stop stop-opacity="1" stop-color="rgb(40.808105%, 53.001404%, 81.106567%)" offset="0.65625"/><stop stop-opacity="1" stop-color="rgb(41.513062%, 53.49884%, 81.123352%)" offset="0.660156"/><stop stop-opacity="1" stop-color="rgb(42.218018%, 53.996277%, 81.141663%)" offset="0.664062"/><stop stop-opacity="1" stop-color="rgb(42.922974%, 54.493713%, 81.159973%)" offset="0.667969"/><stop stop-opacity="1" stop-color="rgb(43.62793%, 54.992676%, 81.178284%)" offset="0.671875"/><stop stop-opacity="1" stop-color="rgb(44.332886%, 55.490112%, 81.195068%)" offset="0.675781"/><stop stop-opacity="1" stop-color="rgb(45.037842%, 55.987549%, 81.213379%)" offset="0.679688"/><stop stop-opacity="1" stop-color="rgb(45.742798%, 56.484985%, 81.231689%)" offset="0.683594"/><stop stop-opacity="1" stop-color="rgb(46.447754%, 56.983948%, 81.25%)" offset="0.6875"/><stop stop-opacity="1" stop-color="rgb(47.15271%, 57.481384%, 81.266785%)" offset="0.691406"/><stop stop-opacity="1" stop-color="rgb(47.857666%, 57.978821%, 81.285095%)" offset="0.695312"/><stop stop-opacity="1" stop-color="rgb(48.562622%, 58.476257%, 81.303406%)" offset="0.699219"/><stop stop-opacity="1" stop-color="rgb(49.269104%, 58.973694%, 81.321716%)" offset="0.703125"/><stop stop-opacity="1" stop-color="rgb(49.97406%, 59.47113%, 81.338501%)" offset="0.707031"/><stop stop-opacity="1" stop-color="rgb(50.679016%, 59.970093%, 81.356812%)" offset="0.710938"/><stop stop-opacity="1" stop-color="rgb(51.383972%, 60.467529%, 81.373596%)" offset="0.714844"/><stop stop-opacity="1" stop-color="rgb(52.088928%, 60.964966%, 81.391907%)" offset="0.71875"/><stop stop-opacity="1" stop-color="rgb(52.793884%, 61.462402%, 81.410217%)" offset="0.722656"/><stop stop-opacity="1" stop-color="rgb(53.49884%, 61.961365%, 81.428528%)" offset="0.726562"/><stop stop-opacity="1" stop-color="rgb(54.203796%, 62.458801%, 81.445312%)" offset="0.730469"/><stop stop-opacity="1" stop-color="rgb(54.908752%, 62.956238%, 81.463623%)" offset="0.734375"/><stop stop-opacity="1" stop-color="rgb(55.613708%, 63.453674%, 81.481934%)" offset="0.738281"/><stop stop-opacity="1" stop-color="rgb(56.318665%, 63.952637%, 81.500244%)" offset="0.742188"/><stop stop-opacity="1" stop-color="rgb(57.023621%, 64.450073%, 81.517029%)" offset="0.746094"/><stop stop-opacity="1" stop-color="rgb(57.730103%, 64.94751%, 81.535339%)" offset="0.75"/><stop stop-opacity="1" stop-color="rgb(58.435059%, 65.444946%, 81.55365%)" offset="0.753906"/><stop stop-opacity="1" stop-color="rgb(59.140015%, 65.942383%, 81.57196%)" offset="0.757812"/><stop stop-opacity="1" stop-color="rgb(59.844971%, 66.439819%, 81.588745%)" offset="0.761719"/><stop stop-opacity="1" stop-color="rgb(60.549927%, 66.938782%, 81.607056%)" offset="0.765625"/><stop stop-opacity="1" stop-color="rgb(61.254883%, 67.436218%, 81.62384%)" offset="0.769531"/><stop stop-opacity="1" stop-color="rgb(61.959839%, 67.933655%, 81.642151%)" offset="0.773438"/><stop stop-opacity="1" stop-color="rgb(62.664795%, 68.431091%, 81.660461%)" offset="0.777344"/><stop stop-opacity="1" stop-color="rgb(63.369751%, 68.930054%, 81.678772%)" offset="0.78125"/><stop stop-opacity="1" stop-color="rgb(64.074707%, 69.42749%, 81.695557%)" offset="0.785156"/><stop stop-opacity="1" stop-color="rgb(64.781189%, 69.924927%, 81.713867%)" offset="0.789062"/><stop stop-opacity="1" stop-color="rgb(65.486145%, 70.422363%, 81.732178%)" offset="0.792969"/><stop stop-opacity="1" stop-color="rgb(66.191101%, 70.921326%, 81.750488%)" offset="0.796875"/><stop stop-opacity="1" stop-color="rgb(66.896057%, 71.418762%, 81.767273%)" offset="0.800781"/><stop stop-opacity="1" stop-color="rgb(67.601013%, 71.916199%, 81.785583%)" offset="0.804688"/><stop stop-opacity="1" stop-color="rgb(68.305969%, 72.413635%, 81.803894%)" offset="0.808594"/><stop stop-opacity="1" stop-color="rgb(69.010925%, 72.911072%, 81.822205%)" offset="0.8125"/><stop stop-opacity="1" stop-color="rgb(69.715881%, 73.408508%, 81.838989%)" offset="0.816406"/><stop stop-opacity="1" stop-color="rgb(70.420837%, 73.907471%, 81.8573%)" offset="0.820312"/><stop stop-opacity="1" stop-color="rgb(71.125793%, 74.404907%, 81.874084%)" offset="0.824219"/><stop stop-opacity="1" stop-color="rgb(71.83075%, 74.902344%, 81.892395%)" offset="0.828125"/><stop stop-opacity="1" stop-color="rgb(72.535706%, 75.39978%, 81.910706%)" offset="0.832031"/><stop stop-opacity="1" stop-color="rgb(73.242188%, 75.898743%, 81.929016%)" offset="0.835938"/><stop stop-opacity="1" stop-color="rgb(73.947144%, 76.396179%, 81.945801%)" offset="0.839844"/><stop stop-opacity="1" stop-color="rgb(74.6521%, 76.893616%, 81.964111%)" offset="0.84375"/><stop stop-opacity="1" stop-color="rgb(75.357056%, 77.391052%, 81.982422%)" offset="0.847656"/><stop stop-opacity="1" stop-color="rgb(76.062012%, 77.890015%, 82.000732%)" offset="0.851562"/><stop stop-opacity="1" stop-color="rgb(76.766968%, 78.387451%, 82.017517%)" offset="0.855469"/><stop stop-opacity="1" stop-color="rgb(77.471924%, 78.884888%, 82.035828%)" offset="0.859375"/><stop stop-opacity="1" stop-color="rgb(78.17688%, 79.382324%, 82.054138%)" offset="0.863281"/><stop stop-opacity="1" stop-color="rgb(78.881836%, 79.879761%, 82.072449%)" offset="0.867188"/><stop stop-opacity="1" stop-color="rgb(79.586792%, 80.377197%, 82.089233%)" offset="0.871094"/><stop stop-opacity="1" stop-color="rgb(80.291748%, 80.87616%, 82.107544%)" offset="0.875"/><stop stop-opacity="1" stop-color="rgb(80.996704%, 81.373596%, 82.124329%)" offset="0.878906"/><stop stop-opacity="1" stop-color="rgb(81.703186%, 81.871033%, 82.142639%)" offset="0.882812"/><stop stop-opacity="1" stop-color="rgb(82.408142%, 82.368469%, 82.16095%)" offset="0.886719"/><stop stop-opacity="1" stop-color="rgb(83.113098%, 82.867432%, 82.17926%)" offset="0.890625"/><stop stop-opacity="1" stop-color="rgb(83.818054%, 83.364868%, 82.196045%)" offset="0.894531"/><stop stop-opacity="1" stop-color="rgb(84.52301%, 83.862305%, 82.214355%)" offset="0.898438"/><stop stop-opacity="1" stop-color="rgb(85.227966%, 84.359741%, 82.232666%)" offset="0.902344"/><stop stop-opacity="1" stop-color="rgb(85.932922%, 84.858704%, 82.250977%)" offset="0.90625"/><stop stop-opacity="1" stop-color="rgb(86.637878%, 85.35614%, 82.267761%)" offset="0.910156"/><stop stop-opacity="1" stop-color="rgb(87.342834%, 85.853577%, 82.286072%)" offset="0.914062"/><stop stop-opacity="1" stop-color="rgb(88.047791%, 86.351013%, 82.304382%)" offset="0.917969"/><stop stop-opacity="1" stop-color="rgb(88.752747%, 86.84845%, 82.322693%)" offset="0.921875"/><stop stop-opacity="1" stop-color="rgb(89.457703%, 87.345886%, 82.339478%)" offset="0.925781"/><stop stop-opacity="1" stop-color="rgb(90.164185%, 87.844849%, 82.357788%)" offset="0.929688"/><stop stop-opacity="1" stop-color="rgb(90.869141%, 88.342285%, 82.374573%)" offset="0.933594"/><stop stop-opacity="1" stop-color="rgb(91.574097%, 88.839722%, 82.392883%)" offset="0.9375"/><stop stop-opacity="1" stop-color="rgb(91.687012%, 88.919067%, 82.395935%)" offset="1"/></linearGradient></defs><g clip-path="url(#93b1b0d2e9)"><g clip-path="url(#a8ee915a23)"><path fill="url(#7f754ff6cc)" d="M 1.460938 0.015625 L 1.460938 29.019531 L 28.316406 29.019531 L 28.316406 0.015625 Z M 1.460938 0.015625 " fill-rule="nonzero"/></g></g></svg>