<svg xmlns="http://www.w3.org/2000/svg" xmlns:xlink="http://www.w3.org/1999/xlink" width="40" zoomAndPan="magnify" viewBox="0 0 30 30.000001" height="40" preserveAspectRatio="xMidYMid meet" version="1.0"><defs><clipPath id="a2e367ad9d"><path d="M 0.484375 0 L 29.515625 0 L 29.515625 29.03125 L 0.484375 29.03125 Z M 0.484375 0 " clip-rule="nonzero"/></clipPath><clipPath id="6976cb4b81"><path d="M 27.730469 21.375 C 28.234375 20.851562 28.546875 20.136719 28.546875 19.355469 C 28.546875 17.753906 27.246094 16.453125 25.644531 16.453125 C 24.042969 16.453125 22.742188 17.753906 22.742188 19.355469 C 22.742188 20.136719 23.054688 20.851562 23.5625 21.375 C 22.535156 21.648438 21.773438 22.589844 21.773438 23.703125 L 21.773438 27.515625 C 21.773438 28.351562 22.453125 29.03125 23.292969 29.03125 L 28 29.03125 C 28.835938 29.03125 29.515625 28.351562 29.515625 27.515625 L 29.515625 23.703125 C 29.515625 22.589844 28.757812 21.648438 27.730469 21.375 Z M 25.644531 23.507812 L 24.394531 22.257812 L 26.894531 22.257812 Z M 25.644531 17.417969 C 26.710938 17.417969 27.582031 18.289062 27.582031 19.355469 C 27.582031 20.421875 26.710938 21.289062 25.644531 21.289062 C 24.578125 21.289062 23.710938 20.421875 23.710938 19.355469 C 23.710938 18.289062 24.578125 17.417969 25.644531 17.417969 Z M 22.742188 27.515625 L 22.742188 23.703125 C 22.742188 23.230469 22.96875 22.8125 23.320312 22.546875 C 23.335938 22.566406 23.351562 22.582031 23.367188 22.601562 L 25.160156 24.394531 L 25.160156 28.066406 L 23.292969 28.066406 C 22.988281 28.066406 22.742188 27.816406 22.742188 27.515625 Z M 28.546875 27.515625 C 28.546875 27.816406 28.300781 28.066406 28 28.066406 L 26.128906 28.066406 L 26.128906 24.394531 L 27.921875 22.601562 C 27.941406 22.582031 27.953125 22.566406 27.96875 22.546875 C 28.320312 22.8125 28.546875 23.230469 28.546875 23.703125 Z M 6.4375 21.375 C 6.945312 20.851562 7.257812 20.136719 7.257812 19.355469 C 7.257812 17.753906 5.957031 16.453125 4.355469 16.453125 C 2.753906 16.453125 1.453125 17.753906 1.453125 19.355469 C 1.453125 20.136719 1.765625 20.851562 2.269531 21.375 C 1.242188 21.648438 0.484375 22.589844 0.484375 23.703125 L 0.484375 27.515625 C 0.484375 28.351562 1.164062 29.03125 2 29.03125 L 6.707031 29.03125 C 7.546875 29.03125 8.226562 28.351562 8.226562 27.515625 L 8.226562 23.703125 C 8.226562 22.589844 7.464844 21.648438 6.4375 21.375 Z M 4.355469 23.507812 L 3.105469 22.257812 L 5.605469 22.257812 Z M 4.355469 17.417969 C 5.421875 17.417969 6.289062 18.289062 6.289062 19.355469 C 6.289062 20.421875 5.421875 21.289062 4.355469 21.289062 C 3.289062 21.289062 2.417969 20.421875 2.417969 19.355469 C 2.417969 18.289062 3.289062 17.417969 4.355469 17.417969 Z M 1.453125 27.515625 L 1.453125 23.703125 C 1.453125 23.230469 1.679688 22.8125 2.03125 22.546875 C 2.046875 22.566406 2.058594 22.582031 2.078125 22.601562 L 3.871094 24.394531 L 3.871094 28.066406 L 2 28.066406 C 1.699219 28.066406 1.453125 27.816406 1.453125 27.515625 Z M 7.257812 27.515625 C 7.257812 27.816406 7.011719 28.066406 6.707031 28.066406 L 4.839844 28.066406 L 4.839844 24.394531 L 6.632812 22.601562 C 6.648438 22.582031 6.664062 22.566406 6.679688 22.546875 C 7.03125 22.8125 7.257812 23.230469 7.257812 23.703125 Z M 20.746094 25.027344 C 20.875 25.261719 20.789062 25.558594 20.554688 25.683594 C 18.933594 26.570312 17.167969 27.042969 15.308594 27.09375 C 15.207031 27.09375 15.101562 27.097656 15 27.097656 C 13.058594 27.097656 11.144531 26.609375 9.445312 25.683594 C 9.210938 25.554688 9.125 25.261719 9.253906 25.027344 C 9.378906 24.792969 9.675781 24.707031 9.910156 24.835938 C 11.546875 25.730469 13.40625 26.175781 15.28125 26.125 C 16.988281 26.078125 18.605469 25.644531 20.089844 24.835938 C 20.324219 24.707031 20.621094 24.792969 20.746094 25.027344 Z M 3.386719 15.519531 C 3.371094 10.933594 6.066406 6.757812 10.257812 4.882812 C 10.5 4.773438 10.785156 4.878906 10.894531 5.125 C 11.003906 5.367188 10.894531 5.65625 10.652344 5.765625 C 6.8125 7.484375 4.339844 11.3125 4.355469 15.515625 C 4.355469 15.78125 4.140625 16 3.871094 16 C 3.605469 16 3.386719 15.785156 3.386719 15.519531 Z M 19.105469 5.125 C 19.214844 4.882812 19.5 4.773438 19.742188 4.882812 C 23.933594 6.757812 26.628906 10.933594 26.613281 15.519531 C 26.613281 15.785156 26.394531 16 26.128906 16 C 25.859375 16 25.644531 15.78125 25.644531 15.515625 C 25.660156 11.3125 23.1875 7.484375 19.347656 5.765625 C 19.105469 5.65625 18.996094 5.367188 19.105469 5.125 Z M 21.773438 18.929688 L 21.773438 16.390625 C 21.773438 15.625 21.148438 15 20.382812 15 L 19.839844 15 L 19.839844 14.457031 C 19.839844 13.6875 19.214844 13.066406 18.449219 13.066406 L 15.382812 13.066406 L 14.964844 12.582031 L 17.351562 12.582031 C 18.191406 12.582031 18.871094 11.898438 18.871094 11.0625 L 18.871094 7.253906 C 18.871094 6.136719 18.113281 5.199219 17.082031 4.921875 C 17.589844 4.398438 17.902344 3.6875 17.902344 2.902344 C 17.902344 1.300781 16.601562 0 15 0 C 13.398438 0 12.097656 1.300781 12.097656 2.902344 C 12.097656 3.6875 12.410156 4.398438 12.917969 4.921875 C 11.886719 5.199219 11.128906 6.136719 11.128906 7.253906 L 11.128906 11.0625 C 11.128906 11.894531 11.800781 12.570312 12.628906 12.582031 L 12.644531 13.109375 C 12.050781 13.269531 11.613281 13.8125 11.613281 14.457031 L 11.613281 15.96875 L 9.617188 15.96875 C 8.851562 15.96875 8.226562 16.59375 8.226562 17.359375 L 8.226562 19.898438 C 8.226562 20.507812 8.621094 21.027344 9.164062 21.214844 L 8.722656 23.117188 C 8.675781 23.324219 8.765625 23.539062 8.953125 23.644531 C 9.027344 23.6875 9.109375 23.710938 9.195312 23.710938 C 9.3125 23.710938 9.433594 23.664062 9.523438 23.578125 L 11.964844 21.289062 L 15.058594 21.289062 C 15.679688 21.289062 16.207031 20.882812 16.386719 20.324219 L 18.035156 20.324219 L 20.476562 22.609375 C 20.566406 22.699219 20.6875 22.742188 20.804688 22.742188 C 20.890625 22.742188 20.972656 22.71875 21.046875 22.675781 C 21.234375 22.570312 21.324219 22.355469 21.277344 22.148438 L 20.835938 20.246094 C 21.378906 20.058594 21.773438 19.539062 21.773438 18.929688 Z M 16.457031 5.804688 C 16.542969 5.804688 16.628906 5.816406 16.710938 5.828125 L 15 7.542969 L 13.289062 5.828125 C 13.371094 5.816406 13.457031 5.804688 13.542969 5.804688 Z M 17.902344 11.0625 C 17.902344 11.367188 17.65625 11.613281 17.351562 11.613281 L 15.484375 11.613281 L 15.484375 8.425781 L 17.574219 6.335938 C 17.78125 6.585938 17.902344 6.90625 17.902344 7.253906 Z M 15 0.96875 C 16.066406 0.96875 16.933594 1.835938 16.933594 2.902344 C 16.933594 3.96875 16.066406 4.839844 15 4.839844 C 13.933594 4.839844 13.066406 3.96875 13.066406 2.902344 C 13.066406 1.835938 13.933594 0.96875 15 0.96875 Z M 12.097656 11.0625 L 12.097656 7.253906 C 12.097656 6.90625 12.21875 6.585938 12.425781 6.335938 L 14.515625 8.425781 L 14.515625 11.613281 L 14.125 11.613281 L 13.429688 10.8125 C 13.296875 10.65625 13.078125 10.605469 12.886719 10.679688 C 12.695312 10.753906 12.574219 10.941406 12.582031 11.144531 L 12.597656 11.609375 C 12.316406 11.585938 12.097656 11.347656 12.097656 11.0625 Z M 12.582031 14.457031 C 12.582031 14.222656 12.769531 14.03125 13.003906 14.03125 L 13.144531 14.03125 C 13.277344 14.03125 13.402344 13.980469 13.492188 13.886719 C 13.585938 13.789062 13.632812 13.664062 13.628906 13.53125 L 13.59375 12.476562 L 14.796875 13.867188 C 14.886719 13.972656 15.019531 14.03125 15.160156 14.03125 L 18.449219 14.03125 C 18.679688 14.03125 18.871094 14.222656 18.871094 14.457031 L 18.871094 16.996094 C 18.871094 17.230469 18.679688 17.417969 18.449219 17.417969 L 13.003906 17.417969 C 12.769531 17.417969 12.582031 17.230469 12.582031 16.996094 Z M 15.058594 20.324219 L 11.773438 20.324219 C 11.652344 20.324219 11.53125 20.371094 11.441406 20.453125 L 10.027344 21.78125 L 10.230469 20.917969 C 10.261719 20.773438 10.230469 20.621094 10.136719 20.503906 C 10.046875 20.390625 9.90625 20.324219 9.757812 20.324219 L 9.617188 20.324219 C 9.382812 20.324219 9.195312 20.132812 9.195312 19.898438 L 9.195312 17.359375 C 9.195312 17.125 9.382812 16.933594 9.617188 16.933594 L 11.613281 16.933594 L 11.613281 16.996094 C 11.613281 17.761719 12.238281 18.386719 13.003906 18.386719 L 15.484375 18.386719 L 15.484375 19.898438 C 15.484375 20.132812 15.292969 20.324219 15.058594 20.324219 Z M 20.804688 18.929688 C 20.804688 19.164062 20.617188 19.355469 20.382812 19.355469 L 20.242188 19.355469 C 20.09375 19.355469 19.953125 19.421875 19.863281 19.539062 C 19.769531 19.652344 19.738281 19.804688 19.769531 19.949219 L 19.972656 20.8125 L 18.558594 19.484375 C 18.46875 19.402344 18.347656 19.355469 18.226562 19.355469 L 16.453125 19.355469 L 16.453125 18.386719 L 18.449219 18.386719 C 19.214844 18.386719 19.839844 17.761719 19.839844 16.996094 L 19.839844 15.96875 L 20.382812 15.96875 C 20.617188 15.96875 20.804688 16.15625 20.804688 16.390625 Z M 9.675781 17.902344 C 9.675781 17.636719 9.894531 17.417969 10.160156 17.417969 L 11.128906 17.417969 C 11.394531 17.417969 11.613281 17.636719 11.613281 17.902344 C 11.613281 18.171875 11.394531 18.386719 11.128906 18.386719 L 10.160156 18.386719 C 9.894531 18.386719 9.675781 18.171875 9.675781 17.902344 Z M 15 19.355469 C 15 19.621094 14.785156 19.839844 14.515625 19.839844 L 10.160156 19.839844 C 9.894531 19.839844 9.675781 19.621094 9.675781 19.355469 C 9.675781 19.085938 9.894531 18.871094 10.160156 18.871094 L 14.515625 18.871094 C 14.785156 18.871094 15 19.085938 15 19.355469 Z M 15 15 C 15 14.734375 15.214844 14.515625 15.484375 14.515625 L 17.902344 14.515625 C 18.171875 14.515625 18.386719 14.734375 18.386719 15 C 18.386719 15.265625 18.171875 15.484375 17.902344 15.484375 L 15.484375 15.484375 C 15.214844 15.484375 15 15.265625 15 15 Z M 13.066406 16.453125 C 13.066406 16.183594 13.28125 15.96875 13.546875 15.96875 L 17.902344 15.96875 C 18.171875 15.96875 18.386719 16.183594 18.386719 16.453125 C 18.386719 16.71875 18.171875 16.933594 17.902344 16.933594 L 13.546875 16.933594 C 13.28125 16.933594 13.066406 16.71875 13.066406 16.453125 Z M 13.066406 16.453125 " clip-rule="nonzero"/></clipPath><linearGradient x1="67.3585" gradientTransform="matrix(0.0604839, 0, 0, 0.0604839, -0.483871, -0.96774)" y1="547.358482" x2="547.358491" gradientUnits="userSpaceOnUse" y2="67.358514" id="45658f0933"><stop stop-opacity="1" stop-color="rgb(91.799927%, 88.999939%, 82.398987%)" offset="0"/><stop stop-opacity="1" stop-color="rgb(91.767883%, 88.977051%, 82.397461%)" offset="0.015625"/><stop stop-opacity="1" stop-color="rgb(90.933228%, 88.388062%, 82.376099%)" offset="0.0195312"/><stop stop-opacity="1" stop-color="rgb(90.129089%, 87.820435%, 82.356262%)" offset="0.0234375"/><stop stop-opacity="1" stop-color="rgb(89.323425%, 87.251282%, 82.336426%)" offset="0.0273438"/><stop stop-opacity="1" stop-color="rgb(88.519287%, 86.683655%, 82.316589%)" offset="0.03125"/><stop stop-opacity="1" stop-color="rgb(87.713623%, 86.114502%, 82.295227%)" offset="0.0351562"/><stop stop-opacity="1" stop-color="rgb(86.909485%, 85.546875%, 82.275391%)" offset="0.0390625"/><stop stop-opacity="1" stop-color="rgb(86.103821%, 84.979248%, 82.254028%)" offset="0.0429688"/><stop stop-opacity="1" stop-color="rgb(85.299683%, 84.411621%, 82.234192%)" offset="0.046875"/><stop stop-opacity="1" stop-color="rgb(84.494019%, 83.842468%, 82.21283%)" offset="0.0507812"/><stop stop-opacity="1" stop-color="rgb(83.68988%, 83.274841%, 82.192993%)" offset="0.0546875"/><stop stop-opacity="1" stop-color="rgb(82.884216%, 82.705688%, 82.173157%)" offset="0.0585938"/><stop stop-opacity="1" stop-color="rgb(82.080078%, 82.138062%, 82.15332%)" offset="0.0625"/><stop stop-opacity="1" stop-color="rgb(81.27594%, 81.568909%, 82.131958%)" offset="0.0664062"/><stop stop-opacity="1" stop-color="rgb(80.471802%, 81.001282%, 82.112122%)" offset="0.0703125"/><stop stop-opacity="1" stop-color="rgb(79.666138%, 80.433655%, 82.090759%)" offset="0.0742188"/><stop stop-opacity="1" stop-color="rgb(78.862%, 79.866028%, 82.070923%)" offset="0.078125"/><stop stop-opacity="1" stop-color="rgb(78.056335%, 79.296875%, 82.049561%)" offset="0.0820312"/><stop stop-opacity="1" stop-color="rgb(77.252197%, 78.729248%, 82.029724%)" offset="0.0859375"/><stop stop-opacity="1" stop-color="rgb(76.446533%, 78.160095%, 82.009888%)" offset="0.0898438"/><stop stop-opacity="1" stop-color="rgb(75.642395%, 77.592468%, 81.990051%)" offset="0.09375"/><stop stop-opacity="1" stop-color="rgb(74.836731%, 77.024841%, 81.968689%)" offset="0.0976562"/><stop stop-opacity="1" stop-color="rgb(74.032593%, 76.457214%, 81.948853%)" offset="0.101562"/><stop stop-opacity="1" stop-color="rgb(73.226929%, 75.888062%, 81.92749%)" offset="0.105469"/><stop stop-opacity="1" stop-color="rgb(72.422791%, 75.320435%, 81.907654%)" offset="0.109375"/><stop stop-opacity="1" stop-color="rgb(71.617126%, 74.751282%, 81.887817%)" offset="0.113281"/><stop stop-opacity="1" stop-color="rgb(70.812988%, 74.183655%, 81.867981%)" offset="0.117188"/><stop stop-opacity="1" stop-color="rgb(70.00885%, 73.616028%, 81.846619%)" offset="0.121094"/><stop stop-opacity="1" stop-color="rgb(69.204712%, 73.048401%, 81.826782%)" offset="0.125"/><stop stop-opacity="1" stop-color="rgb(68.399048%, 72.479248%, 81.80542%)" offset="0.128906"/><stop stop-opacity="1" stop-color="rgb(67.59491%, 71.911621%, 81.785583%)" offset="0.132812"/><stop stop-opacity="1" stop-color="rgb(66.789246%, 71.342468%, 81.764221%)" offset="0.136719"/><stop stop-opacity="1" stop-color="rgb(65.985107%, 70.774841%, 81.744385%)" offset="0.140625"/><stop stop-opacity="1" stop-color="rgb(65.179443%, 70.207214%, 81.724548%)" offset="0.144531"/><stop stop-opacity="1" stop-color="rgb(64.375305%, 69.639587%, 81.704712%)" offset="0.148438"/><stop stop-opacity="1" stop-color="rgb(63.569641%, 69.070435%, 81.68335%)" offset="0.152344"/><stop stop-opacity="1" stop-color="rgb(62.765503%, 68.502808%, 81.663513%)" offset="0.15625"/><stop stop-opacity="1" stop-color="rgb(61.959839%, 67.933655%, 81.642151%)" offset="0.160156"/><stop stop-opacity="1" stop-color="rgb(61.155701%, 67.366028%, 81.622314%)" offset="0.164062"/><stop stop-opacity="1" stop-color="rgb(60.350037%, 66.798401%, 81.600952%)" offset="0.167969"/><stop stop-opacity="1" stop-color="rgb(59.545898%, 66.230774%, 81.581116%)" offset="0.171875"/><stop stop-opacity="1" stop-color="rgb(58.74176%, 65.661621%, 81.561279%)" offset="0.175781"/><stop stop-opacity="1" stop-color="rgb(57.937622%, 65.093994%, 81.541443%)" offset="0.179688"/><stop stop-opacity="1" stop-color="rgb(57.131958%, 64.524841%, 81.520081%)" offset="0.183594"/><stop stop-opacity="1" stop-color="rgb(56.32782%, 63.957214%, 81.500244%)" offset="0.1875"/><stop stop-opacity="1" stop-color="rgb(55.522156%, 63.389587%, 81.478882%)" offset="0.191406"/><stop stop-opacity="1" stop-color="rgb(54.718018%, 62.82196%, 81.459045%)" offset="0.195312"/><stop stop-opacity="1" stop-color="rgb(53.912354%, 62.252808%, 81.437683%)" offset="0.199219"/><stop stop-opacity="1" stop-color="rgb(53.108215%, 61.685181%, 81.417847%)" offset="0.203125"/><stop stop-opacity="1" stop-color="rgb(52.302551%, 61.116028%, 81.39801%)" offset="0.207031"/><stop stop-opacity="1" stop-color="rgb(51.498413%, 60.548401%, 81.378174%)" offset="0.210938"/><stop stop-opacity="1" stop-color="rgb(50.692749%, 59.980774%, 81.356812%)" offset="0.214844"/><stop stop-opacity="1" stop-color="rgb(49.888611%, 59.413147%, 81.336975%)" offset="0.21875"/><stop stop-opacity="1" stop-color="rgb(49.084473%, 58.843994%, 81.315613%)" offset="0.222656"/><stop stop-opacity="1" stop-color="rgb(48.280334%, 58.276367%, 81.295776%)" offset="0.226562"/><stop stop-opacity="1" stop-color="rgb(47.47467%, 57.707214%, 81.274414%)" offset="0.230469"/><stop stop-opacity="1" stop-color="rgb(46.670532%, 57.139587%, 81.254578%)" offset="0.234375"/><stop stop-opacity="1" stop-color="rgb(45.864868%, 56.57196%, 81.234741%)" offset="0.238281"/><stop stop-opacity="1" stop-color="rgb(45.06073%, 56.004333%, 81.214905%)" offset="0.242188"/><stop stop-opacity="1" stop-color="rgb(44.255066%, 55.435181%, 81.193542%)" offset="0.246094"/><stop stop-opacity="1" stop-color="rgb(43.450928%, 54.867554%, 81.173706%)" offset="0.25"/><stop stop-opacity="1" stop-color="rgb(42.645264%, 54.298401%, 81.152344%)" offset="0.253906"/><stop stop-opacity="1" stop-color="rgb(41.841125%, 53.730774%, 81.132507%)" offset="0.257812"/><stop stop-opacity="1" stop-color="rgb(41.035461%, 53.163147%, 81.112671%)" offset="0.261719"/><stop stop-opacity="1" stop-color="rgb(40.231323%, 52.59552%, 81.092834%)" offset="0.265625"/><stop stop-opacity="1" stop-color="rgb(39.425659%, 52.026367%, 81.071472%)" offset="0.269531"/><stop stop-opacity="1" stop-color="rgb(38.621521%, 51.45874%, 81.051636%)" offset="0.273438"/><stop stop-opacity="1" stop-color="rgb(37.817383%, 50.889587%, 81.030273%)" offset="0.277344"/><stop stop-opacity="1" stop-color="rgb(37.013245%, 50.32196%, 81.010437%)" offset="0.28125"/><stop stop-opacity="1" stop-color="rgb(36.207581%, 49.752808%, 80.989075%)" offset="0.285156"/><stop stop-opacity="1" stop-color="rgb(35.403442%, 49.185181%, 80.969238%)" offset="0.289062"/><stop stop-opacity="1" stop-color="rgb(34.597778%, 48.617554%, 80.949402%)" offset="0.292969"/><stop stop-opacity="1" stop-color="rgb(33.79364%, 48.049927%, 80.929565%)" offset="0.296875"/><stop stop-opacity="1" stop-color="rgb(32.987976%, 47.480774%, 80.908203%)" offset="0.300781"/><stop stop-opacity="1" stop-color="rgb(32.183838%, 46.913147%, 80.888367%)" offset="0.304688"/><stop stop-opacity="1" stop-color="rgb(31.378174%, 46.343994%, 80.867004%)" offset="0.308594"/><stop stop-opacity="1" stop-color="rgb(30.574036%, 45.776367%, 80.847168%)" offset="0.3125"/><stop stop-opacity="1" stop-color="rgb(29.768372%, 45.20874%, 80.825806%)" offset="0.316406"/><stop stop-opacity="1" stop-color="rgb(28.964233%, 44.641113%, 80.805969%)" offset="0.320312"/><stop stop-opacity="1" stop-color="rgb(28.158569%, 44.07196%, 80.786133%)" offset="0.324219"/><stop stop-opacity="1" stop-color="rgb(27.354431%, 43.504333%, 80.766296%)" offset="0.328125"/><stop stop-opacity="1" stop-color="rgb(26.550293%, 42.935181%, 80.744934%)" offset="0.332031"/><stop stop-opacity="1" stop-color="rgb(25.746155%, 42.367554%, 80.725098%)" offset="0.335938"/><stop stop-opacity="1" stop-color="rgb(24.940491%, 41.799927%, 80.703735%)" offset="0.339844"/><stop stop-opacity="1" stop-color="rgb(24.136353%, 41.2323%, 80.683899%)" offset="0.34375"/><stop stop-opacity="1" stop-color="rgb(23.330688%, 40.663147%, 80.662537%)" offset="0.347656"/><stop stop-opacity="1" stop-color="rgb(22.52655%, 40.09552%, 80.6427%)" offset="0.351563"/><stop stop-opacity="1" stop-color="rgb(21.720886%, 39.526367%, 80.622864%)" offset="0.355469"/><stop stop-opacity="1" stop-color="rgb(20.916748%, 38.95874%, 80.603027%)" offset="0.359375"/><stop stop-opacity="1" stop-color="rgb(20.111084%, 38.391113%, 80.581665%)" offset="0.363281"/><stop stop-opacity="1" stop-color="rgb(19.306946%, 37.823486%, 80.561829%)" offset="0.367188"/><stop stop-opacity="1" stop-color="rgb(18.501282%, 37.254333%, 80.540466%)" offset="0.371094"/><stop stop-opacity="1" stop-color="rgb(17.697144%, 36.686707%, 80.52063%)" offset="0.375"/><stop stop-opacity="1" stop-color="rgb(16.893005%, 36.117554%, 80.499268%)" offset="0.378906"/><stop stop-opacity="1" stop-color="rgb(16.088867%, 35.549927%, 80.479431%)" offset="0.382812"/><stop stop-opacity="1" stop-color="rgb(15.283203%, 34.9823%, 80.459595%)" offset="0.386719"/><stop stop-opacity="1" stop-color="rgb(14.479065%, 34.414673%, 80.439758%)" offset="0.390625"/><stop stop-opacity="1" stop-color="rgb(13.703918%, 33.866882%, 80.419922%)" offset="0.394531"/><stop stop-opacity="1" stop-color="rgb(12.930298%, 33.320618%, 80.400085%)" offset="0.398437"/><stop stop-opacity="1" stop-color="rgb(13.757324%, 33.905029%, 80.419922%)" offset="0.402344"/><stop stop-opacity="1" stop-color="rgb(14.585876%, 34.489441%, 80.441284%)" offset="0.40625"/><stop stop-opacity="1" stop-color="rgb(15.412903%, 35.073853%, 80.462646%)" offset="0.410156"/><stop stop-opacity="1" stop-color="rgb(16.241455%, 35.658264%, 80.484009%)" offset="0.414062"/><stop stop-opacity="1" stop-color="rgb(17.068481%, 36.242676%, 80.503845%)" offset="0.417969"/><stop stop-opacity="1" stop-color="rgb(17.895508%, 36.827087%, 80.525208%)" offset="0.421875"/><stop stop-opacity="1" stop-color="rgb(18.722534%, 37.411499%, 80.54657%)" offset="0.425781"/><stop stop-opacity="1" stop-color="rgb(19.551086%, 37.995911%, 80.567932%)" offset="0.429688"/><stop stop-opacity="1" stop-color="rgb(20.378113%, 38.580322%, 80.587769%)" offset="0.433594"/><stop stop-opacity="1" stop-color="rgb(21.206665%, 39.164734%, 80.609131%)" offset="0.4375"/><stop stop-opacity="1" stop-color="rgb(22.033691%, 39.74762%, 80.630493%)" offset="0.441406"/><stop stop-opacity="1" stop-color="rgb(22.862244%, 40.332031%, 80.651855%)" offset="0.445312"/><stop stop-opacity="1" stop-color="rgb(23.68927%, 40.916443%, 80.671692%)" offset="0.449219"/><stop stop-opacity="1" stop-color="rgb(24.517822%, 41.500854%, 80.693054%)" offset="0.453125"/><stop stop-opacity="1" stop-color="rgb(25.344849%, 42.085266%, 80.714417%)" offset="0.457031"/><stop stop-opacity="1" stop-color="rgb(26.171875%, 42.669678%, 80.735779%)" offset="0.460938"/><stop stop-opacity="1" stop-color="rgb(26.998901%, 43.254089%, 80.755615%)" offset="0.464844"/><stop stop-opacity="1" stop-color="rgb(27.827454%, 43.838501%, 80.776978%)" offset="0.46875"/><stop stop-opacity="1" stop-color="rgb(28.65448%, 44.422913%, 80.79834%)" offset="0.472656"/><stop stop-opacity="1" stop-color="rgb(29.483032%, 45.007324%, 80.819702%)" offset="0.476562"/><stop stop-opacity="1" stop-color="rgb(30.310059%, 45.59021%, 80.839539%)" offset="0.480469"/><stop stop-opacity="1" stop-color="rgb(31.138611%, 46.174622%, 80.860901%)" offset="0.484375"/><stop stop-opacity="1" stop-color="rgb(31.965637%, 46.759033%, 80.882263%)" offset="0.488281"/><stop stop-opacity="1" stop-color="rgb(32.794189%, 47.343445%, 80.903625%)" offset="0.492188"/><stop stop-opacity="1" stop-color="rgb(33.621216%, 47.927856%, 80.923462%)" offset="0.496094"/><stop stop-opacity="1" stop-color="rgb(34.449768%, 48.512268%, 80.944824%)" offset="0.5"/><stop stop-opacity="1" stop-color="rgb(35.276794%, 49.09668%, 80.966187%)" offset="0.503906"/><stop stop-opacity="1" stop-color="rgb(36.103821%, 49.681091%, 80.987549%)" offset="0.507812"/><stop stop-opacity="1" stop-color="rgb(36.930847%, 50.265503%, 81.007385%)" offset="0.511719"/><stop stop-opacity="1" stop-color="rgb(37.759399%, 50.849915%, 81.028748%)" offset="0.515625"/><stop stop-opacity="1" stop-color="rgb(38.586426%, 51.434326%, 81.05011%)" offset="0.519531"/><stop stop-opacity="1" stop-color="rgb(39.414978%, 52.018738%, 81.071472%)" offset="0.523438"/><stop stop-opacity="1" stop-color="rgb(40.242004%, 52.601624%, 81.091309%)" offset="0.527344"/><stop stop-opacity="1" stop-color="rgb(41.070557%, 53.186035%, 81.112671%)" offset="0.53125"/><stop stop-opacity="1" stop-color="rgb(41.897583%, 53.770447%, 81.134033%)" offset="0.535156"/><stop stop-opacity="1" stop-color="rgb(42.726135%, 54.354858%, 81.155396%)" offset="0.539062"/><stop stop-opacity="1" stop-color="rgb(43.553162%, 54.93927%, 81.175232%)" offset="0.542969"/><stop stop-opacity="1" stop-color="rgb(44.380188%, 55.523682%, 81.196594%)" offset="0.546875"/><stop stop-opacity="1" stop-color="rgb(45.207214%, 56.108093%, 81.217957%)" offset="0.550781"/><stop stop-opacity="1" stop-color="rgb(46.035767%, 56.692505%, 81.239319%)" offset="0.554688"/><stop stop-opacity="1" stop-color="rgb(46.862793%, 57.276917%, 81.259155%)" offset="0.558594"/><stop stop-opacity="1" stop-color="rgb(47.691345%, 57.861328%, 81.280518%)" offset="0.5625"/><stop stop-opacity="1" stop-color="rgb(48.518372%, 58.44574%, 81.30188%)" offset="0.566406"/><stop stop-opacity="1" stop-color="rgb(49.346924%, 59.030151%, 81.323242%)" offset="0.570312"/><stop stop-opacity="1" stop-color="rgb(50.17395%, 59.613037%, 81.343079%)" offset="0.574219"/><stop stop-opacity="1" stop-color="rgb(51.002502%, 60.197449%, 81.364441%)" offset="0.578125"/><stop stop-opacity="1" stop-color="rgb(51.829529%, 60.78186%, 81.385803%)" offset="0.582031"/><stop stop-opacity="1" stop-color="rgb(52.656555%, 61.366272%, 81.407166%)" offset="0.585938"/><stop stop-opacity="1" stop-color="rgb(53.483582%, 61.950684%, 81.427002%)" offset="0.589844"/><stop stop-opacity="1" stop-color="rgb(54.312134%, 62.535095%, 81.448364%)" offset="0.59375"/><stop stop-opacity="1" stop-color="rgb(55.13916%, 63.119507%, 81.469727%)" offset="0.597656"/><stop stop-opacity="1" stop-color="rgb(55.967712%, 63.703918%, 81.491089%)" offset="0.601562"/><stop stop-opacity="1" stop-color="rgb(56.794739%, 64.28833%, 81.510925%)" offset="0.605469"/><stop stop-opacity="1" stop-color="rgb(57.623291%, 64.872742%, 81.532288%)" offset="0.609375"/><stop stop-opacity="1" stop-color="rgb(58.450317%, 65.457153%, 81.55365%)" offset="0.613281"/><stop stop-opacity="1" stop-color="rgb(59.27887%, 66.041565%, 81.575012%)" offset="0.617188"/><stop stop-opacity="1" stop-color="rgb(60.105896%, 66.624451%, 81.594849%)" offset="0.621094"/><stop stop-opacity="1" stop-color="rgb(60.932922%, 67.208862%, 81.616211%)" offset="0.625"/><stop stop-opacity="1" stop-color="rgb(61.759949%, 67.793274%, 81.637573%)" offset="0.628906"/><stop stop-opacity="1" stop-color="rgb(62.588501%, 68.377686%, 81.658936%)" offset="0.632812"/><stop stop-opacity="1" stop-color="rgb(63.415527%, 68.962097%, 81.678772%)" offset="0.636719"/><stop stop-opacity="1" stop-color="rgb(64.24408%, 69.546509%, 81.700134%)" offset="0.640625"/><stop stop-opacity="1" stop-color="rgb(65.071106%, 70.13092%, 81.721497%)" offset="0.644531"/><stop stop-opacity="1" stop-color="rgb(65.899658%, 70.715332%, 81.742859%)" offset="0.648438"/><stop stop-opacity="1" stop-color="rgb(66.726685%, 71.299744%, 81.762695%)" offset="0.652344"/><stop stop-opacity="1" stop-color="rgb(67.555237%, 71.884155%, 81.784058%)" offset="0.65625"/><stop stop-opacity="1" stop-color="rgb(68.382263%, 72.467041%, 81.80542%)" offset="0.660156"/><stop stop-opacity="1" stop-color="rgb(69.20929%, 73.051453%, 81.826782%)" offset="0.664062"/><stop stop-opacity="1" stop-color="rgb(70.036316%, 73.635864%, 81.846619%)" offset="0.667969"/><stop stop-opacity="1" stop-color="rgb(70.864868%, 74.220276%, 81.867981%)" offset="0.671875"/><stop stop-opacity="1" stop-color="rgb(71.691895%, 74.804688%, 81.889343%)" offset="0.675781"/><stop stop-opacity="1" stop-color="rgb(72.520447%, 75.389099%, 81.910706%)" offset="0.679688"/><stop stop-opacity="1" stop-color="rgb(73.347473%, 75.973511%, 81.930542%)" offset="0.683594"/><stop stop-opacity="1" stop-color="rgb(74.176025%, 76.557922%, 81.951904%)" offset="0.6875"/><stop stop-opacity="1" stop-color="rgb(75.003052%, 77.142334%, 81.973267%)" offset="0.691406"/><stop stop-opacity="1" stop-color="rgb(75.831604%, 77.726746%, 81.994629%)" offset="0.695313"/><stop stop-opacity="1" stop-color="rgb(76.65863%, 78.311157%, 82.014465%)" offset="0.699219"/><stop stop-opacity="1" stop-color="rgb(77.485657%, 78.895569%, 82.035828%)" offset="0.703125"/><stop stop-opacity="1" stop-color="rgb(78.312683%, 79.478455%, 82.05719%)" offset="0.707031"/><stop stop-opacity="1" stop-color="rgb(79.141235%, 80.062866%, 82.078552%)" offset="0.710938"/><stop stop-opacity="1" stop-color="rgb(79.968262%, 80.647278%, 82.098389%)" offset="0.714844"/><stop stop-opacity="1" stop-color="rgb(80.796814%, 81.231689%, 82.119751%)" offset="0.71875"/><stop stop-opacity="1" stop-color="rgb(81.62384%, 81.816101%, 82.141113%)" offset="0.722656"/><stop stop-opacity="1" stop-color="rgb(82.452393%, 82.400513%, 82.162476%)" offset="0.726563"/><stop stop-opacity="1" stop-color="rgb(83.279419%, 82.984924%, 82.182312%)" offset="0.730469"/><stop stop-opacity="1" stop-color="rgb(84.107971%, 83.569336%, 82.203674%)" offset="0.734375"/><stop stop-opacity="1" stop-color="rgb(84.934998%, 84.153748%, 82.225037%)" offset="0.738281"/><stop stop-opacity="1" stop-color="rgb(85.762024%, 84.738159%, 82.246399%)" offset="0.742188"/><stop stop-opacity="1" stop-color="rgb(86.58905%, 85.322571%, 82.266235%)" offset="0.746094"/><stop stop-opacity="1" stop-color="rgb(87.417603%, 85.906982%, 82.287598%)" offset="0.75"/><stop stop-opacity="1" stop-color="rgb(88.244629%, 86.489868%, 82.30896%)" offset="0.753906"/><stop stop-opacity="1" stop-color="rgb(89.073181%, 87.07428%, 82.330322%)" offset="0.757812"/><stop stop-opacity="1" stop-color="rgb(89.900208%, 87.658691%, 82.350159%)" offset="0.761719"/><stop stop-opacity="1" stop-color="rgb(90.72876%, 88.243103%, 82.371521%)" offset="0.765625"/><stop stop-opacity="1" stop-color="rgb(91.264343%, 88.621521%, 82.385254%)" offset="0.769531"/><stop stop-opacity="1" stop-color="rgb(91.799927%, 88.999939%, 82.398987%)" offset="0.773437"/><stop stop-opacity="1" stop-color="rgb(91.799927%, 88.999939%, 82.398987%)" offset="0.78125"/><stop stop-opacity="1" stop-color="rgb(91.799927%, 88.999939%, 82.398987%)" offset="0.8125"/><stop stop-opacity="1" stop-color="rgb(91.799927%, 88.999939%, 82.398987%)" offset="0.875"/><stop stop-opacity="1" stop-color="rgb(91.799927%, 88.999939%, 82.398987%)" offset="1"/></linearGradient></defs><g clip-path="url(#a2e367ad9d)"><g clip-path="url(#6976cb4b81)"><path fill="url(#45658f0933)" d="M 0.484375 0 L 0.484375 29.03125 L 29.515625 29.03125 L 29.515625 0 Z M 0.484375 0 " fill-rule="nonzero"/></g></g></svg>