<svg xmlns="http://www.w3.org/2000/svg" xmlns:xlink="http://www.w3.org/1999/xlink" width="40" zoomAndPan="magnify" viewBox="0 0 30 30.000001" height="40" preserveAspectRatio="xMidYMid meet" version="1.0"><defs><clipPath id="7319330a55"><path d="M 0.484375 0 L 29.515625 0 L 29.515625 29.03125 L 0.484375 29.03125 Z M 0.484375 0 " clip-rule="nonzero"/></clipPath><clipPath id="ae98a89d44"><path d="M 27.730469 21.375 C 28.234375 20.851562 28.546875 20.136719 28.546875 19.355469 C 28.546875 17.753906 27.246094 16.453125 25.644531 16.453125 C 24.042969 16.453125 22.742188 17.753906 22.742188 19.355469 C 22.742188 20.136719 23.054688 20.851562 23.5625 21.375 C 22.535156 21.648438 21.773438 22.589844 21.773438 23.703125 L 21.773438 27.515625 C 21.773438 28.351562 22.453125 29.03125 23.292969 29.03125 L 28 29.03125 C 28.835938 29.03125 29.515625 28.351562 29.515625 27.515625 L 29.515625 23.703125 C 29.515625 22.589844 28.757812 21.648438 27.730469 21.375 Z M 25.644531 23.507812 L 24.394531 22.257812 L 26.894531 22.257812 Z M 25.644531 17.417969 C 26.710938 17.417969 27.582031 18.289062 27.582031 19.355469 C 27.582031 20.421875 26.710938 21.289062 25.644531 21.289062 C 24.578125 21.289062 23.710938 20.421875 23.710938 19.355469 C 23.710938 18.289062 24.578125 17.417969 25.644531 17.417969 Z M 22.742188 27.515625 L 22.742188 23.703125 C 22.742188 23.230469 22.96875 22.8125 23.320312 22.546875 C 23.335938 22.566406 23.351562 22.582031 23.367188 22.601562 L 25.160156 24.394531 L 25.160156 28.066406 L 23.292969 28.066406 C 22.988281 28.066406 22.742188 27.816406 22.742188 27.515625 Z M 28.546875 27.515625 C 28.546875 27.816406 28.300781 28.066406 28 28.066406 L 26.128906 28.066406 L 26.128906 24.394531 L 27.921875 22.601562 C 27.941406 22.582031 27.953125 22.566406 27.96875 22.546875 C 28.320312 22.8125 28.546875 23.230469 28.546875 23.703125 Z M 6.4375 21.375 C 6.945312 20.851562 7.257812 20.136719 7.257812 19.355469 C 7.257812 17.753906 5.957031 16.453125 4.355469 16.453125 C 2.753906 16.453125 1.453125 17.753906 1.453125 19.355469 C 1.453125 20.136719 1.765625 20.851562 2.269531 21.375 C 1.242188 21.648438 0.484375 22.589844 0.484375 23.703125 L 0.484375 27.515625 C 0.484375 28.351562 1.164062 29.03125 2 29.03125 L 6.707031 29.03125 C 7.546875 29.03125 8.226562 28.351562 8.226562 27.515625 L 8.226562 23.703125 C 8.226562 22.589844 7.464844 21.648438 6.4375 21.375 Z M 4.355469 23.507812 L 3.105469 22.257812 L 5.605469 22.257812 Z M 4.355469 17.417969 C 5.421875 17.417969 6.289062 18.289062 6.289062 19.355469 C 6.289062 20.421875 5.421875 21.289062 4.355469 21.289062 C 3.289062 21.289062 2.417969 20.421875 2.417969 19.355469 C 2.417969 18.289062 3.289062 17.417969 4.355469 17.417969 Z M 1.453125 27.515625 L 1.453125 23.703125 C 1.453125 23.230469 1.679688 22.8125 2.03125 22.546875 C 2.046875 22.566406 2.058594 22.582031 2.078125 22.601562 L 3.871094 24.394531 L 3.871094 28.066406 L 2 28.066406 C 1.699219 28.066406 1.453125 27.816406 1.453125 27.515625 Z M 7.257812 27.515625 C 7.257812 27.816406 7.011719 28.066406 6.707031 28.066406 L 4.839844 28.066406 L 4.839844 24.394531 L 6.632812 22.601562 C 6.648438 22.582031 6.664062 22.566406 6.679688 22.546875 C 7.03125 22.8125 7.257812 23.230469 7.257812 23.703125 Z M 20.746094 25.027344 C 20.875 25.261719 20.789062 25.558594 20.554688 25.683594 C 18.933594 26.570312 17.167969 27.042969 15.308594 27.09375 C 15.207031 27.09375 15.101562 27.097656 15 27.097656 C 13.058594 27.097656 11.144531 26.609375 9.445312 25.683594 C 9.210938 25.554688 9.125 25.261719 9.253906 25.027344 C 9.378906 24.792969 9.675781 24.707031 9.910156 24.835938 C 11.546875 25.730469 13.40625 26.175781 15.28125 26.125 C 16.988281 26.078125 18.605469 25.644531 20.089844 24.835938 C 20.324219 24.707031 20.621094 24.792969 20.746094 25.027344 Z M 3.386719 15.519531 C 3.371094 10.933594 6.066406 6.757812 10.257812 4.882812 C 10.5 4.773438 10.785156 4.878906 10.894531 5.125 C 11.003906 5.367188 10.894531 5.65625 10.652344 5.765625 C 6.8125 7.484375 4.339844 11.3125 4.355469 15.515625 C 4.355469 15.78125 4.140625 16 3.871094 16 C 3.605469 16 3.386719 15.785156 3.386719 15.519531 Z M 19.105469 5.125 C 19.214844 4.882812 19.5 4.773438 19.742188 4.882812 C 23.933594 6.757812 26.628906 10.933594 26.613281 15.519531 C 26.613281 15.785156 26.394531 16 26.128906 16 C 25.859375 16 25.644531 15.78125 25.644531 15.515625 C 25.660156 11.3125 23.1875 7.484375 19.347656 5.765625 C 19.105469 5.65625 18.996094 5.367188 19.105469 5.125 Z M 21.773438 18.929688 L 21.773438 16.390625 C 21.773438 15.625 21.148438 15 20.382812 15 L 19.839844 15 L 19.839844 14.457031 C 19.839844 13.6875 19.214844 13.066406 18.449219 13.066406 L 15.382812 13.066406 L 14.964844 12.582031 L 17.351562 12.582031 C 18.191406 12.582031 18.871094 11.898438 18.871094 11.0625 L 18.871094 7.253906 C 18.871094 6.136719 18.113281 5.199219 17.082031 4.921875 C 17.589844 4.398438 17.902344 3.6875 17.902344 2.902344 C 17.902344 1.300781 16.601562 0 15 0 C 13.398438 0 12.097656 1.300781 12.097656 2.902344 C 12.097656 3.6875 12.410156 4.398438 12.917969 4.921875 C 11.886719 5.199219 11.128906 6.136719 11.128906 7.253906 L 11.128906 11.0625 C 11.128906 11.894531 11.800781 12.570312 12.628906 12.582031 L 12.644531 13.109375 C 12.050781 13.269531 11.613281 13.8125 11.613281 14.457031 L 11.613281 15.96875 L 9.617188 15.96875 C 8.851562 15.96875 8.226562 16.59375 8.226562 17.359375 L 8.226562 19.898438 C 8.226562 20.507812 8.621094 21.027344 9.164062 21.214844 L 8.722656 23.117188 C 8.675781 23.324219 8.765625 23.539062 8.953125 23.644531 C 9.027344 23.6875 9.109375 23.710938 9.195312 23.710938 C 9.3125 23.710938 9.433594 23.664062 9.523438 23.578125 L 11.964844 21.289062 L 15.058594 21.289062 C 15.679688 21.289062 16.207031 20.882812 16.386719 20.324219 L 18.035156 20.324219 L 20.476562 22.609375 C 20.566406 22.699219 20.6875 22.742188 20.804688 22.742188 C 20.890625 22.742188 20.972656 22.71875 21.046875 22.675781 C 21.234375 22.570312 21.324219 22.355469 21.277344 22.148438 L 20.835938 20.246094 C 21.378906 20.058594 21.773438 19.539062 21.773438 18.929688 Z M 16.457031 5.804688 C 16.542969 5.804688 16.628906 5.816406 16.710938 5.828125 L 15 7.542969 L 13.289062 5.828125 C 13.371094 5.816406 13.457031 5.804688 13.542969 5.804688 Z M 17.902344 11.0625 C 17.902344 11.367188 17.65625 11.613281 17.351562 11.613281 L 15.484375 11.613281 L 15.484375 8.425781 L 17.574219 6.335938 C 17.78125 6.585938 17.902344 6.90625 17.902344 7.253906 Z M 15 0.96875 C 16.066406 0.96875 16.933594 1.835938 16.933594 2.902344 C 16.933594 3.96875 16.066406 4.839844 15 4.839844 C 13.933594 4.839844 13.066406 3.96875 13.066406 2.902344 C 13.066406 1.835938 13.933594 0.96875 15 0.96875 Z M 12.097656 11.0625 L 12.097656 7.253906 C 12.097656 6.90625 12.21875 6.585938 12.425781 6.335938 L 14.515625 8.425781 L 14.515625 11.613281 L 14.125 11.613281 L 13.429688 10.8125 C 13.296875 10.65625 13.078125 10.605469 12.886719 10.679688 C 12.695312 10.753906 12.574219 10.941406 12.582031 11.144531 L 12.597656 11.609375 C 12.316406 11.585938 12.097656 11.347656 12.097656 11.0625 Z M 12.582031 14.457031 C 12.582031 14.222656 12.769531 14.03125 13.003906 14.03125 L 13.144531 14.03125 C 13.277344 14.03125 13.402344 13.980469 13.492188 13.886719 C 13.585938 13.789062 13.632812 13.664062 13.628906 13.53125 L 13.59375 12.476562 L 14.796875 13.867188 C 14.886719 13.972656 15.019531 14.03125 15.160156 14.03125 L 18.449219 14.03125 C 18.679688 14.03125 18.871094 14.222656 18.871094 14.457031 L 18.871094 16.996094 C 18.871094 17.230469 18.679688 17.417969 18.449219 17.417969 L 13.003906 17.417969 C 12.769531 17.417969 12.582031 17.230469 12.582031 16.996094 Z M 15.058594 20.324219 L 11.773438 20.324219 C 11.652344 20.324219 11.53125 20.371094 11.441406 20.453125 L 10.027344 21.78125 L 10.230469 20.917969 C 10.261719 20.773438 10.230469 20.621094 10.136719 20.503906 C 10.046875 20.390625 9.90625 20.324219 9.757812 20.324219 L 9.617188 20.324219 C 9.382812 20.324219 9.195312 20.132812 9.195312 19.898438 L 9.195312 17.359375 C 9.195312 17.125 9.382812 16.933594 9.617188 16.933594 L 11.613281 16.933594 L 11.613281 16.996094 C 11.613281 17.761719 12.238281 18.386719 13.003906 18.386719 L 15.484375 18.386719 L 15.484375 19.898438 C 15.484375 20.132812 15.292969 20.324219 15.058594 20.324219 Z M 20.804688 18.929688 C 20.804688 19.164062 20.617188 19.355469 20.382812 19.355469 L 20.242188 19.355469 C 20.09375 19.355469 19.953125 19.421875 19.863281 19.539062 C 19.769531 19.652344 19.738281 19.804688 19.769531 19.949219 L 19.972656 20.8125 L 18.558594 19.484375 C 18.46875 19.402344 18.347656 19.355469 18.226562 19.355469 L 16.453125 19.355469 L 16.453125 18.386719 L 18.449219 18.386719 C 19.214844 18.386719 19.839844 17.761719 19.839844 16.996094 L 19.839844 15.96875 L 20.382812 15.96875 C 20.617188 15.96875 20.804688 16.15625 20.804688 16.390625 Z M 9.675781 17.902344 C 9.675781 17.636719 9.894531 17.417969 10.160156 17.417969 L 11.128906 17.417969 C 11.394531 17.417969 11.613281 17.636719 11.613281 17.902344 C 11.613281 18.171875 11.394531 18.386719 11.128906 18.386719 L 10.160156 18.386719 C 9.894531 18.386719 9.675781 18.171875 9.675781 17.902344 Z M 15 19.355469 C 15 19.621094 14.785156 19.839844 14.515625 19.839844 L 10.160156 19.839844 C 9.894531 19.839844 9.675781 19.621094 9.675781 19.355469 C 9.675781 19.085938 9.894531 18.871094 10.160156 18.871094 L 14.515625 18.871094 C 14.785156 18.871094 15 19.085938 15 19.355469 Z M 15 15 C 15 14.734375 15.214844 14.515625 15.484375 14.515625 L 17.902344 14.515625 C 18.171875 14.515625 18.386719 14.734375 18.386719 15 C 18.386719 15.265625 18.171875 15.484375 17.902344 15.484375 L 15.484375 15.484375 C 15.214844 15.484375 15 15.265625 15 15 Z M 13.066406 16.453125 C 13.066406 16.183594 13.28125 15.96875 13.546875 15.96875 L 17.902344 15.96875 C 18.171875 15.96875 18.386719 16.183594 18.386719 16.453125 C 18.386719 16.71875 18.171875 16.933594 17.902344 16.933594 L 13.546875 16.933594 C 13.28125 16.933594 13.066406 16.71875 13.066406 16.453125 Z M 13.066406 16.453125 " clip-rule="nonzero"/></clipPath></defs><g clip-path="url(#7319330a55)"><g clip-path="url(#ae98a89d44)"><path fill="#2155cd" d="M 0.484375 0 L 0.484375 29.03125 L 29.515625 29.03125 L 29.515625 0 Z M 0.484375 0 " fill-opacity="1" fill-rule="nonzero"/></g></g></svg>