<svg xmlns="http://www.w3.org/2000/svg" xmlns:xlink="http://www.w3.org/1999/xlink" width="40" zoomAndPan="magnify" viewBox="0 0 30 30.000001" height="40" preserveAspectRatio="xMidYMid meet" version="1.0"><defs><clipPath id="a5283390ed"><path d="M 0.484375 0 L 29.515625 0 L 29.515625 29.03125 L 0.484375 29.03125 Z M 0.484375 0 " clip-rule="nonzero"/></clipPath><clipPath id="4c8709d8a6"><path d="M 25.160156 20.324219 C 24.390625 20.324219 23.667969 20.523438 23.039062 20.878906 L 21.769531 19.183594 C 22.6875 17.859375 23.226562 16.25 23.226562 14.515625 C 23.226562 12.792969 22.691406 11.191406 21.785156 9.867188 L 23.34375 8.308594 C 23.894531 8.566406 24.511719 8.710938 25.160156 8.710938 C 27.5625 8.710938 29.515625 6.757812 29.515625 4.355469 C 29.515625 1.953125 27.5625 0 25.160156 0 C 22.761719 0 20.804688 1.953125 20.804688 4.355469 C 20.804688 5.75 21.46875 6.996094 22.492188 7.792969 L 21.183594 9.097656 C 19.675781 7.378906 17.460938 6.289062 15 6.289062 C 12.539062 6.289062 10.324219 7.378906 8.816406 9.097656 L 7.507812 7.792969 C 8.53125 6.996094 9.195312 5.75 9.195312 4.355469 C 9.195312 1.953125 7.238281 0 4.839844 0 C 2.4375 0 0.484375 1.953125 0.484375 4.355469 C 0.484375 6.757812 2.4375 8.710938 4.839844 8.710938 C 5.488281 8.710938 6.105469 8.566406 6.65625 8.308594 L 8.214844 9.867188 C 7.308594 11.191406 6.773438 12.792969 6.773438 14.515625 C 6.773438 16.25 7.3125 17.859375 8.230469 19.183594 L 6.960938 20.878906 C 6.332031 20.523438 5.609375 20.324219 4.839844 20.324219 C 2.4375 20.324219 0.484375 22.277344 0.484375 24.675781 C 0.484375 27.078125 2.4375 29.03125 4.839844 29.03125 C 7.238281 29.03125 9.195312 27.078125 9.195312 24.675781 C 9.195312 23.394531 8.636719 22.238281 7.75 21.441406 L 8.851562 19.972656 C 10.359375 21.671875 12.554688 22.742188 15 22.742188 C 17.445312 22.742188 19.640625 21.671875 21.148438 19.972656 L 22.25 21.441406 C 21.363281 22.238281 20.804688 23.394531 20.804688 24.675781 C 20.804688 27.078125 22.761719 29.03125 25.160156 29.03125 C 27.5625 29.03125 29.515625 27.078125 29.515625 24.675781 C 29.515625 22.277344 27.5625 20.324219 25.160156 20.324219 Z M 23.710938 7.414062 L 23.710938 6.773438 C 23.710938 5.972656 24.359375 5.324219 25.160156 5.324219 C 25.960938 5.324219 26.613281 5.972656 26.613281 6.773438 L 26.613281 7.414062 C 26.171875 7.625 25.679688 7.742188 25.160156 7.742188 C 24.640625 7.742188 24.148438 7.625 23.710938 7.414062 Z M 24.195312 3.386719 C 24.195312 2.851562 24.628906 2.417969 25.160156 2.417969 C 25.695312 2.417969 26.128906 2.851562 26.128906 3.386719 C 26.128906 3.921875 25.695312 4.355469 25.160156 4.355469 C 24.628906 4.355469 24.195312 3.921875 24.195312 3.386719 Z M 21.773438 4.355469 C 21.773438 2.488281 23.292969 0.96875 25.160156 0.96875 C 27.027344 0.96875 28.546875 2.488281 28.546875 4.355469 C 28.546875 5.277344 28.179688 6.113281 27.578125 6.722656 C 27.5625 5.910156 27.144531 5.195312 26.515625 4.769531 C 26.875 4.417969 27.097656 3.929688 27.097656 3.386719 C 27.097656 2.320312 26.230469 1.453125 25.160156 1.453125 C 24.09375 1.453125 23.226562 2.320312 23.226562 3.386719 C 23.226562 3.929688 23.449219 4.417969 23.808594 4.769531 C 23.179688 5.195312 22.761719 5.910156 22.742188 6.722656 C 22.144531 6.113281 21.773438 5.277344 21.773438 4.355469 Z M 1.453125 4.355469 C 1.453125 2.488281 2.972656 0.96875 4.839844 0.96875 C 6.707031 0.96875 8.226562 2.488281 8.226562 4.355469 C 8.226562 5.277344 7.855469 6.113281 7.257812 6.722656 C 7.238281 5.910156 6.820312 5.195312 6.191406 4.769531 C 6.550781 4.417969 6.773438 3.929688 6.773438 3.386719 C 6.773438 2.320312 5.90625 1.453125 4.839844 1.453125 C 3.769531 1.453125 2.902344 2.320312 2.902344 3.386719 C 2.902344 3.929688 3.125 4.417969 3.484375 4.769531 C 2.855469 5.195312 2.4375 5.910156 2.421875 6.722656 C 1.820312 6.113281 1.453125 5.277344 1.453125 4.355469 Z M 3.871094 3.386719 C 3.871094 2.851562 4.304688 2.417969 4.839844 2.417969 C 5.371094 2.417969 5.804688 2.851562 5.804688 3.386719 C 5.804688 3.921875 5.371094 4.355469 4.839844 4.355469 C 4.304688 4.355469 3.871094 3.921875 3.871094 3.386719 Z M 3.386719 7.414062 L 3.386719 6.773438 C 3.386719 5.972656 4.039062 5.324219 4.839844 5.324219 C 5.640625 5.324219 6.289062 5.972656 6.289062 6.773438 L 6.289062 7.414062 C 5.851562 7.625 5.359375 7.742188 4.839844 7.742188 C 4.320312 7.742188 3.828125 7.625 3.386719 7.414062 Z M 3.386719 27.738281 L 3.386719 27.097656 C 3.386719 26.296875 4.039062 25.644531 4.839844 25.644531 C 5.640625 25.644531 6.289062 26.296875 6.289062 27.097656 L 6.289062 27.738281 C 5.851562 27.945312 5.359375 28.066406 4.839844 28.066406 C 4.320312 28.066406 3.828125 27.945312 3.386719 27.738281 Z M 3.871094 23.710938 C 3.871094 23.175781 4.304688 22.742188 4.839844 22.742188 C 5.371094 22.742188 5.804688 23.175781 5.804688 23.710938 C 5.804688 24.242188 5.371094 24.675781 4.839844 24.675781 C 4.304688 24.675781 3.871094 24.242188 3.871094 23.710938 Z M 8.226562 24.675781 C 8.226562 25.597656 7.855469 26.433594 7.257812 27.046875 C 7.238281 26.234375 6.820312 25.519531 6.191406 25.09375 C 6.550781 24.742188 6.773438 24.25 6.773438 23.710938 C 6.773438 22.640625 5.90625 21.773438 4.839844 21.773438 C 3.769531 21.773438 2.902344 22.640625 2.902344 23.710938 C 2.902344 24.25 3.125 24.742188 3.484375 25.09375 C 2.855469 25.519531 2.4375 26.234375 2.421875 27.046875 C 1.820312 26.433594 1.453125 25.597656 1.453125 24.675781 C 1.453125 22.808594 2.972656 21.289062 4.839844 21.289062 C 6.707031 21.289062 8.226562 22.808594 8.226562 24.675781 Z M 7.757812 15 L 9.203125 15 C 9.25 16.144531 9.460938 17.242188 9.820312 18.242188 C 9.53125 18.34375 9.253906 18.457031 8.984375 18.574219 C 8.285156 17.542969 7.84375 16.316406 7.757812 15 Z M 8.984375 10.457031 C 9.253906 10.578125 9.53125 10.6875 9.820312 10.789062 C 9.460938 11.789062 9.25 12.890625 9.203125 14.03125 L 7.757812 14.03125 C 7.84375 12.714844 8.285156 11.492188 8.984375 10.457031 Z M 22.242188 14.03125 L 20.796875 14.03125 C 20.75 12.890625 20.539062 11.789062 20.179688 10.789062 C 20.46875 10.6875 20.746094 10.578125 21.015625 10.457031 C 21.714844 11.492188 22.15625 12.714844 22.242188 14.03125 Z M 19.828125 14.03125 L 17.414062 14.03125 C 17.402344 13.140625 17.351562 12.277344 17.265625 11.46875 C 17.960938 11.378906 18.628906 11.246094 19.257812 11.078125 C 19.585938 11.984375 19.78125 12.984375 19.828125 14.03125 Z M 15 21.773438 C 14.996094 21.773438 14.539062 21.632812 14.101562 19.875 C 13.992188 19.433594 13.894531 18.949219 13.816406 18.429688 C 14.207031 18.402344 14.601562 18.386719 15 18.386719 C 15.398438 18.386719 15.792969 18.402344 16.183594 18.429688 C 16.105469 18.949219 16.007812 19.433594 15.898438 19.875 C 15.460938 21.632812 15.003906 21.773438 15 21.773438 Z M 15 17.417969 C 14.558594 17.417969 14.125 17.4375 13.695312 17.464844 C 13.613281 16.691406 13.566406 15.859375 13.550781 15 L 16.449219 15 C 16.433594 15.859375 16.386719 16.691406 16.304688 17.464844 C 15.875 17.4375 15.441406 17.417969 15 17.417969 Z M 13.550781 14.03125 C 13.566406 13.171875 13.613281 12.339844 13.695312 11.566406 C 14.125 11.597656 14.558594 11.613281 15 11.613281 C 15.441406 11.613281 15.875 11.597656 16.304688 11.566406 C 16.386719 12.339844 16.433594 13.171875 16.449219 14.03125 Z M 15 7.257812 C 15.003906 7.257812 15.460938 7.398438 15.898438 9.160156 C 16.007812 9.597656 16.105469 10.085938 16.183594 10.605469 C 15.792969 10.632812 15.398438 10.644531 15 10.644531 C 14.601562 10.644531 14.207031 10.632812 13.816406 10.605469 C 13.894531 10.082031 13.992188 9.597656 14.101562 9.160156 C 14.539062 7.398438 14.996094 7.257812 15 7.257812 Z M 17.144531 10.507812 C 17.0625 9.9375 16.957031 9.40625 16.839844 8.925781 C 16.703125 8.390625 16.554688 7.9375 16.386719 7.5625 C 17.121094 7.894531 17.796875 8.492188 18.363281 9.316406 C 18.550781 9.585938 18.71875 9.875 18.871094 10.175781 C 18.324219 10.320312 17.746094 10.429688 17.144531 10.507812 Z M 13.613281 7.5625 C 13.445312 7.9375 13.296875 8.390625 13.160156 8.925781 C 13.042969 9.40625 12.9375 9.9375 12.855469 10.507812 C 12.253906 10.429688 11.675781 10.320312 11.128906 10.175781 C 11.28125 9.875 11.449219 9.585938 11.636719 9.316406 C 12.203125 8.488281 12.878906 7.894531 13.613281 7.5625 Z M 12.734375 11.46875 C 12.648438 12.277344 12.597656 13.140625 12.585938 14.03125 L 10.171875 14.03125 C 10.21875 12.984375 10.414062 11.984375 10.742188 11.078125 C 11.371094 11.246094 12.039062 11.378906 12.734375 11.46875 Z M 10.171875 15 L 12.585938 15 C 12.597656 15.890625 12.648438 16.753906 12.734375 17.5625 C 12.039062 17.652344 11.371094 17.785156 10.742188 17.957031 C 10.414062 17.050781 10.21875 16.046875 10.171875 15 Z M 12.855469 18.523438 C 12.9375 19.09375 13.042969 19.625 13.160156 20.109375 C 13.296875 20.644531 13.445312 21.097656 13.613281 21.46875 C 12.878906 21.136719 12.203125 20.542969 11.636719 19.714844 C 11.449219 19.445312 11.28125 19.15625 11.128906 18.855469 C 11.675781 18.710938 12.253906 18.601562 12.855469 18.523438 Z M 16.386719 21.46875 C 16.554688 21.097656 16.703125 20.644531 16.839844 20.109375 C 16.957031 19.625 17.0625 19.09375 17.144531 18.523438 C 17.746094 18.601562 18.324219 18.710938 18.871094 18.855469 C 18.71875 19.15625 18.550781 19.445312 18.363281 19.714844 C 17.796875 20.542969 17.121094 21.136719 16.386719 21.46875 Z M 17.265625 17.5625 C 17.351562 16.753906 17.402344 15.890625 17.414062 15 L 19.828125 15 C 19.78125 16.046875 19.585938 17.050781 19.257812 17.957031 C 18.628906 17.785156 17.960938 17.652344 17.265625 17.5625 Z M 20.796875 15 L 22.242188 15 C 22.15625 16.316406 21.714844 17.542969 21.015625 18.574219 C 20.746094 18.457031 20.46875 18.34375 20.179688 18.242188 C 20.539062 17.242188 20.75 16.144531 20.796875 15 Z M 20.398438 9.667969 C 20.207031 9.75 20.011719 9.824219 19.808594 9.894531 C 19.617188 9.496094 19.402344 9.117188 19.164062 8.769531 C 19.070312 8.636719 18.976562 8.507812 18.882812 8.386719 C 19.445312 8.742188 19.953125 9.175781 20.398438 9.667969 Z M 11.117188 8.386719 C 11.023438 8.507812 10.929688 8.636719 10.835938 8.769531 C 10.597656 9.117188 10.382812 9.496094 10.191406 9.894531 C 9.988281 9.824219 9.792969 9.746094 9.601562 9.667969 C 10.046875 9.175781 10.558594 8.742188 11.117188 8.386719 Z M 9.601562 19.363281 C 9.792969 19.28125 9.988281 19.207031 10.191406 19.136719 C 10.382812 19.535156 10.597656 19.914062 10.835938 20.265625 C 10.929688 20.398438 11.023438 20.523438 11.117188 20.644531 C 10.554688 20.289062 10.046875 19.855469 9.601562 19.363281 Z M 18.882812 20.644531 C 18.976562 20.523438 19.070312 20.398438 19.164062 20.265625 C 19.402344 19.914062 19.617188 19.535156 19.808594 19.136719 C 20.011719 19.207031 20.207031 19.28125 20.398438 19.363281 C 19.953125 19.855469 19.445312 20.289062 18.882812 20.644531 Z M 23.710938 27.738281 L 23.710938 27.097656 C 23.710938 26.296875 24.359375 25.644531 25.160156 25.644531 C 25.960938 25.644531 26.613281 26.296875 26.613281 27.097656 L 26.613281 27.738281 C 26.171875 27.945312 25.679688 28.066406 25.160156 28.066406 C 24.640625 28.066406 24.148438 27.945312 23.710938 27.738281 Z M 24.195312 23.710938 C 24.195312 23.175781 24.628906 22.742188 25.160156 22.742188 C 25.695312 22.742188 26.128906 23.175781 26.128906 23.710938 C 26.128906 24.242188 25.695312 24.675781 25.160156 24.675781 C 24.628906 24.675781 24.195312 24.242188 24.195312 23.710938 Z M 27.578125 27.046875 C 27.5625 26.234375 27.144531 25.519531 26.515625 25.09375 C 26.875 24.742188 27.097656 24.25 27.097656 23.710938 C 27.097656 22.640625 26.230469 21.773438 25.160156 21.773438 C 24.09375 21.773438 23.226562 22.640625 23.226562 23.710938 C 23.226562 24.25 23.449219 24.742188 23.808594 25.09375 C 23.179688 25.519531 22.761719 26.234375 22.742188 27.046875 C 22.144531 26.433594 21.773438 25.597656 21.773438 24.675781 C 21.773438 22.808594 23.292969 21.289062 25.160156 21.289062 C 27.027344 21.289062 28.546875 22.808594 28.546875 24.675781 C 28.546875 25.597656 28.179688 26.433594 27.578125 27.046875 Z M 9.730469 3.171875 L 10.695312 1.234375 C 10.816406 0.996094 11.105469 0.898438 11.34375 1.019531 C 11.585938 1.136719 11.679688 1.429688 11.5625 1.667969 L 11.125 2.546875 C 12.371094 2.140625 13.671875 1.933594 15 1.933594 C 16.5625 1.933594 18.085938 2.21875 19.527344 2.777344 C 19.777344 2.871094 19.902344 3.152344 19.804688 3.402344 C 19.730469 3.59375 19.550781 3.710938 19.355469 3.710938 C 19.296875 3.710938 19.238281 3.699219 19.179688 3.679688 C 17.847656 3.164062 16.441406 2.902344 15 2.902344 C 13.769531 2.902344 12.5625 3.09375 11.410156 3.46875 L 12.3125 3.921875 C 12.550781 4.042969 12.648438 4.332031 12.53125 4.570312 C 12.445312 4.742188 12.273438 4.839844 12.097656 4.839844 C 12.023438 4.839844 11.949219 4.824219 11.878906 4.789062 L 9.945312 3.820312 C 9.707031 3.699219 9.609375 3.410156 9.730469 3.171875 Z M 20.269531 25.863281 L 19.304688 27.796875 C 19.21875 27.964844 19.046875 28.066406 18.871094 28.066406 C 18.796875 28.066406 18.722656 28.046875 18.65625 28.011719 C 18.414062 27.894531 18.320312 27.601562 18.4375 27.363281 L 18.875 26.488281 C 17.628906 26.890625 16.328125 27.097656 15 27.097656 C 13.4375 27.097656 11.914062 26.8125 10.472656 26.257812 C 10.222656 26.160156 10.097656 25.878906 10.195312 25.632812 C 10.289062 25.382812 10.570312 25.257812 10.820312 25.355469 C 12.152344 25.867188 13.558594 26.128906 15 26.128906 C 16.230469 26.128906 17.4375 25.9375 18.589844 25.5625 L 17.6875 25.109375 C 17.449219 24.992188 17.351562 24.699219 17.46875 24.460938 C 17.589844 24.222656 17.878906 24.125 18.121094 24.246094 L 20.054688 25.210938 C 20.292969 25.332031 20.390625 25.621094 20.269531 25.863281 Z M 27.847656 11.078125 L 26.972656 10.640625 C 27.375 11.886719 27.582031 13.1875 27.582031 14.515625 C 27.582031 16.078125 27.296875 17.601562 26.742188 19.046875 C 26.667969 19.238281 26.484375 19.355469 26.289062 19.355469 C 26.230469 19.355469 26.171875 19.34375 26.113281 19.324219 C 25.867188 19.226562 25.742188 18.945312 25.835938 18.695312 C 26.351562 17.363281 26.613281 15.957031 26.613281 14.515625 C 26.613281 13.285156 26.421875 12.082031 26.046875 10.925781 L 25.59375 11.828125 C 25.507812 12 25.339844 12.097656 25.160156 12.097656 C 25.089844 12.097656 25.015625 12.082031 24.945312 12.046875 C 24.707031 11.925781 24.609375 11.636719 24.730469 11.398438 L 25.695312 9.460938 C 25.816406 9.222656 26.105469 9.125 26.34375 9.246094 L 28.28125 10.210938 C 28.519531 10.332031 28.617188 10.621094 28.496094 10.863281 C 28.378906 11.101562 28.085938 11.199219 27.847656 11.078125 Z M 2.152344 17.953125 L 3.027344 18.394531 C 2.625 17.144531 2.417969 15.84375 2.417969 14.515625 C 2.417969 12.953125 2.703125 11.429688 3.257812 9.988281 C 3.355469 9.738281 3.636719 9.613281 3.886719 9.710938 C 4.132812 9.804688 4.257812 10.085938 4.164062 10.335938 C 3.648438 11.667969 3.386719 13.074219 3.386719 14.515625 C 3.386719 15.746094 3.578125 16.953125 3.953125 18.109375 L 4.40625 17.203125 C 4.527344 16.964844 4.816406 16.867188 5.054688 16.988281 C 5.292969 17.105469 5.390625 17.398438 5.269531 17.636719 L 4.304688 19.570312 C 4.21875 19.742188 4.046875 19.839844 3.871094 19.839844 C 3.796875 19.839844 3.722656 19.824219 3.65625 19.789062 L 1.71875 18.820312 C 1.480469 18.699219 1.382812 18.410156 1.503906 18.171875 C 1.621094 17.933594 1.914062 17.835938 2.152344 17.953125 Z M 2.152344 17.953125 " clip-rule="nonzero"/></clipPath><linearGradient x1="16.00001" gradientTransform="matrix(0.0604839, 0, 0, 0.0604839, -0.483871, -0.96774)" y1="495.99999" x2="495.99999" gradientUnits="userSpaceOnUse" y2="16.00001" id="47da2019db"><stop stop-opacity="1" stop-color="rgb(91.799927%, 88.999939%, 82.398987%)" offset="0"/><stop stop-opacity="1" stop-color="rgb(91.799927%, 88.999939%, 82.398987%)" offset="0.03125"/><stop stop-opacity="1" stop-color="rgb(91.799927%, 88.999939%, 82.398987%)" offset="0.0390625"/><stop stop-opacity="1" stop-color="rgb(91.55426%, 88.825989%, 82.392883%)" offset="0.0429687"/><stop stop-opacity="1" stop-color="rgb(91.31012%, 88.653564%, 82.38678%)" offset="0.046875"/><stop stop-opacity="1" stop-color="rgb(90.649414%, 88.188171%, 82.369995%)" offset="0.0507812"/><stop stop-opacity="1" stop-color="rgb(89.990234%, 87.722778%, 82.35321%)" offset="0.0546875"/><stop stop-opacity="1" stop-color="rgb(89.329529%, 87.255859%, 82.336426%)" offset="0.0585937"/><stop stop-opacity="1" stop-color="rgb(88.670349%, 86.790466%, 82.319641%)" offset="0.0625"/><stop stop-opacity="1" stop-color="rgb(88.009644%, 86.323547%, 82.302856%)" offset="0.0664062"/><stop stop-opacity="1" stop-color="rgb(87.350464%, 85.858154%, 82.286072%)" offset="0.0703125"/><stop stop-opacity="1" stop-color="rgb(86.689758%, 85.392761%, 82.269287%)" offset="0.0742187"/><stop stop-opacity="1" stop-color="rgb(86.030579%, 84.927368%, 82.252502%)" offset="0.078125"/><stop stop-opacity="1" stop-color="rgb(85.369873%, 84.460449%, 82.235718%)" offset="0.0820312"/><stop stop-opacity="1" stop-color="rgb(84.710693%, 83.995056%, 82.218933%)" offset="0.0859375"/><stop stop-opacity="1" stop-color="rgb(84.049988%, 83.528137%, 82.202148%)" offset="0.0898437"/><stop stop-opacity="1" stop-color="rgb(83.390808%, 83.062744%, 82.185364%)" offset="0.09375"/><stop stop-opacity="1" stop-color="rgb(82.730103%, 82.595825%, 82.168579%)" offset="0.0976562"/><stop stop-opacity="1" stop-color="rgb(82.070923%, 82.130432%, 82.15332%)" offset="0.101562"/><stop stop-opacity="1" stop-color="rgb(81.410217%, 81.665039%, 82.136536%)" offset="0.105469"/><stop stop-opacity="1" stop-color="rgb(80.751038%, 81.199646%, 82.119751%)" offset="0.109375"/><stop stop-opacity="1" stop-color="rgb(80.090332%, 80.732727%, 82.102966%)" offset="0.113281"/><stop stop-opacity="1" stop-color="rgb(79.429626%, 80.267334%, 82.086182%)" offset="0.117187"/><stop stop-opacity="1" stop-color="rgb(78.768921%, 79.800415%, 82.069397%)" offset="0.121094"/><stop stop-opacity="1" stop-color="rgb(78.109741%, 79.335022%, 82.052612%)" offset="0.125"/><stop stop-opacity="1" stop-color="rgb(77.449036%, 78.869629%, 82.035828%)" offset="0.128906"/><stop stop-opacity="1" stop-color="rgb(76.789856%, 78.404236%, 82.019043%)" offset="0.132812"/><stop stop-opacity="1" stop-color="rgb(76.12915%, 77.937317%, 82.002258%)" offset="0.136719"/><stop stop-opacity="1" stop-color="rgb(75.469971%, 77.471924%, 81.985474%)" offset="0.140625"/><stop stop-opacity="1" stop-color="rgb(74.809265%, 77.005005%, 81.968689%)" offset="0.144531"/><stop stop-opacity="1" stop-color="rgb(74.150085%, 76.539612%, 81.951904%)" offset="0.148437"/><stop stop-opacity="1" stop-color="rgb(73.48938%, 76.072693%, 81.93512%)" offset="0.152344"/><stop stop-opacity="1" stop-color="rgb(72.8302%, 75.6073%, 81.918335%)" offset="0.15625"/><stop stop-opacity="1" stop-color="rgb(72.169495%, 75.141907%, 81.90155%)" offset="0.160156"/><stop stop-opacity="1" stop-color="rgb(71.510315%, 74.676514%, 81.884766%)" offset="0.164062"/><stop stop-opacity="1" stop-color="rgb(70.849609%, 74.209595%, 81.867981%)" offset="0.167969"/><stop stop-opacity="1" stop-color="rgb(70.19043%, 73.744202%, 81.851196%)" offset="0.171875"/><stop stop-opacity="1" stop-color="rgb(69.529724%, 73.277283%, 81.834412%)" offset="0.175781"/><stop stop-opacity="1" stop-color="rgb(68.870544%, 72.81189%, 81.817627%)" offset="0.179687"/><stop stop-opacity="1" stop-color="rgb(68.209839%, 72.344971%, 81.800842%)" offset="0.183594"/><stop stop-opacity="1" stop-color="rgb(67.550659%, 71.879578%, 81.784058%)" offset="0.1875"/><stop stop-opacity="1" stop-color="rgb(66.889954%, 71.414185%, 81.767273%)" offset="0.191406"/><stop stop-opacity="1" stop-color="rgb(66.229248%, 70.948792%, 81.750488%)" offset="0.195312"/><stop stop-opacity="1" stop-color="rgb(65.568542%, 70.481873%, 81.733704%)" offset="0.199219"/><stop stop-opacity="1" stop-color="rgb(64.909363%, 70.016479%, 81.716919%)" offset="0.203125"/><stop stop-opacity="1" stop-color="rgb(64.248657%, 69.549561%, 81.700134%)" offset="0.207031"/><stop stop-opacity="1" stop-color="rgb(63.589478%, 69.084167%, 81.684875%)" offset="0.210937"/><stop stop-opacity="1" stop-color="rgb(62.928772%, 68.618774%, 81.668091%)" offset="0.214844"/><stop stop-opacity="1" stop-color="rgb(62.269592%, 68.153381%, 81.651306%)" offset="0.21875"/><stop stop-opacity="1" stop-color="rgb(61.608887%, 67.686462%, 81.634521%)" offset="0.222656"/><stop stop-opacity="1" stop-color="rgb(60.949707%, 67.221069%, 81.617737%)" offset="0.226562"/><stop stop-opacity="1" stop-color="rgb(60.289001%, 66.75415%, 81.600952%)" offset="0.230469"/><stop stop-opacity="1" stop-color="rgb(59.629822%, 66.288757%, 81.584167%)" offset="0.234375"/><stop stop-opacity="1" stop-color="rgb(58.969116%, 65.821838%, 81.567383%)" offset="0.238281"/><stop stop-opacity="1" stop-color="rgb(58.309937%, 65.356445%, 81.550598%)" offset="0.242188"/><stop stop-opacity="1" stop-color="rgb(57.649231%, 64.891052%, 81.533813%)" offset="0.246094"/><stop stop-opacity="1" stop-color="rgb(56.990051%, 64.425659%, 81.517029%)" offset="0.25"/><stop stop-opacity="1" stop-color="rgb(56.329346%, 63.95874%, 81.500244%)" offset="0.253906"/><stop stop-opacity="1" stop-color="rgb(55.670166%, 63.493347%, 81.483459%)" offset="0.257812"/><stop stop-opacity="1" stop-color="rgb(55.00946%, 63.026428%, 81.466675%)" offset="0.261719"/><stop stop-opacity="1" stop-color="rgb(54.350281%, 62.561035%, 81.44989%)" offset="0.265625"/><stop stop-opacity="1" stop-color="rgb(53.689575%, 62.095642%, 81.433105%)" offset="0.269531"/><stop stop-opacity="1" stop-color="rgb(53.02887%, 61.630249%, 81.416321%)" offset="0.273438"/><stop stop-opacity="1" stop-color="rgb(52.368164%, 61.16333%, 81.399536%)" offset="0.277344"/><stop stop-opacity="1" stop-color="rgb(51.708984%, 60.697937%, 81.382751%)" offset="0.28125"/><stop stop-opacity="1" stop-color="rgb(51.048279%, 60.231018%, 81.365967%)" offset="0.285156"/><stop stop-opacity="1" stop-color="rgb(50.389099%, 59.765625%, 81.349182%)" offset="0.289062"/><stop stop-opacity="1" stop-color="rgb(49.728394%, 59.298706%, 81.332397%)" offset="0.292969"/><stop stop-opacity="1" stop-color="rgb(49.069214%, 58.833313%, 81.315613%)" offset="0.296875"/><stop stop-opacity="1" stop-color="rgb(48.408508%, 58.36792%, 81.298828%)" offset="0.300781"/><stop stop-opacity="1" stop-color="rgb(47.749329%, 57.902527%, 81.282043%)" offset="0.304687"/><stop stop-opacity="1" stop-color="rgb(47.088623%, 57.435608%, 81.265259%)" offset="0.308594"/><stop stop-opacity="1" stop-color="rgb(46.429443%, 56.970215%, 81.248474%)" offset="0.3125"/><stop stop-opacity="1" stop-color="rgb(45.768738%, 56.503296%, 81.231689%)" offset="0.316406"/><stop stop-opacity="1" stop-color="rgb(45.109558%, 56.037903%, 81.216431%)" offset="0.320312"/><stop stop-opacity="1" stop-color="rgb(44.448853%, 55.570984%, 81.199646%)" offset="0.324219"/><stop stop-opacity="1" stop-color="rgb(43.789673%, 55.105591%, 81.182861%)" offset="0.328125"/><stop stop-opacity="1" stop-color="rgb(43.128967%, 54.640198%, 81.166077%)" offset="0.332031"/><stop stop-opacity="1" stop-color="rgb(42.469788%, 54.174805%, 81.149292%)" offset="0.335937"/><stop stop-opacity="1" stop-color="rgb(41.809082%, 53.707886%, 81.132507%)" offset="0.339844"/><stop stop-opacity="1" stop-color="rgb(41.149902%, 53.242493%, 81.115723%)" offset="0.34375"/><stop stop-opacity="1" stop-color="rgb(40.489197%, 52.775574%, 81.098938%)" offset="0.347656"/><stop stop-opacity="1" stop-color="rgb(39.828491%, 52.310181%, 81.082153%)" offset="0.351562"/><stop stop-opacity="1" stop-color="rgb(39.167786%, 51.844788%, 81.065369%)" offset="0.355469"/><stop stop-opacity="1" stop-color="rgb(38.508606%, 51.379395%, 81.048584%)" offset="0.359375"/><stop stop-opacity="1" stop-color="rgb(37.8479%, 50.912476%, 81.031799%)" offset="0.363281"/><stop stop-opacity="1" stop-color="rgb(37.188721%, 50.447083%, 81.015015%)" offset="0.367187"/><stop stop-opacity="1" stop-color="rgb(36.528015%, 49.980164%, 80.99823%)" offset="0.371094"/><stop stop-opacity="1" stop-color="rgb(35.868835%, 49.514771%, 80.981445%)" offset="0.375"/><stop stop-opacity="1" stop-color="rgb(35.20813%, 49.047852%, 80.964661%)" offset="0.378906"/><stop stop-opacity="1" stop-color="rgb(34.54895%, 48.582458%, 80.947876%)" offset="0.382812"/><stop stop-opacity="1" stop-color="rgb(33.888245%, 48.117065%, 80.931091%)" offset="0.386719"/><stop stop-opacity="1" stop-color="rgb(33.229065%, 47.651672%, 80.914307%)" offset="0.390625"/><stop stop-opacity="1" stop-color="rgb(32.568359%, 47.184753%, 80.897522%)" offset="0.394531"/><stop stop-opacity="1" stop-color="rgb(31.90918%, 46.71936%, 80.880737%)" offset="0.398437"/><stop stop-opacity="1" stop-color="rgb(31.248474%, 46.252441%, 80.863953%)" offset="0.402344"/><stop stop-opacity="1" stop-color="rgb(30.589294%, 45.787048%, 80.847168%)" offset="0.40625"/><stop stop-opacity="1" stop-color="rgb(29.928589%, 45.320129%, 80.830383%)" offset="0.410156"/><stop stop-opacity="1" stop-color="rgb(29.269409%, 44.854736%, 80.813599%)" offset="0.414062"/><stop stop-opacity="1" stop-color="rgb(28.608704%, 44.389343%, 80.796814%)" offset="0.417969"/><stop stop-opacity="1" stop-color="rgb(27.949524%, 43.92395%, 80.780029%)" offset="0.421875"/><stop stop-opacity="1" stop-color="rgb(27.288818%, 43.457031%, 80.763245%)" offset="0.425781"/><stop stop-opacity="1" stop-color="rgb(26.628113%, 42.991638%, 80.747986%)" offset="0.429687"/><stop stop-opacity="1" stop-color="rgb(25.967407%, 42.524719%, 80.731201%)" offset="0.433594"/><stop stop-opacity="1" stop-color="rgb(25.308228%, 42.059326%, 80.714417%)" offset="0.4375"/><stop stop-opacity="1" stop-color="rgb(24.647522%, 41.593933%, 80.697632%)" offset="0.441406"/><stop stop-opacity="1" stop-color="rgb(23.988342%, 41.12854%, 80.680847%)" offset="0.445312"/><stop stop-opacity="1" stop-color="rgb(23.327637%, 40.661621%, 80.664062%)" offset="0.449219"/><stop stop-opacity="1" stop-color="rgb(22.668457%, 40.196228%, 80.647278%)" offset="0.453125"/><stop stop-opacity="1" stop-color="rgb(22.007751%, 39.729309%, 80.630493%)" offset="0.457031"/><stop stop-opacity="1" stop-color="rgb(21.348572%, 39.263916%, 80.613708%)" offset="0.460937"/><stop stop-opacity="1" stop-color="rgb(20.687866%, 38.796997%, 80.596924%)" offset="0.464844"/><stop stop-opacity="1" stop-color="rgb(20.028687%, 38.331604%, 80.580139%)" offset="0.46875"/><stop stop-opacity="1" stop-color="rgb(19.367981%, 37.866211%, 80.563354%)" offset="0.472656"/><stop stop-opacity="1" stop-color="rgb(18.708801%, 37.400818%, 80.54657%)" offset="0.476562"/><stop stop-opacity="1" stop-color="rgb(18.048096%, 36.933899%, 80.529785%)" offset="0.480469"/><stop stop-opacity="1" stop-color="rgb(17.388916%, 36.468506%, 80.513%)" offset="0.484375"/><stop stop-opacity="1" stop-color="rgb(16.72821%, 36.001587%, 80.496216%)" offset="0.488281"/><stop stop-opacity="1" stop-color="rgb(16.069031%, 35.536194%, 80.479431%)" offset="0.492187"/><stop stop-opacity="1" stop-color="rgb(15.408325%, 35.070801%, 80.462646%)" offset="0.496094"/><stop stop-opacity="1" stop-color="rgb(14.749146%, 34.605408%, 80.445862%)" offset="0.5"/><stop stop-opacity="1" stop-color="rgb(14.08844%, 34.138489%, 80.429077%)" offset="0.503906"/><stop stop-opacity="1" stop-color="rgb(13.427734%, 33.673096%, 80.412292%)" offset="0.507812"/><stop stop-opacity="1" stop-color="rgb(13.577271%, 33.778381%, 80.415344%)" offset="0.515625"/><stop stop-opacity="1" stop-color="rgb(14.421082%, 34.373474%, 80.436707%)" offset="0.519531"/><stop stop-opacity="1" stop-color="rgb(15.113831%, 34.863281%, 80.455017%)" offset="0.523437"/><stop stop-opacity="1" stop-color="rgb(15.80658%, 35.351562%, 80.471802%)" offset="0.527344"/><stop stop-opacity="1" stop-color="rgb(16.499329%, 35.839844%, 80.490112%)" offset="0.53125"/><stop stop-opacity="1" stop-color="rgb(17.190552%, 36.328125%, 80.506897%)" offset="0.535156"/><stop stop-opacity="1" stop-color="rgb(17.883301%, 36.817932%, 80.525208%)" offset="0.539062"/><stop stop-opacity="1" stop-color="rgb(18.57605%, 37.306213%, 80.541992%)" offset="0.542969"/><stop stop-opacity="1" stop-color="rgb(19.268799%, 37.796021%, 80.560303%)" offset="0.546875"/><stop stop-opacity="1" stop-color="rgb(19.961548%, 38.284302%, 80.577087%)" offset="0.550781"/><stop stop-opacity="1" stop-color="rgb(20.654297%, 38.774109%, 80.595398%)" offset="0.554687"/><stop stop-opacity="1" stop-color="rgb(21.34552%, 39.26239%, 80.612183%)" offset="0.558594"/><stop stop-opacity="1" stop-color="rgb(22.038269%, 39.750671%, 80.630493%)" offset="0.5625"/><stop stop-opacity="1" stop-color="rgb(22.731018%, 40.238953%, 80.647278%)" offset="0.566406"/><stop stop-opacity="1" stop-color="rgb(23.423767%, 40.72876%, 80.665588%)" offset="0.570312"/><stop stop-opacity="1" stop-color="rgb(24.116516%, 41.217041%, 80.682373%)" offset="0.574219"/><stop stop-opacity="1" stop-color="rgb(24.809265%, 41.706848%, 80.700684%)" offset="0.578125"/><stop stop-opacity="1" stop-color="rgb(25.500488%, 42.195129%, 80.717468%)" offset="0.582031"/><stop stop-opacity="1" stop-color="rgb(26.193237%, 42.684937%, 80.735779%)" offset="0.585937"/><stop stop-opacity="1" stop-color="rgb(26.885986%, 43.173218%, 80.752563%)" offset="0.589844"/><stop stop-opacity="1" stop-color="rgb(27.578735%, 43.661499%, 80.770874%)" offset="0.59375"/><stop stop-opacity="1" stop-color="rgb(28.271484%, 44.14978%, 80.787659%)" offset="0.597656"/><stop stop-opacity="1" stop-color="rgb(28.964233%, 44.639587%, 80.805969%)" offset="0.601562"/><stop stop-opacity="1" stop-color="rgb(29.655457%, 45.127869%, 80.822754%)" offset="0.605469"/><stop stop-opacity="1" stop-color="rgb(30.348206%, 45.617676%, 80.841064%)" offset="0.609375"/><stop stop-opacity="1" stop-color="rgb(31.040955%, 46.105957%, 80.857849%)" offset="0.613281"/><stop stop-opacity="1" stop-color="rgb(31.733704%, 46.595764%, 80.87616%)" offset="0.617187"/><stop stop-opacity="1" stop-color="rgb(32.424927%, 47.084045%, 80.892944%)" offset="0.621094"/><stop stop-opacity="1" stop-color="rgb(33.117676%, 47.573853%, 80.911255%)" offset="0.625"/><stop stop-opacity="1" stop-color="rgb(33.810425%, 48.062134%, 80.92804%)" offset="0.628906"/><stop stop-opacity="1" stop-color="rgb(34.503174%, 48.550415%, 80.94635%)" offset="0.632812"/><stop stop-opacity="1" stop-color="rgb(35.195923%, 49.038696%, 80.963135%)" offset="0.636719"/><stop stop-opacity="1" stop-color="rgb(35.888672%, 49.528503%, 80.981445%)" offset="0.640625"/><stop stop-opacity="1" stop-color="rgb(36.579895%, 50.016785%, 80.99823%)" offset="0.644531"/><stop stop-opacity="1" stop-color="rgb(37.272644%, 50.506592%, 81.016541%)" offset="0.648437"/><stop stop-opacity="1" stop-color="rgb(37.965393%, 50.994873%, 81.033325%)" offset="0.652344"/><stop stop-opacity="1" stop-color="rgb(38.658142%, 51.48468%, 81.051636%)" offset="0.65625"/><stop stop-opacity="1" stop-color="rgb(39.350891%, 51.972961%, 81.06842%)" offset="0.660156"/><stop stop-opacity="1" stop-color="rgb(40.04364%, 52.461243%, 81.086731%)" offset="0.664062"/><stop stop-opacity="1" stop-color="rgb(40.734863%, 52.949524%, 81.103516%)" offset="0.667969"/><stop stop-opacity="1" stop-color="rgb(41.427612%, 53.439331%, 81.121826%)" offset="0.671875"/><stop stop-opacity="1" stop-color="rgb(42.120361%, 53.927612%, 81.138611%)" offset="0.675781"/><stop stop-opacity="1" stop-color="rgb(42.81311%, 54.417419%, 81.156921%)" offset="0.679687"/><stop stop-opacity="1" stop-color="rgb(43.505859%, 54.905701%, 81.173706%)" offset="0.683594"/><stop stop-opacity="1" stop-color="rgb(44.198608%, 55.395508%, 81.192017%)" offset="0.6875"/><stop stop-opacity="1" stop-color="rgb(44.889832%, 55.883789%, 81.208801%)" offset="0.691406"/><stop stop-opacity="1" stop-color="rgb(45.582581%, 56.37207%, 81.227112%)" offset="0.695312"/><stop stop-opacity="1" stop-color="rgb(46.27533%, 56.860352%, 81.243896%)" offset="0.699219"/><stop stop-opacity="1" stop-color="rgb(46.968079%, 57.350159%, 81.262207%)" offset="0.703125"/><stop stop-opacity="1" stop-color="rgb(47.660828%, 57.83844%, 81.278992%)" offset="0.707031"/><stop stop-opacity="1" stop-color="rgb(48.353577%, 58.328247%, 81.297302%)" offset="0.710937"/><stop stop-opacity="1" stop-color="rgb(49.0448%, 58.816528%, 81.314087%)" offset="0.714844"/><stop stop-opacity="1" stop-color="rgb(49.737549%, 59.306335%, 81.332397%)" offset="0.71875"/><stop stop-opacity="1" stop-color="rgb(50.430298%, 59.794617%, 81.349182%)" offset="0.722656"/><stop stop-opacity="1" stop-color="rgb(51.123047%, 60.282898%, 81.367493%)" offset="0.726562"/><stop stop-opacity="1" stop-color="rgb(51.815796%, 60.771179%, 81.384277%)" offset="0.730469"/><stop stop-opacity="1" stop-color="rgb(52.508545%, 61.260986%, 81.402588%)" offset="0.734375"/><stop stop-opacity="1" stop-color="rgb(53.199768%, 61.749268%, 81.419373%)" offset="0.738281"/><stop stop-opacity="1" stop-color="rgb(53.892517%, 62.239075%, 81.437683%)" offset="0.742187"/><stop stop-opacity="1" stop-color="rgb(54.585266%, 62.727356%, 81.454468%)" offset="0.746094"/><stop stop-opacity="1" stop-color="rgb(55.278015%, 63.217163%, 81.472778%)" offset="0.75"/><stop stop-opacity="1" stop-color="rgb(55.969238%, 63.705444%, 81.489563%)" offset="0.753906"/><stop stop-opacity="1" stop-color="rgb(56.661987%, 64.193726%, 81.507874%)" offset="0.757812"/><stop stop-opacity="1" stop-color="rgb(57.354736%, 64.682007%, 81.524658%)" offset="0.761719"/><stop stop-opacity="1" stop-color="rgb(58.047485%, 65.171814%, 81.542969%)" offset="0.765625"/><stop stop-opacity="1" stop-color="rgb(58.740234%, 65.660095%, 81.559753%)" offset="0.769531"/><stop stop-opacity="1" stop-color="rgb(59.432983%, 66.149902%, 81.578064%)" offset="0.773437"/><stop stop-opacity="1" stop-color="rgb(60.124207%, 66.638184%, 81.594849%)" offset="0.777344"/><stop stop-opacity="1" stop-color="rgb(60.816956%, 67.127991%, 81.613159%)" offset="0.78125"/><stop stop-opacity="1" stop-color="rgb(61.509705%, 67.616272%, 81.629944%)" offset="0.785156"/><stop stop-opacity="1" stop-color="rgb(62.202454%, 68.104553%, 81.648254%)" offset="0.789062"/><stop stop-opacity="1" stop-color="rgb(62.895203%, 68.592834%, 81.665039%)" offset="0.792969"/><stop stop-opacity="1" stop-color="rgb(63.587952%, 69.082642%, 81.68335%)" offset="0.796875"/><stop stop-opacity="1" stop-color="rgb(64.279175%, 69.570923%, 81.70166%)" offset="0.800781"/><stop stop-opacity="1" stop-color="rgb(64.971924%, 70.06073%, 81.719971%)" offset="0.804687"/><stop stop-opacity="1" stop-color="rgb(65.664673%, 70.549011%, 81.736755%)" offset="0.808594"/><stop stop-opacity="1" stop-color="rgb(66.357422%, 71.038818%, 81.755066%)" offset="0.8125"/><stop stop-opacity="1" stop-color="rgb(67.050171%, 71.5271%, 81.771851%)" offset="0.816406"/><stop stop-opacity="1" stop-color="rgb(67.74292%, 72.015381%, 81.790161%)" offset="0.820312"/><stop stop-opacity="1" stop-color="rgb(68.434143%, 72.503662%, 81.806946%)" offset="0.824219"/><stop stop-opacity="1" stop-color="rgb(69.126892%, 72.993469%, 81.825256%)" offset="0.828125"/><stop stop-opacity="1" stop-color="rgb(69.819641%, 73.48175%, 81.842041%)" offset="0.832031"/><stop stop-opacity="1" stop-color="rgb(70.51239%, 73.971558%, 81.860352%)" offset="0.835937"/><stop stop-opacity="1" stop-color="rgb(71.205139%, 74.459839%, 81.877136%)" offset="0.839844"/><stop stop-opacity="1" stop-color="rgb(71.897888%, 74.949646%, 81.895447%)" offset="0.84375"/><stop stop-opacity="1" stop-color="rgb(72.589111%, 75.437927%, 81.912231%)" offset="0.847656"/><stop stop-opacity="1" stop-color="rgb(73.28186%, 75.927734%, 81.930542%)" offset="0.851562"/><stop stop-opacity="1" stop-color="rgb(73.974609%, 76.416016%, 81.947327%)" offset="0.855469"/><stop stop-opacity="1" stop-color="rgb(74.667358%, 76.904297%, 81.965637%)" offset="0.859375"/><stop stop-opacity="1" stop-color="rgb(75.358582%, 77.392578%, 81.982422%)" offset="0.863281"/><stop stop-opacity="1" stop-color="rgb(76.051331%, 77.882385%, 82.000732%)" offset="0.867187"/><stop stop-opacity="1" stop-color="rgb(76.74408%, 78.370667%, 82.017517%)" offset="0.871094"/><stop stop-opacity="1" stop-color="rgb(77.436829%, 78.860474%, 82.035828%)" offset="0.875"/><stop stop-opacity="1" stop-color="rgb(78.129578%, 79.348755%, 82.052612%)" offset="0.878906"/><stop stop-opacity="1" stop-color="rgb(78.822327%, 79.838562%, 82.070923%)" offset="0.882812"/><stop stop-opacity="1" stop-color="rgb(79.51355%, 80.326843%, 82.087708%)" offset="0.886719"/><stop stop-opacity="1" stop-color="rgb(80.206299%, 80.815125%, 82.106018%)" offset="0.890625"/><stop stop-opacity="1" stop-color="rgb(80.899048%, 81.303406%, 82.122803%)" offset="0.894531"/><stop stop-opacity="1" stop-color="rgb(81.591797%, 81.793213%, 82.141113%)" offset="0.898437"/><stop stop-opacity="1" stop-color="rgb(82.284546%, 82.281494%, 82.157898%)" offset="0.902344"/><stop stop-opacity="1" stop-color="rgb(82.977295%, 82.771301%, 82.176208%)" offset="0.90625"/><stop stop-opacity="1" stop-color="rgb(83.668518%, 83.259583%, 82.192993%)" offset="0.910156"/><stop stop-opacity="1" stop-color="rgb(84.361267%, 83.74939%, 82.211304%)" offset="0.914062"/><stop stop-opacity="1" stop-color="rgb(85.054016%, 84.237671%, 82.228088%)" offset="0.917969"/><stop stop-opacity="1" stop-color="rgb(85.746765%, 84.725952%, 82.246399%)" offset="0.921875"/><stop stop-opacity="1" stop-color="rgb(86.439514%, 85.214233%, 82.263184%)" offset="0.925781"/><stop stop-opacity="1" stop-color="rgb(87.132263%, 85.704041%, 82.281494%)" offset="0.929688"/><stop stop-opacity="1" stop-color="rgb(87.823486%, 86.192322%, 82.298279%)" offset="0.933594"/><stop stop-opacity="1" stop-color="rgb(88.516235%, 86.682129%, 82.316589%)" offset="0.9375"/><stop stop-opacity="1" stop-color="rgb(89.208984%, 87.17041%, 82.333374%)" offset="0.941406"/><stop stop-opacity="1" stop-color="rgb(89.901733%, 87.660217%, 82.351685%)" offset="0.945312"/><stop stop-opacity="1" stop-color="rgb(90.594482%, 88.148499%, 82.368469%)" offset="0.949219"/><stop stop-opacity="1" stop-color="rgb(91.287231%, 88.63678%, 82.38678%)" offset="0.953125"/><stop stop-opacity="1" stop-color="rgb(91.543579%, 88.818359%, 82.392883%)" offset="0.957031"/><stop stop-opacity="1" stop-color="rgb(91.799927%, 88.999939%, 82.398987%)" offset="0.960937"/><stop stop-opacity="1" stop-color="rgb(91.799927%, 88.999939%, 82.398987%)" offset="0.96875"/><stop stop-opacity="1" stop-color="rgb(91.799927%, 88.999939%, 82.398987%)" offset="1"/></linearGradient></defs><g clip-path="url(#a5283390ed)"><g clip-path="url(#4c8709d8a6)"><path fill="url(#47da2019db)" d="M 0.484375 0 L 0.484375 29.03125 L 29.515625 29.03125 L 29.515625 0 Z M 0.484375 0 " fill-rule="nonzero"/></g></g></svg>